<?xml version="1.0" standalone="no"?>
<!DOCTYPE svg PUBLIC "-//W3C//DTD SVG 1.1//EN" "http://www.w3.org/Graphics/SVG/1.1/DTD/svg11.dtd" >
<svg>
<metadata>
Created by FontForge 20120731 at Wed Jun  6 21:26:59 2018
 By www-data
Copyright 1993, 1994, 2001, 2002 Adobe Systems Incorporated. All rights reserved. ITC and Avant Garde are trademarks of International Typeface Corporation registered in the U.S. Patent and Trademark Office and may be registered in certain other jurisdictions.
</metadata>
<defs>
<font id="ITCAvantGardeStd-Bk" horiz-adv-x="555" >
  <font-face 
	font-family="ITC Avant Garde Gothic Std Book"
	font-weight="300"
	font-stretch="normal"
	units-per-em="1000"
	panose-1="2 11 5 2 2 2 2 2 2 4"
	ascent="740"
	descent="-260"
	x-height="538"
	cap-height="740"
	bbox="-131 -271 1120 968"
	underline-thickness="50"
	underline-position="-50"
	stemh="69"
	stemv="74"
	unicode-range="U+0020-FB02"
  />
<missing-glyph horiz-adv-x="500" 
d="M0 0v700h500v-700h-500zM250 395l170 255h-340zM280 350l170 -255v510zM80 50h340l-170 255zM50 605v-510l170 255z" />
	<glyph glyph-name="f_i" unicode="fi" horiz-adv-x="462" 
d="M316 479h-158v-479h-73v479h-79v59h79v44c0 166 131 171 189 171v-59c-37 -2 -116 -2 -116 -119v-37h232v-538h-74v479zM390 637h-74v103h74v-103z" />
	<glyph glyph-name="f_l" unicode="fl" horiz-adv-x="462" 
d="M316 479h-158v-479h-73v479h-79v59h79v44c0 166 131 171 189 171v-59c-37 -2 -116 -2 -116 -119v-37h158v202h74v-740h-74v479z" />
	<glyph glyph-name=".notdef" horiz-adv-x="500" 
d="M0 0v700h500v-700h-500zM250 395l170 255h-340zM280 350l170 -255v510zM80 50h340l-170 255zM50 605v-510l170 255z" />
	<glyph glyph-name="space" unicode=" " horiz-adv-x="288" 
 />
	<glyph glyph-name="exclam" unicode="!" horiz-adv-x="284" 
d="M180 740v-548h-76v548h76zM180 110v-110h-76v110h76z" />
	<glyph glyph-name="quotedbl" unicode="&#x22;" horiz-adv-x="376" 
d="M149 444h-61v296h61v-296zM288 444h-61v296h61v-296z" />
	<glyph glyph-name="numbersign" unicode="#" horiz-adv-x="576" 
d="M385 258l-31 -218h-53l30 218h-121l-30 -218h-55l31 218h-134l5 52h136l16 116h-134l5 52h137l28 200h54l-28 -200h121l28 200h54l-28 -200h138l-5 -52h-141l-16 -116h138l-5 -52h-140zM338 310l17 116h-121l-17 -116h121z" />
	<glyph glyph-name="dollar" unicode="$" horiz-adv-x="576" 
d="M324 810v-87c102 -15 151 -91 154 -171h-72c-8 78 -69 111 -114 111c-57 0 -112 -45 -112 -115c0 -84 67 -105 153 -132c76 -26 162 -78 162 -189c0 -88 -65 -176 -171 -193v-97h-65v97c-106 11 -173 95 -177 192h77c6 -89 72 -131 133 -131c71 0 126 58 126 126
c0 98 -86 124 -169 149c-57 17 -146 55 -146 172c0 101 70 166 156 181v87h65z" />
	<glyph glyph-name="percent" unicode="%" horiz-adv-x="765" 
d="M27 585v1c0 95 73 168 168 168c96 0 169 -73 169 -169s-73 -169 -169 -169c-95 0 -168 73 -168 169zM82 585v-1c0 -65 47 -114 113 -114s113 48 113 115c0 66 -47 115 -113 115s-113 -49 -113 -115zM401 155v1c0 95 73 168 169 168c95 0 168 -73 168 -169
s-73 -169 -168 -169c-96 0 -169 73 -169 169zM456 155v-1c0 -65 47 -114 114 -114c66 0 113 49 113 115c0 67 -47 116 -113 116c-67 0 -114 -50 -114 -116zM615 740l-408 -740h-59l407 740h60z" />
	<glyph glyph-name="ampersand" unicode="&#x26;" horiz-adv-x="733" 
d="M591 456h79l-131 -249l166 -169l-52 -50l-153 157c-50 -98 -105 -159 -224 -159c-136 0 -223 102 -223 210c0 123 105 188 178 222c-50 53 -90 98 -92 167c0 91 74 168 172 168c99 0 174 -77 174 -168c0 -100 -78 -140 -147 -174l151 -154zM312 689h-1
c-62 0 -99 -51 -99 -99c0 -58 47 -98 82 -134c80 39 121 64 121 130c0 54 -41 103 -103 103zM449 194l-171 177c-112 -52 -144 -110 -145 -170c1 -76 60 -143 147 -143c86 0 127 50 169 136z" />
	<glyph glyph-name="quoteright" unicode="&#x2019;" horiz-adv-x="289" 
d="M61 554l70 186h70l-78 -186h-62z" />
	<glyph glyph-name="parenleft" unicode="(" horiz-adv-x="441" 
d="M405 753v-84c-122 -70 -234 -230 -234 -427c0 -194 109 -355 234 -427v-86c-206 106 -315 307 -315 514c0 203 114 416 315 510z" />
	<glyph glyph-name="parenright" unicode=")" horiz-adv-x="441" 
d="M36 -271v84c122 71 233 230 233 428c0 193 -109 355 -233 427v85c206 -106 314 -306 314 -513c0 -203 -113 -417 -314 -511z" />
	<glyph glyph-name="asterisk" unicode="*" horiz-adv-x="605" 
d="M330 740l-10 -133l110 76l26 -48l-118 -56l119 -58l-27 -48l-111 76l11 -133h-55l11 134l-109 -77l-29 49l120 57l-120 55l28 49l110 -76l-11 133h55z" />
	<glyph glyph-name="plus" unicode="+" horiz-adv-x="600" 
d="M336 503v-216h215v-72h-215v-215h-72v215h-215v72h215v216h72z" />
	<glyph glyph-name="comma" unicode="," horiz-adv-x="289" 
d="M185 111l-75 -186h-67l63 186h79z" />
	<glyph glyph-name="hyphen" unicode="-" horiz-adv-x="271" 
d="M0 317h271v-73h-271v73z" />
	<glyph glyph-name="period" unicode="." horiz-adv-x="289" 
d="M184 110v-110h-78v110h78z" />
	<glyph glyph-name="slash" unicode="/" horiz-adv-x="543" 
d="M69 -100l322 840h83l-322 -840h-83z" />
	<glyph glyph-name="zero" unicode="0" horiz-adv-x="576" 
d="M37 237v260c0 214 178 256 250 256c119 0 251 -82 251 -250v-266c0 -195 -166 -250 -248 -250c-94 0 -253 60 -253 250zM120 501v-266c0 -104 73 -175 168 -175c77 0 168 60 168 175v270c0 73 -44 175 -170 175c-97 0 -166 -72 -166 -179z" />
	<glyph glyph-name="one" unicode="1" horiz-adv-x="576" 
d="M258 0v669h-149v71h232v-740h-83z" />
	<glyph glyph-name="two" unicode="2" horiz-adv-x="576" 
d="M55 0v67c82 79 163 159 244 238c68 64 140 126 144 217c0 97 -66 158 -152 158s-148 -67 -151 -180h-79c2 72 22 133 64 178c49 59 122 75 174 75c137 0 228 -100 226 -227c-3 -80 -40 -136 -113 -212c-81 -81 -162 -162 -244 -243h359v-71h-472z" />
	<glyph glyph-name="three" unicode="3" horiz-adv-x="576" 
d="M163 565h-81c5 134 113 188 200 188c106 0 192 -72 192 -182c0 -74 -44 -126 -102 -156c131 -45 149 -152 149 -198c0 -135 -104 -230 -243 -230c-73 0 -150 31 -195 90c-31 41 -45 92 -46 140h83c4 -99 80 -157 161 -157c98 0 157 72 157 159c0 79 -64 158 -174 158h-49
v64h37c106 0 140 77 140 121c0 67 -44 118 -111 118c-77 0 -114 -58 -118 -115z" />
	<glyph glyph-name="four" unicode="4" horiz-adv-x="576" 
d="M374 0v139h-366v63l361 538h85v-534h78v-67h-78v-139h-80zM94 206h284v434z" />
	<glyph glyph-name="five" unicode="5" horiz-adv-x="576" 
d="M133 740h357v-71h-293l-42 -220c26 18 66 46 140 46c153 0 246 -128 246 -250c0 -134 -107 -259 -260 -259c-117 0 -240 79 -258 225h83c15 -96 97 -151 174 -151c95 0 178 82 178 182c0 102 -81 184 -179 184c-33 0 -94 -9 -145 -79l-68 17z" />
	<glyph glyph-name="six" unicode="6" horiz-adv-x="576" 
d="M304 740h94l-148 -215c-11 -17 -23 -34 -35 -52c18 12 54 26 94 26c122 0 238 -95 238 -250c0 -145 -111 -262 -258 -262c-88 0 -157 34 -200 88c-43 49 -60 115 -60 168c0 83 32 141 65 190zM111 239v-1c0 -98 70 -178 175 -178c104 0 178 82 178 182
c0 118 -88 184 -174 184c-78 0 -179 -57 -179 -187z" />
	<glyph glyph-name="seven" unicode="7" horiz-adv-x="576" 
d="M80 740h422v-66l-307 -674h-89l310 669h-336v71z" />
	<glyph glyph-name="eight" unicode="8" horiz-adv-x="576" 
d="M85 569v1c0 94 80 183 203 183c122 0 202 -86 202 -184c0 -74 -47 -130 -96 -154c82 -30 132 -107 134 -197c-2 -131 -105 -231 -240 -231c-136 0 -238 100 -240 231c1 89 50 166 133 197c-49 24 -96 80 -96 154zM166 563v-1c0 -67 54 -120 122 -120c67 0 121 53 121 121
c0 69 -54 122 -121 122c-68 0 -122 -53 -122 -122zM130 218v-1c0 -85 68 -157 158 -157c89 0 157 72 157 158s-67 159 -157 159c-91 0 -158 -73 -158 -159z" />
	<glyph glyph-name="nine" unicode="9" horiz-adv-x="576" 
d="M272 0h-94l148 215c12 18 24 35 36 52c-19 -12 -55 -26 -94 -26c-122 0 -239 95 -239 250c0 145 112 262 259 262c87 0 157 -34 200 -88c42 -49 60 -115 60 -168c0 -83 -33 -141 -65 -190zM466 501v1c0 98 -71 178 -176 178c-103 0 -178 -82 -178 -182
c0 -117 89 -184 174 -184c78 0 180 57 180 187z" />
	<glyph glyph-name="colon" unicode=":" horiz-adv-x="289" 
d="M184 538v-110h-78v110h78zM184 110v-110h-78v110h78z" />
	<glyph glyph-name="semicolon" unicode=";" horiz-adv-x="289" 
d="M183 538v-110h-77v110h77zM185 111l-78 -186h-64l63 186h79z" />
	<glyph glyph-name="less" unicode="&#x3c;" horiz-adv-x="600" 
d="M49 288l502 228v-79l-425 -186l425 -185v-79l-502 228v73z" />
	<glyph glyph-name="equal" unicode="=" horiz-adv-x="600" 
d="M49 395h502v-71h-502v71zM49 178h502v-71h-502v71z" />
	<glyph glyph-name="greater" unicode="&#x3e;" horiz-adv-x="600" 
d="M49 66l425 186l-425 185v79l502 -228v-73l-502 -228v79z" />
	<glyph glyph-name="question" unicode="?" 
d="M302 189h-78c2 67 16 124 96 200c51 52 89 86 91 148c0 76 -56 139 -140 139c-66 0 -132 -40 -145 -124c-2 -9 -2 -18 -2 -27h-81c0 9 0 16 1 24c13 141 130 204 230 204c125 0 221 -94 221 -210c0 -85 -62 -142 -117 -194c-73 -70 -75 -120 -76 -160zM301 110v-110h-77
v110h77z" />
	<glyph glyph-name="at" unicode="@" horiz-adv-x="780" 
d="M683 162l24 -30c-74 -109 -216 -146 -298 -146c-238 0 -383 187 -383 379c0 209 162 389 387 389c178 0 347 -120 347 -317c0 -180 -140 -277 -222 -277c-29 0 -81 13 -86 74c-24 -35 -60 -71 -125 -71c-51 0 -124 39 -124 146c0 127 94 262 207 262c61 0 89 -32 105 -75
l18 60h54l-77 -254c-1 -7 -10 -33 -11 -50c-1 -38 28 -43 46 -43c60 0 165 82 165 227c0 176 -149 270 -294 270c-187 0 -337 -146 -337 -342c0 -170 126 -330 330 -330c94 0 210 38 274 128zM258 310v-1c0 -77 46 -97 79 -97c78 0 113 70 126 111c9 24 33 81 33 113
c-1 58 -44 86 -81 86c-74 0 -157 -97 -157 -212z" />
	<glyph glyph-name="A" unicode="A" horiz-adv-x="711" 
d="M182 208l-85 -208h-89l309 740h80l306 -740h-90l-86 208h-345zM502 276l-148 371l-147 -371h295z" />
	<glyph glyph-name="B" unicode="B" horiz-adv-x="575" 
d="M74 0v740h195c67 0 113 -12 146 -35c60 -34 80 -96 80 -154c0 -87 -49 -131 -99 -157c133 -41 142 -154 142 -188c-1 -80 -38 -140 -101 -173c-44 -27 -86 -33 -159 -33h-204zM156 667v-247h112c34 0 64 4 87 15c47 26 60 65 60 110c0 54 -29 91 -60 105
c-19 10 -44 16 -92 17h-107zM156 350v-277h134c30 0 63 3 90 14c44 19 77 57 78 123c0 60 -32 104 -79 125c-33 14 -58 15 -104 15h-119z" />
	<glyph glyph-name="C" unicode="C" horiz-adv-x="801" 
d="M677 199h89c-48 -114 -177 -212 -340 -212c-219 0 -386 169 -386 383c0 211 163 383 385 383c183 0 298 -122 341 -216h-89c-25 44 -109 143 -252 143c-173 0 -303 -137 -303 -309c0 -175 131 -311 303 -311c155 0 234 111 252 139z" />
	<glyph glyph-name="D" unicode="D" horiz-adv-x="715" 
d="M74 0v740h221c105 0 217 -23 291 -111c60 -66 89 -153 89 -258c0 -223 -127 -371 -376 -371h-225zM156 667v-594h147c190 0 289 117 289 295c0 86 -23 162 -72 216c-47 50 -116 83 -217 83h-147z" />
	<glyph glyph-name="E" unicode="E" horiz-adv-x="541" 
d="M74 0v740h410v-73h-328v-257h326v-73h-326v-264h328v-73h-410z" />
	<glyph glyph-name="F" unicode="F" horiz-adv-x="487" 
d="M74 0v740h376v-73h-294v-260h292v-74h-292v-333h-82z" />
	<glyph glyph-name="G" unicode="G" horiz-adv-x="853" 
d="M774 548h-94c-23 32 -51 59 -83 80c-48 33 -106 52 -172 52c-162 0 -303 -124 -303 -309c0 -188 142 -312 304 -312c78 0 147 27 198 67c52 41 88 97 100 155h-368v68h464c-1 -43 -11 -97 -33 -143c-64 -139 -212 -220 -361 -220c-216 0 -387 166 -387 385
c0 222 174 382 388 382c150 0 289 -84 347 -205z" />
	<glyph glyph-name="H" unicode="H" horiz-adv-x="670" 
d="M156 0h-82v740h82v-329h357v329h83v-740h-83v338h-357v-338z" />
	<glyph glyph-name="I" unicode="I" horiz-adv-x="231" 
d="M74 0v740h82v-740h-82z" />
	<glyph glyph-name="J" unicode="J" horiz-adv-x="494" 
d="M421 740v-501c0 -54 -3 -100 -20 -140c-13 -27 -34 -54 -61 -73c-39 -27 -86 -39 -128 -39c-56 0 -172 29 -200 151c-3 11 -5 23 -6 35h89c0 -5 1 -9 2 -15c22 -79 85 -98 119 -98c61 1 97 35 109 69c11 29 13 59 13 94v517h83z" />
	<glyph glyph-name="K" unicode="K" horiz-adv-x="593" 
d="M90 0v740h82v-358l301 358h90l-310 -369l341 -371h-103l-319 351v-351h-82z" />
	<glyph glyph-name="L" unicode="L" horiz-adv-x="444" 
d="M75 0v740h83v-667h282v-73h-365z" />
	<glyph glyph-name="M" unicode="M" horiz-adv-x="927" 
d="M151 0h-77v740h116l274 -621l273 621h116v-740h-78l2 658l-287 -658h-53l-288 658z" />
	<glyph glyph-name="N" unicode="N" horiz-adv-x="745" 
d="M158 740l434 -618l-1 618h80v-740h-80l-439 623l2 -623h-80v740h84z" />
	<glyph glyph-name="O" unicode="O" horiz-adv-x="851" 
d="M39 367v1c0 228 177 385 386 385c217 0 386 -166 386 -383s-168 -383 -386 -383c-219 0 -386 169 -386 380zM122 371v-1c0 -174 131 -310 304 -310c175 0 303 141 303 310s-128 310 -304 310c-174 0 -303 -138 -303 -309z" />
	<glyph glyph-name="P" unicode="P" horiz-adv-x="552" 
d="M67 740h195c104 0 153 -12 199 -47c49 -38 79 -107 79 -176c0 -70 -31 -141 -76 -176c-49 -38 -99 -50 -195 -50h-119v-291h-83v740zM150 667v-303h118c62 0 100 7 137 31c32 21 55 68 55 120c0 53 -23 100 -56 121c-37 24 -75 31 -138 31h-116z" />
	<glyph glyph-name="Q" unicode="Q" horiz-adv-x="877" 
d="M875 57v-70c-22 2 -42 4 -60 7c-79 10 -118 35 -156 61c-53 -35 -131 -69 -222 -69c-237 0 -388 185 -388 383c0 212 165 384 386 384s387 -170 387 -381c0 -149 -72 -228 -105 -265c45 -29 85 -42 158 -50zM435 680h-1c-159 0 -288 -118 -298 -285c-1 -45 5 -73 11 -93
c34 11 82 27 151 27c72 0 139 -17 199 -53c38 -22 57 -38 154 -117c59 54 89 130 89 213c0 180 -137 308 -305 308zM437 59h1c70 0 131 27 161 49c-20 19 -96 78 -102 84c-66 45 -134 66 -208 66c-59 0 -95 -13 -127 -25c70 -147 207 -174 275 -174z" />
	<glyph glyph-name="R" unicode="R" horiz-adv-x="587" 
d="M67 0v740h193c116 0 170 -14 208 -38c60 -36 101 -115 101 -199c1 -50 -13 -103 -44 -145c-44 -60 -97 -74 -165 -81l184 -277h-90l-209 323h24c52 0 124 1 164 38c39 38 56 83 56 136c0 55 -27 113 -73 143c-37 24 -83 27 -150 27h-116v-667h-83z" />
	<glyph glyph-name="S" unicode="S" horiz-adv-x="536" 
d="M38 206h83c12 -123 102 -149 148 -149c77 0 148 59 148 141c0 104 -89 127 -175 155c-60 18 -189 56 -189 196c-2 131 107 204 220 204c92 0 198 -51 210 -191h-82c-9 48 -33 121 -131 121c-74 0 -135 -50 -135 -127c-1 -90 72 -112 184 -150c70 -27 180 -66 180 -202
c0 -121 -91 -217 -229 -217c-124 0 -227 78 -232 219z" />
	<glyph glyph-name="T" unicode="T" horiz-adv-x="462" 
d="M189 0v667h-182v73h448v-73h-183v-667h-83z" />
	<glyph glyph-name="U" unicode="U" horiz-adv-x="636" 
d="M72 740h83v-469c0 -56 0 -99 35 -149c26 -37 75 -62 129 -62c53 0 102 24 127 61c35 49 35 92 35 150v469h82v-469c1 -86 -10 -171 -84 -228c-41 -35 -96 -56 -160 -56c-52 0 -117 15 -163 56c-78 63 -84 147 -84 228v469z" />
	<glyph glyph-name="V" unicode="V" horiz-adv-x="685" 
d="M302 0l-292 740h87l245 -633l246 633h87l-294 -740h-79z" />
	<glyph glyph-name="W" unicode="W" horiz-adv-x="919" 
d="M218 0l-205 740h85l168 -627l162 627h62l165 -627l166 627h84l-207 -740h-81l-158 601l-158 -601h-83z" />
	<glyph glyph-name="X" unicode="X" horiz-adv-x="623" 
d="M9 0l254 382l-238 358h95l191 -295l191 295h94l-237 -359l255 -381h-95l-211 321l-207 -321h-92z" />
	<glyph glyph-name="Y" unicode="Y" horiz-adv-x="585" 
d="M251 0v260l-238 480h90l190 -400l189 400h90l-238 -480v-260h-83z" />
	<glyph glyph-name="Z" unicode="Z" horiz-adv-x="499" 
d="M476 677l-357 -604h371v-73h-471v53l363 614h-373v73h467v-63z" />
	<glyph glyph-name="bracketleft" unicode="[" horiz-adv-x="441" 
d="M370 -129v-65h-246v934h246v-64h-173v-805h173z" />
	<glyph glyph-name="backslash" unicode="\" horiz-adv-x="543" 
d="M391 -100l-322 840h83l322 -840h-83z" />
	<glyph glyph-name="bracketright" unicode="]" horiz-adv-x="441" 
d="M71 -194v65h172v805h-172v64h245v-934h-245z" />
	<glyph glyph-name="asciicircum" unicode="^" horiz-adv-x="600" 
d="M89 375l173 365h76l173 -365h-81l-130 296l-130 -296h-81z" />
	<glyph glyph-name="underscore" unicode="_" horiz-adv-x="500" 
d="M500 -125h-500v50h500v-50z" />
	<glyph glyph-name="quoteleft" unicode="&#x2018;" horiz-adv-x="289" 
d="M158 740l70 -186h-61l-78 186h69z" />
	<glyph glyph-name="a" unicode="a" horiz-adv-x="684" 
d="M612 538v-538h-74v111c-42 -81 -124 -126 -220 -126c-175 0 -279 136 -279 284c0 158 115 284 279 284c115 0 194 -67 220 -128v113h74zM112 269v-1c1 -97 68 -214 216 -214c95 0 165 55 194 131c12 26 18 56 18 85c1 30 -5 60 -17 86c-30 74 -102 129 -197 129
c-124 0 -214 -96 -214 -216z" />
	<glyph glyph-name="b" unicode="b" horiz-adv-x="680" 
d="M72 0v740h74v-202v-108c45 76 126 122 219 123c153 0 277 -115 277 -283c0 -162 -116 -285 -279 -285c-101 0 -180 49 -220 126v-111h-71zM568 269v1c0 123 -93 215 -213 215c-124 0 -213 -96 -213 -215c0 -117 85 -216 210 -216c143 0 216 111 216 215z" />
	<glyph glyph-name="c" unicode="c" horiz-adv-x="630" 
d="M519 182h77c-35 -114 -140 -197 -269 -197c-182 0 -289 140 -289 284c0 159 121 284 284 284c121 0 237 -72 274 -201h-76c-34 91 -119 133 -195 133c-63 0 -107 -19 -152 -61c-36 -35 -61 -93 -61 -155c0 -127 96 -215 212 -215c103 1 172 63 195 128z" />
	<glyph glyph-name="d" unicode="d" horiz-adv-x="684" 
d="M610 740v-740h-71v111c-38 -71 -110 -126 -222 -126c-172 0 -278 134 -278 285c0 160 116 283 277 283c118 0 196 -68 220 -124v114v197h74zM112 270v-1c1 -108 76 -215 216 -215c60 0 115 24 153 63c39 40 62 95 60 155c0 61 -23 113 -62 151c-38 39 -92 62 -152 62
c-124 0 -215 -94 -215 -215z" />
	<glyph glyph-name="e" unicode="e" horiz-adv-x="628" 
d="M595 248h-490c4 -135 119 -200 210 -199c83 0 150 41 185 111h77c-25 -58 -63 -102 -109 -131c-45 -29 -98 -44 -153 -44c-187 0 -284 149 -284 283c0 158 122 285 283 285c76 0 146 -27 197 -76c62 -60 92 -143 84 -229zM106 307h416c-5 94 -96 186 -207 183
c-116 0 -202 -85 -209 -183z" />
	<glyph glyph-name="f" unicode="f" horiz-adv-x="280" 
d="M85 0v479h-79v59h79v44c0 166 131 171 189 171v-59c-37 -2 -116 -2 -116 -119v-37h116v-59h-116v-479h-73z" />
	<glyph glyph-name="g" unicode="g" horiz-adv-x="681" 
d="M610 538v-476c0 -102 -33 -167 -80 -212c-53 -52 -131 -83 -204 -83c-134 0 -232 77 -266 174h85c13 -23 32 -49 64 -71c39 -28 85 -39 119 -39c103 0 208 80 208 214v69c-38 -76 -113 -129 -217 -129c-168 0 -281 128 -281 283c0 161 117 285 281 285
c106 0 188 -60 218 -126v111h73zM112 270v-1c0 -109 77 -215 216 -215c61 0 113 23 151 62c37 39 59 93 60 152c0 45 -15 98 -49 141c-33 43 -87 75 -164 75c-118 0 -214 -88 -214 -214z" />
	<glyph glyph-name="h" unicode="h" horiz-adv-x="637" 
d="M72 0v740h74v-197v-93c33 71 116 105 192 103c85 0 141 -27 178 -74s51 -112 51 -189v-290h-73v287c0 58 -12 107 -39 142c-29 35 -71 55 -135 55c-59 0 -103 -21 -131 -53c-29 -32 -43 -76 -43 -125v-306h-74z" />
	<glyph glyph-name="i" unicode="i" horiz-adv-x="218" 
d="M72 637v103h74v-103h-74zM72 0v538h74v-538h-74z" />
	<glyph glyph-name="j" unicode="j" horiz-adv-x="253" 
d="M92 637v103h74v-103h-74zM166 538v-530c0 -96 -8 -201 -150 -217c-7 0 -15 0 -23 -1v62c5 0 10 0 14 1c78 13 85 73 85 153v532h74z" />
	<glyph glyph-name="k" unicode="k" horiz-adv-x="508" 
d="M74 0v740h74v-423l242 221h91l-259 -236l271 -302h-87l-258 286v-286h-74z" />
	<glyph glyph-name="l" unicode="l" horiz-adv-x="217" 
d="M72 0v740h74v-740h-74z" />
	<glyph glyph-name="m" unicode="m" horiz-adv-x="956" 
d="M72 0v538h70v-85c34 68 109 100 170 100c56 0 109 -18 147 -61c14 -14 32 -50 35 -56c8 15 19 36 39 57c35 37 88 60 148 60c55 0 108 -16 145 -54c47 -47 61 -105 61 -200v-299h-74v296c0 57 -9 108 -40 143c-22 28 -56 45 -107 45c-47 0 -93 -19 -118 -56
c-27 -38 -32 -68 -32 -129v-299h-74v299c2 60 -7 95 -28 128c-25 35 -63 56 -118 57c-50 2 -92 -23 -114 -55c-23 -31 -36 -72 -36 -129v-300h-74z" />
	<glyph glyph-name="n" unicode="n" horiz-adv-x="638" 
d="M72 0v538h70c0 -30 0 -60 -1 -96c31 70 104 113 200 111c167 -2 226 -116 226 -247v-306h-73v291c0 116 -52 195 -173 193c-111 -1 -175 -68 -175 -180v-304h-74z" />
	<glyph glyph-name="o" unicode="o" horiz-adv-x="649" 
d="M39 269v1c0 150 112 283 285 283c174 0 286 -133 286 -284s-112 -283 -286 -283c-173 0 -285 132 -285 283zM112 269v-1c0 -122 93 -214 212 -214c120 0 212 92 212 215s-92 215 -212 215c-119 0 -212 -92 -212 -215z" />
	<glyph glyph-name="p" unicode="p" horiz-adv-x="684" 
d="M72 -204v742h70v-112c44 78 122 127 225 127c181 0 276 -147 276 -286c0 -150 -109 -282 -276 -282c-119 0 -196 69 -221 125v-110v-204h-74zM569 269v1c0 101 -71 215 -216 215c-60 0 -113 -24 -152 -63c-37 -39 -60 -93 -60 -154c0 -60 23 -114 62 -153
c38 -38 92 -61 152 -61c121 0 214 92 214 215z" />
	<glyph glyph-name="q" unicode="q" horiz-adv-x="682" 
d="M610 538v-742h-74v204v109c-25 -55 -101 -124 -222 -124c-166 0 -275 130 -275 281c0 159 112 287 279 287c110 0 184 -56 221 -123v108h71zM112 268v-1c0 -118 91 -213 215 -213c60 0 113 23 152 62c38 38 61 92 61 152c2 60 -21 114 -60 153c-38 40 -93 64 -152 64
c-144 0 -215 -113 -216 -217z" />
	<glyph glyph-name="r" unicode="r" horiz-adv-x="322" 
d="M72 0v538h70v-88c39 80 109 101 172 103v-73h-7c-104 0 -162 -65 -162 -187v-293h-73z" />
	<glyph glyph-name="s" unicode="s" horiz-adv-x="450" 
d="M387 403h-73c0 57 -38 89 -92 89c-59 0 -95 -40 -93 -87c2 -51 41 -72 106 -91c77 -21 163 -43 167 -158c4 -99 -76 -171 -178 -171c-87 0 -183 55 -184 168h73c3 -74 58 -107 112 -107c62 0 105 46 104 101c-2 61 -42 86 -135 113c-77 23 -137 54 -139 139
c0 97 77 154 168 154c75 0 159 -41 164 -150z" />
	<glyph glyph-name="t" unicode="t" horiz-adv-x="314" 
d="M114 0v479h-106v59h106v202h73v-202h118v-59h-118v-479h-73z" />
	<glyph glyph-name="u" unicode="u" horiz-adv-x="639" 
d="M567 538v-538h-70v96c-30 -70 -103 -112 -199 -111c-168 3 -227 117 -227 248v305h73v-291c0 -116 52 -194 173 -193c112 1 176 68 176 180v304h74z" />
	<glyph glyph-name="v" unicode="v" horiz-adv-x="518" 
d="M509 538l-212 -538h-77l-212 538h78l173 -447l172 447h78z" />
	<glyph glyph-name="w" unicode="w" horiz-adv-x="788" 
d="M196 0l-187 538h78l148 -443l129 395h61l130 -395l147 443h77l-186 -538h-73l-127 392l-125 -392h-72z" />
	<glyph glyph-name="x" unicode="x" horiz-adv-x="481" 
d="M7 0l188 276l-180 262h90l135 -207l136 207h88l-179 -262l189 -276h-90l-144 217l-143 -217h-90z" />
	<glyph glyph-name="y" unicode="y" horiz-adv-x="512" 
d="M124 -204l92 214l-208 528h79l169 -435l174 435h81l-307 -742h-80z" />
	<glyph glyph-name="z" unicode="z" horiz-adv-x="419" 
d="M13 0v54l298 425h-286v59h369v-60l-292 -419h303v-59h-392z" />
	<glyph glyph-name="braceleft" unicode="{" horiz-adv-x="468" 
d="M390 749v-59h-54c-54 0 -61 -28 -61 -99v-193c0 -75 -51 -141 -90 -163c45 -15 90 -72 90 -153v-192c0 -77 9 -100 61 -100h54v-59h-86c-68 0 -106 40 -106 130v192c0 80 -34 123 -86 145v76c40 8 86 61 86 150v197c0 88 38 128 106 128h86z" />
	<glyph glyph-name="bar" unicode="|" 
d="M237 750h81v-1000h-81v1000z" />
	<glyph glyph-name="braceright" unicode="}" horiz-adv-x="468" 
d="M78 690v59h86c68 0 106 -40 106 -128v-197c0 -89 46 -142 86 -150v-76c-52 -22 -86 -65 -86 -145v-192c0 -90 -38 -130 -106 -130h-86v59h54c52 0 61 23 61 100v192c0 81 56 139 90 154c-51 23 -90 87 -90 162v193c0 71 -8 99 -61 99h-54z" />
	<glyph glyph-name="asciitilde" unicode="~" horiz-adv-x="600" 
d="M502 319l24 -65c-26 -44 -63 -77 -108 -77c-38 0 -73 17 -110 35s-76 36 -113 36c-38 2 -70 -17 -97 -64l-25 64c25 47 69 80 124 78c38 0 77 -19 115 -36c39 -17 75 -36 105 -36c39 0 64 34 85 65z" />
	<glyph glyph-name="exclamdown" unicode="&#xa1;" horiz-adv-x="284" 
d="M104 428v111h76v-111h-76zM104 -201v548h76v-548h-76z" />
	<glyph glyph-name="cent" unicode="&#xa2;" horiz-adv-x="576" 
d="M331 36h-66v107c-144 23 -199 141 -199 227c0 90 56 207 199 230v98h64v-98c78 -15 147 -62 181 -147h-79c-35 64 -94 76 -133 76c-95 0 -157 -72 -157 -156c0 -81 55 -159 157 -159c76 0 116 44 131 71h82c-40 -92 -122 -132 -180 -142v-107z" />
	<glyph glyph-name="sterling" unicode="&#xa3;" horiz-adv-x="576" 
d="M407 401v-62h-189c31 -26 81 -77 81 -153c0 -22 -7 -67 -43 -119h75c65 0 91 11 118 33c32 33 45 68 45 105c0 19 -3 31 -7 45h75c3 -15 7 -25 7 -54c0 -59 -29 -109 -55 -137c-43 -41 -83 -59 -177 -59h-298v67h115c22 11 63 42 63 114c0 66 -37 113 -91 158h-117v62h73
c-19 26 -36 65 -37 113c0 127 99 240 248 240c115 0 220 -74 242 -205h-79c-18 71 -75 132 -162 132c-98 -2 -163 -72 -166 -168c1 -39 13 -76 45 -112h234z" />
	<glyph glyph-name="fraction" unicode="&#x2044;" horiz-adv-x="127" 
d="M-131 0l323 740h65l-323 -740h-65z" />
	<glyph glyph-name="yen" unicode="&#xa5;" horiz-adv-x="576" 
d="M538 447v-63h-193l-17 -34v-65h210v-63h-211v-222h-81v222h-208v63h208v64l-18 35h-190v63h157l-173 293h87l178 -313l181 313h87l-175 -293h158z" />
	<glyph glyph-name="florin" unicode="&#x192;" horiz-adv-x="576" 
d="M368 510h119v-59h-128l-81 -437c-10 -54 -20 -106 -52 -150c-34 -47 -90 -73 -162 -73c-16 0 -39 1 -58 7l13 68c13 -3 23 -7 42 -7c109 0 126 76 138 143l82 449h-120v59h130c12 74 27 146 78 195c34 30 79 48 129 48c12 0 22 0 32 -3l-11 -61c-8 1 -15 1 -25 0
c-34 -3 -58 -14 -76 -34c-33 -35 -41 -99 -50 -145z" />
	<glyph glyph-name="section" unicode="&#xa7;" horiz-adv-x="605" 
d="M512 573h-73c-11 93 -71 111 -132 111c-68 0 -123 -39 -124 -108c1 -64 50 -88 87 -105l161 -74c33 -16 121 -57 121 -158c0 -69 -41 -122 -92 -156c47 -39 63 -85 63 -132c0 -103 -81 -190 -215 -190c-120 0 -237 66 -235 228h73c0 -109 62 -158 160 -158
c91 0 143 50 145 119c-2 50 -32 81 -99 112l-187 86c-33 16 -112 50 -112 163c0 42 20 108 99 155c-18 22 -41 55 -41 109c0 117 95 178 199 178c123 0 200 -74 202 -180zM484 228v1c0 63 -50 88 -92 108l-194 91c-49 -24 -75 -64 -76 -110c1 -50 31 -83 69 -101l218 -100
c32 14 75 58 75 111z" />
	<glyph glyph-name="currency" unicode="&#xa4;" horiz-adv-x="576" 
d="M507 83l-78 78c-41 -31 -89 -49 -141 -49c-53 0 -102 19 -141 49l-79 -78l-41 41l80 79c-32 40 -50 88 -50 139c0 53 18 102 50 140l-81 80l41 41l81 -81c40 32 89 50 140 50s100 -18 139 -49l80 80l41 -41l-79 -80c31 -39 50 -86 50 -140c0 -52 -19 -100 -51 -139
l80 -79zM128 342v-1c0 -86 75 -157 160 -157s159 71 159 158c0 89 -73 159 -159 159c-85 0 -160 -70 -160 -159z" />
	<glyph glyph-name="quotesingle" unicode="'" horiz-adv-x="229" 
d="M145 444h-61v296h61v-296z" />
	<glyph glyph-name="quotedblleft" unicode="&#x201c;" horiz-adv-x="431" 
d="M171 740l71 -186h-62l-78 186h69zM292 740l71 -186h-62l-78 186h69z" />
	<glyph glyph-name="guillemotleft" unicode="&#xab;" horiz-adv-x="375" 
d="M39 279l108 190h62l-108 -190l108 -188h-62zM173 279l109 190h62l-109 -190l109 -188h-62z" />
	<glyph glyph-name="guilsinglleft" unicode="&#x2039;" horiz-adv-x="239" 
d="M36 278l109 190h62l-109 -190l109 -188h-62z" />
	<glyph glyph-name="guilsinglright" unicode="&#x203a;" horiz-adv-x="239" 
d="M95 468l108 -190l-108 -188h-62l108 188l-108 190h62z" />
	<glyph glyph-name="fi" unicode="&#xfb01;" horiz-adv-x="462" 
d="M316 479h-158v-479h-73v479h-79v59h79v44c0 166 131 171 189 171v-59c-37 -2 -116 -2 -116 -119v-37h232v-538h-74v479zM390 637h-74v103h74v-103z" />
	<glyph glyph-name="fl" unicode="&#xfb02;" horiz-adv-x="462" 
d="M316 479h-158v-479h-73v479h-79v59h79v44c0 166 131 171 189 171v-59c-37 -2 -116 -2 -116 -119v-37h158v202h74v-740h-74v479z" />
	<glyph glyph-name="endash" unicode="&#x2013;" horiz-adv-x="500" 
d="M35 317h430v-73h-430v73z" />
	<glyph glyph-name="dagger" unicode="&#x2020;" horiz-adv-x="605" 
d="M340 740v-202h178v-66h-178v-620h-75v620h-177v66h177v202h75z" />
	<glyph glyph-name="daggerdbl" unicode="&#x2021;" horiz-adv-x="605" 
d="M341 740v-172h177v-67h-177v-382h177v-66h-177v-201h-75v201h-178v66h178v382h-178v67h178v172h75z" />
	<glyph glyph-name="periodcentered" unicode="&#xb7;" horiz-adv-x="289" 
d="M184 310v-111h-78v111h78z" />
	<glyph glyph-name="paragraph" unicode="&#xb6;" horiz-adv-x="607" 
d="M228 -118v465c-124 0 -222 61 -222 194c0 156 131 199 240 199h284v-58h-59v-800h-62v799h-119v-799h-62z" />
	<glyph glyph-name="bullet" unicode="&#x2022;" horiz-adv-x="496" 
d="M249 483h1c59 0 107 -49 107 -109s-48 -108 -109 -108s-109 49 -109 108s47 109 110 109z" />
	<glyph glyph-name="quotesinglbase" unicode="&#x201a;" horiz-adv-x="289" 
d="M61 -82l70 186h70l-78 -186h-62z" />
	<glyph glyph-name="quotedblbase" unicode="&#x201e;" horiz-adv-x="431" 
d="M68 -82l71 186h69l-78 -186h-62zM189 -82l71 186h69l-78 -186h-62z" />
	<glyph glyph-name="quotedblright" unicode="&#x201d;" horiz-adv-x="431" 
d="M68 554l71 186h69l-78 -186h-62zM189 554l71 186h69l-78 -186h-62z" />
	<glyph glyph-name="guillemotright" unicode="&#xbb;" horiz-adv-x="375" 
d="M227 468l109 -190l-109 -188h-62l109 188l-109 190h62zM93 468l108 -190l-108 -188h-62l108 188l-108 190h62z" />
	<glyph glyph-name="ellipsis" unicode="&#x2026;" horiz-adv-x="1000" 
d="M128 0v111h78v-111h-78zM461 0v111h78v-111h-78zM794 0v111h78v-111h-78z" />
	<glyph glyph-name="perthousand" unicode="&#x2030;" horiz-adv-x="1145" 
d="M25 585v1c0 95 73 168 169 168s169 -73 169 -169s-73 -169 -169 -169c-95 0 -169 73 -169 169zM81 585v-1c0 -65 47 -114 113 -114c65 0 113 48 113 115c0 66 -47 115 -113 115s-113 -49 -113 -115zM399 155v1c0 95 73 168 169 168s169 -73 169 -169s-74 -169 -169 -169
s-169 73 -169 169zM455 155v-1c0 -65 47 -114 113 -114s114 49 114 115c0 67 -48 116 -114 116s-113 -50 -113 -116zM783 155v1c0 95 73 168 169 168c95 0 168 -73 168 -169s-73 -169 -168 -169c-96 0 -169 73 -169 169zM838 155v-1c0 -65 47 -114 114 -114
c65 0 113 49 113 115c0 67 -48 116 -113 116c-67 0 -114 -50 -114 -116zM613 740l-407 -740h-60l407 740h60z" />
	<glyph glyph-name="questiondown" unicode="&#xbf;" 
d="M253 428v110h77v-110h-77zM252 349h78c-2 -67 -15 -124 -95 -200c-52 -52 -90 -86 -92 -147c0 -77 57 -139 141 -139c65 0 132 40 145 123c1 9 2 18 2 28h81c0 -9 -1 -17 -1 -25c-14 -140 -130 -204 -230 -204c-126 0 -221 95 -221 211c0 84 61 141 117 193
c72 70 74 120 75 160z" />
	<glyph glyph-name="grave" unicode="`" 
d="M159 780l239 -135l-24 -47l-241 128z" />
	<glyph glyph-name="acute" unicode="&#xb4;" 
d="M157 648l238 135l27 -54l-241 -129z" />
	<glyph glyph-name="circumflex" unicode="&#x2c6;" 
d="M305 752l175 -133h-83l-120 82l-119 -82h-83l176 133h54z" />
	<glyph glyph-name="tilde" unicode="&#x2dc;" 
d="M435 719l32 -50c-29 -26 -65 -39 -101 -39c-29 0 -63 9 -91 18s-54 16 -79 16c-32 0 -57 -12 -76 -30l-32 51c25 24 64 38 100 38c33 0 65 -8 91 -17c27 -9 50 -16 80 -16c32 0 58 11 76 29z" />
	<glyph glyph-name="macron" unicode="&#xaf;" 
d="M456 711v-62h-357v62h357z" />
	<glyph glyph-name="breve" unicode="&#x2d8;" 
d="M81 730h66c21 -26 55 -47 132 -47c74 0 113 24 128 47h67c-15 -56 -80 -106 -197 -106c-82 0 -168 29 -196 106z" />
	<glyph glyph-name="dotaccent" unicode="&#x2d9;" 
d="M314 748v-128h-73v128h73z" />
	<glyph glyph-name="dieresis" unicode="&#xa8;" 
d="M219 748v-128h-72v128h72zM407 748v-128h-72v128h72z" />
	<glyph glyph-name="ring" unicode="&#x2da;" 
d="M277 792h1c56 0 102 -46 102 -103c0 -56 -46 -102 -103 -102s-103 46 -103 102c0 57 47 103 103 103zM277 748h-1c-31 0 -56 -27 -56 -58s26 -56 57 -56c32 0 57 25 57 56c0 32 -25 58 -57 58z" />
	<glyph glyph-name="cedilla" unicode="&#xb8;" 
d="M297 0l-26 -56c4 2 9 3 16 3c44 0 76 -33 76 -77c0 -41 -28 -86 -86 -86c-14 0 -75 4 -85 73h43c8 -28 30 -33 42 -33c23 0 42 16 43 46c-1 25 -20 41 -42 41c-16 0 -28 -8 -36 -22l-37 15l45 96h47z" />
	<glyph glyph-name="hungarumlaut" unicode="&#x2dd;" 
d="M102 640l177 144l42 -45l-181 -139zM276 640l177 144l42 -45l-181 -139z" />
	<glyph glyph-name="ogonek" unicode="&#x2db;" 
d="M276 0h47c-45 -32 -76 -53 -76 -93c0 -37 30 -64 65 -64c19 0 34 6 53 13v-48c-16 -7 -33 -14 -66 -14c-69 0 -109 41 -109 97s45 85 86 109z" />
	<glyph glyph-name="caron" unicode="&#x2c7;" 
d="M75 746h83l120 -82l119 82h83l-175 -132h-56z" />
	<glyph glyph-name="emdash" unicode="&#x2014;" horiz-adv-x="1000" 
d="M35 317h930v-73h-930v73z" />
	<glyph glyph-name="AE" unicode="&#xc6;" horiz-adv-x="954" 
d="M-9 0l513 740h384v-73h-287v-257h285v-73h-285v-264h287v-73h-367v218h-282l-149 -218h-99zM279 284h242v355z" />
	<glyph glyph-name="ordfeminine" unicode="&#xaa;" horiz-adv-x="421" 
d="M372 745v-318h-51v65c-26 -51 -74 -73 -127 -73c-100 0 -168 78 -168 167c0 97 76 167 168 167c57 0 101 -27 127 -75v67h51zM78 584v-1c0 -50 42 -116 122 -116c52 0 90 28 109 65c8 17 12 35 12 54c0 18 -3 34 -10 50c-19 40 -61 69 -112 69c-64 0 -121 -48 -121 -121z
" />
	<glyph glyph-name="Lslash" unicode="&#x141;" horiz-adv-x="444" 
d="M2 240v85l76 56v359h83v-299l141 102v-85l-141 -105v-280h282v-73h-365v295z" />
	<glyph glyph-name="Oslash" unicode="&#xd8;" horiz-adv-x="851" 
d="M627 698l60 82h85l-90 -122c70 -59 129 -158 129 -288c0 -216 -168 -383 -386 -383c-81 0 -147 22 -196 52l-59 -79h-85l88 118c-73 60 -134 160 -134 292c0 220 171 383 386 383c71 0 141 -18 202 -55zM222 144l358 492c-41 28 -94 44 -155 44
c-176 0 -303 -140 -303 -309c0 -94 39 -176 100 -227zM634 594l-359 -493c41 -26 92 -41 151 -41c176 0 303 142 303 310c0 88 -36 167 -95 224z" />
	<glyph glyph-name="OE" unicode="&#x152;" horiz-adv-x="1147" 
d="M803 667v-257h284v-73h-284v-264h287v-73h-367v85v84c-54 -112 -173 -182 -302 -182c-216 0 -382 163 -382 382c0 216 160 384 381 384c150 0 263 -80 303 -182v85v84h367v-73h-287zM122 369v-1c0 -167 122 -308 299 -308s301 143 301 312c-3 172 -124 308 -301 308
c-175 0 -299 -136 -299 -311z" />
	<glyph glyph-name="ordmasculine" unicode="&#xba;" horiz-adv-x="421" 
d="M42 584v1c0 90 66 168 167 168c105 0 170 -81 170 -167c0 -94 -75 -167 -170 -167c-97 0 -167 78 -167 165zM93 584v-1c0 -62 52 -116 116 -116c62 0 118 50 119 119c-1 65 -50 119 -117 119c-62 0 -118 -48 -118 -121z" />
	<glyph glyph-name="ae" unicode="&#xe6;" horiz-adv-x="1133" 
d="M1094 250h-485c16 -164 143 -201 208 -201c93 0 151 60 184 111h77c-41 -94 -132 -175 -255 -175c-101 0 -179 53 -217 142v-127h-69v127c-28 -81 -118 -142 -218 -142c-195 0 -280 164 -280 283c0 162 119 285 280 285c105 0 179 -52 218 -136v121h69v-120
c42 88 115 135 211 135c81 0 150 -32 199 -84s82 -129 78 -219zM112 270v-1c0 -124 93 -215 216 -215c116 0 210 100 210 215c0 58 -23 112 -61 151c-38 40 -91 65 -151 65c-130 0 -214 -104 -214 -215zM611 304h409c-23 125 -103 185 -205 185c-52 0 -105 -15 -150 -66
c-38 -42 -47 -82 -54 -119z" />
	<glyph glyph-name="dotlessi" unicode="&#x131;" horiz-adv-x="218" 
d="M72 0v538h74v-538h-74z" />
	<glyph glyph-name="lslash" unicode="&#x142;" horiz-adv-x="260" 
d="M92 330l-73 -51v77l73 51v333h74v-286l86 61v-76l-86 -63v-376h-74v330z" />
	<glyph glyph-name="oslash" unicode="&#xf8;" horiz-adv-x="649" 
d="M507 573h77l-66 -93c58 -53 92 -127 92 -211c0 -152 -113 -284 -285 -284c-60 0 -108 16 -143 37l-41 -56h-78l68 92c-56 48 -92 124 -92 211c0 151 112 284 286 284c60 0 109 -16 142 -37zM178 117l247 339c-28 18 -62 28 -100 28c-121 0 -213 -92 -213 -215
c0 -64 26 -118 66 -152zM471 420l-247 -339c28 -17 62 -27 100 -27c124 0 212 95 212 215c0 64 -25 117 -65 151z" />
	<glyph glyph-name="oe" unicode="&#x153;" horiz-adv-x="1129" 
d="M1091 251h-484c7 -133 104 -202 206 -202c79 0 152 39 182 112h77c-15 -34 -38 -83 -95 -124c-49 -34 -102 -52 -163 -52c-131 0 -212 77 -244 161c-46 -107 -140 -161 -247 -161c-205 0 -284 172 -284 283c0 158 117 285 286 285c114 0 206 -67 244 -161
c23 57 97 159 243 159c80 0 150 -33 200 -85c54 -56 85 -136 79 -215zM112 269v-1c0 -120 92 -214 213 -214c126 0 210 109 210 214c0 104 -83 217 -210 217c-117 0 -213 -89 -213 -216zM609 305h406c-7 75 -75 181 -203 181c-104 0 -189 -74 -203 -181z" />
	<glyph glyph-name="germandbls" unicode="&#xdf;" horiz-adv-x="604" 
d="M70 0v458c0 115 10 165 47 212c42 56 111 85 175 85c127 0 208 -88 208 -201c0 -77 -40 -133 -97 -163c102 -17 161 -103 161 -192c0 -119 -96 -214 -230 -214c-89 1 -170 46 -190 154v-139h-74zM144 473v-276h48c6 -104 80 -142 145 -143c90 0 154 61 154 142
c0 23 -4 73 -49 112c-27 21 -57 36 -140 37h-40v59h29c72 0 136 58 136 140c0 91 -58 142 -141 142c-50 0 -93 -25 -114 -60c-26 -43 -28 -86 -28 -153z" />
	<glyph glyph-name="onesuperior" unicode="&#xb9;" horiz-adv-x="370" 
d="M221 740v-444h-59v392h-90v52h149z" />
	<glyph glyph-name="logicalnot" unicode="&#xac;" horiz-adv-x="600" 
d="M49 389h502v-260h-71v188h-431v72z" />
	<glyph glyph-name="mu" unicode="&#xb5;" horiz-adv-x="585" 
d="M69 -184v722h74v-291c0 -48 2 -102 33 -141c33 -42 79 -52 115 -52c49 0 87 20 114 58s41 95 41 167v259h73v-538h-71v102c-14 -36 -50 -114 -157 -114c-93 0 -130 49 -148 78v-77v-173h-74z" />
	<glyph glyph-name="trademark" unicode="&#x2122;" horiz-adv-x="990" 
d="M361 296v444h77l169 -361l168 361h77v-444h-57v371l-169 -371h-39l-170 369v-369h-56zM126 296v393h-113v51h286v-51h-113v-393h-60z" />
	<glyph glyph-name="Eth" unicode="&#xd0;" horiz-adv-x="715" 
d="M74 411v329h222c106 0 215 -23 290 -111c60 -66 89 -153 89 -258c0 -223 -132 -371 -369 -371h-232v338h-74v73h74zM156 667v-256h204v-73h-204v-265h147c190 0 289 117 289 295c0 86 -23 162 -72 216c-47 50 -116 83 -217 83h-147z" />
	<glyph glyph-name="onehalf" unicode="&#xbd;" horiz-adv-x="806" 
d="M194 740v-444h-59v392h-90v52h149zM546 740l-324 -740h-64l323 740h65zM762 52v-52h-295v48c57 55 113 110 169 165c40 41 58 69 58 102c0 42 -20 85 -81 85c-53 0 -83 -45 -83 -105h-60c1 36 8 68 25 96c31 47 79 61 122 61c88 0 142 -49 142 -132
c0 -50 -22 -85 -64 -127c-47 -46 -93 -94 -140 -141h207z" />
	<glyph glyph-name="plusminus" unicode="&#xb1;" horiz-adv-x="600" 
d="M264 346v177h72v-177h216v-72h-216v-175h-72v175h-216v72h216zM48 -27v72h504v-72h-504z" />
	<glyph glyph-name="Thorn" unicode="&#xde;" horiz-adv-x="552" 
d="M67 0v740h83v-136h112c110 0 153 -12 199 -47c49 -38 79 -107 79 -176c0 -70 -31 -141 -76 -176c-49 -38 -93 -50 -195 -50h-119v-155h-83zM150 531v-303h118c64 0 100 6 137 31c31 22 55 68 55 120c0 53 -24 99 -56 121c-37 24 -73 31 -138 31h-116z" />
	<glyph glyph-name="onequarter" unicode="&#xbc;" horiz-adv-x="766" 
d="M546 740l-324 -740h-64l323 740h65zM617 368l-156 -238h156v238zM194 740v-444h-59v392h-90v52h149zM676 444v-314h45v-48h-45v-82h-60v82h-221v43l220 319h61z" />
	<glyph glyph-name="divide" unicode="&#xf7;" horiz-adv-x="600" 
d="M336 521v-107h-72v107h72zM49 215v72h502v-72h-502zM336 88v-107h-72v107h72z" />
	<glyph glyph-name="brokenbar" unicode="&#xa6;" 
d="M237 675h81v-350h-81v350zM237 175h81v-350h-81v350z" />
	<glyph glyph-name="degree" unicode="&#xb0;" horiz-adv-x="400" 
d="M343 567v-1c0 -79 -63 -142 -143 -142s-143 63 -143 143s63 143 143 143s143 -63 143 -143zM104 567v-1c0 -53 42 -96 96 -96s96 43 96 97c0 53 -42 97 -96 97s-96 -44 -96 -97z" />
	<glyph glyph-name="thorn" unicode="&#xfe;" horiz-adv-x="686" 
d="M72 -204v944h73v-240v-74c52 98 154 127 224 127c172 0 278 -137 278 -286c0 -159 -118 -282 -277 -282c-111 0 -188 60 -225 125v-68v-246h-73zM573 269v1c0 117 -87 214 -214 214c-59 0 -113 -23 -152 -62c-40 -38 -64 -93 -64 -155c0 -53 22 -107 60 -147
s93 -66 156 -66c125 0 214 95 214 215z" />
	<glyph glyph-name="threequarters" unicode="&#xbe;" horiz-adv-x="871" 
d="M725 369l-157 -239h157v239zM656 740l-324 -740h-64l322 740h66zM784 444v-314h45v-48h-45v-82h-60v82h-221v43l220 319h61zM40 431h62c2 -64 48 -91 91 -91c57 0 90 38 90 89c0 37 -27 88 -96 88h-36v46h26c61 0 80 44 80 68c0 33 -21 64 -62 65c-44 1 -65 -30 -67 -66
h-61c3 92 81 118 129 118c68 0 121 -48 121 -111c0 -44 -28 -76 -57 -92c50 -19 85 -65 85 -118c0 -80 -66 -139 -153 -139c-48 0 -100 20 -127 61c-17 24 -24 53 -25 82z" />
	<glyph glyph-name="twosuperior" unicode="&#xb2;" horiz-adv-x="370" 
d="M330 348v-52h-294v48l168 165c40 41 58 69 58 102c0 42 -20 85 -80 85c-54 0 -84 -45 -84 -105h-59c0 39 8 73 29 101c31 43 77 56 117 56c88 0 142 -49 142 -132c0 -50 -22 -85 -64 -127c-47 -46 -93 -94 -140 -141h207z" />
	<glyph glyph-name="registered" unicode="&#xae;" horiz-adv-x="800" 
d="M401 752h1c215 0 380 -172 380 -382c0 -215 -171 -382 -382 -382c-213 0 -382 166 -382 382c0 208 163 382 383 382zM401 709h-1c-193 0 -336 -154 -336 -339c0 -189 148 -339 336 -339c186 0 335 148 335 339c0 184 -141 339 -334 339zM236 588h183
c45 0 154 -11 154 -119c0 -44 -20 -84 -80 -107c51 -15 68 -47 71 -100c6 -84 6 -93 15 -111h-54c-7 12 -9 41 -13 101c-3 49 -9 88 -114 88h-108v-189h-54v437zM410 547h-120v-167h110c29 3 119 1 119 86c0 80 -80 81 -109 81z" />
	<glyph glyph-name="minus" unicode="&#x2212;" horiz-adv-x="600" 
d="M49 215v72h502v-72h-502z" />
	<glyph glyph-name="eth" unicode="&#xf0;" horiz-adv-x="649" 
d="M321 625l-228 -72v55l167 54c-45 22 -90 39 -144 58l79 25c50 -17 97 -37 145 -63l203 63v-55l-144 -46c72 -43 129 -100 165 -166c32 -59 47 -128 47 -196c0 -183 -135 -294 -287 -296c-149 0 -284 102 -285 282c2 175 124 280 272 282c63 0 130 -27 171 -73
c-11 23 -24 39 -42 57c-35 38 -79 70 -119 91zM112 270v-1c0 -119 86 -215 213 -215c129 0 212 101 212 216c0 114 -92 215 -210 215c-130 -1 -215 -98 -215 -215z" />
	<glyph glyph-name="multiply" unicode="&#xd7;" horiz-adv-x="600" 
d="M103 0l-51 51l196 197l-196 195l51 52l197 -196l197 196l51 -52l-197 -195l196 -197l-50 -51l-197 197z" />
	<glyph glyph-name="threesuperior" unicode="&#xb3;" horiz-adv-x="370" 
d="M29 431h62c2 -64 48 -91 91 -91c57 0 90 38 90 89c0 37 -27 88 -96 88h-36v46h26c61 0 80 44 80 68c0 33 -21 64 -62 65c-44 1 -65 -30 -67 -66h-61c3 92 81 118 129 118c68 0 121 -48 121 -111c0 -44 -28 -76 -57 -92c50 -19 85 -65 85 -118c0 -80 -66 -139 -153 -139
c-48 0 -98 19 -126 58c-17 25 -25 55 -26 85z" />
	<glyph glyph-name="copyright" unicode="&#xa9;" horiz-adv-x="800" 
d="M401 752h1c215 0 380 -172 380 -382c0 -215 -171 -382 -382 -382c-213 0 -382 166 -382 382c0 208 163 382 383 382zM401 709h-1c-194 0 -336 -155 -336 -339c0 -190 148 -339 336 -339c186 0 335 148 335 339c0 185 -142 339 -334 339zM598 446h-53
c-18 81 -84 105 -139 105c-97 0 -161 -75 -161 -180c0 -124 79 -180 160 -180c25 0 130 8 147 137h54c-9 -117 -98 -185 -203 -185c-112 0 -212 79 -212 227c0 130 82 229 215 229c107 0 183 -69 192 -153z" />
	<glyph glyph-name="Aacute" unicode="&#xc1;" horiz-adv-x="711" 
d="M182 208l-85 -208h-89l309 740h80l306 -740h-90l-86 208h-345zM502 276l-148 371l-147 -371h295zM238 823l238 135l27 -54l-240 -129z" />
	<glyph glyph-name="Acircumflex" unicode="&#xc2;" horiz-adv-x="711" 
d="M182 208l-85 -208h-89l309 740h80l306 -740h-90l-86 208h-345zM502 276l-148 371l-147 -371h295zM383 927l175 -133h-83l-120 82l-119 -82h-83l176 133h54z" />
	<glyph glyph-name="Adieresis" unicode="&#xc4;" horiz-adv-x="711" 
d="M182 208l-85 -208h-89l309 740h80l306 -740h-90l-86 208h-345zM502 276l-148 371l-147 -371h295zM297 923v-128h-72v128h72zM485 923v-128h-72v128h72z" />
	<glyph glyph-name="Agrave" unicode="&#xc0;" horiz-adv-x="711" 
d="M182 208l-85 -208h-89l309 740h80l306 -740h-90l-86 208h-345zM502 276l-148 371l-147 -371h295zM234 955l239 -134l-24 -48l-241 128z" />
	<glyph glyph-name="Aring" unicode="&#xc5;" horiz-adv-x="711" 
d="M182 208l-85 -208h-89l309 740h80l306 -740h-90l-86 208h-345zM502 276l-148 371l-147 -371h295zM355 967h1c56 0 102 -46 102 -103c0 -56 -46 -102 -103 -102s-103 46 -103 102c0 57 47 103 103 103zM355 923h-1c-31 0 -56 -27 -56 -58s26 -56 57 -56c32 0 57 25 57 56
c0 32 -25 58 -57 58z" />
	<glyph glyph-name="Atilde" unicode="&#xc3;" horiz-adv-x="711" 
d="M182 208l-85 -208h-89l309 740h80l306 -740h-90l-86 208h-345zM502 276l-148 371l-147 -371h295zM513 904l32 -50c-29 -26 -65 -39 -101 -39c-29 0 -63 9 -91 18s-54 16 -79 16c-32 0 -57 -12 -76 -30l-32 51c25 24 64 39 100 39c33 0 65 -9 91 -18c27 -9 50 -16 80 -16
c32 0 58 11 76 29z" />
	<glyph glyph-name="Ccedilla" unicode="&#xc7;" horiz-adv-x="801" 
d="M428 -13l-21 -43c5 2 11 3 17 3c43 0 77 -33 77 -77c0 -41 -28 -86 -86 -86c-15 0 -75 4 -86 73h43c8 -28 30 -33 43 -33c22 0 42 16 42 46c0 25 -19 41 -42 41c-15 0 -27 -8 -36 -22l-36 15l40 86c-197 19 -343 179 -343 380c0 211 163 383 385 383
c183 0 298 -122 341 -216h-89c-25 44 -109 143 -252 143c-173 0 -303 -137 -303 -309c0 -175 131 -311 303 -311c155 0 234 111 252 139h89c-48 -112 -174 -210 -338 -212z" />
	<glyph glyph-name="Eacute" unicode="&#xc9;" horiz-adv-x="541" 
d="M74 0v740h410v-73h-328v-257h326v-73h-326v-264h328v-73h-410zM150 833l238 135l27 -54l-241 -129z" />
	<glyph glyph-name="Ecircumflex" unicode="&#xca;" horiz-adv-x="541" 
d="M74 0v740h410v-73h-328v-257h326v-73h-326v-264h328v-73h-410zM298 937l175 -133h-83l-120 82l-119 -82h-83l176 133h54z" />
	<glyph glyph-name="Edieresis" unicode="&#xcb;" horiz-adv-x="541" 
d="M74 0v740h410v-73h-328v-257h326v-73h-326v-264h328v-73h-410zM212 933v-128h-72v128h72zM400 933v-128h-72v128h72z" />
	<glyph glyph-name="Egrave" unicode="&#xc8;" horiz-adv-x="541" 
d="M74 0v740h410v-73h-328v-257h326v-73h-326v-264h328v-73h-410zM152 965l239 -134l-24 -48l-241 128z" />
	<glyph glyph-name="Iacute" unicode="&#xcd;" horiz-adv-x="231" 
d="M74 0v740h82v-740h-82zM17 830l238 135l26 -55l-240 -128z" />
	<glyph glyph-name="Icircumflex" unicode="&#xce;" horiz-adv-x="231" 
d="M74 0v740h82v-740h-82zM143 930l175 -133h-83l-120 82l-119 -82h-83l176 133h54z" />
	<glyph glyph-name="Idieresis" unicode="&#xcf;" horiz-adv-x="231" 
d="M74 0v740h82v-740h-82zM57 929v-127h-72v127h72zM245 929v-127h-72v127h72z" />
	<glyph glyph-name="Igrave" unicode="&#xcc;" horiz-adv-x="231" 
d="M74 0v740h82v-740h-82zM-24 962l238 -135l-24 -47l-241 128z" />
	<glyph glyph-name="Ntilde" unicode="&#xd1;" horiz-adv-x="745" 
d="M158 740l434 -618l-1 618h80v-740h-80l-439 623l2 -623h-80v740h84zM530 901l32 -50c-28 -27 -65 -39 -101 -39c-29 0 -63 9 -91 18s-53 15 -79 15c-31 0 -57 -11 -76 -29l-31 51c25 24 63 38 100 38c32 0 64 -8 91 -17c26 -9 49 -16 79 -16c32 0 58 10 76 29z" />
	<glyph glyph-name="Oacute" unicode="&#xd3;" horiz-adv-x="851" 
d="M39 367v1c0 228 177 385 386 385c217 0 386 -166 386 -383s-168 -383 -386 -383c-219 0 -386 169 -386 380zM122 371v-1c0 -174 131 -310 304 -310c175 0 303 141 303 310s-128 310 -304 310c-174 0 -303 -138 -303 -309zM305 833l238 135l27 -54l-241 -129z" />
	<glyph glyph-name="Ocircumflex" unicode="&#xd4;" horiz-adv-x="851" 
d="M39 367v1c0 228 177 385 386 385c217 0 386 -166 386 -383s-168 -383 -386 -383c-219 0 -386 169 -386 380zM122 371v-1c0 -174 131 -310 304 -310c175 0 303 141 303 310s-128 310 -304 310c-174 0 -303 -138 -303 -309zM453 934l175 -134h-83l-120 83l-119 -83h-83
l176 134h54z" />
	<glyph glyph-name="Odieresis" unicode="&#xd6;" horiz-adv-x="851" 
d="M39 367v1c0 228 177 385 386 385c217 0 386 -166 386 -383s-168 -383 -386 -383c-219 0 -386 169 -386 380zM122 371v-1c0 -174 131 -310 304 -310c175 0 303 141 303 310s-128 310 -304 310c-174 0 -303 -138 -303 -309zM367 933v-128h-72v128h72zM555 933v-128h-72v128
h72z" />
	<glyph glyph-name="Ograve" unicode="&#xd2;" horiz-adv-x="851" 
d="M39 367v1c0 228 177 385 386 385c217 0 386 -166 386 -383s-168 -383 -386 -383c-219 0 -386 169 -386 380zM122 371v-1c0 -174 131 -310 304 -310c175 0 303 141 303 310s-128 310 -304 310c-174 0 -303 -138 -303 -309zM307 965l239 -134l-24 -48l-241 128z" />
	<glyph glyph-name="Otilde" unicode="&#xd5;" horiz-adv-x="851" 
d="M39 367v1c0 228 177 385 386 385c217 0 386 -166 386 -383s-168 -383 -386 -383c-219 0 -386 169 -386 380zM122 371v-1c0 -174 131 -310 304 -310c175 0 303 141 303 310s-128 310 -304 310c-174 0 -303 -138 -303 -309zM583 901l32 -50c-29 -27 -65 -39 -101 -39
c-29 0 -63 9 -91 18s-54 15 -79 15c-32 0 -57 -11 -76 -29l-32 51c25 24 64 38 100 38c33 0 65 -8 91 -17c27 -9 50 -16 80 -16c32 0 58 10 76 29z" />
	<glyph glyph-name="Scaron" unicode="&#x160;" horiz-adv-x="536" 
d="M38 206h83c12 -123 102 -149 148 -149c77 0 148 59 148 141c0 104 -89 127 -175 155c-60 18 -189 56 -189 196c-2 131 107 204 220 204c92 0 198 -51 210 -191h-82c-9 48 -33 121 -131 121c-74 0 -135 -50 -135 -127c-1 -90 72 -112 184 -150c70 -27 180 -66 180 -202
c0 -121 -91 -217 -229 -217c-124 0 -227 78 -232 219zM66 925h83l120 -83l118 83h84l-175 -132h-56z" />
	<glyph glyph-name="Uacute" unicode="&#xda;" horiz-adv-x="636" 
d="M72 740h83v-469c0 -56 0 -99 35 -149c26 -37 75 -62 129 -62c53 0 102 24 127 61c35 49 35 92 35 150v469h82v-469c1 -86 -10 -171 -84 -228c-41 -35 -96 -56 -160 -56c-52 0 -117 15 -163 56c-78 63 -84 147 -84 228v469zM209 823l238 135l27 -54l-241 -129z" />
	<glyph glyph-name="Ucircumflex" unicode="&#xdb;" horiz-adv-x="636" 
d="M72 740h83v-469c0 -56 0 -99 35 -149c26 -37 75 -62 129 -62c53 0 102 24 127 61c35 49 35 92 35 150v469h82v-469c1 -86 -10 -171 -84 -228c-41 -35 -96 -56 -160 -56c-52 0 -117 15 -163 56c-78 63 -84 147 -84 228v469zM346 927l175 -133h-84l-119 82l-119 -82h-84
l176 133h55z" />
	<glyph glyph-name="Udieresis" unicode="&#xdc;" horiz-adv-x="636" 
d="M72 740h83v-469c0 -56 0 -99 35 -149c26 -37 75 -62 129 -62c53 0 102 24 127 61c35 49 35 92 35 150v469h82v-469c1 -86 -10 -171 -84 -228c-41 -35 -96 -56 -160 -56c-52 0 -117 15 -163 56c-78 63 -84 147 -84 228v469zM260 923v-128h-72v128h72zM448 923v-128h-72
v128h72z" />
	<glyph glyph-name="Ugrave" unicode="&#xd9;" horiz-adv-x="636" 
d="M72 740h83v-469c0 -56 0 -99 35 -149c26 -37 75 -62 129 -62c53 0 102 24 127 61c35 49 35 92 35 150v469h82v-469c1 -86 -10 -171 -84 -228c-41 -35 -96 -56 -160 -56c-52 0 -117 15 -163 56c-78 63 -84 147 -84 228v469zM168 955l239 -135l-24 -47l-241 128z" />
	<glyph glyph-name="Yacute" unicode="&#xdd;" horiz-adv-x="585" 
d="M251 0v260l-238 480h90l190 -400l189 400h90l-238 -480v-260h-83zM204 823l238 135l27 -54l-241 -129z" />
	<glyph glyph-name="Ydieresis" unicode="&#x178;" horiz-adv-x="585" 
d="M251 0v260l-238 480h90l190 -400l189 400h90l-238 -480v-260h-83zM235 923v-128h-73v128h73zM423 923v-128h-72v128h72z" />
	<glyph glyph-name="Zcaron" unicode="&#x17d;" horiz-adv-x="499" 
d="M476 677l-357 -604h371v-73h-471v53l363 614h-373v73h467v-63zM42 921h83l120 -82l118 82h84l-175 -132h-56z" />
	<glyph glyph-name="aacute" unicode="&#xe1;" horiz-adv-x="684" 
d="M612 538v-538h-74v111c-42 -81 -124 -126 -220 -126c-175 0 -279 136 -279 284c0 158 115 284 279 284c115 0 194 -67 220 -128v113h74zM112 269v-1c1 -97 68 -214 216 -214c95 0 165 55 194 131c12 26 18 56 18 85c1 30 -5 60 -17 86c-30 74 -102 129 -197 129
c-124 0 -214 -96 -214 -216zM219 648l238 135l27 -54l-241 -129z" />
	<glyph glyph-name="acircumflex" unicode="&#xe2;" horiz-adv-x="684" 
d="M612 538v-538h-74v111c-42 -81 -124 -126 -220 -126c-175 0 -279 136 -279 284c0 158 115 284 279 284c115 0 194 -67 220 -128v113h74zM112 269v-1c1 -97 68 -214 216 -214c95 0 165 55 194 131c12 26 18 56 18 85c1 30 -5 60 -17 86c-30 74 -102 129 -197 129
c-124 0 -214 -96 -214 -216zM365 752l175 -133h-83l-120 82l-119 -82h-83l176 133h54z" />
	<glyph glyph-name="adieresis" unicode="&#xe4;" horiz-adv-x="684" 
d="M612 538v-538h-74v111c-42 -81 -124 -126 -220 -126c-175 0 -279 136 -279 284c0 158 115 284 279 284c115 0 194 -67 220 -128v113h74zM112 269v-1c1 -97 68 -214 216 -214c95 0 165 55 194 131c12 26 18 56 18 85c1 30 -5 60 -17 86c-30 74 -102 129 -197 129
c-124 0 -214 -96 -214 -216zM273 748v-128h-72v128h72zM461 748v-128h-72v128h72z" />
	<glyph glyph-name="agrave" unicode="&#xe0;" horiz-adv-x="684" 
d="M612 538v-538h-74v111c-42 -81 -124 -126 -220 -126c-175 0 -279 136 -279 284c0 158 115 284 279 284c115 0 194 -67 220 -128v113h74zM112 269v-1c1 -97 68 -214 216 -214c95 0 165 55 194 131c12 26 18 56 18 85c1 30 -5 60 -17 86c-30 74 -102 129 -197 129
c-124 0 -214 -96 -214 -216zM219 780l239 -135l-24 -47l-241 128z" />
	<glyph glyph-name="aring" unicode="&#xe5;" horiz-adv-x="684" 
d="M612 538v-538h-74v111c-42 -81 -124 -126 -220 -126c-175 0 -279 136 -279 284c0 158 115 284 279 284c115 0 194 -67 220 -128v113h74zM112 269v-1c1 -97 68 -214 216 -214c95 0 165 55 194 131c12 26 18 56 18 85c1 30 -5 60 -17 86c-30 74 -102 129 -197 129
c-124 0 -214 -96 -214 -216zM329 792h1c56 0 102 -46 102 -103c0 -56 -46 -102 -103 -102s-103 46 -103 102c0 57 47 103 103 103zM329 748h-1c-31 0 -56 -27 -56 -58s25 -56 57 -56s57 25 57 56c0 32 -25 58 -57 58z" />
	<glyph glyph-name="atilde" unicode="&#xe3;" horiz-adv-x="684" 
d="M612 538v-538h-74v111c-42 -81 -124 -126 -220 -126c-175 0 -279 136 -279 284c0 158 115 284 279 284c115 0 194 -67 220 -128v113h74zM112 269v-1c1 -97 68 -214 216 -214c95 0 165 55 194 131c12 26 18 56 18 85c1 30 -5 60 -17 86c-30 74 -102 129 -197 129
c-124 0 -214 -96 -214 -216zM497 719l31 -50c-28 -26 -64 -39 -101 -39c-29 0 -63 9 -91 18s-53 16 -79 16c-31 0 -56 -12 -75 -30l-32 51c25 24 64 38 100 38c32 0 65 -8 91 -17s50 -16 80 -16c32 0 58 11 76 29z" />
	<glyph glyph-name="ccedilla" unicode="&#xe7;" horiz-adv-x="630" 
d="M328 -14l-20 -42c5 2 11 3 17 3c43 0 77 -33 77 -77c0 -41 -28 -86 -86 -86c-15 0 -75 4 -86 73h43c8 -28 30 -33 43 -33c22 0 42 16 42 46c0 25 -19 41 -42 41c-15 0 -27 -8 -36 -22l-36 15l39 85c-139 18 -245 129 -245 281c1 159 122 283 284 283
c121 0 237 -72 274 -201h-76c-34 90 -119 132 -195 131c-63 0 -107 -19 -152 -60c-36 -34 -61 -93 -61 -154c0 -127 96 -215 212 -215c103 1 172 63 195 128h77c-35 -113 -136 -192 -268 -196z" />
	<glyph glyph-name="eacute" unicode="&#xe9;" horiz-adv-x="628" 
d="M595 248h-490c4 -135 119 -200 210 -199c83 0 150 41 185 111h77c-25 -58 -63 -102 -109 -131c-45 -29 -98 -44 -153 -44c-187 0 -284 149 -284 283c0 158 122 285 283 285c76 0 146 -27 197 -76c62 -60 92 -143 84 -229zM106 307h416c-5 94 -96 186 -207 183
c-116 0 -202 -85 -209 -183zM190 648l238 135l27 -54l-240 -129z" />
	<glyph glyph-name="ecircumflex" unicode="&#xea;" horiz-adv-x="628" 
d="M595 248h-490c4 -135 119 -200 210 -199c83 0 150 41 185 111h77c-25 -58 -63 -102 -109 -131c-45 -29 -98 -44 -153 -44c-187 0 -284 149 -284 283c0 158 122 285 283 285c76 0 146 -27 197 -76c62 -60 92 -143 84 -229zM106 307h416c-5 94 -96 186 -207 183
c-116 0 -202 -85 -209 -183zM342 752l175 -133h-84l-119 82l-119 -82h-84l176 133h55z" />
	<glyph glyph-name="edieresis" unicode="&#xeb;" horiz-adv-x="628" 
d="M595 248h-490c4 -135 119 -200 210 -199c83 0 150 41 185 111h77c-25 -58 -63 -102 -109 -131c-45 -29 -98 -44 -153 -44c-187 0 -284 149 -284 283c0 158 122 285 283 285c76 0 146 -27 197 -76c62 -60 92 -143 84 -229zM106 307h416c-5 94 -96 186 -207 183
c-116 0 -202 -85 -209 -183zM253 748v-128h-73v128h73zM441 748v-128h-72v128h72z" />
	<glyph glyph-name="egrave" unicode="&#xe8;" horiz-adv-x="628" 
d="M595 248h-490c4 -135 119 -200 210 -199c83 0 150 41 185 111h77c-25 -58 -63 -102 -109 -131c-45 -29 -98 -44 -153 -44c-187 0 -284 149 -284 283c0 158 122 285 283 285c76 0 146 -27 197 -76c62 -60 92 -143 84 -229zM106 307h416c-5 94 -96 186 -207 183
c-116 0 -202 -85 -209 -183zM196 780l239 -135l-24 -47l-241 128z" />
	<glyph glyph-name="iacute" unicode="&#xed;" horiz-adv-x="218" 
d="M72 0v538h74v-538h-74zM8 648l238 135l27 -54l-241 -129z" />
	<glyph glyph-name="icircumflex" unicode="&#xee;" horiz-adv-x="218" 
d="M72 0v538h74v-538h-74zM137 752l175 -133h-83l-120 82l-119 -82h-83l176 133h54z" />
	<glyph glyph-name="idieresis" unicode="&#xef;" horiz-adv-x="218" 
d="M72 0v538h74v-538h-74zM51 748v-128h-72v128h72zM239 748v-128h-72v128h72z" />
	<glyph glyph-name="igrave" unicode="&#xec;" horiz-adv-x="218" 
d="M72 0v538h74v-538h-74zM-30 780l239 -135l-24 -47l-241 128z" />
	<glyph glyph-name="ntilde" unicode="&#xf1;" horiz-adv-x="638" 
d="M72 0v538h70c0 -30 0 -60 -1 -96c31 70 104 113 200 111c167 -2 226 -116 226 -247v-306h-73v291c0 116 -52 195 -173 193c-111 -1 -175 -68 -175 -180v-304h-74zM477 719l31 -50c-28 -26 -64 -39 -101 -39c-29 0 -63 9 -91 18s-53 16 -79 16c-31 0 -56 -12 -75 -30
l-32 51c25 24 64 38 100 38c32 0 65 -8 91 -17s50 -16 80 -16c32 0 58 11 76 29z" />
	<glyph glyph-name="oacute" unicode="&#xf3;" horiz-adv-x="649" 
d="M39 269v1c0 150 112 283 285 283c174 0 286 -133 286 -284s-112 -283 -286 -283c-173 0 -285 132 -285 283zM112 269v-1c0 -122 93 -214 212 -214c120 0 212 92 212 215s-92 215 -212 215c-119 0 -212 -92 -212 -215zM201 648l238 135l27 -54l-241 -129z" />
	<glyph glyph-name="ocircumflex" unicode="&#xf4;" horiz-adv-x="649" 
d="M39 269v1c0 150 112 283 285 283c174 0 286 -133 286 -284s-112 -283 -286 -283c-173 0 -285 132 -285 283zM112 269v-1c0 -122 93 -214 212 -214c120 0 212 92 212 215s-92 215 -212 215c-119 0 -212 -92 -212 -215zM353 752l174 -133h-83l-119 82l-119 -82h-84l176 133
h55z" />
	<glyph glyph-name="odieresis" unicode="&#xf6;" horiz-adv-x="649" 
d="M39 269v1c0 150 112 283 285 283c174 0 286 -133 286 -284s-112 -283 -286 -283c-173 0 -285 132 -285 283zM112 269v-1c0 -122 93 -214 212 -214c120 0 212 92 212 215s-92 215 -212 215c-119 0 -212 -92 -212 -215zM267 748v-128h-72v128h72zM455 748v-128h-72v128h72z
" />
	<glyph glyph-name="ograve" unicode="&#xf2;" horiz-adv-x="649" 
d="M39 269v1c0 150 112 283 285 283c174 0 286 -133 286 -284s-112 -283 -286 -283c-173 0 -285 132 -285 283zM112 269v-1c0 -122 93 -214 212 -214c120 0 212 92 212 215s-92 215 -212 215c-119 0 -212 -92 -212 -215zM207 780l238 -135l-24 -47l-241 128z" />
	<glyph glyph-name="otilde" unicode="&#xf5;" horiz-adv-x="649" 
d="M39 269v1c0 150 112 283 285 283c174 0 286 -133 286 -284s-112 -283 -286 -283c-173 0 -285 132 -285 283zM112 269v-1c0 -122 93 -214 212 -214c120 0 212 92 212 215s-92 215 -212 215c-119 0 -212 -92 -212 -215zM482 719l32 -50c-28 -26 -65 -39 -101 -39
c-29 0 -63 9 -91 18s-53 16 -79 16c-31 0 -57 -12 -76 -30l-31 51c25 24 63 38 100 38c32 0 64 -8 91 -17c26 -9 49 -16 79 -16c32 0 58 11 76 29z" />
	<glyph glyph-name="scaron" unicode="&#x161;" horiz-adv-x="450" 
d="M387 403h-73c0 57 -38 89 -92 89c-59 0 -95 -40 -93 -87c2 -51 41 -72 106 -91c77 -21 163 -43 167 -158c4 -99 -76 -171 -178 -171c-87 0 -183 55 -184 168h73c3 -74 58 -107 112 -107c62 0 105 46 104 101c-2 61 -42 86 -135 113c-77 23 -137 54 -139 139
c0 97 77 154 168 154c75 0 159 -41 164 -150zM23 746h83l120 -82l118 82h84l-175 -132h-56z" />
	<glyph glyph-name="uacute" unicode="&#xfa;" horiz-adv-x="639" 
d="M567 538v-538h-70v96c-30 -70 -103 -112 -199 -111c-168 3 -227 117 -227 248v305h73v-291c0 -116 52 -194 173 -193c112 1 176 68 176 180v304h74zM211 648l238 135l27 -54l-241 -129z" />
	<glyph glyph-name="ucircumflex" unicode="&#xfb;" horiz-adv-x="639" 
d="M567 538v-538h-70v96c-30 -70 -103 -112 -199 -111c-168 3 -227 117 -227 248v305h73v-291c0 -116 52 -194 173 -193c112 1 176 68 176 180v304h74zM347 752l175 -133h-83l-120 82l-119 -82h-83l176 133h54z" />
	<glyph glyph-name="udieresis" unicode="&#xfc;" horiz-adv-x="639" 
d="M567 538v-538h-70v96c-30 -70 -103 -112 -199 -111c-168 3 -227 117 -227 248v305h73v-291c0 -116 52 -194 173 -193c112 1 176 68 176 180v304h74zM261 748v-128h-72v128h72zM449 748v-128h-72v128h72z" />
	<glyph glyph-name="ugrave" unicode="&#xf9;" horiz-adv-x="639" 
d="M567 538v-538h-70v96c-30 -70 -103 -112 -199 -111c-168 3 -227 117 -227 248v305h73v-291c0 -116 52 -194 173 -193c112 1 176 68 176 180v304h74zM170 780l238 -135l-24 -47l-241 128z" />
	<glyph glyph-name="yacute" unicode="&#xfd;" horiz-adv-x="512" 
d="M124 -204l92 214l-208 528h79l169 -435l174 435h81l-307 -742h-80zM167 648l238 135l27 -54l-240 -129z" />
	<glyph glyph-name="ydieresis" unicode="&#xff;" horiz-adv-x="512" 
d="M124 -204l92 214l-208 528h79l169 -435l174 435h81l-307 -742h-80zM198 748v-128h-72v128h72zM386 748v-128h-72v128h72z" />
	<glyph glyph-name="zcaron" unicode="&#x17e;" horiz-adv-x="419" 
d="M13 0v54l298 425h-286v59h369v-60l-292 -419h303v-59h-392zM10 745h83l120 -83l119 83h83l-175 -132h-56z" />
	<glyph glyph-name="Omega" unicode="&#x2126;" horiz-adv-x="746" 
d="M207 63v3c-74 67 -141 182 -141 331c0 209 134 353 310 353c185 0 303 -164 303 -349c0 -154 -72 -274 -143 -335v-3h157v-63h-247v46c80 54 157 173 157 341c0 139 -77 299 -228 299c-142 0 -233 -134 -233 -301c0 -158 78 -287 157 -339v-46h-247v63h155z" />
	<glyph glyph-name="pi" unicode="&#x3c0;" horiz-adv-x="590" 
d="M562 484h-84v-329c0 -88 7 -127 15 -155h-73c-9 17 -17 61 -17 148v336h-190c-6 -138 -38 -383 -77 -484h-73c39 114 70 340 75 484c-65 0 -94 -6 -116 -13l-12 50c26 16 69 28 148 28h412z" />
	<glyph glyph-name="Euro" unicode="&#x20ac;" horiz-adv-x="554" 
d="M558 659l-29 -72c-29 49 -87 99 -178 99c-129 0 -179 -121 -179 -218h311l-25 -63h-287v-70h259l-25 -63h-232c1 -40 12 -106 36 -142c37 -56 91 -76 142 -76c57 0 133 27 159 72v-87c-14 -15 -65 -52 -159 -52c-84 0 -172 35 -220 131c-22 43 -30 98 -32 154h-91l25 63
h64v70h-89l25 63h65c0 142 76 285 253 285c101 0 177 -53 207 -94z" />
	<glyph glyph-name="estimated" unicode="&#x212e;" horiz-adv-x="924" 
d="M887 359h-689c-4 0 -6 -1 -6 -4v-209c0 -9 4 -17 9 -24c67 -69 159 -113 261 -113c110 0 207 50 274 127h61c-76 -89 -199 -148 -336 -148c-235 0 -425 171 -425 382s190 382 425 382s426 -171 426 -382v-11zM730 386v210c0 9 -3 18 -10 25c-67 66 -157 109 -258 109
s-193 -44 -260 -112c-6 -7 -10 -16 -10 -26v-206c0 -2 2 -6 6 -6h528c3 0 4 4 4 6z" />
	<glyph glyph-name="partialdiff" unicode="&#x2202;" horiz-adv-x="565" 
d="M106 714l-26 55c34 28 88 59 171 59c134 0 262 -127 262 -399c0 -249 -92 -437 -270 -437c-134 0 -198 121 -198 243c0 165 104 270 220 270c96 0 156 -69 172 -101h1c1 12 1 33 1 46c0 189 -89 314 -195 314c-64 0 -109 -26 -138 -50zM249 55h2c99 0 164 130 178 272
c-16 47 -71 116 -152 116c-86 0 -157 -94 -157 -208c0 -104 50 -180 129 -180z" />
	<glyph glyph-name="product" unicode="&#x220f;" horiz-adv-x="724" 
d="M696 669h-113v-771h-74v771h-294v-771h-74v771h-114v69h669v-69z" />
	<glyph glyph-name="summation" unicode="&#x2211;" horiz-adv-x="575" 
d="M551 -102h-527v51l281 368l-269 368v53h498v-65h-394v-4l251 -341l-271 -355v-3h431v-72z" />
	<glyph glyph-name="uni2219" unicode="&#x2219;" horiz-adv-x="289" 
d="M184 310v-111h-78v111h78z" />
	<glyph glyph-name="radical" unicode="&#x221a;" horiz-adv-x="594" 
d="M593 877l-231 -1035h-67l-167 492l-77 -30l-15 47l140 54l133 -395c7 -25 14 -56 18 -76h2c3 19 8 50 13 76l194 867h57z" />
	<glyph glyph-name="infinity" unicode="&#x221e;" horiz-adv-x="810" 
d="M757 307v-1c0 -101 -76 -165 -159 -165c-66 0 -118 41 -191 124c-56 -63 -113 -124 -198 -124s-156 70 -156 161c0 95 69 165 163 165c79 0 139 -60 194 -125c55 61 108 125 196 125c91 0 151 -65 151 -160zM216 189h1c67 0 119 66 162 112c-46 57 -94 120 -170 120
c-67 0 -105 -56 -105 -120c1 -62 45 -112 112 -112zM600 421h-1c-70 0 -127 -78 -164 -115c70 -77 110 -117 167 -117c67 0 105 58 105 114c0 74 -46 118 -107 118z" />
	<glyph glyph-name="integral" unicode="&#x222b;" horiz-adv-x="372" 
d="M353 887l-13 -53c-8 6 -24 11 -37 11c-18 0 -39 -7 -53 -25c-27 -32 -36 -89 -36 -190c0 -165 14 -361 14 -533c0 -114 -21 -177 -45 -213c-22 -36 -62 -53 -102 -53c-27 0 -55 9 -67 17l14 55c9 -4 26 -12 47 -12c17 0 36 8 48 24c21 27 36 75 36 183
c0 173 -14 373 -14 539c0 116 15 181 55 223c26 28 62 41 97 41c22 0 46 -8 56 -14z" />
	<glyph glyph-name="approxequal" unicode="&#x2248;" horiz-adv-x="586" 
d="M506 452l31 -27c-28 -55 -70 -99 -134 -99c-42 0 -71 16 -122 44c-32 19 -62 36 -97 36c-49 0 -78 -37 -104 -78l-32 26c31 61 82 100 143 100c50 0 88 -28 117 -43c36 -20 61 -37 98 -37c43 0 70 27 100 78zM506 275l31 -27c-28 -54 -69 -99 -134 -99
c-42 0 -71 17 -122 44c-32 19 -62 36 -97 36c-50 0 -78 -38 -104 -79l-32 27c31 62 83 100 142 100c52 0 89 -27 117 -42c35 -20 61 -37 100 -37c43 0 69 27 99 77z" />
	<glyph glyph-name="notequal" unicode="&#x2260;" horiz-adv-x="586" 
d="M415 529l-47 -103h164v-49h-184l-70 -154h254v-49h-274l-57 -123l-39 18l48 105h-157v49h178l70 154h-248v49h268l55 121z" />
	<glyph glyph-name="lessequal" unicode="&#x2264;" horiz-adv-x="586" 
d="M529 103l-470 236v52l470 236v-60l-416 -200v-2l416 -203v-59zM532 9h-479v51h479v-51z" />
	<glyph glyph-name="greaterequal" unicode="&#x2265;" horiz-adv-x="586" 
d="M60 627l470 -236v-52l-470 -236v59l416 202v2l-416 201v60zM532 9h-478v51h478v-51z" />
	<glyph glyph-name="lozenge" unicode="&#x25ca;" horiz-adv-x="594" 
d="M536 369l-210 -416h-61l-208 416l210 416h62zM467 367l-150 297c-7 18 -15 41 -19 56h-3c-5 -16 -11 -36 -20 -56l-149 -294l151 -300c9 -21 15 -41 18 -53h4c3 13 12 39 18 53z" />
	<glyph glyph-name="uni02C9" unicode="&#x2c9;" 
d="M456 711v-62h-357v62h357z" />
	<glyph glyph-name="uni00AD" unicode="&#xad;" horiz-adv-x="271" 
d="M0 317h271v-73h-271v73z" />
	<glyph glyph-name="uni03A9" unicode="&#x3a9;" horiz-adv-x="746" 
d="M207 63v3c-74 67 -141 182 -141 331c0 209 134 353 310 353c185 0 303 -164 303 -349c0 -154 -72 -274 -143 -335v-3h157v-63h-247v46c80 54 157 173 157 341c0 139 -77 299 -228 299c-142 0 -233 -134 -233 -301c0 -158 78 -287 157 -339v-46h-247v63h155z" />
	<glyph glyph-name="uni00A0" unicode="&#xa0;" horiz-adv-x="288" 
 />
	<glyph glyph-name="afii61289" unicode="&#x2113;" horiz-adv-x="502" 
d="M441 154l37 -31c-45 -87 -112 -131 -193 -131c-119 0 -167 92 -171 197v14c-18 -15 -40 -33 -60 -49l-23 44c29 25 58 48 82 73v290c0 192 82 253 159 253c87 0 128 -76 128 -170c0 -134 -86 -261 -215 -389v-35c1 -120 55 -168 115 -168c66 0 115 55 141 102zM185 567
v-236c91 101 162 205 162 311c0 68 -20 114 -75 114c-39 0 -87 -47 -87 -189z" />
	<glyph glyph-name="uni03BC" unicode="&#x3bc;" horiz-adv-x="585" 
d="M69 -184v722h74v-291c0 -48 2 -102 33 -141c33 -42 79 -52 115 -52c49 0 87 20 114 58s41 95 41 167v259h73v-538h-71v102c-14 -36 -50 -114 -157 -114c-93 0 -130 49 -148 78v-77v-173h-74z" />
	<glyph glyph-name="uni2215" unicode="&#x2215;" horiz-adv-x="127" 
d="M-131 0l323 740h65l-323 -740h-65z" />
	<glyph glyph-name="a.superior" horiz-adv-x="421" 
d="M372 745v-318h-51v65c-26 -51 -74 -73 -127 -73c-100 0 -168 78 -168 167c0 97 76 167 168 167c57 0 101 -27 127 -75v67h51zM78 584v-1c0 -50 42 -116 122 -116c52 0 90 28 109 65c8 17 12 35 12 54c0 18 -3 34 -10 50c-19 40 -61 69 -112 69c-64 0 -121 -48 -121 -121z
" />
	<glyph glyph-name="o.superior" horiz-adv-x="421" 
d="M42 584v1c0 90 66 168 167 168c105 0 170 -81 170 -167c0 -94 -75 -167 -170 -167c-97 0 -167 78 -167 165zM93 584v-1c0 -62 52 -116 116 -116c62 0 118 50 119 119c-1 65 -50 119 -117 119c-62 0 -118 -48 -118 -121z" />
	<glyph glyph-name="one.superior" horiz-adv-x="370" 
d="M221 740v-444h-59v392h-90v52h149z" />
	<glyph glyph-name="two.superior" horiz-adv-x="370" 
d="M330 348v-52h-294v48l168 165c40 41 58 69 58 102c0 42 -20 85 -80 85c-54 0 -84 -45 -84 -105h-59c0 39 8 73 29 101c31 43 77 56 117 56c88 0 142 -49 142 -132c0 -50 -22 -85 -64 -127c-47 -46 -93 -94 -140 -141h207z" />
	<glyph glyph-name="three.superior" horiz-adv-x="370" 
d="M29 431h62c2 -64 48 -91 91 -91c57 0 90 38 90 89c0 37 -27 88 -96 88h-36v46h26c61 0 80 44 80 68c0 33 -21 64 -62 65c-44 1 -65 -30 -67 -66h-61c3 92 81 118 129 118c68 0 121 -48 121 -111c0 -44 -28 -76 -57 -92c50 -19 85 -65 85 -118c0 -80 -66 -139 -153 -139
c-48 0 -98 19 -126 58c-17 25 -25 55 -26 85z" />
	<glyph glyph-name="uni2206" unicode="&#x2206;" horiz-adv-x="671" 
d="M33 0v52l261 706h87l257 -705v-53h-605zM109 62h448l-152 410c-18 57 -56 147 -69 196h-4c-10 -40 -44 -123 -62 -180z" />
	<glyph glyph-name="uni2010" unicode="&#x2010;" horiz-adv-x="271" 
d="M0 317h271v-73h-271v73z" />
	</font>
</defs>
</svg>
