<?xml version="1.0" standalone="no"?>
<!DOCTYPE svg PUBLIC "-//W3C//DTD SVG 1.1//EN" "http://www.w3.org/Graphics/SVG/1.1/DTD/svg11.dtd" >
<svg>
<metadata>
Created by FontForge 20120731 at Wed Jun  6 21:33:25 2018
 By www-data
Copyright 1993, 1994, 2001, 2002 Adobe Systems Incorporated. All rights reserved. ITC and Avant Garde are trademarks of International Typeface Corporation registered in the U.S. Patent and Trademark Office and may be registered in certain other jurisdictions.
</metadata>
<defs>
<font id="ITCAvantGardeStd-DemiCn" horiz-adv-x="542" >
  <font-face 
	font-family="ITC Avant Garde Gothic Std Demi Condensed"
	font-weight="600"
	font-stretch="condensed"
	units-per-em="1000"
	panose-1="2 11 6 6 2 2 2 2 2 4"
	ascent="740"
	descent="-260"
	x-height="559"
	cap-height="740"
	bbox="-162 -250 1001 987"
	underline-thickness="50"
	underline-position="-50"
	stemh="102"
	stemv="108"
	unicode-range="U+0020-FB02"
  />
<missing-glyph horiz-adv-x="500" 
d="M0 0v700h500v-700h-500zM250 395l170 255h-340zM280 350l170 -255v510zM80 50h340l-170 255zM50 605v-510l170 255z" />
	<glyph glyph-name="f_i" unicode="fi" horiz-adv-x="507" 
d="M327 457h-139v-457h-108v457h-55v102h55v30c0 155 131 164 190 164v-94c-38 -1 -82 -10 -82 -81v-19h248v-559h-109v457zM436 633h-109v107h109v-107z" />
	<glyph glyph-name="f_l" unicode="fl" horiz-adv-x="507" 
d="M327 457h-139v-457h-108v457h-55v102h55v30c0 155 131 164 190 164v-94c-38 -1 -82 -10 -82 -81v-19h139v181h109v-740h-109v457z" />
	<glyph glyph-name=".notdef" horiz-adv-x="500" 
d="M0 0v700h500v-700h-500zM250 395l170 255h-340zM280 350l170 -255v510zM80 50h340l-170 255zM50 605v-510l170 255z" />
	<glyph glyph-name="space" unicode=" " horiz-adv-x="264" 
 />
	<glyph glyph-name="exclam" unicode="!" horiz-adv-x="267" 
d="M193 740v-544h-119v544h119zM193 135v-135h-119v135h119z" />
	<glyph glyph-name="quotedbl" unicode="&#x22;" horiz-adv-x="310" 
d="M120 452h-101v288h101v-288zM291 452h-101v288h101v-288z" />
	<glyph glyph-name="numbersign" unicode="#" 
d="M391 224l-23 -175h-85l23 175h-105l-24 -175h-84l24 175h-98v80h109l18 129h-99v79h109l23 171h85l-23 -171h106l23 171h83l-22 -171h92v-79h-103l-18 -129h93v-80h-104zM319 304l17 129h-106l-17 -129h106z" />
	<glyph glyph-name="dollar" unicode="$" 
d="M321 795v-74c99 -18 146 -98 150 -186h-118c-7 53 -48 84 -87 84c-42 0 -79 -31 -79 -83c0 -66 74 -85 150 -117c70 -30 153 -78 153 -208c0 -103 -63 -195 -169 -200v-84h-95v84c-109 6 -174 101 -174 208h122c3 -68 46 -106 104 -106c51 0 89 42 89 98
c0 80 -76 100 -154 131c-69 28 -146 71 -146 191c0 101 59 178 159 188v74h95z" />
	<glyph glyph-name="percent" unicode="%" horiz-adv-x="848" 
d="M39 570v1c0 113 72 181 172 181c101 0 173 -68 173 -182c0 -113 -72 -182 -173 -182c-100 0 -172 69 -172 182zM124 570v-1c0 -62 38 -100 87 -100c50 0 88 38 88 101c0 64 -38 102 -88 102c-49 0 -87 -38 -87 -102zM463 170v1c0 112 73 181 173 181s173 -69 173 -182
c0 -114 -73 -182 -173 -182s-173 68 -173 182zM549 170v-1c0 -63 37 -101 87 -101s87 38 87 102c0 63 -37 101 -87 101s-87 -38 -87 -101zM667 749l-389 -758h-94l389 758h94z" />
	<glyph glyph-name="ampersand" unicode="&#x26;" horiz-adv-x="656" 
d="M497 431h121l-118 -224l111 -137l-84 -73l-86 110c-50 -68 -108 -121 -190 -121c-133 0 -216 101 -216 216c0 119 68 192 143 228c-35 38 -68 86 -69 147c0 112 84 177 175 177c100 0 167 -84 167 -170c0 -85 -57 -148 -112 -179l88 -110zM283 655h-1
c-39 0 -64 -30 -64 -67c0 -36 26 -69 59 -102c41 28 65 61 65 98c0 35 -24 71 -59 71zM369 195l-116 146c-63 -32 -92 -80 -92 -126c0 -59 38 -110 100 -110c52 0 86 49 108 90z" />
	<glyph glyph-name="quoteright" unicode="&#x2019;" horiz-adv-x="235" 
d="M23 513l80 227h115l-96 -227h-99z" />
	<glyph glyph-name="parenleft" unicode="(" horiz-adv-x="367" 
d="M332 745v-113c-108 -75 -177 -214 -177 -372s68 -294 177 -373v-113c-147 74 -277 255 -277 486c0 230 131 415 277 485z" />
	<glyph glyph-name="parenright" unicode=")" horiz-adv-x="367" 
d="M35 -226v113c108 75 177 215 177 372c0 158 -68 294 -177 373v113c147 -74 278 -254 278 -486c0 -230 -132 -415 -278 -485z" />
	<glyph glyph-name="asterisk" unicode="*" horiz-adv-x="412" 
d="M250 740l-24 -146l115 93l43 -77l-135 -50l135 -50l-45 -80l-115 95l26 -145h-89l25 147l-112 -97l-46 81l135 51l-135 48l43 77l116 -92l-26 145h89z" />
	<glyph glyph-name="plus" unicode="+" horiz-adv-x="576" 
d="M337 505v-203h197v-99h-197v-203h-99v203h-196v99h196v203h99z" />
	<glyph glyph-name="comma" unicode="," horiz-adv-x="270" 
d="M198 132l-85 -227h-88l70 227h103z" />
	<glyph glyph-name="hyphen" unicode="-" horiz-adv-x="306" 
d="M35 336h235v-106h-235v106z" />
	<glyph glyph-name="period" unicode="." horiz-adv-x="270" 
d="M189 132v-132h-108v132h108z" />
	<glyph glyph-name="slash" unicode="/" horiz-adv-x="278" 
d="M-45 -33l259 782h109l-259 -782h-109z" />
	<glyph glyph-name="zero" unicode="0" 
d="M45 236v268c0 156 94 248 226 248s227 -92 227 -248v-268c0 -156 -95 -248 -227 -248s-226 92 -226 248zM160 497v-254c0 -103 55 -144 111 -144s112 41 112 144v254c0 103 -56 144 -112 144s-111 -41 -111 -144z" />
	<glyph glyph-name="one" unicode="1" 
d="M228 0v632h-114v108h229v-740h-115z" />
	<glyph glyph-name="two" unicode="2" 
d="M48 0v119c85 88 149 159 199 213c84 87 111 130 111 192c0 71 -43 107 -93 107c-49 0 -97 -28 -99 -128h-122c1 87 26 149 66 189c41 42 96 60 157 60c127 0 216 -95 216 -230c0 -64 -18 -123 -69 -187c-49 -61 -116 -130 -206 -222h278v-113h-438z" />
	<glyph glyph-name="three" unicode="3" 
d="M182 543h-124c2 137 89 209 213 209c123 0 203 -76 203 -190c0 -81 -36 -128 -99 -151c98 -30 129 -114 129 -197c0 -127 -82 -226 -229 -226c-93 0 -164 39 -204 105c-22 37 -34 82 -35 133h125c0 -81 46 -126 113 -126c64 0 104 47 104 120c0 82 -52 128 -132 128h-41
v108h34c73 0 110 35 110 94c0 51 -28 90 -86 90c-56 0 -80 -43 -81 -97z" />
	<glyph glyph-name="four" unicode="4" 
d="M309 0v147h-273v108l269 485h119v-485h69v-108h-69v-147h-115zM144 255h165v312z" />
	<glyph glyph-name="five" unicode="5" 
d="M96 740h369v-102h-260l-16 -175c26 37 62 53 116 53c114 0 197 -94 197 -252c0 -170 -79 -276 -232 -276c-136 0 -211 84 -221 230h122c3 -64 42 -118 100 -118c74 0 106 55 106 155c0 99 -42 149 -101 149c-36 0 -70 -22 -90 -70l-117 2z" />
	<glyph glyph-name="six" unicode="6" 
d="M304 740h133l-159 -229c-12 -18 -27 -36 -36 -51c19 13 39 17 57 17c114 0 204 -98 204 -236c0 -140 -87 -253 -231 -253c-77 0 -128 28 -160 60c-43 41 -73 106 -73 198s35 158 86 233zM167 228v-1c0 -83 44 -135 105 -135c64 0 103 55 103 141c0 85 -38 140 -103 140
c-63 0 -105 -54 -105 -145z" />
	<glyph glyph-name="seven" unicode="7" 
d="M59 740h425v-100l-235 -640h-129l235 632h-296v108z" />
	<glyph glyph-name="eight" unicode="8" 
d="M63 555v1c0 113 87 196 208 196s209 -82 209 -197c0 -63 -34 -117 -84 -146c70 -26 112 -103 112 -187c-1 -148 -102 -234 -237 -234c-134 0 -236 86 -237 234c1 97 52 159 112 189c-55 27 -83 85 -83 144zM187 539v-1c0 -53 37 -93 85 -93c46 0 84 40 84 94
c0 58 -38 101 -86 101c-46 0 -83 -43 -83 -101zM161 222v-1c0 -67 47 -121 110 -121s110 54 110 122c0 61 -47 115 -110 115s-110 -54 -110 -115z" />
	<glyph glyph-name="nine" unicode="9" 
d="M238 0h-133l160 229c12 18 26 36 36 51c-20 -13 -40 -17 -58 -17c-113 0 -204 98 -204 236c0 140 87 253 232 253c76 0 128 -28 159 -60c43 -41 73 -106 73 -198s-34 -158 -86 -233zM374 512v1c0 83 -45 135 -105 135c-64 0 -103 -55 -103 -141c0 -85 38 -140 103 -140
c63 0 105 54 105 145z" />
	<glyph glyph-name="colon" unicode=":" horiz-adv-x="270" 
d="M189 500v-132h-108v132h108zM189 132v-132h-108v132h108z" />
	<glyph glyph-name="semicolon" unicode=";" horiz-adv-x="270" 
d="M193 500v-132h-109v132h109zM198 132l-85 -227h-88l70 227h103z" />
	<glyph glyph-name="less" unicode="&#x3c;" horiz-adv-x="576" 
d="M42 302l492 210v-109l-362 -151l362 -150v-109l-492 210v99z" />
	<glyph glyph-name="equal" unicode="=" horiz-adv-x="576" 
d="M42 409h492v-99h-492v99zM42 195h492v-99h-492v99z" />
	<glyph glyph-name="greater" unicode="&#x3e;" horiz-adv-x="576" 
d="M42 102l361 150l-361 151v109l492 -210v-99l-492 -210v109z" />
	<glyph glyph-name="question" unicode="?" horiz-adv-x="491" 
d="M290 192h-119c0 76 -11 142 43 207c45 57 113 91 113 151c0 54 -34 89 -88 89c-42 0 -82 -26 -85 -90c-1 -9 -1 -17 -1 -26h-122v33c5 134 96 196 213 196c114 0 209 -83 209 -207c0 -83 -47 -131 -91 -173c-77 -71 -72 -84 -72 -180zM290 135v-135h-119v135h119z" />
	<glyph glyph-name="at" unicode="@" horiz-adv-x="783" 
d="M617 154h84c-66 -110 -174 -166 -289 -166c-216 0 -369 159 -369 380c0 226 155 384 366 384c165 0 331 -117 331 -310c0 -226 -180 -292 -237 -292c-27 0 -55 14 -61 57c-21 -27 -50 -56 -107 -56c-62 0 -135 57 -135 170c0 126 79 246 193 246c51 0 88 -21 114 -64
l11 52h76l-54 -250c-1 -6 -6 -29 -6 -40c-1 -21 12 -26 21 -26c47 0 113 53 113 178c0 171 -117 258 -261 258c-158 0 -277 -127 -277 -307c0 -186 112 -303 287 -303c82 0 157 28 200 89zM293 334v-1c0 -56 29 -87 71 -87c57 0 91 45 104 86c4 15 13 42 13 60
c0 59 -40 87 -77 87c-59 0 -111 -70 -111 -145z" />
	<glyph glyph-name="A" unicode="A" horiz-adv-x="533" 
d="M171 171l-46 -171h-124l205 740h115l211 -740h-124l-47 171h-190zM329 283l-64 286l-64 -286h128z" />
	<glyph glyph-name="B" unicode="B" horiz-adv-x="534" 
d="M65 0v740h196c71 0 117 -17 149 -47c39 -33 55 -86 55 -139c0 -93 -49 -140 -115 -153c94 -23 146 -86 146 -189c0 -67 -23 -122 -65 -159c-33 -32 -83 -53 -146 -53h-220zM187 632v-192h53c30 0 53 6 69 19c22 19 30 45 30 79c0 36 -12 61 -30 75c-15 12 -36 19 -75 19
h-47zM187 332v-224h70c36 0 61 8 78 23c24 17 36 45 36 86c1 40 -13 72 -36 90c-17 16 -43 25 -81 25h-67z" />
	<glyph glyph-name="C" unicode="C" horiz-adv-x="589" 
d="M428 269h124c-1 -153 -87 -283 -254 -283c-160 0 -263 128 -263 384c0 250 98 384 263 384c170 0 256 -134 254 -293h-124c-3 118 -41 177 -121 177c-93 0 -147 -87 -147 -271c0 -189 63 -265 147 -265c93 0 117 85 121 167z" />
	<glyph glyph-name="D" unicode="D" horiz-adv-x="600" 
d="M64 0v740h196c106 0 183 -35 235 -108c45 -64 69 -155 69 -262c0 -233 -114 -370 -300 -370h-200zM186 627v-514h76c143 0 177 136 177 257c0 83 -13 147 -41 190c-28 44 -71 67 -140 67h-72z" />
	<glyph glyph-name="E" unicode="E" horiz-adv-x="490" 
d="M70 0v740h355v-113h-233v-187h233v-112h-233v-215h233v-113h-355z" />
	<glyph glyph-name="F" unicode="F" horiz-adv-x="436" 
d="M61 0v740h333v-113h-211v-185h211v-113h-211v-329h-122z" />
	<glyph glyph-name="G" unicode="G" horiz-adv-x="611" 
d="M565 485h-125c0 33 -8 66 -22 91c-21 38 -52 65 -106 65c-95 0 -152 -84 -152 -271c0 -194 57 -271 152 -271c49 0 84 20 106 59c21 37 27 78 26 123h-158v113h283v-131c-2 -143 -88 -277 -257 -277c-190 0 -277 151 -277 384c0 230 97 384 277 384
c155 0 245 -110 253 -269z" />
	<glyph glyph-name="H" unicode="H" horiz-adv-x="587" 
d="M187 0h-122v740h122v-300h213v300h122v-740h-122v328h-213v-328z" />
	<glyph glyph-name="I" unicode="I" horiz-adv-x="252" 
d="M65 0v740h122v-740h-122z" />
	<glyph glyph-name="J" unicode="J" horiz-adv-x="472" 
d="M403 740v-545c0 -36 -5 -71 -17 -101c-16 -35 -41 -63 -75 -81c-31 -18 -69 -27 -107 -27c-112 0 -194 64 -199 187c0 12 -1 25 -1 37h122c0 -4 1 -9 1 -14c6 -81 37 -97 78 -97c31 0 51 15 62 35c10 18 14 44 14 83v523h122z" />
	<glyph glyph-name="K" unicode="K" horiz-adv-x="520" 
d="M65 0v740h122v-344l191 344h134l-212 -362l228 -378h-141l-200 347v-347h-122z" />
	<glyph glyph-name="L" unicode="L" horiz-adv-x="426" 
d="M70 0v740h122v-627h211v-113h-333z" />
	<glyph glyph-name="M" unicode="M" horiz-adv-x="751" 
d="M176 0h-109v740h181l130 -536l125 536h181v-740h-109v611l-150 -611h-95l-154 611v-611z" />
	<glyph glyph-name="N" unicode="N" horiz-adv-x="605" 
d="M197 740l232 -505v505h108v-740h-115l-246 535v-535h-109v740h130z" />
	<glyph glyph-name="O" unicode="O" horiz-adv-x="612" 
d="M35 370v1c0 226 90 383 270 383c181 0 271 -157 271 -384c0 -216 -84 -384 -271 -384c-180 0 -270 157 -270 384zM160 370v-1c0 -187 52 -270 145 -270c94 0 146 83 146 271s-52 271 -146 271c-93 0 -145 -83 -145 -271z" />
	<glyph glyph-name="P" unicode="P" horiz-adv-x="530" 
d="M70 740h183c76 0 134 -18 178 -58c43 -38 70 -101 70 -175c0 -76 -27 -137 -70 -176c-44 -40 -103 -58 -178 -58h-61v-273h-122v740zM192 627v-241h60c44 0 71 6 93 28c19 18 30 50 30 92c0 43 -11 76 -31 94c-21 20 -48 27 -92 27h-60z" />
	<glyph glyph-name="Q" unicode="Q" horiz-adv-x="613" 
d="M579 102v-113c-10 -1 -21 -3 -31 -3c-46 0 -78 14 -105 42c-35 -25 -83 -42 -138 -42c-180 0 -270 157 -270 384s90 384 270 384c181 0 271 -157 271 -384c0 -104 -21 -193 -56 -255c15 -15 36 -17 59 -13zM305 641h-1c-92 0 -144 -86 -144 -271c0 -41 5 -70 8 -88
c24 12 54 24 94 24c28 0 54 -7 83 -23c26 -16 56 -41 82 -75c11 29 24 86 24 162c0 185 -52 271 -146 271zM305 99h1c25 0 48 5 69 23c-15 20 -31 39 -53 55c-22 15 -48 25 -83 25c-19 0 -38 -6 -53 -17c22 -51 61 -86 119 -86z" />
	<glyph glyph-name="R" unicode="R" horiz-adv-x="535" 
d="M65 0v740h172c107 0 165 -24 196 -57c42 -43 66 -100 66 -174c0 -42 -7 -85 -26 -120c-25 -48 -60 -78 -103 -93l143 -296h-137l-163 364c14 0 22 0 33 1c36 1 68 10 91 32c27 27 37 64 37 101c0 40 -9 80 -43 107c-23 18 -57 22 -98 22h-46v-627h-122z" />
	<glyph glyph-name="S" unicode="S" horiz-adv-x="532" 
d="M35 222h121c5 -92 47 -128 109 -128c65 0 107 42 107 110c0 83 -85 102 -162 130c-73 29 -163 71 -163 199c-1 136 83 222 214 222c127 0 201 -63 221 -203h-118c-4 54 -33 101 -98 101c-58 0 -94 -43 -94 -101c0 -80 78 -97 163 -128c71 -28 162 -74 162 -217
c0 -136 -100 -221 -233 -221c-148 0 -228 83 -229 236z" />
	<glyph glyph-name="T" unicode="T" horiz-adv-x="432" 
d="M155 0v627h-134v113h390v-113h-134v-627h-122z" />
	<glyph glyph-name="U" unicode="U" horiz-adv-x="589" 
d="M62 740h122v-518c0 -39 6 -70 28 -92c18 -21 47 -29 82 -29s64 8 83 29c21 22 27 53 27 92v518h122v-535c0 -67 -16 -120 -54 -158c-37 -38 -96 -61 -178 -61c-83 0 -141 23 -178 61s-54 91 -54 158v535z" />
	<glyph glyph-name="V" unicode="V" horiz-adv-x="536" 
d="M213 0l-207 740h120l144 -558l144 558h116l-207 -740h-110z" />
	<glyph glyph-name="W" unicode="W" horiz-adv-x="814" 
d="M182 0l-178 740h123l115 -533l111 533h112l111 -533l112 533h122l-175 -740h-113l-115 553l-113 -553h-112z" />
	<glyph glyph-name="X" unicode="X" horiz-adv-x="520" 
d="M2 0l192 398l-164 342h125l106 -237l105 237h127l-166 -342l190 -398h-129l-127 287l-130 -287h-129z" />
	<glyph glyph-name="Y" unicode="Y" horiz-adv-x="480" 
d="M179 0v286l-183 454h126l119 -339l117 339h126l-183 -454v-286h-122z" />
	<glyph glyph-name="Z" unicode="Z" horiz-adv-x="495" 
d="M452 630l-275 -517h279v-113h-421v106l274 521h-260v113h403v-110z" />
	<glyph glyph-name="bracketleft" unicode="[" horiz-adv-x="367" 
d="M312 -118v-86h-241v944h241v-86h-143v-772h143z" />
	<glyph glyph-name="backslash" unicode="\" horiz-adv-x="278" 
d="M219 -33l-260 782h101l260 -782h-101z" />
	<glyph glyph-name="bracketright" unicode="]" horiz-adv-x="367" 
d="M55 -204v86h143v772h-143v86h242v-944h-242z" />
	<glyph glyph-name="asciicircum" unicode="^" horiz-adv-x="576" 
d="M70 386l166 354h102l167 -354h-103l-115 255l-114 -255h-103z" />
	<glyph glyph-name="underscore" unicode="_" horiz-adv-x="500" 
d="M500 -125h-500v50h500v-50z" />
	<glyph glyph-name="quoteleft" unicode="&#x2018;" horiz-adv-x="235" 
d="M133 740l79 -227h-99l-96 227h116z" />
	<glyph glyph-name="a" unicode="a" horiz-adv-x="496" 
d="M435 559v-559h-99c0 30 0 52 1 73c-25 -56 -64 -85 -123 -85c-105 0 -181 100 -181 291c0 183 65 292 181 292c50 0 100 -22 123 -88c-1 25 -1 48 -1 76h99zM141 279v-1c0 -124 34 -183 94 -183c34 0 52 14 69 39c20 27 23 63 23 145c0 83 -3 119 -23 146
c-17 24 -35 38 -69 38c-60 0 -94 -58 -94 -184z" />
	<glyph glyph-name="b" unicode="b" horiz-adv-x="496" 
d="M61 0v740h108v-181v-73c15 49 52 85 113 85c116 0 181 -109 181 -291c0 -192 -76 -292 -181 -292c-56 0 -98 26 -122 87v-75h-99zM355 279v1c0 113 -28 183 -93 183c-80 0 -93 -89 -93 -184c0 -94 13 -184 93 -184c65 0 93 71 93 184z" />
	<glyph glyph-name="c" unicode="c" horiz-adv-x="444" 
d="M314 204h112c-4 -114 -63 -216 -181 -216c-139 0 -216 117 -216 291c0 185 84 292 215 292c119 0 179 -101 181 -218h-112c-4 84 -35 116 -77 116c-28 0 -52 -11 -68 -44c-17 -33 -25 -78 -25 -146c0 -134 34 -190 94 -190c50 0 73 49 77 115z" />
	<glyph glyph-name="d" unicode="d" horiz-adv-x="496" 
d="M435 740v-740h-99c0 33 0 57 1 81c-15 -58 -64 -93 -123 -93c-105 0 -181 100 -181 291c0 183 65 292 181 292c50 0 90 -22 114 -81c-1 22 -1 44 -1 69v181h108zM141 280v-1c0 -125 34 -183 94 -183c34 0 52 14 69 38c20 28 23 63 23 146c0 82 -3 118 -23 145
c-17 25 -35 39 -69 39c-60 0 -94 -59 -94 -184z" />
	<glyph glyph-name="e" unicode="e" horiz-adv-x="491" 
d="M454 242h-301c0 -78 27 -153 99 -153c47 0 79 31 90 85h107c-11 -70 -40 -118 -76 -147c-37 -28 -81 -39 -121 -39c-149 0 -215 136 -215 291c0 166 73 292 214 292c71 0 124 -31 158 -85c43 -70 47 -160 45 -244zM153 335h193c-1 64 -23 146 -95 146
c-59 0 -98 -55 -98 -146z" />
	<glyph glyph-name="f" unicode="f" horiz-adv-x="267" 
d="M73 0v457h-56v102h56v30c0 155 131 164 190 164v-94c-38 -1 -82 -10 -82 -81v-19h82v-102h-82v-457h-108z" />
	<glyph glyph-name="g" unicode="g" horiz-adv-x="496" 
d="M435 559v-551c0 -68 -17 -117 -50 -152c-34 -37 -85 -56 -150 -56c-84 0 -180 50 -192 163h113c4 -20 11 -34 23 -44c15 -13 34 -18 57 -18c59 0 92 33 93 113v56c-16 -53 -54 -82 -115 -82c-123 0 -181 109 -181 291c0 183 58 292 181 292c57 0 98 -21 129 -87
c-1 24 -1 48 -1 75h93zM141 279v-1c0 -124 34 -183 94 -183c34 0 52 14 69 39c20 27 23 63 23 145c0 83 -3 119 -23 146c-17 24 -35 38 -69 38c-60 0 -94 -58 -94 -184z" />
	<glyph glyph-name="h" unicode="h" horiz-adv-x="499" 
d="M61 0v740h108v-172c0 -22 0 -42 -1 -65c16 41 51 68 119 68c51 0 89 -17 114 -47c27 -31 38 -75 38 -132v-392h-108v360c0 33 -4 57 -17 76c-12 20 -35 27 -57 27c-21 0 -46 -4 -64 -26c-16 -17 -24 -41 -24 -82v-355h-108z" />
	<glyph glyph-name="i" unicode="i" horiz-adv-x="254" 
d="M73 633v107h108v-107h-108zM73 0v559h108v-559h-108z" />
	<glyph glyph-name="j" unicode="j" horiz-adv-x="252" 
d="M72 633v107h108v-107h-108zM180 559v-580c0 -100 -41 -169 -137 -175c-11 -1 -23 -1 -34 -1v103h8c42 5 55 35 55 89v564h108z" />
	<glyph glyph-name="k" unicode="k" horiz-adv-x="425" 
d="M55 0v740h108v-415l136 234h122l-162 -251l169 -308h-117l-148 266v-266h-108z" />
	<glyph glyph-name="l" unicode="l" horiz-adv-x="254" 
d="M73 0v740h108v-740h-108z" />
	<glyph glyph-name="m" unicode="m" horiz-adv-x="769" 
d="M65 0v559h103c0 -25 0 -49 -1 -75c22 67 68 87 124 87c35 0 64 -9 87 -30c12 -11 22 -28 28 -47c9 21 23 37 40 50c26 17 60 27 96 27c61 0 103 -26 128 -61c25 -33 35 -83 35 -132v-378h-108v362c0 30 -3 54 -13 70c-11 21 -32 31 -60 31c-24 0 -46 -4 -63 -24
c-16 -18 -22 -45 -22 -74v-365h-108v361c0 31 -3 53 -13 71c-10 21 -32 31 -59 31c-25 0 -47 -5 -63 -23c-16 -19 -22 -46 -22 -76v-364h-109z" />
	<glyph glyph-name="n" unicode="n" horiz-adv-x="499" 
d="M61 0v559h95c0 -23 0 -45 -1 -69c24 54 66 81 133 81c92 0 151 -51 151 -173v-398h-108v363c0 45 -9 100 -75 100c-52 0 -87 -32 -87 -105v-358h-108z" />
	<glyph glyph-name="o" unicode="o" horiz-adv-x="497" 
d="M33 279v1c0 160 68 291 216 291c147 0 215 -131 215 -292c0 -160 -68 -291 -215 -291c-148 0 -216 131 -216 291zM147 279v-1c0 -137 37 -189 103 -189c63 0 100 52 100 190c0 139 -37 190 -103 190c-63 0 -100 -51 -100 -190z" />
	<glyph glyph-name="p" unicode="p" horiz-adv-x="496" 
d="M61 -188v747h99v-73c21 53 60 85 122 85c105 0 181 -100 181 -292c0 -182 -65 -291 -181 -291c-53 0 -94 30 -113 76v-64v-188h-108zM355 279v1c0 125 -33 183 -94 183c-31 0 -49 -14 -66 -38c-20 -27 -26 -63 -26 -146c0 -82 6 -118 26 -145c17 -25 35 -39 66 -39
c61 0 94 59 94 184z" />
	<glyph glyph-name="q" unicode="q" horiz-adv-x="496" 
d="M435 559v-747h-108v188c0 28 0 49 1 69c-22 -55 -61 -81 -114 -81c-116 0 -181 109 -181 291c0 192 76 292 181 292c57 0 106 -31 120 -85c-1 23 -1 46 -1 73h102zM141 279v-1c0 -124 34 -183 94 -183c34 0 52 14 69 39c20 27 23 63 23 145c0 83 -3 119 -23 146
c-17 24 -35 38 -69 38c-60 0 -94 -58 -94 -184z" />
	<glyph glyph-name="r" unicode="r" horiz-adv-x="312" 
d="M61 0v559h99c0 -34 0 -62 -1 -90c23 85 81 102 145 102v-131c-15 10 -31 13 -46 13c-49 0 -89 -48 -89 -137v-316h-108z" />
	<glyph glyph-name="s" unicode="s" horiz-adv-x="428" 
d="M385 401h-108c-1 53 -26 76 -71 76c-37 0 -60 -24 -60 -58c0 -54 59 -64 124 -84c62 -20 129 -57 129 -170c0 -103 -79 -177 -186 -177c-105 0 -184 59 -193 185h108c2 -54 37 -87 87 -87s70 34 70 72c0 56 -58 69 -125 91c-66 22 -128 59 -128 166c0 91 65 156 178 156
s169 -63 175 -170z" />
	<glyph glyph-name="t" unicode="t" horiz-adv-x="267" 
d="M80 0v457h-67v102h67v133h108v-133h66v-102h-66v-457h-108z" />
	<glyph glyph-name="u" unicode="u" horiz-adv-x="499" 
d="M438 559v-559h-99c0 24 0 48 1 74c-20 -59 -62 -86 -130 -86c-91 0 -150 51 -150 173v398h108v-363c0 -45 9 -101 75 -101c51 0 87 33 87 106v358h108z" />
	<glyph glyph-name="v" unicode="v" horiz-adv-x="424" 
d="M420 559l-152 -559h-100l-165 559h110l103 -399l95 399h109z" />
	<glyph glyph-name="w" unicode="w" horiz-adv-x="649" 
d="M140 0l-138 559h111l81 -395l86 376h91l89 -376l76 395h111l-137 -559h-102l-82 377l-81 -377h-105z" />
	<glyph glyph-name="x" unicode="x" horiz-adv-x="455" 
d="M4 0l156 289l-144 270h127l83 -190l86 190h123l-143 -270l159 -289h-128l-97 208l-94 -208h-128z" />
	<glyph glyph-name="y" unicode="y" horiz-adv-x="426" 
d="M90 -188l69 214l-155 533h113l97 -369l96 369h113l-223 -747h-110z" />
	<glyph glyph-name="z" unicode="z" horiz-adv-x="426" 
d="M25 0v101l229 356h-210v102h338v-102l-225 -355h229v-102h-361z" />
	<glyph glyph-name="braceleft" unicode="{" horiz-adv-x="367" 
d="M299 740v-85h-52c-43 0 -59 -19 -59 -77v-196c-1 -88 -69 -118 -83 -126c38 -8 82 -31 83 -124v-195c0 -60 16 -77 59 -77h52v-85h-89c-85 0 -120 53 -120 134v209c0 54 -21 89 -62 97v83c37 2 62 42 62 98v210c0 81 35 134 120 134h89z" />
	<glyph glyph-name="bar" unicode="|" horiz-adv-x="290" 
d="M95 750h100v-1000h-100v1000z" />
	<glyph glyph-name="braceright" unicode="}" horiz-adv-x="367" 
d="M68 655v85h89c86 0 120 -53 120 -135v-208c0 -54 21 -90 63 -98v-82c-38 -3 -63 -42 -63 -99v-210c0 -80 -34 -133 -120 -133h-89v85h52c44 0 59 18 59 76v196c1 88 69 119 84 127c-39 8 -83 31 -84 123v196c0 60 -16 77 -59 77h-52z" />
	<glyph glyph-name="asciitilde" unicode="~" horiz-adv-x="576" 
d="M469 333l32 -83c-24 -40 -58 -78 -113 -78c-33 0 -70 15 -105 30c-35 14 -68 29 -92 29c-36 1 -61 -21 -84 -59l-33 83c25 40 61 79 118 78c35 0 72 -16 106 -30c35 -15 67 -30 92 -30c36 0 59 28 79 60z" />
	<glyph glyph-name="exclamdown" unicode="&#xa1;" horiz-adv-x="267" 
d="M74 424v135h119v-135h-119zM74 -187v550h119v-550h-119z" />
	<glyph glyph-name="cent" unicode="&#xa2;" 
d="M323 -12h-95v99c-137 6 -170 178 -170 276c0 181 56 272 170 288v98h95v-98c112 -10 148 -110 153 -212h-115c-7 62 -27 110 -84 110c-64 0 -97 -49 -97 -180c0 -129 35 -180 100 -180c52 0 79 51 83 109h114c-3 -111 -48 -203 -154 -211v-99z" />
	<glyph glyph-name="sterling" unicode="&#xa3;" 
d="M363 436v-108h-127c24 -29 45 -62 45 -109c0 -45 -11 -71 -27 -100h32c38 0 66 9 84 25c18 17 26 42 26 74c0 16 -1 29 -2 41h120c2 -18 4 -35 4 -61c0 -64 -22 -113 -57 -147c-37 -33 -87 -51 -143 -51h-282v119h97c18 27 25 62 25 99c0 42 -21 76 -44 110h-100v108h52
c-14 28 -22 63 -22 104c0 125 86 212 222 212c125 0 212 -84 219 -215h-123c-8 57 -55 94 -103 94c-57 -1 -95 -43 -96 -102c0 -33 10 -65 28 -93h172z" />
	<glyph glyph-name="fraction" unicode="&#x2044;" horiz-adv-x="146" 
d="M-162 -9l386 758h85l-387 -758h-84z" />
	<glyph glyph-name="yen" unicode="&#xa5;" 
d="M509 481v-108h-165l-15 -32v-32h180v-108h-180v-201h-115v201h-180v108h180v32l-15 32h-165v108h115l-124 259h128l119 -297l117 297h128l-123 -259h115z" />
	<glyph glyph-name="florin" unicode="&#x192;" 
d="M345 463h145v-95h-148l-35 -290c-8 -87 -16 -156 -52 -204c-34 -47 -91 -71 -164 -71c-35 0 -65 7 -95 14l24 110c20 -6 40 -11 67 -11c72 0 93 52 100 129l36 323h-140v95h142c8 98 30 181 73 228c37 42 88 61 148 61c31 0 62 -5 91 -13l-24 -109c-17 4 -34 10 -52 10
c-36 -1 -61 -10 -79 -33c-23 -29 -33 -81 -37 -144z" />
	<glyph glyph-name="section" unicode="&#xa7;" horiz-adv-x="500" 
d="M400 609h-78c-6 50 -31 69 -63 69c-40 0 -59 -21 -59 -55c0 -26 17 -55 53 -85l123 -112c37 -34 71 -76 71 -128c0 -54 -38 -110 -94 -128c28 -31 47 -72 47 -118c0 -75 -57 -137 -149 -137c-77 0 -145 43 -154 156h77c3 -48 29 -81 73 -81c37 0 59 26 59 63
c1 34 -31 73 -80 117l-112 106c-42 36 -61 79 -61 122c0 63 41 107 101 121c-28 31 -47 63 -47 101c0 76 48 134 154 134c77 0 132 -39 139 -145zM354 286v1c0 27 -26 57 -63 90l-102 94c-26 -12 -45 -36 -45 -64c0 -20 12 -48 49 -78l118 -108c25 13 43 36 43 65z" />
	<glyph glyph-name="currency" unicode="&#xa4;" 
d="M474 90l-86 86c-23 -19 -67 -33 -117 -33s-95 15 -117 33l-86 -86l-69 69l86 86c-19 22 -35 68 -35 118s16 96 34 118l-86 87l70 68l86 -86c22 20 68 34 117 34c51 0 96 -14 117 -33l86 85l71 -68l-87 -87c20 -22 34 -67 34 -118c0 -50 -14 -96 -35 -118l87 -86zM153 363
v-1c0 -64 54 -118 118 -118s119 53 119 119s-53 120 -119 120c-65 0 -118 -54 -118 -120z" />
	<glyph glyph-name="quotesingle" unicode="'" horiz-adv-x="222" 
d="M162 452h-102v288h102v-288z" />
	<glyph glyph-name="quotedblleft" unicode="&#x201c;" horiz-adv-x="426" 
d="M147 740l79 -227h-99l-96 227h116zM309 740l79 -227h-99l-96 227h116z" />
	<glyph glyph-name="guillemotleft" unicode="&#xab;" horiz-adv-x="421" 
d="M29 282l102 185h97l-102 -185l102 -184h-97zM194 282l102 185h96l-102 -185l102 -184h-96z" />
	<glyph glyph-name="guilsinglleft" unicode="&#x2039;" horiz-adv-x="271" 
d="M36 282l102 185h97l-102 -185l102 -184h-97z" />
	<glyph glyph-name="guilsinglright" unicode="&#x203a;" horiz-adv-x="271" 
d="M132 467l102 -185l-102 -184h-96l102 184l-102 185h96z" />
	<glyph glyph-name="fi" unicode="&#xfb01;" horiz-adv-x="507" 
d="M327 457h-139v-457h-108v457h-55v102h55v30c0 155 131 164 190 164v-94c-38 -1 -82 -10 -82 -81v-19h248v-559h-109v457zM436 633h-109v107h109v-107z" />
	<glyph glyph-name="fl" unicode="&#xfb02;" horiz-adv-x="507" 
d="M327 457h-139v-457h-108v457h-55v102h55v30c0 155 131 164 190 164v-94c-38 -1 -82 -10 -82 -81v-19h139v181h109v-740h-109v457z" />
	<glyph glyph-name="endash" unicode="&#x2013;" horiz-adv-x="500" 
d="M9 336h482v-106h-482v106z" />
	<glyph glyph-name="dagger" unicode="&#x2020;" horiz-adv-x="500" 
d="M303 740v-182h145v-103h-145v-555h-107v555h-144v103h144v182h107z" />
	<glyph glyph-name="daggerdbl" unicode="&#x2021;" horiz-adv-x="500" 
d="M304 740v-175h144v-103h-144v-284h144v-103h-144v-175h-107v175h-145v103h145v284h-145v103h145v175h107z" />
	<glyph glyph-name="periodcentered" unicode="&#xb7;" horiz-adv-x="270" 
d="M198 324v-141h-126v141h126z" />
	<glyph glyph-name="paragraph" unicode="&#xb6;" horiz-adv-x="591" 
d="M247 -79v450c-136 0 -221 58 -221 184s86 185 223 185h317v-75h-46v-744h-101v744h-71v-744h-101z" />
	<glyph glyph-name="bullet" unicode="&#x2022;" horiz-adv-x="470" 
d="M235 522h1c88 0 158 -70 157 -157c1 -87 -69 -158 -158 -158s-159 71 -158 158c-1 87 69 157 158 157z" />
	<glyph glyph-name="quotesinglbase" unicode="&#x201a;" horiz-adv-x="235" 
d="M23 -95l80 227h115l-96 -227h-99z" />
	<glyph glyph-name="quotedblbase" unicode="&#x201e;" horiz-adv-x="426" 
d="M38 -95l79 227h116l-96 -227h-99zM200 -95l79 227h116l-96 -227h-99z" />
	<glyph glyph-name="quotedblright" unicode="&#x201d;" horiz-adv-x="426" 
d="M38 513l79 227h116l-96 -227h-99zM200 513l79 227h116l-96 -227h-99z" />
	<glyph glyph-name="guillemotright" unicode="&#xbb;" horiz-adv-x="421" 
d="M290 467l102 -185l-102 -184h-96l102 184l-102 185h96zM125 467l102 -185l-102 -184h-96l102 184l-102 185h96z" />
	<glyph glyph-name="ellipsis" unicode="&#x2026;" horiz-adv-x="1000" 
d="M113 0v132h108v-132h-108zM446 0v132h108v-132h-108zM779 0v132h108v-132h-108z" />
	<glyph glyph-name="perthousand" unicode="&#x2030;" horiz-adv-x="1023" 
d="M22 576v1c0 116 68 175 153 175s153 -59 153 -176c0 -118 -68 -177 -153 -177s-153 59 -153 177zM97 576v-1c0 -67 31 -103 78 -103s78 36 78 104c0 67 -31 104 -78 104s-78 -37 -78 -104zM356 164v1c0 117 68 176 153 176s153 -59 153 -177c0 -117 -68 -176 -153 -176
s-153 59 -153 176zM431 164v-1c0 -66 31 -103 78 -103s78 37 78 104c0 68 -31 104 -78 104s-78 -36 -78 -104zM695 164v1c0 117 68 176 153 176s153 -59 153 -177c0 -117 -68 -176 -153 -176s-153 59 -153 176zM769 164v-1c0 -66 32 -103 79 -103c46 0 78 37 78 104
c0 68 -32 104 -78 104c-47 0 -79 -36 -79 -104zM583 749l-389 -758h-94l389 758h94z" />
	<glyph glyph-name="questiondown" unicode="&#xbf;" horiz-adv-x="491" 
d="M202 424v135h119v-135h-119zM202 367h119c-1 -76 10 -143 -44 -207c-45 -57 -113 -91 -113 -151c0 -54 34 -89 88 -89c42 0 82 25 86 90v26h122v-34c-5 -133 -96 -195 -213 -195c-114 0 -209 82 -209 207c0 83 47 131 92 173c76 71 72 84 72 180z" />
	<glyph glyph-name="grave" unicode="`" horiz-adv-x="332" 
d="M42 794l225 -125l-38 -71l-229 109z" />
	<glyph glyph-name="acute" unicode="&#xb4;" horiz-adv-x="332" 
d="M65 669l225 125l42 -87l-229 -109z" />
	<glyph glyph-name="circumflex" unicode="&#x2c6;" horiz-adv-x="332" 
d="M218 761l123 -138h-97l-78 84l-78 -84h-98l124 138h104z" />
	<glyph glyph-name="tilde" unicode="&#x2dc;" horiz-adv-x="332" 
d="M313 744l43 -68c-21 -21 -57 -41 -98 -41c-36 0 -64 5 -91 13c-23 8 -50 14 -77 14c-32 0 -53 -11 -72 -28l-42 67c20 22 59 43 97 43c37 0 65 -5 93 -13c23 -8 49 -14 77 -14c29 0 50 8 70 27z" />
	<glyph glyph-name="macron" unicode="&#xaf;" horiz-adv-x="332" 
d="M336 721v-72h-340v72h340z" />
	<glyph glyph-name="breve" unicode="&#x2d8;" horiz-adv-x="332" 
d="M-4 756h75c11 -49 45 -66 97 -66c55 0 83 20 93 66h76c-13 -86 -72 -136 -176 -136c-84 0 -152 44 -165 136z" />
	<glyph glyph-name="dotaccent" unicode="&#x2d9;" horiz-adv-x="270" 
d="M186 744v-113h-102v113h102z" />
	<glyph glyph-name="dieresis" unicode="&#xa8;" horiz-adv-x="271" 
d="M98 744v-113h-102v113h102zM276 744v-113h-103v113h103z" />
	<glyph glyph-name="ring" unicode="&#x2da;" horiz-adv-x="271" 
d="M135 821h1c60 0 108 -49 108 -108s-48 -109 -109 -109c-60 0 -108 50 -108 109s48 108 108 108zM135 766h-1c-29 0 -52 -23 -52 -53s23 -53 53 -53c31 0 54 23 54 53s-23 53 -54 53z" />
	<glyph glyph-name="cedilla" unicode="&#xb8;" horiz-adv-x="254" 
d="M155 0l-39 -64c9 2 19 5 29 5c47 0 85 -28 85 -74c0 -58 -55 -93 -108 -93c-34 0 -76 8 -106 35l22 38c15 -14 52 -23 73 -23c27 0 47 18 48 40c-1 21 -21 38 -43 38c-16 0 -30 -6 -44 -12l-22 15l57 95h48z" />
	<glyph glyph-name="hungarumlaut" unicode="&#x2dd;" horiz-adv-x="332" 
d="M18 657l150 135l65 -64l-161 -127zM217 657l151 135l64 -64l-161 -127z" />
	<glyph glyph-name="ogonek" unicode="&#x2db;" horiz-adv-x="254" 
d="M141 11l71 8c-37 -30 -70 -61 -70 -96c0 -30 21 -54 50 -54c17 0 34 5 53 12v-64c-17 -11 -47 -23 -82 -23c-65 0 -104 44 -104 97c0 43 26 76 82 120z" />
	<glyph glyph-name="caron" unicode="&#x2c7;" horiz-adv-x="332" 
d="M-8 758h97l77 -84l77 84h97l-122 -137h-104z" />
	<glyph glyph-name="emdash" unicode="&#x2014;" horiz-adv-x="1000" 
d="M9 336h982v-106h-982v106z" />
	<glyph glyph-name="AE" unicode="&#xc6;" horiz-adv-x="862" 
d="M-11 0l361 740h436v-113h-260v-187h260v-112h-260v-215h260v-113h-382v169h-199l-77 -169h-139zM253 282h151v345z" />
	<glyph glyph-name="ordfeminine" unicode="&#xaa;" horiz-adv-x="300" 
d="M276 747v-336h-73c0 18 0 32 1 45c-16 -35 -42 -52 -80 -52c-68 0 -118 60 -118 174c0 111 43 176 118 176c33 0 65 -13 80 -55c-1 17 -1 31 -1 48h73zM85 578v-1c0 -63 20 -101 55 -101c33 0 51 25 53 64c1 13 2 27 2 40s-1 26 -2 39c-3 38 -21 62 -54 62
s-54 -36 -54 -103z" />
	<glyph glyph-name="Lslash" unicode="&#x141;" horiz-adv-x="426" 
d="M1 201v118l69 48v373h122v-289l135 94v-118l-135 -94v-220h211v-113h-333v249z" />
	<glyph glyph-name="Oslash" unicode="&#xd8;" horiz-adv-x="612" 
d="M488 672l70 93h97l-123 -162c30 -62 44 -142 44 -233c0 -216 -84 -384 -271 -384c-74 0 -134 28 -177 77l-67 -88h-97l117 158c-31 63 -46 144 -46 237c0 227 90 384 270 384c77 0 139 -29 183 -82zM172 251l241 320c-23 48 -61 70 -108 70c-93 0 -145 -83 -145 -271
c0 -44 4 -86 12 -119zM439 482l-238 -320c22 -42 59 -63 104 -63c94 0 146 83 146 271c0 45 -4 87 -12 112z" />
	<glyph glyph-name="OE" unicode="&#x152;" horiz-adv-x="900" 
d="M583 627v-187h252v-112h-252v-215h252v-113h-358v48c1 17 1 34 1 50c-38 -82 -102 -112 -176 -112c-156 0 -267 134 -267 384s111 384 267 384c74 0 139 -32 176 -110c0 17 0 33 -1 50v46h358v-113h-252zM160 364v-1c0 -176 68 -263 152 -263c87 0 149 61 149 264
c0 215 -62 276 -151 276c-82 0 -150 -87 -150 -276z" />
	<glyph glyph-name="ordmasculine" unicode="&#xba;" horiz-adv-x="300" 
d="M9 578v1c0 96 45 175 142 175c96 0 140 -79 140 -176c0 -96 -44 -175 -140 -175c-97 0 -142 79 -142 175zM90 578v-1c0 -77 24 -107 61 -107s59 30 59 108c0 81 -21 109 -62 109c-38 0 -58 -28 -58 -109z" />
	<glyph glyph-name="ae" unicode="&#xe6;" horiz-adv-x="786" 
d="M759 250h-319c0 -78 21 -161 104 -161c52 0 91 31 102 85h108c-13 -107 -82 -186 -191 -186c-56 0 -102 25 -129 82l1 -70h-99l1 70c-23 -56 -64 -82 -125 -82c-114 0 -190 100 -190 291c0 183 66 292 192 292c58 0 98 -22 123 -84l-1 72h99l-1 -72c30 61 68 84 130 84
c61 0 109 -27 142 -73c51 -72 53 -163 53 -248zM130 279v-1c0 -124 44 -183 102 -183c90 0 100 89 100 184c0 78 -4 118 -26 147c-17 24 -42 37 -74 37c-58 0 -102 -58 -102 -184zM440 329h211c-1 87 -28 152 -110 152c-39 0 -65 -20 -80 -49s-21 -67 -21 -103z" />
	<glyph glyph-name="dotlessi" unicode="&#x131;" horiz-adv-x="254" 
d="M73 0v559h108v-559h-108z" />
	<glyph glyph-name="lslash" unicode="&#x142;" horiz-adv-x="254" 
d="M73 333l-77 -63v91l77 62v317h108v-229l77 63v-90l-77 -63v-421h-108v333z" />
	<glyph glyph-name="oslash" unicode="&#xf8;" horiz-adv-x="497" 
d="M417 580h89l-83 -116c28 -50 41 -114 41 -185c0 -160 -68 -291 -215 -291c-53 0 -95 18 -126 48l-43 -57h-89l83 117c-28 49 -41 113 -41 183c0 161 68 292 216 292c52 0 94 -17 125 -47zM153 208l160 226c-14 23 -37 35 -66 35c-63 0 -102 -59 -102 -190
c0 -23 3 -48 8 -71zM344 352l-161 -226c15 -25 37 -37 67 -37c63 0 102 60 102 190c0 24 -3 50 -8 73z" />
	<glyph glyph-name="oe" unicode="&#x153;" horiz-adv-x="795" 
d="M767 250h-308c0 -79 15 -161 100 -161c49 0 84 31 96 85h108c-11 -71 -40 -118 -77 -147c-37 -28 -80 -39 -120 -39c-85 0 -137 44 -165 110c-26 -74 -79 -110 -163 -110c-139 0 -207 131 -207 291c0 161 68 292 212 292c84 0 133 -38 159 -104c29 67 84 104 167 104
c73 0 122 -34 153 -84c44 -70 45 -157 45 -237zM145 279v-1c0 -137 37 -189 103 -189s103 52 103 190c0 139 -37 190 -106 190c-63 0 -100 -51 -100 -190zM459 329h200c-1 80 -23 152 -100 152c-78 0 -99 -81 -100 -152z" />
	<glyph glyph-name="germandbls" unicode="&#xdf;" horiz-adv-x="536" 
d="M62 0v531c0 86 17 133 51 166c35 37 89 56 160 56c120 0 188 -78 188 -184c0 -99 -39 -157 -109 -179c100 -16 147 -90 147 -184c0 -133 -69 -218 -197 -218c-64 0 -124 23 -144 95l1 -83h-97zM171 520v-312h41c1 -75 38 -119 85 -119c50 0 88 44 88 110
c0 40 -8 73 -32 96c-18 15 -40 29 -78 30c-22 2 -33 2 -46 2v100c6 0 10 0 22 1c67 3 96 50 96 124c0 59 -33 99 -91 99c-29 0 -51 -11 -65 -29c-16 -20 -20 -47 -20 -102z" />
	<glyph glyph-name="onesuperior" unicode="&#xb9;" horiz-adv-x="313" 
d="M211 740v-436h-87v362h-71v74h158z" />
	<glyph glyph-name="logicalnot" unicode="&#xac;" horiz-adv-x="576" 
d="M42 409h492v-313h-99v214h-393v99z" />
	<glyph glyph-name="mu" unicode="&#xb5;" horiz-adv-x="500" 
d="M61 -180v739h108v-360c0 -37 5 -61 17 -80c13 -18 35 -24 53 -24c21 0 47 4 67 27c16 19 25 43 25 90v347h108v-559h-99c0 27 0 53 1 80c-12 -48 -56 -92 -125 -92c-19 0 -39 6 -47 22v-59v-131h-108z" />
	<glyph glyph-name="trademark" unicode="&#x2122;" horiz-adv-x="978" 
d="M410 310v430h132l120 -284l121 284h130v-430h-91v309l-124 -309h-73l-123 308v-308h-92zM141 310v352h-118v78h336v-78h-118v-352h-100z" />
	<glyph glyph-name="Eth" unicode="&#xd0;" horiz-adv-x="600" 
d="M64 434v306h196c106 0 183 -35 235 -108c45 -64 69 -155 69 -262c0 -233 -114 -370 -300 -370h-200v321h-67v113h67zM186 627v-193h134v-113h-134v-208h76c122 0 177 91 177 257c0 83 -13 147 -41 190c-28 44 -71 67 -140 67h-72z" />
	<glyph glyph-name="onehalf" unicode="&#xbd;" horiz-adv-x="801" 
d="M229 740v-436h-87v362h-71v74h158zM597 749l-358 -758h-94l358 758h94zM759 82v-82h-290v76c72 66 120 112 155 148c37 37 43 53 43 81c0 35 -17 61 -52 61c-31 0 -58 -21 -58 -73h-87c0 36 7 65 20 88c26 43 72 63 126 63c88 0 144 -56 144 -141c0 -47 -17 -79 -52 -114
c-30 -32 -79 -72 -117 -107h168z" />
	<glyph glyph-name="plusminus" unicode="&#xb1;" horiz-adv-x="576" 
d="M238 370v136h99v-136h197v-99h-197v-136h-99v136h-196v99h196zM42 0v99h492v-99h-492z" />
	<glyph glyph-name="Thorn" unicode="&#xde;" horiz-adv-x="534" 
d="M70 0v740h122v-131h61c76 0 134 -18 178 -57c43 -38 70 -99 70 -173s-27 -135 -70 -173c-44 -39 -103 -57 -178 -57h-61v-149h-122zM192 496v-234h60c44 0 71 7 93 27c19 18 30 51 30 90c0 40 -11 72 -31 90c-21 20 -48 27 -92 27h-60z" />
	<glyph glyph-name="onequarter" unicode="&#xbc;" horiz-adv-x="789" 
d="M707 436v-278h43v-75h-43v-83h-83v83h-179v71l176 282h86zM624 320l-96 -162h96v162zM229 740v-436h-87v362h-71v74h158zM618 749l-358 -758h-93l357 758h94z" />
	<glyph glyph-name="divide" unicode="&#xf7;" horiz-adv-x="576" 
d="M351 548v-141h-127v141h127zM42 203v99h492v-99h-492zM351 98v-141h-127v141h127z" />
	<glyph glyph-name="brokenbar" unicode="&#xa6;" horiz-adv-x="290" 
d="M95 675h100v-350h-100v350zM95 175h100v-350h-100v350z" />
	<glyph glyph-name="degree" unicode="&#xb0;" horiz-adv-x="400" 
d="M347 595v-1c0 -82 -65 -146 -147 -146s-147 64 -147 147c0 82 65 147 147 147s147 -65 147 -147zM107 595v-1c0 -53 39 -95 93 -95s93 42 93 96c0 53 -39 96 -93 96s-93 -43 -93 -96z" />
	<glyph glyph-name="thorn" unicode="&#xfe;" horiz-adv-x="496" 
d="M61 -188v928h109v-174c0 -23 -1 -43 -1 -63c12 36 51 68 113 68c105 0 181 -100 181 -292c0 -182 -65 -291 -181 -291c-53 0 -94 30 -114 75c0 -20 1 -42 1 -72v-179h-108zM355 279v1c0 125 -33 183 -94 183c-31 0 -49 -14 -66 -38c-20 -27 -26 -63 -26 -146
c0 -82 6 -118 26 -145c17 -25 35 -39 66 -39c61 0 94 59 94 184z" />
	<glyph glyph-name="threequarters" unicode="&#xbe;" horiz-adv-x="814" 
d="M731 436v-278h43v-75h-43v-83h-83v83h-179v71l177 282h85zM648 320l-96 -162h96v162zM32 440h86c0 -47 28 -70 65 -70c43 0 63 27 63 64c0 43 -25 73 -75 73h-34v67h30c45 0 57 25 57 51s-14 49 -45 49c-33 0 -49 -21 -49 -53h-86c1 84 60 127 139 127
c78 0 131 -45 131 -113c0 -49 -24 -73 -58 -89c48 -8 80 -51 80 -114c0 -76 -59 -136 -148 -136c-60 0 -106 21 -131 59c-17 23 -25 51 -25 85zM657 749l-358 -758h-94l358 758h94z" />
	<glyph glyph-name="twosuperior" unicode="&#xb2;" horiz-adv-x="337" 
d="M311 385v-81h-290v76c71 66 119 111 154 147c38 38 44 54 44 82c0 34 -17 60 -53 60c-30 0 -57 -21 -57 -72h-87c0 36 7 65 20 88c26 43 72 63 126 63c88 0 144 -57 144 -141c0 -48 -17 -79 -52 -115c-31 -32 -79 -71 -117 -107h168z" />
	<glyph glyph-name="registered" unicode="&#xae;" horiz-adv-x="800" 
d="M402 753h1c213 0 380 -175 380 -383c0 -213 -172 -383 -382 -383c-212 0 -383 170 -383 383c0 207 165 383 384 383zM402 689h-1c-178 0 -313 -145 -313 -319c0 -177 140 -319 313 -319c172 0 312 140 312 319c0 172 -134 319 -311 319zM237 587h181
c68 0 155 -25 155 -119c0 -40 -17 -80 -73 -105c38 -13 61 -39 65 -99c5 -78 5 -86 13 -107h-85c-8 14 -11 71 -13 102c-4 33 -10 71 -90 71h-66v-173h-87v430zM404 526h-80v-137h72c25 1 90 0 90 73c0 63 -58 64 -82 64z" />
	<glyph glyph-name="minus" unicode="&#x2212;" horiz-adv-x="576" 
d="M42 203v99h492v-99h-492z" />
	<glyph glyph-name="eth" unicode="&#xf0;" horiz-adv-x="498" 
d="M236 585l-165 -65v87l110 43c-20 22 -50 45 -85 64l101 37c27 -18 50 -34 81 -64l160 64v-87l-104 -41c32 -35 64 -73 90 -136c27 -65 40 -127 40 -196c0 -190 -71 -303 -223 -303c-145 0 -208 113 -208 263c0 151 71 264 186 264c32 0 62 -8 90 -42c-5 18 -14 35 -27 56
c-14 22 -31 44 -46 56zM141 251v-1c0 -112 37 -161 100 -161c72 0 109 56 109 165c0 96 -30 159 -105 159c-67 0 -104 -48 -104 -162z" />
	<glyph glyph-name="multiply" unicode="&#xd7;" horiz-adv-x="576" 
d="M112 0l-70 72l176 181l-176 179l70 72l176 -182l175 182l71 -72l-176 -179l176 -181l-71 -72l-175 183z" />
	<glyph glyph-name="threesuperior" unicode="&#xb3;" horiz-adv-x="337" 
d="M18 440h85c1 -47 29 -70 66 -70c42 0 62 27 62 64c0 43 -25 73 -75 73h-34v67h30c45 0 58 25 58 51s-14 49 -46 49s-49 -21 -49 -53h-86c1 84 60 127 139 127c78 0 132 -45 132 -113c0 -49 -24 -73 -59 -89c48 -8 80 -51 80 -114c0 -76 -59 -136 -148 -136
c-60 0 -106 21 -131 59c-16 23 -24 51 -24 85z" />
	<glyph glyph-name="copyright" unicode="&#xa9;" horiz-adv-x="800" 
d="M402 753h1c213 0 380 -175 380 -383c0 -213 -172 -383 -382 -383c-212 0 -383 170 -383 383c0 207 165 383 384 383zM402 689h-1c-178 0 -313 -145 -313 -319c0 -177 140 -319 313 -319c172 0 312 140 312 319c0 172 -134 319 -311 319zM591 432h-75
c-10 58 -58 77 -104 77c-68 0 -117 -48 -117 -142c0 -99 54 -142 117 -142c42 0 100 16 106 88h78c-12 -108 -93 -165 -184 -165c-119 0 -208 88 -208 219c0 125 83 220 208 220c92 0 166 -56 179 -155z" />
	<glyph glyph-name="Aacute" unicode="&#xc1;" horiz-adv-x="533" 
d="M171 171l-46 -171h-124l205 740h115l211 -740h-124l-47 171h-190zM329 283l-64 286l-64 -286h128zM167 834l224 125l42 -87l-228 -109z" />
	<glyph glyph-name="Acircumflex" unicode="&#xc2;" horiz-adv-x="533" 
d="M171 171l-46 -171h-124l205 740h115l211 -740h-124l-47 171h-190zM329 283l-64 286l-64 -286h128zM318 926l124 -138h-98l-78 84l-78 -84h-97l123 138h104z" />
	<glyph glyph-name="Adieresis" unicode="&#xc4;" horiz-adv-x="533" 
d="M171 171l-46 -171h-124l205 740h115l211 -740h-124l-47 171h-190zM329 283l-64 286l-64 -286h128zM229 909v-113h-103v113h103zM406 909v-113h-102v113h102z" />
	<glyph glyph-name="Agrave" unicode="&#xc0;" horiz-adv-x="533" 
d="M171 171l-46 -171h-124l205 740h115l211 -740h-124l-47 171h-190zM329 283l-64 286l-64 -286h128zM141 959l225 -125l-38 -71l-229 109z" />
	<glyph glyph-name="Aring" unicode="&#xc5;" horiz-adv-x="533" 
d="M171 171l-46 -171h-124l205 740h115l211 -740h-124l-47 171h-190zM329 283l-64 286l-64 -286h128zM266 987h1c60 0 108 -49 108 -108s-48 -108 -109 -108s-108 49 -108 108s48 108 108 108zM266 933h-1c-29 0 -52 -23 -52 -54c0 -30 23 -53 53 -53c31 0 53 23 53 53
c0 31 -22 54 -53 54z" />
	<glyph glyph-name="Atilde" unicode="&#xc3;" horiz-adv-x="533" 
d="M171 171l-46 -171h-124l205 740h115l211 -740h-124l-47 171h-190zM329 283l-64 286l-64 -286h128zM414 907l42 -67c-21 -21 -57 -41 -98 -41c-35 0 -64 4 -91 13c-23 7 -49 14 -76 14c-32 0 -54 -11 -72 -28l-43 67c20 22 60 43 97 43s66 -5 93 -14c23 -7 49 -13 77 -13
c30 0 50 8 71 26z" />
	<glyph glyph-name="Ccedilla" unicode="&#xc7;" horiz-adv-x="587" 
d="M326 -12l-24 -51c8 3 17 5 30 5c34 0 70 -25 70 -75c0 -58 -47 -93 -104 -93c-34 0 -73 9 -98 37l22 38c13 -16 36 -25 60 -25c28 0 49 16 49 39c0 22 -15 39 -33 39c-12 0 -23 -4 -29 -12l-34 15l41 82c-144 8 -243 136 -243 383c0 250 99 384 263 384
c170 0 256 -134 255 -293h-125c-3 118 -41 177 -121 177c-93 0 -147 -87 -147 -271c0 -189 64 -265 148 -265c92 0 116 85 120 167h125c0 -144 -76 -267 -225 -281z" />
	<glyph glyph-name="Eacute" unicode="&#xc9;" horiz-adv-x="490" 
d="M70 0v740h355v-113h-233v-187h233v-112h-233v-215h233v-113h-355zM145 836l224 124l42 -87l-229 -109z" />
	<glyph glyph-name="Ecircumflex" unicode="&#xca;" horiz-adv-x="490" 
d="M70 0v740h355v-113h-233v-187h233v-112h-233v-215h233v-113h-355zM297 927l123 -138h-97l-78 84l-78 -84h-97l123 138h104z" />
	<glyph glyph-name="Edieresis" unicode="&#xcb;" horiz-adv-x="490" 
d="M70 0v740h355v-113h-233v-187h233v-112h-233v-215h233v-113h-355zM207 910v-113h-102v113h102zM385 910v-113h-102v113h102z" />
	<glyph glyph-name="Egrave" unicode="&#xc8;" horiz-adv-x="490" 
d="M70 0v740h355v-113h-233v-187h233v-112h-233v-215h233v-113h-355zM121 960l225 -124l-38 -72l-229 109z" />
	<glyph glyph-name="Iacute" unicode="&#xcd;" horiz-adv-x="252" 
d="M65 0v740h122v-740h-122zM26 834l225 125l42 -87l-229 -109z" />
	<glyph glyph-name="Icircumflex" unicode="&#xce;" horiz-adv-x="252" 
d="M65 0v740h122v-740h-122zM178 926l123 -138h-97l-78 84l-78 -84h-98l124 138h104z" />
	<glyph glyph-name="Idieresis" unicode="&#xcf;" horiz-adv-x="252" 
d="M65 0v740h122v-740h-122zM88 910v-113h-102v113h102zM266 910v-113h-102v113h102z" />
	<glyph glyph-name="Igrave" unicode="&#xcc;" horiz-adv-x="252" 
d="M65 0v740h122v-740h-122zM1 959l225 -125l-38 -71l-229 109z" />
	<glyph glyph-name="Ntilde" unicode="&#xd1;" horiz-adv-x="605" 
d="M197 740l232 -505v505h108v-740h-115l-246 535v-535h-109v740h130zM451 904l42 -68c-21 -21 -57 -41 -98 -41c-36 0 -64 5 -91 13c-23 8 -50 14 -77 14c-32 0 -53 -11 -72 -28l-42 67c20 22 59 43 97 43c37 0 65 -5 93 -13c23 -8 49 -14 77 -14c30 0 50 8 71 27z" />
	<glyph glyph-name="Oacute" unicode="&#xd3;" horiz-adv-x="612" 
d="M35 370v1c0 226 90 383 270 383c181 0 271 -157 271 -384c0 -216 -84 -384 -271 -384c-180 0 -270 157 -270 384zM160 370v-1c0 -187 52 -270 145 -270c94 0 146 83 146 271s-52 271 -146 271c-93 0 -145 -83 -145 -271zM206 834l224 125l42 -87l-228 -109z" />
	<glyph glyph-name="Ocircumflex" unicode="&#xd4;" horiz-adv-x="612" 
d="M35 370v1c0 226 90 383 270 383c181 0 271 -157 271 -384c0 -216 -84 -384 -271 -384c-180 0 -270 157 -270 384zM160 370v-1c0 -187 52 -270 145 -270c94 0 146 83 146 271s-52 271 -146 271c-93 0 -145 -83 -145 -271zM358 926l124 -138h-98l-78 84l-78 -84h-97
l123 138h104z" />
	<glyph glyph-name="Odieresis" unicode="&#xd6;" horiz-adv-x="612" 
d="M35 370v1c0 226 90 383 270 383c181 0 271 -157 271 -384c0 -216 -84 -384 -271 -384c-180 0 -270 157 -270 384zM160 370v-1c0 -187 52 -270 145 -270c94 0 146 83 146 271s-52 271 -146 271c-93 0 -145 -83 -145 -271zM269 910v-113h-103v113h103zM446 910v-113h-102
v113h102z" />
	<glyph glyph-name="Ograve" unicode="&#xd2;" horiz-adv-x="612" 
d="M35 370v1c0 226 90 383 270 383c181 0 271 -157 271 -384c0 -216 -84 -384 -271 -384c-180 0 -270 157 -270 384zM160 370v-1c0 -187 52 -270 145 -270c94 0 146 83 146 271s-52 271 -146 271c-93 0 -145 -83 -145 -271zM183 959l224 -125l-38 -71l-228 109z" />
	<glyph glyph-name="Otilde" unicode="&#xd5;" horiz-adv-x="612" 
d="M35 370v1c0 226 90 383 270 383c181 0 271 -157 271 -384c0 -216 -84 -384 -271 -384c-180 0 -270 157 -270 384zM160 370v-1c0 -187 52 -270 145 -270c94 0 146 83 146 271s-52 271 -146 271c-93 0 -145 -83 -145 -271zM454 909l42 -68c-21 -21 -57 -41 -98 -41
c-35 0 -64 5 -91 13c-23 8 -49 14 -76 14c-32 0 -54 -11 -72 -28l-43 67c20 22 59 43 97 43c37 0 65 -5 93 -13c23 -8 49 -14 77 -14c30 0 50 8 71 27z" />
	<glyph glyph-name="Scaron" unicode="&#x160;" horiz-adv-x="532" 
d="M35 222h121c5 -92 47 -128 109 -128c65 0 107 42 107 110c0 83 -85 102 -162 130c-73 29 -163 71 -163 199c-1 136 83 222 214 222c127 0 201 -63 221 -203h-118c-4 54 -33 101 -98 101c-58 0 -94 -43 -94 -101c0 -80 78 -97 163 -128c71 -28 162 -74 162 -217
c0 -136 -100 -221 -233 -221c-148 0 -228 83 -229 236zM92 923h97l77 -84l77 84h97l-122 -137h-104z" />
	<glyph glyph-name="Uacute" unicode="&#xda;" horiz-adv-x="589" 
d="M62 740h122v-518c0 -39 6 -70 28 -92c18 -21 47 -29 82 -29s64 8 83 29c21 22 27 53 27 92v518h122v-535c0 -67 -16 -120 -54 -158c-37 -38 -96 -61 -178 -61c-83 0 -141 23 -178 61s-54 91 -54 158v535zM195 834l225 125l42 -87l-229 -109z" />
	<glyph glyph-name="Ucircumflex" unicode="&#xdb;" horiz-adv-x="589" 
d="M62 740h122v-518c0 -39 6 -70 28 -92c18 -21 47 -29 82 -29s64 8 83 29c21 22 27 53 27 92v518h122v-535c0 -67 -16 -120 -54 -158c-37 -38 -96 -61 -178 -61c-83 0 -141 23 -178 61s-54 91 -54 158v535zM347 928l123 -138h-97l-78 85l-79 -85h-97l124 138h104z" />
	<glyph glyph-name="Udieresis" unicode="&#xdc;" horiz-adv-x="589" 
d="M62 740h122v-518c0 -39 6 -70 28 -92c18 -21 47 -29 82 -29s64 8 83 29c21 22 27 53 27 92v518h122v-535c0 -67 -16 -120 -54 -158c-37 -38 -96 -61 -178 -61c-83 0 -141 23 -178 61s-54 91 -54 158v535zM257 910v-113h-102v113h102zM435 910v-113h-103v113h103z" />
	<glyph glyph-name="Ugrave" unicode="&#xd9;" horiz-adv-x="589" 
d="M62 740h122v-518c0 -39 6 -70 28 -92c18 -21 47 -29 82 -29s64 8 83 29c21 22 27 53 27 92v518h122v-535c0 -67 -16 -120 -54 -158c-37 -38 -96 -61 -178 -61c-83 0 -141 23 -178 61s-54 91 -54 158v535zM162 959l225 -125l-38 -71l-229 109z" />
	<glyph glyph-name="Yacute" unicode="&#xdd;" horiz-adv-x="480" 
d="M179 0v286l-183 454h126l119 -339l117 339h126l-183 -454v-286h-122zM147 834l224 125l42 -87l-228 -109z" />
	<glyph glyph-name="Ydieresis" unicode="&#x178;" horiz-adv-x="480" 
d="M179 0v286l-183 454h126l119 -339l117 339h126l-183 -454v-286h-122zM203 910v-113h-103v113h103zM380 910v-113h-102v113h102z" />
	<glyph glyph-name="Zcaron" unicode="&#x17d;" horiz-adv-x="495" 
d="M452 630l-275 -517h279v-113h-421v106l274 521h-260v113h403v-110zM78 921h97l77 -84l78 84h96l-121 -138h-105z" />
	<glyph glyph-name="aacute" unicode="&#xe1;" horiz-adv-x="496" 
d="M435 559v-559h-99c0 30 0 52 1 73c-25 -56 -64 -85 -123 -85c-105 0 -181 100 -181 291c0 183 65 292 181 292c50 0 100 -22 123 -88c-1 25 -1 48 -1 76h99zM141 279v-1c0 -124 34 -183 94 -183c34 0 52 14 69 39c20 27 23 63 23 145c0 83 -3 119 -23 146
c-17 24 -35 38 -69 38c-60 0 -94 -58 -94 -184zM152 669l225 125l42 -87l-229 -109z" />
	<glyph glyph-name="acircumflex" unicode="&#xe2;" horiz-adv-x="496" 
d="M435 559v-559h-99c0 30 0 52 1 73c-25 -56 -64 -85 -123 -85c-105 0 -181 100 -181 291c0 183 65 292 181 292c50 0 100 -22 123 -88c-1 25 -1 48 -1 76h99zM141 279v-1c0 -124 34 -183 94 -183c34 0 52 14 69 39c20 27 23 63 23 145c0 83 -3 119 -23 146
c-17 24 -35 38 -69 38c-60 0 -94 -58 -94 -184zM290 761l123 -138h-97l-78 84l-78 -84h-97l123 138h104z" />
	<glyph glyph-name="adieresis" unicode="&#xe4;" horiz-adv-x="496" 
d="M435 559v-559h-99c0 30 0 52 1 73c-25 -56 -64 -85 -123 -85c-105 0 -181 100 -181 291c0 183 65 292 181 292c50 0 100 -22 123 -88c-1 25 -1 48 -1 76h99zM141 279v-1c0 -124 34 -183 94 -183c34 0 52 14 69 39c20 27 23 63 23 145c0 83 -3 119 -23 146
c-17 24 -35 38 -69 38c-60 0 -94 -58 -94 -184zM193 744v-113h-103v113h103zM371 744v-113h-103v113h103z" />
	<glyph glyph-name="agrave" unicode="&#xe0;" horiz-adv-x="496" 
d="M435 559v-559h-99c0 30 0 52 1 73c-25 -56 -64 -85 -123 -85c-105 0 -181 100 -181 291c0 183 65 292 181 292c50 0 100 -22 123 -88c-1 25 -1 48 -1 76h99zM141 279v-1c0 -124 34 -183 94 -183c34 0 52 14 69 39c20 27 23 63 23 145c0 83 -3 119 -23 146
c-17 24 -35 38 -69 38c-60 0 -94 -58 -94 -184zM122 794l224 -125l-37 -71l-229 109z" />
	<glyph glyph-name="aring" unicode="&#xe5;" horiz-adv-x="496" 
d="M435 559v-559h-99c0 30 0 52 1 73c-25 -56 -64 -85 -123 -85c-105 0 -181 100 -181 291c0 183 65 292 181 292c50 0 100 -22 123 -88c-1 25 -1 48 -1 76h99zM141 279v-1c0 -124 34 -183 94 -183c34 0 52 14 69 39c20 27 23 63 23 145c0 83 -3 119 -23 146
c-17 24 -35 38 -69 38c-60 0 -94 -58 -94 -184zM230 821h1c60 0 108 -49 108 -108s-48 -109 -109 -109c-60 0 -108 50 -108 109s48 108 108 108zM230 766h-1c-29 0 -52 -23 -52 -53s23 -53 53 -53c31 0 54 23 54 53s-23 53 -54 53z" />
	<glyph glyph-name="atilde" unicode="&#xe3;" horiz-adv-x="496" 
d="M435 559v-559h-99c0 30 0 52 1 73c-25 -56 -64 -85 -123 -85c-105 0 -181 100 -181 291c0 183 65 292 181 292c50 0 100 -22 123 -88c-1 25 -1 48 -1 76h99zM141 279v-1c0 -124 34 -183 94 -183c34 0 52 14 69 39c20 27 23 63 23 145c0 83 -3 119 -23 146
c-17 24 -35 38 -69 38c-60 0 -94 -58 -94 -184zM396 744l42 -68c-21 -21 -57 -41 -98 -41c-36 0 -64 5 -91 13c-23 8 -50 14 -77 14c-32 0 -53 -11 -72 -28l-42 67c20 22 59 43 97 43c37 0 65 -5 93 -13c23 -8 49 -14 77 -14c30 0 50 8 71 27z" />
	<glyph glyph-name="ccedilla" unicode="&#xe7;" horiz-adv-x="439" 
d="M259 -10l-22 -49c8 3 17 5 30 5c30 0 70 -25 70 -79s-55 -85 -101 -85c-29 0 -72 9 -97 37l21 37c14 -16 40 -25 57 -25c28 0 49 17 49 36c0 18 -16 35 -30 35c-11 0 -22 -4 -29 -12l-36 15l39 86c-121 14 -186 128 -186 288c0 185 84 292 215 292
c120 0 180 -101 182 -218h-113c-4 84 -35 116 -76 116c-29 0 -53 -11 -69 -44c-17 -33 -25 -78 -25 -146c0 -134 35 -190 94 -190c51 0 74 49 77 115h113c-4 -107 -56 -205 -163 -214z" />
	<glyph glyph-name="eacute" unicode="&#xe9;" horiz-adv-x="491" 
d="M454 242h-301c0 -78 27 -153 99 -153c47 0 79 31 90 85h107c-11 -70 -40 -118 -76 -147c-37 -28 -81 -39 -121 -39c-149 0 -215 136 -215 291c0 166 73 292 214 292c71 0 124 -31 158 -85c43 -70 47 -160 45 -244zM153 335h193c-1 64 -23 146 -95 146
c-59 0 -98 -55 -98 -146zM145 669l225 125l42 -87l-229 -109z" />
	<glyph glyph-name="ecircumflex" unicode="&#xea;" horiz-adv-x="491" 
d="M454 242h-301c0 -78 27 -153 99 -153c47 0 79 31 90 85h107c-11 -70 -40 -118 -76 -147c-37 -28 -81 -39 -121 -39c-149 0 -215 136 -215 291c0 166 73 292 214 292c71 0 124 -31 158 -85c43 -70 47 -160 45 -244zM153 335h193c-1 64 -23 146 -95 146
c-59 0 -98 -55 -98 -146zM298 761l123 -138h-97l-78 84l-78 -84h-98l124 138h104z" />
	<glyph glyph-name="edieresis" unicode="&#xeb;" horiz-adv-x="491" 
d="M454 242h-301c0 -78 27 -153 99 -153c47 0 79 31 90 85h107c-11 -70 -40 -118 -76 -147c-37 -28 -81 -39 -121 -39c-149 0 -215 136 -215 291c0 166 73 292 214 292c71 0 124 -31 158 -85c43 -70 47 -160 45 -244zM153 335h193c-1 64 -23 146 -95 146
c-59 0 -98 -55 -98 -146zM208 744v-113h-102v113h102zM386 744v-113h-102v113h102z" />
	<glyph glyph-name="egrave" unicode="&#xe8;" horiz-adv-x="491" 
d="M454 242h-301c0 -78 27 -153 99 -153c47 0 79 31 90 85h107c-11 -70 -40 -118 -76 -147c-37 -28 -81 -39 -121 -39c-149 0 -215 136 -215 291c0 166 73 292 214 292c71 0 124 -31 158 -85c43 -70 47 -160 45 -244zM153 335h193c-1 64 -23 146 -95 146
c-59 0 -98 -55 -98 -146zM122 794l225 -125l-38 -71l-229 109z" />
	<glyph glyph-name="iacute" unicode="&#xed;" horiz-adv-x="254" 
d="M73 0v559h108v-559h-108zM14 669l224 125l42 -87l-229 -109z" />
	<glyph glyph-name="icircumflex" unicode="&#xee;" horiz-adv-x="254" 
d="M73 0v559h108v-559h-108zM179 761l123 -138h-97l-78 84l-78 -84h-98l124 138h104z" />
	<glyph glyph-name="idieresis" unicode="&#xef;" horiz-adv-x="254" 
d="M73 0v559h108v-559h-108zM89 744v-113h-102v113h102zM267 744v-113h-102v113h102z" />
	<glyph glyph-name="igrave" unicode="&#xec;" horiz-adv-x="254" 
d="M73 0v559h108v-559h-108zM16 794l224 -125l-38 -71l-228 109z" />
	<glyph glyph-name="ntilde" unicode="&#xf1;" horiz-adv-x="499" 
d="M61 0v559h95c0 -23 0 -45 -1 -69c24 54 66 81 133 81c92 0 151 -51 151 -173v-398h-108v363c0 45 -9 100 -75 100c-52 0 -87 -32 -87 -105v-358h-108zM397 744l42 -68c-21 -21 -57 -41 -97 -41c-36 0 -64 5 -92 13c-23 8 -49 14 -76 14c-32 0 -54 -11 -72 -28l-43 67
c20 22 60 43 97 43s66 -5 93 -13c23 -8 49 -14 77 -14c30 0 50 8 71 27z" />
	<glyph glyph-name="oacute" unicode="&#xf3;" horiz-adv-x="497" 
d="M33 279v1c0 160 68 291 216 291c147 0 215 -131 215 -292c0 -160 -68 -291 -215 -291c-148 0 -216 131 -216 291zM147 279v-1c0 -137 37 -189 103 -189c63 0 100 52 100 190c0 139 -37 190 -103 190c-63 0 -100 -51 -100 -190zM148 669l225 125l42 -87l-229 -109z" />
	<glyph glyph-name="ocircumflex" unicode="&#xf4;" horiz-adv-x="497" 
d="M33 279v1c0 160 68 291 216 291c147 0 215 -131 215 -292c0 -160 -68 -291 -215 -291c-148 0 -216 131 -216 291zM147 279v-1c0 -137 37 -189 103 -189c63 0 100 52 100 190c0 139 -37 190 -103 190c-63 0 -100 -51 -100 -190zM301 761l123 -138h-97l-78 84l-79 -84h-97
l124 138h104z" />
	<glyph glyph-name="odieresis" unicode="&#xf6;" horiz-adv-x="497" 
d="M33 279v1c0 160 68 291 216 291c147 0 215 -131 215 -292c0 -160 -68 -291 -215 -291c-148 0 -216 131 -216 291zM147 279v-1c0 -137 37 -189 103 -189c63 0 100 52 100 190c0 139 -37 190 -103 190c-63 0 -100 -51 -100 -190zM211 744v-113h-102v113h102zM389 744v-113
h-103v113h103z" />
	<glyph glyph-name="ograve" unicode="&#xf2;" horiz-adv-x="497" 
d="M33 279v1c0 160 68 291 216 291c147 0 215 -131 215 -292c0 -160 -68 -291 -215 -291c-148 0 -216 131 -216 291zM147 279v-1c0 -137 37 -189 103 -189c63 0 100 52 100 190c0 139 -37 190 -103 190c-63 0 -100 -51 -100 -190zM125 794l225 -125l-38 -71l-229 109z" />
	<glyph glyph-name="otilde" unicode="&#xf5;" horiz-adv-x="497" 
d="M33 279v1c0 160 68 291 216 291c147 0 215 -131 215 -292c0 -160 -68 -291 -215 -291c-148 0 -216 131 -216 291zM147 279v-1c0 -137 37 -189 103 -189c63 0 100 52 100 190c0 139 -37 190 -103 190c-63 0 -100 -51 -100 -190zM396 744l42 -68c-21 -21 -57 -41 -97 -41
c-36 0 -64 5 -91 13c-23 8 -50 14 -77 14c-32 0 -53 -11 -72 -28l-43 67c21 22 60 43 97 43c38 0 66 -5 94 -13c22 -8 49 -14 76 -14c30 0 50 8 71 27z" />
	<glyph glyph-name="scaron" unicode="&#x161;" horiz-adv-x="428" 
d="M385 401h-108c-1 53 -26 76 -71 76c-37 0 -60 -24 -60 -58c0 -54 59 -64 124 -84c62 -20 129 -57 129 -170c0 -103 -79 -177 -186 -177c-105 0 -184 59 -193 185h108c2 -54 37 -87 87 -87s70 34 70 72c0 56 -58 69 -125 91c-66 22 -128 59 -128 166c0 91 65 156 178 156
s169 -63 175 -170zM40 758h97l77 -84l77 84h97l-122 -137h-104z" />
	<glyph glyph-name="uacute" unicode="&#xfa;" horiz-adv-x="499" 
d="M438 559v-559h-99c0 24 0 48 1 74c-20 -59 -62 -86 -130 -86c-91 0 -150 51 -150 173v398h108v-363c0 -45 9 -101 75 -101c51 0 87 33 87 106v358h108zM154 669l224 125l42 -87l-228 -109z" />
	<glyph glyph-name="ucircumflex" unicode="&#xfb;" horiz-adv-x="499" 
d="M438 559v-559h-99c0 24 0 48 1 74c-20 -59 -62 -86 -130 -86c-91 0 -150 51 -150 173v398h108v-363c0 -45 9 -101 75 -101c51 0 87 33 87 106v358h108zM301 761l124 -138h-97l-78 84l-79 -84h-97l124 138h103z" />
	<glyph glyph-name="udieresis" unicode="&#xfc;" horiz-adv-x="499" 
d="M438 559v-559h-99c0 24 0 48 1 74c-20 -59 -62 -86 -130 -86c-91 0 -150 51 -150 173v398h108v-363c0 -45 9 -101 75 -101c51 0 87 33 87 106v358h108zM212 744v-113h-103v113h103zM390 744v-113h-103v113h103z" />
	<glyph glyph-name="ugrave" unicode="&#xf9;" horiz-adv-x="499" 
d="M438 559v-559h-99c0 24 0 48 1 74c-20 -59 -62 -86 -130 -86c-91 0 -150 51 -150 173v398h108v-363c0 -45 9 -101 75 -101c51 0 87 33 87 106v358h108zM118 794l225 -125l-38 -71l-229 109z" />
	<glyph glyph-name="yacute" unicode="&#xfd;" horiz-adv-x="426" 
d="M90 -188l69 214l-155 533h113l97 -369l96 369h113l-223 -747h-110zM117 669l225 125l42 -87l-229 -109z" />
	<glyph glyph-name="ydieresis" unicode="&#xff;" horiz-adv-x="426" 
d="M90 -188l69 214l-155 533h113l97 -369l96 369h113l-223 -747h-110zM176 744v-113h-103v113h103zM353 744v-113h-102v113h102z" />
	<glyph glyph-name="zcaron" unicode="&#x17e;" horiz-adv-x="426" 
d="M25 0v101l229 356h-210v102h338v-102l-225 -355h229v-102h-361zM34 755h97l77 -85l77 85h97l-122 -138h-104z" />
	<glyph glyph-name="Omega" unicode="&#x2126;" horiz-adv-x="688" 
d="M176 91v3c-63 65 -122 172 -122 310c0 195 121 344 293 344c184 0 285 -172 285 -337c0 -141 -62 -256 -124 -317v-3h138v-91h-247v66c63 46 124 153 124 321c0 133 -59 267 -178 267c-112 0 -182 -116 -182 -271c0 -154 61 -272 124 -317v-66h-247v91h136z" />
	<glyph glyph-name="pi" unicode="&#x3c0;" horiz-adv-x="579" 
d="M554 456h-72v-305c0 -79 6 -120 14 -151h-104c-11 21 -17 70 -17 146v310h-149c-5 -120 -31 -345 -67 -456h-104c35 122 62 331 65 456c-52 0 -79 -4 -100 -11l-13 74c25 19 73 33 154 33h402z" />
	<glyph glyph-name="Euro" unicode="&#x20ac;" horiz-adv-x="556" 
d="M409 338l-16 -86h-166c14 -110 53 -148 107 -148c43 0 69 12 89 85h113c-27 -172 -129 -201 -208 -201c-145 0 -207 104 -225 264h-98l16 86h76v24v31h-92l16 86h84c21 146 87 257 227 257c146 0 191 -116 202 -206h-112c-13 71 -53 90 -90 90c-50 0 -89 -38 -104 -141
h207l-16 -86h-198v-31v-24h188z" />
	<glyph glyph-name="estimated" unicode="&#x212e;" horiz-adv-x="921" 
d="M884 359h-687c-3 0 -5 -1 -5 -4v-208c0 -9 3 -17 9 -24c66 -69 158 -113 260 -113c109 0 206 50 273 127h61c-76 -90 -199 -148 -336 -148c-233 0 -423 170 -423 381s190 382 423 382c236 0 425 -171 425 -382v-11zM728 386v210c0 9 -3 18 -10 24
c-66 66 -157 109 -257 109c-101 0 -193 -44 -259 -112c-7 -7 -10 -16 -10 -26v-205c0 -2 2 -6 5 -6h527c3 0 4 4 4 6z" />
	<glyph glyph-name="partialdiff" unicode="&#x2202;" horiz-adv-x="555" 
d="M103 689l-32 84c32 25 86 58 173 58c136 0 262 -126 262 -398c0 -265 -96 -440 -268 -440c-133 0 -198 126 -198 246c0 170 99 275 212 275c81 0 132 -56 147 -84h1c1 10 1 29 1 38c0 149 -71 271 -171 271c-59 0 -100 -27 -127 -50zM248 86h1c80 0 130 125 141 245
c-12 38 -54 93 -118 93c-72 0 -125 -89 -125 -189c0 -85 39 -149 101 -149z" />
	<glyph glyph-name="product" unicode="&#x220f;" horiz-adv-x="702" 
d="M674 636h-100v-738h-107v738h-233v-738h-107v738h-101v100h648v-100z" />
	<glyph glyph-name="summation" unicode="&#x2211;" horiz-adv-x="546" 
d="M525 -102h-501v73l246 347l-237 341v77h476v-93h-332v-4l215 -302l-238 -332v-3h371v-104z" />
	<glyph glyph-name="uni2219" unicode="&#x2219;" horiz-adv-x="270" 
d="M198 324v-141h-126v141h126z" />
	<glyph glyph-name="radical" unicode="&#x221a;" horiz-adv-x="580" 
d="M582 882l-219 -1032h-89l-149 472l-73 -29l-19 64l158 63l108 -348c7 -33 15 -68 19 -89l1 -1c3 21 8 58 15 93l172 807h76z" />
	<glyph glyph-name="infinity" unicode="&#x221e;" horiz-adv-x="785" 
d="M736 306v-2c0 -106 -78 -170 -160 -170c-61 0 -114 30 -182 116c-53 -63 -107 -116 -189 -116c-83 0 -156 69 -156 166c0 99 70 169 164 169c76 0 131 -49 184 -115c46 51 97 115 185 115s154 -66 154 -163zM214 196h1c60 0 104 55 144 101c-43 56 -82 111 -150 111
c-60 0 -95 -48 -95 -109c0 -57 42 -103 100 -103zM576 408h-1c-64 0 -113 -68 -146 -105c63 -75 97 -107 150 -107c59 0 92 56 92 104c0 65 -39 108 -95 108z" />
	<glyph glyph-name="integral" unicode="&#x222b;" horiz-adv-x="387" 
d="M363 894l-13 -77c-9 5 -21 9 -35 9c-18 0 -37 -7 -49 -26c-23 -29 -30 -88 -30 -181c0 -170 14 -334 14 -517c0 -104 -16 -172 -39 -212c-25 -48 -73 -67 -118 -67c-30 0 -59 9 -72 16l15 80c9 -4 24 -11 43 -11c16 0 33 7 44 23c18 25 29 71 29 170
c0 185 -14 353 -14 528c0 120 15 186 57 232c27 31 69 46 109 46c24 0 48 -7 59 -13z" />
	<glyph glyph-name="approxequal" unicode="&#x2248;" horiz-adv-x="548" 
d="M466 462l40 -35c-28 -59 -73 -104 -132 -104c-39 0 -66 14 -112 41c-30 19 -56 35 -88 35c-44 0 -69 -37 -93 -74l-41 35c29 60 81 102 141 102c49 0 82 -24 107 -39c35 -20 57 -36 88 -36c39 0 63 29 90 75zM466 279l40 -35c-28 -58 -72 -103 -132 -103
c-39 0 -67 14 -112 41c-31 19 -56 35 -88 35c-45 0 -69 -37 -93 -75l-41 35c29 60 81 103 141 103c49 0 82 -24 107 -38c32 -19 56 -37 88 -37c40 0 63 29 90 74z" />
	<glyph glyph-name="notequal" unicode="&#x2260;" horiz-adv-x="548" 
d="M398 528l-41 -93h141v-66h-165l-61 -141h226v-65h-251l-50 -115l-51 21l41 94h-138v65h163l61 141h-224v66h248l50 113z" />
	<glyph glyph-name="lessequal" unicode="&#x2264;" horiz-adv-x="548" 
d="M496 105l-442 229v70l441 229v-78l-375 -184v-2l376 -186v-78zM499 -1h-449v66h449v-66z" />
	<glyph glyph-name="greaterequal" unicode="&#x2265;" horiz-adv-x="548" 
d="M56 633l441 -229v-70l-441 -229v78l376 185v2l-376 185v78zM498 -1h-447v66h447v-66z" />
	<glyph glyph-name="lozenge" unicode="&#x25ca;" horiz-adv-x="580" 
d="M527 368l-196 -416h-88l-191 416l196 416h88zM431 365l-120 263c-8 20 -15 46 -19 63h-3c-5 -19 -11 -42 -20 -63l-121 -258l122 -266c7 -22 14 -47 17 -61h4c3 15 12 47 17 59z" />
	<glyph glyph-name="uni02C9" unicode="&#x2c9;" horiz-adv-x="332" 
d="M336 721v-72h-340v72h340z" />
	<glyph glyph-name="uni00AD" unicode="&#xad;" horiz-adv-x="306" 
d="M35 336h235v-106h-235v106z" />
	<glyph glyph-name="uni03A9" unicode="&#x3a9;" horiz-adv-x="688" 
d="M176 91v3c-63 65 -122 172 -122 310c0 195 121 344 293 344c184 0 285 -172 285 -337c0 -141 -62 -256 -124 -317v-3h138v-91h-247v66c63 46 124 153 124 321c0 133 -59 267 -178 267c-112 0 -182 -116 -182 -271c0 -154 61 -272 124 -317v-66h-247v91h136z" />
	<glyph glyph-name="uni00A0" unicode="&#xa0;" horiz-adv-x="264" 
 />
	<glyph glyph-name="afii61289" unicode="&#x2113;" horiz-adv-x="493" 
d="M429 174l45 -45c-48 -97 -117 -137 -194 -137c-121 0 -168 86 -174 184v13c-16 -14 -35 -30 -53 -45l-28 60c29 26 56 48 80 73v277c0 185 80 258 168 258c89 0 130 -78 130 -179c0 -126 -76 -249 -194 -371v-46c1 -95 42 -137 94 -137c55 0 99 49 126 95zM209 552v-185
c73 88 127 184 127 269c0 59 -16 95 -59 95c-32 0 -68 -42 -68 -179z" />
	<glyph glyph-name="uni03BC" unicode="&#x3bc;" horiz-adv-x="500" 
d="M61 -180v739h108v-360c0 -37 5 -61 17 -80c13 -18 35 -24 53 -24c21 0 47 4 67 27c16 19 25 43 25 90v347h108v-559h-99c0 27 0 53 1 80c-12 -48 -56 -92 -125 -92c-19 0 -39 6 -47 22v-59v-131h-108z" />
	<glyph glyph-name="uni2215" unicode="&#x2215;" horiz-adv-x="146" 
d="M-162 -9l386 758h85l-387 -758h-84z" />
	<glyph glyph-name="a.superior" horiz-adv-x="300" 
d="M276 747v-336h-73c0 18 0 32 1 45c-16 -35 -42 -52 -80 -52c-68 0 -118 60 -118 174c0 111 43 176 118 176c33 0 65 -13 80 -55c-1 17 -1 31 -1 48h73zM85 578v-1c0 -63 20 -101 55 -101c33 0 51 25 53 64c1 13 2 27 2 40s-1 26 -2 39c-3 38 -21 62 -54 62
s-54 -36 -54 -103z" />
	<glyph glyph-name="o.superior" horiz-adv-x="300" 
d="M9 578v1c0 96 45 175 142 175c96 0 140 -79 140 -176c0 -96 -44 -175 -140 -175c-97 0 -142 79 -142 175zM90 578v-1c0 -77 24 -107 61 -107s59 30 59 108c0 81 -21 109 -62 109c-38 0 -58 -28 -58 -109z" />
	<glyph glyph-name="one.superior" horiz-adv-x="313" 
d="M211 740v-436h-87v362h-71v74h158z" />
	<glyph glyph-name="two.superior" horiz-adv-x="337" 
d="M311 385v-81h-290v76c71 66 119 111 154 147c38 38 44 54 44 82c0 34 -17 60 -53 60c-30 0 -57 -21 -57 -72h-87c0 36 7 65 20 88c26 43 72 63 126 63c88 0 144 -57 144 -141c0 -48 -17 -79 -52 -115c-31 -32 -79 -71 -117 -107h168z" />
	<glyph glyph-name="three.superior" horiz-adv-x="337" 
d="M18 440h85c1 -47 29 -70 66 -70c42 0 62 27 62 64c0 43 -25 73 -75 73h-34v67h30c45 0 58 25 58 51s-14 49 -46 49s-49 -21 -49 -53h-86c1 84 60 127 139 127c78 0 132 -45 132 -113c0 -49 -24 -73 -59 -89c48 -8 80 -51 80 -114c0 -76 -59 -136 -148 -136
c-60 0 -106 21 -131 59c-16 23 -24 51 -24 85z" />
	<glyph glyph-name="uni2206" unicode="&#x2206;" horiz-adv-x="639" 
d="M29 0v68l230 685h126l224 -684v-69h-580zM138 90h357l-117 340c-16 58 -47 145 -58 193h-4c-8 -40 -37 -118 -54 -178z" />
	<glyph glyph-name="uni2010" unicode="&#x2010;" horiz-adv-x="306" 
d="M35 336h235v-106h-235v106z" />
	</font>
</defs>
</svg>
