<?xml version="1.0" standalone="no"?>
<!DOCTYPE svg PUBLIC "-//W3C//DTD SVG 1.1//EN" "http://www.w3.org/Graphics/SVG/1.1/DTD/svg11.dtd" >
<svg>
<metadata>
Created by FontForge 20120731 at Wed Jun  6 21:33:46 2018
 By www-data
Copyright 1993, 1994, 2001, 2002 Adobe Systems Incorporated. All rights reserved. ITC and Avant Garde are trademarks of International Typeface Corporation registered in the U.S. Patent and Trademark Office and may be registered in certain other jurisdictions.
</metadata>
<defs>
<font id="ITCAvantGardeStd-Md" horiz-adv-x="590" >
  <font-face 
	font-family="ITC Avant Garde Gothic Std Medium"
	font-weight="500"
	font-stretch="normal"
	units-per-em="1000"
	panose-1="2 11 6 2 2 2 2 2 2 4"
	ascent="740"
	descent="-260"
	x-height="544"
	cap-height="740"
	bbox="-127 -268 1154 983"
	underline-thickness="50"
	underline-position="-50"
	stemh="97"
	stemv="104"
	unicode-range="U+0020-FB02"
  />
<missing-glyph horiz-adv-x="500" 
d="M0 0v700h500v-700h-500zM250 395l170 255h-340zM280 350l170 -255v510zM80 50h340l-170 255zM50 605v-510l170 255z" />
	<glyph glyph-name="f_i" unicode="fi" horiz-adv-x="508" 
d="M336 463h-153v-463h-104v463h-74v81h74v37c0 164 127 172 204 173v-82c-35 -1 -100 -1 -100 -96v-32h257v-544h-104v463zM440 630h-104v110h104v-110z" />
	<glyph glyph-name="f_l" unicode="fl" horiz-adv-x="508" 
d="M336 463h-153v-463h-104v463h-74v81h74v37c0 164 127 172 204 173v-82c-35 -1 -100 -1 -100 -96v-32h153v195h104v-739h-104v463z" />
	<glyph glyph-name=".notdef" horiz-adv-x="500" 
d="M0 0v700h500v-700h-500zM250 395l170 255h-340zM280 350l170 -255v510zM80 50h340l-170 255zM50 605v-510l170 255z" />
	<glyph glyph-name="space" unicode=" " horiz-adv-x="295" 
 />
	<glyph glyph-name="exclam" unicode="!" horiz-adv-x="300" 
d="M204 740v-531h-108v531h108zM204 130v-130h-108v130h108z" />
	<glyph glyph-name="quotedbl" unicode="&#x22;" horiz-adv-x="405" 
d="M165 444h-81v296h81v-296zM321 444h-82v296h82v-296z" />
	<glyph glyph-name="numbersign" unicode="#" 
d="M401 249l-28 -204h-73l28 204h-107l-28 -204h-75l29 204h-122l8 71h124l14 102h-123l9 72h124l26 186h74l-26 -186h107l26 186h74l-26 -186h129l-9 -72h-131l-14 -102h129l-8 -71h-131zM338 320l14 102h-107l-14 -102h107z" />
	<glyph glyph-name="dollar" unicode="$" 
d="M343 811v-92c95 -17 147 -89 149 -177h-99c-6 61 -52 95 -95 95c-49 0 -93 -40 -93 -96c0 -73 60 -93 147 -122c92 -33 157 -99 157 -190c0 -87 -60 -174 -166 -198v-98h-88v98c-109 13 -171 103 -174 194h108c5 -72 56 -111 109 -111c59 0 103 48 103 104
c0 85 -82 111 -160 136c-56 17 -143 58 -143 177c0 108 74 171 157 188v92h88z" />
	<glyph glyph-name="percent" unicode="%" horiz-adv-x="796" 
d="M30 581v1c0 96 75 172 172 172s172 -76 172 -173s-75 -172 -172 -172c-96 0 -172 75 -172 172zM104 581v-1c0 -55 41 -99 98 -99c56 0 99 43 99 101c0 57 -42 100 -99 100s-98 -43 -98 -101zM421 159v1c0 96 75 172 173 172c96 0 172 -76 172 -173
c0 -98 -77 -173 -172 -173c-97 0 -173 74 -173 173zM494 159v-1c0 -56 42 -100 100 -100c56 0 98 43 98 101s-42 100 -98 100c-58 0 -100 -43 -100 -100zM622 740l-374 -740h-78l374 740h78z" />
	<glyph glyph-name="ampersand" unicode="&#x26;" horiz-adv-x="741" 
d="M578 449h110l-127 -241l148 -151l-72 -70l-132 136c-40 -77 -97 -137 -216 -137c-146 0 -237 99 -237 211c0 119 98 181 164 216c-50 53 -83 101 -85 165c0 97 80 176 183 176c104 0 181 -79 181 -173c0 -99 -76 -143 -132 -173l128 -130zM315 666h-1
c-48 0 -80 -39 -80 -82c0 -51 39 -86 68 -117c61 34 97 59 97 115c0 44 -33 84 -84 84zM435 191l-154 157c-82 -41 -115 -88 -115 -142c0 -66 53 -120 127 -120s109 41 142 105z" />
	<glyph glyph-name="quoteright" unicode="&#x2019;" horiz-adv-x="297" 
d="M41 533l75 207h94l-88 -207h-81z" />
	<glyph glyph-name="parenleft" unicode="(" horiz-adv-x="451" 
d="M413 754v-117c-108 -59 -217 -204 -217 -394c0 -185 104 -332 217 -393v-118c-224 98 -331 311 -331 512c0 197 110 419 331 510z" />
	<glyph glyph-name="parenright" unicode=")" horiz-adv-x="451" 
d="M38 -268v116c109 59 218 204 218 394c0 185 -105 332 -218 393v119c224 -99 331 -312 331 -513c0 -197 -110 -419 -331 -509z" />
	<glyph glyph-name="asterisk" unicode="*" horiz-adv-x="627" 
d="M350 740l-18 -140l113 85l34 -63l-126 -53l127 -53l-37 -65l-112 86l19 -139h-73l18 140l-111 -87l-37 65l127 54l-127 52l35 63l114 -84l-19 139h73z" />
	<glyph glyph-name="plus" unicode="+" horiz-adv-x="600" 
d="M350 504v-202h201v-101h-201v-201h-100v201h-201v101h201v202h100z" />
	<glyph glyph-name="comma" unicode="," horiz-adv-x="297" 
d="M204 131l-83 -207h-90l63 207h110z" />
	<glyph glyph-name="hyphen" unicode="-" horiz-adv-x="274" 
d="M0 335h274v-103h-274v103z" />
	<glyph glyph-name="period" unicode="." horiz-adv-x="297" 
d="M204 130v-130h-109v130h109z" />
	<glyph glyph-name="slash" unicode="/" horiz-adv-x="559" 
d="M70 -100l303 840h117l-303 -840h-117z" />
	<glyph glyph-name="zero" unicode="0" 
d="M36 247v242c0 214 176 265 259 265c111 0 259 -76 259 -261v-246c0 -199 -164 -261 -257 -261c-98 0 -261 64 -261 261zM153 493v-249c0 -84 54 -154 142 -154c80 0 141 70 141 154v252c0 57 -29 154 -143 154c-89 0 -140 -71 -140 -157z" />
	<glyph glyph-name="one" unicode="1" 
d="M247 0v640h-140v100h258v-740h-118z" />
	<glyph glyph-name="two" unicode="2" 
d="M54 0v93c77 72 153 144 229 215c71 65 136 121 139 209c0 84 -55 133 -128 133c-79 0 -124 -66 -126 -160h-113c2 65 17 125 58 176c53 72 139 88 191 88c147 0 236 -104 235 -229c-2 -82 -35 -142 -116 -221c-69 -68 -138 -136 -208 -204h327v-100h-488z" />
	<glyph glyph-name="three" unicode="3" 
d="M188 551h-116c5 149 126 203 218 203c119 0 205 -81 205 -189c0 -84 -53 -131 -100 -156c133 -46 145 -153 145 -191c0 -133 -111 -232 -253 -232c-77 0 -161 32 -207 95c-31 44 -43 96 -44 137h119c4 -72 58 -127 135 -128c84 0 132 60 132 134c0 76 -66 131 -149 131
h-55v89h35c77 0 125 51 125 105c0 56 -35 101 -92 101c-70 0 -95 -55 -98 -99z" />
	<glyph glyph-name="four" unicode="4" 
d="M363 0v136h-353v88l351 516h116v-510h79v-94h-79v-136h-114zM131 230h239v367z" />
	<glyph glyph-name="five" unicode="5" 
d="M127 740h375v-100h-284l-33 -181c24 16 58 39 126 39c161 0 246 -135 246 -250c0 -127 -99 -262 -267 -262c-131 0 -246 84 -266 221h118c16 -72 81 -117 145 -117c82 0 153 70 153 155c0 84 -66 155 -153 155c-35 0 -88 -11 -130 -74l-96 24z" />
	<glyph glyph-name="six" unicode="6" 
d="M294 740h135l-143 -205c-11 -15 -22 -31 -34 -48c13 8 45 19 76 19c117 0 237 -92 237 -251c0 -153 -118 -269 -268 -269c-90 0 -164 35 -210 92c-44 51 -61 120 -61 175c0 80 32 141 66 192zM142 244v-1c0 -88 66 -153 151 -153c88 0 154 69 154 155
c0 95 -72 157 -152 157c-71 0 -153 -53 -153 -158z" />
	<glyph glyph-name="seven" unicode="7" 
d="M75 740h442v-92l-291 -648h-129l298 640h-320v100z" />
	<glyph glyph-name="eight" unicode="8" 
d="M76 562v1c0 96 80 191 219 191c138 0 218 -93 218 -192c0 -77 -47 -127 -88 -150c78 -31 119 -105 119 -189c-1 -135 -106 -237 -249 -237c-144 0 -249 102 -250 237c1 83 41 157 120 189c-41 23 -89 73 -89 150zM191 553v-1c0 -58 47 -102 104 -102s104 44 104 103
s-47 104 -104 104s-104 -45 -104 -104zM163 224v-1c0 -69 55 -133 132 -133s132 64 132 134c0 71 -55 134 -132 134c-78 0 -132 -63 -132 -134z" />
	<glyph glyph-name="nine" unicode="9" 
d="M297 0h-135l143 205c11 16 23 32 34 48c-13 -8 -45 -19 -76 -19c-118 0 -237 92 -237 251c0 153 118 269 268 269c89 0 164 -35 210 -92c44 -51 60 -120 60 -175c0 -80 -31 -141 -65 -192zM448 496v1c0 88 -65 153 -151 153c-87 0 -153 -68 -153 -155
c0 -94 71 -156 150 -156c73 0 154 53 154 157z" />
	<glyph glyph-name="colon" unicode=":" horiz-adv-x="297" 
d="M204 544v-130h-109v130h109zM204 130v-130h-109v130h109z" />
	<glyph glyph-name="semicolon" unicode=";" horiz-adv-x="297" 
d="M203 544v-130h-109v130h109zM205 131l-89 -207h-85l64 207h110z" />
	<glyph glyph-name="less" unicode="&#x3c;" horiz-adv-x="600" 
d="M48 302l504 223v-110l-397 -163l397 -163v-110l-504 223v100z" />
	<glyph glyph-name="equal" unicode="=" horiz-adv-x="600" 
d="M49 418h502v-100h-502v100zM49 186h502v-101h-502v101z" />
	<glyph glyph-name="greater" unicode="&#x3e;" horiz-adv-x="600" 
d="M48 89l397 164l-397 162v110l504 -223v-100l-504 -223v110z" />
	<glyph glyph-name="question" unicode="?" horiz-adv-x="567" 
d="M322 204h-110c2 68 23 120 98 192c51 51 83 84 84 136c0 63 -43 113 -113 113c-62 0 -111 -40 -120 -107c-1 -9 -2 -17 -2 -25h-114c-1 9 0 15 0 22c9 141 124 219 241 219c136 0 227 -101 227 -212c0 -87 -60 -142 -115 -194c-70 -67 -75 -107 -76 -144zM321 130v-130
h-109v130h109z" />
	<glyph glyph-name="at" unicode="@" horiz-adv-x="770" 
d="M657 146l23 -51c-83 -85 -214 -110 -276 -110c-256 0 -387 200 -387 380c0 206 158 390 388 390c189 0 349 -129 349 -321c0 -168 -124 -274 -213 -274c-37 0 -81 18 -90 73c-28 -42 -64 -71 -123 -71c-62 0 -134 50 -134 156c0 119 89 249 203 249c59 0 89 -30 103 -70
l16 56h70l-64 -242c-1 -8 -9 -35 -9 -49c-2 -33 22 -39 39 -39c53 0 138 81 138 210c0 164 -136 260 -282 260c-183 0 -322 -147 -322 -329c0 -140 97 -317 317 -317c87 0 188 30 254 99zM266 320v-1c0 -73 45 -94 78 -94c65 0 98 56 112 97c7 22 25 68 25 98
c-1 50 -35 84 -76 84c-69 0 -139 -86 -139 -184z" />
	<glyph glyph-name="A" unicode="A" horiz-adv-x="726" 
d="M204 175l-68 -175h-128l304 740h107l299 -740h-128l-70 175h-316zM488 270l-127 333l-125 -333h252z" />
	<glyph glyph-name="B" unicode="B" horiz-adv-x="599" 
d="M71 0v740h221c70 0 121 -14 157 -40c54 -33 75 -91 75 -150c0 -78 -41 -127 -94 -155c128 -41 135 -150 135 -183c-1 -73 -33 -135 -90 -169c-52 -36 -96 -43 -187 -43h-217zM189 636v-203h97c27 0 54 2 75 12c37 20 50 52 50 91c0 45 -24 75 -50 87c-18 9 -41 13 -78 13
h-94zM189 334v-230h119c24 0 54 2 79 12c36 16 64 47 65 103c0 51 -27 86 -65 102c-29 12 -53 13 -89 13h-109z" />
	<glyph glyph-name="C" unicode="C" horiz-adv-x="811" 
d="M653 225h124c-46 -135 -183 -239 -351 -239c-223 0 -387 175 -387 385c0 203 157 383 386 383c199 -1 317 -141 353 -243h-125c-24 48 -99 138 -229 139c-157 0 -267 -129 -267 -279c0 -154 112 -281 268 -281c143 0 212 108 228 135z" />
	<glyph glyph-name="D" unicode="D" horiz-adv-x="724" 
d="M71 0v740h229c99 0 222 -15 304 -120c56 -67 81 -152 81 -249c0 -216 -117 -371 -377 -371h-237zM189 636v-532h125c174 0 254 111 254 265c0 71 -19 139 -60 189c-39 45 -98 78 -193 78h-126z" />
	<glyph glyph-name="E" unicode="E" horiz-adv-x="537" 
d="M71 0v740h414v-104h-296v-210h292v-103h-292v-219h296v-104h-414z" />
	<glyph glyph-name="F" unicode="F" horiz-adv-x="493" 
d="M71 0v740h386v-104h-268v-216h264v-103h-264v-317h-118z" />
	<glyph glyph-name="G" unicode="G" horiz-adv-x="854" 
d="M783 530h-133c-19 27 -42 51 -68 70c-43 31 -95 50 -156 50c-140 0 -271 -106 -271 -278c0 -178 132 -282 271 -282c68 0 127 21 171 55c45 34 76 81 87 132h-319v96h456c0 -47 -8 -111 -33 -166c-68 -147 -221 -221 -361 -221c-219 0 -389 169 -389 386
c0 221 175 382 390 382c159 0 302 -96 355 -224z" />
	<glyph glyph-name="H" unicode="H" horiz-adv-x="698" 
d="M189 0h-118v740h118v-312h319v312h118v-740h-118v324h-319v-324z" />
	<glyph glyph-name="I" unicode="I" horiz-adv-x="261" 
d="M71 0v740h118v-740h-118z" />
	<glyph glyph-name="J" unicode="J" horiz-adv-x="522" 
d="M450 740v-483c0 -67 -4 -114 -21 -152c-14 -29 -39 -59 -68 -78c-41 -28 -90 -41 -135 -41c-43 0 -185 20 -215 166c-3 13 -4 28 -5 43h126c0 -6 1 -11 2 -18c16 -63 62 -87 98 -87c50 1 79 29 90 58c9 26 11 54 11 83v509h117z" />
	<glyph glyph-name="K" unicode="K" horiz-adv-x="630" 
d="M89 0v740h118v-350l271 350h125l-288 -369l317 -371h-145l-280 341v-341h-118z" />
	<glyph glyph-name="L" unicode="L" horiz-adv-x="458" 
d="M74 0v740h118v-636h261v-104h-379z" />
	<glyph glyph-name="M" unicode="M" horiz-adv-x="923" 
d="M181 0h-110v740h162l230 -573l227 573h161v-740h-109l3 624l-245 -624h-77l-245 624z" />
	<glyph glyph-name="N" unicode="N" horiz-adv-x="750" 
d="M182 740l384 -563l-2 563h114v-740h-108l-387 564l2 -564h-114v740h111z" />
	<glyph glyph-name="O" unicode="O" horiz-adv-x="851" 
d="M38 365v1c0 233 179 388 387 388c221 0 388 -171 388 -384s-167 -384 -389 -384c-223 0 -386 175 -386 379zM155 371v-1c0 -154 114 -280 272 -280c161 0 268 135 268 279c0 145 -107 281 -269 281c-161 0 -271 -130 -271 -279z" />
	<glyph glyph-name="P" unicode="P" horiz-adv-x="580" 
d="M67 740h211c115 0 164 -15 208 -50c52 -40 82 -111 82 -182s-31 -145 -77 -182c-50 -39 -100 -55 -202 -55h-104v-271h-118v740zM185 636v-261h102c47 0 83 5 115 25c30 17 53 56 53 106s-23 88 -54 106c-33 20 -69 24 -118 24h-98z" />
	<glyph glyph-name="Q" unicode="Q" horiz-adv-x="873" 
d="M868 84v-97c-19 1 -37 2 -56 4c-86 7 -129 36 -161 60c-64 -41 -141 -65 -217 -65c-238 0 -390 187 -390 382c0 206 160 386 387 386s390 -177 390 -381c0 -140 -62 -214 -91 -248c38 -26 75 -36 138 -41zM432 650h-1c-136 0 -246 -97 -262 -239c-2 -33 1 -55 5 -72
c30 10 75 25 137 25c66 0 126 -15 185 -52c42 -26 64 -46 142 -112c43 44 66 105 66 173c0 164 -124 277 -272 277zM433 90h1c57 0 107 19 132 37c-21 23 -78 69 -89 78c-56 41 -117 59 -178 59c-50 0 -82 -10 -108 -21c57 -124 176 -153 242 -153z" />
	<glyph glyph-name="R" unicode="R" horiz-adv-x="609" 
d="M67 0v740h209c116 0 176 -16 215 -43c61 -40 98 -117 98 -200c0 -52 -15 -102 -42 -141c-38 -53 -86 -71 -143 -81l174 -275h-125l-203 334h26c51 0 113 2 148 32c34 30 51 73 51 121c0 50 -24 99 -63 125c-32 20 -73 24 -126 24h-101v-636h-118z" />
	<glyph glyph-name="S" unicode="S" horiz-adv-x="548" 
d="M34 219h117c8 -111 86 -133 125 -133c66 0 123 52 123 118c0 82 -70 101 -165 136c-58 19 -187 62 -187 201c-1 138 117 213 233 213c95 0 214 -52 223 -204h-116c-8 40 -26 104 -111 104c-60 0 -112 -41 -112 -104c0 -72 55 -90 174 -134c92 -39 178 -86 178 -206
s-81 -224 -239 -224c-147 0 -241 90 -243 233z" />
	<glyph glyph-name="T" unicode="T" horiz-adv-x="474" 
d="M178 0v636h-170v104h458v-104h-170v-636h-118z" />
	<glyph glyph-name="U" unicode="U" horiz-adv-x="656" 
d="M70 740h118v-462c0 -46 0 -86 27 -129c22 -35 63 -59 114 -59s92 23 112 57c28 42 28 83 28 131v462h117v-462c1 -98 -15 -173 -80 -227c-44 -40 -103 -65 -176 -65c-53 0 -129 15 -179 64c-73 65 -82 138 -81 228v462z" />
	<glyph glyph-name="V" unicode="V" horiz-adv-x="697" 
d="M289 0l-277 740h122l214 -596l215 596h122l-279 -740h-117z" />
	<glyph glyph-name="W" unicode="W" horiz-adv-x="939" 
d="M214 0l-200 740h120l146 -579l145 579h89l147 -580l144 580h120l-204 -740h-109l-143 561l-143 -561h-112z" />
	<glyph glyph-name="X" unicode="X" horiz-adv-x="668" 
d="M10 0l256 386l-236 354h134l170 -267l169 267h133l-233 -356l255 -384h-134l-194 301l-189 -301h-131z" />
	<glyph glyph-name="Y" unicode="Y" horiz-adv-x="605" 
d="M244 0v263l-232 477h128l163 -366l163 366h128l-232 -477v-263h-118z" />
	<glyph glyph-name="Z" unicode="Z" horiz-adv-x="499" 
d="M478 648l-317 -544h326v-104h-469v76l327 560h-333v104h466v-92z" />
	<glyph glyph-name="bracketleft" unicode="[" horiz-adv-x="451" 
d="M380 -113v-88h-265v941h265v-87h-164v-766h164z" />
	<glyph glyph-name="backslash" unicode="\" horiz-adv-x="559" 
d="M373 -100l-303 840h116l304 -840h-117z" />
	<glyph glyph-name="bracketright" unicode="]" horiz-adv-x="451" 
d="M71 -201v88h164v766h-164v87h266v-941h-266z" />
	<glyph glyph-name="asciicircum" unicode="^" horiz-adv-x="600" 
d="M74 375l173 365h106l173 -365h-114l-113 272l-112 -272h-113z" />
	<glyph glyph-name="underscore" unicode="_" horiz-adv-x="500" 
d="M500 -125h-500v50h500v-50z" />
	<glyph glyph-name="quoteleft" unicode="&#x2018;" horiz-adv-x="297" 
d="M181 740l75 -207h-81l-87 207h93z" />
	<glyph glyph-name="a" unicode="a" horiz-adv-x="691" 
d="M622 544v-544h-104v95c-38 -73 -116 -111 -202 -111c-175 0 -279 136 -279 288c0 166 121 288 279 288c108 0 177 -60 202 -112v96h104zM141 271v-1c1 -81 58 -189 190 -189c83 0 142 46 169 108c12 25 18 53 19 81s-4 56 -16 81c-26 63 -87 112 -174 112
c-114 0 -188 -90 -188 -192z" />
	<glyph glyph-name="b" unicode="b" horiz-adv-x="684" 
d="M68 0v740h104v-197v-86c50 71 130 102 200 103c141 0 276 -105 276 -286c0 -175 -124 -290 -280 -290c-93 0 -165 45 -200 110v-94h-100zM544 272v1c0 106 -81 190 -188 190c-112 0 -188 -87 -188 -190c0 -104 74 -192 185 -192c124 0 190 97 191 191z" />
	<glyph glyph-name="c" unicode="c" horiz-adv-x="637" 
d="M497 191h107c-33 -118 -140 -207 -276 -207c-178 0 -291 137 -291 288c0 161 123 288 286 288c130 0 247 -80 281 -211h-107c-28 73 -96 114 -170 114c-55 1 -95 -17 -133 -53c-32 -32 -53 -83 -53 -138c0 -112 82 -191 186 -191c91 1 148 56 170 110z" />
	<glyph glyph-name="d" unicode="d" horiz-adv-x="689" 
d="M619 740v-740h-100v95c-30 -56 -91 -111 -203 -111c-171 0 -279 132 -279 289c0 169 122 287 277 287c111 0 179 -62 201 -105v96v189h104zM141 273v-1c1 -100 71 -191 191 -191c53 0 102 22 136 57c35 35 55 83 53 137c0 54 -21 101 -55 134c-34 34 -81 54 -134 54
c-115 0 -191 -88 -191 -190z" />
	<glyph glyph-name="e" unicode="e" horiz-adv-x="634" 
d="M600 239h-465c5 -110 101 -166 183 -166c73 0 127 35 157 92h108c-26 -60 -64 -105 -110 -135c-46 -31 -100 -46 -155 -46c-178 0 -288 143 -288 287c0 156 122 289 287 289c78 0 149 -29 201 -80c64 -65 91 -150 82 -241zM137 320h360c-5 72 -77 153 -180 151
c-106 0 -175 -77 -180 -151z" />
	<glyph glyph-name="f" unicode="f" horiz-adv-x="291" 
d="M79 0v463h-74v81h74v37c0 164 127 172 204 173v-82c-35 -1 -100 -1 -100 -96v-32h100v-81h-100v-463h-104z" />
	<glyph glyph-name="g" unicode="g" horiz-adv-x="685" 
d="M618 544v-481c0 -95 -24 -156 -64 -202c-50 -58 -135 -99 -229 -99c-154 0 -244 90 -270 181h120c12 -24 33 -46 60 -63c33 -22 70 -29 94 -29c91 0 185 67 185 189v56c-32 -61 -98 -112 -196 -112c-163 0 -281 124 -281 286c0 170 123 290 281 290
c91 0 166 -48 196 -108v92h104zM141 273v-1c0 -102 73 -191 188 -191c55 0 101 21 134 55c32 33 52 80 53 133c0 43 -14 92 -44 129c-30 38 -77 64 -143 64c-103 0 -188 -77 -188 -189z" />
	<glyph glyph-name="h" unicode="h" horiz-adv-x="636" 
d="M68 0v740h104v-187v-85c32 64 106 93 177 92c85 0 139 -28 174 -76c34 -47 47 -112 47 -187v-297h-105v292c0 49 -9 92 -31 122c-24 30 -60 48 -114 48c-55 0 -93 -21 -115 -50c-23 -29 -33 -68 -33 -105v-307h-104z" />
	<glyph glyph-name="i" unicode="i" horiz-adv-x="240" 
d="M68 630v110h104v-110h-104zM68 0v544h104v-544h-104z" />
	<glyph glyph-name="j" unicode="j" horiz-adv-x="275" 
d="M91 629v111h104v-111h-104zM195 544v-535c0 -107 -14 -206 -169 -216c-9 -1 -19 -1 -29 -1v83c6 0 12 0 17 1c72 8 77 63 77 130v538h104z" />
	<glyph glyph-name="k" unicode="k" horiz-adv-x="535" 
d="M71 0v740h105v-411l213 215h126l-242 -239l249 -305h-121l-225 280v-280h-105z" />
	<glyph glyph-name="l" unicode="l" horiz-adv-x="240" 
d="M68 0v740h104v-740h-104z" />
	<glyph glyph-name="m" unicode="m" horiz-adv-x="960" 
d="M68 0v544h98v-77c23 46 86 93 165 93c50 0 102 -15 140 -58c14 -14 29 -43 35 -53c9 16 20 35 39 54c35 35 85 57 144 57c50 0 106 -14 146 -55c48 -49 60 -101 60 -205v-300h-104v296c0 45 -6 90 -30 121c-19 28 -48 45 -97 45c-46 0 -85 -19 -105 -52
c-22 -34 -25 -64 -25 -110v-300h-105v300c1 45 -4 78 -22 108c-20 32 -52 53 -103 54c-49 1 -85 -23 -103 -53c-20 -29 -29 -67 -29 -111v-298h-104z" />
	<glyph glyph-name="n" unicode="n" horiz-adv-x="636" 
d="M68 0v544h98v-84c26 56 87 101 184 100c174 -2 220 -128 220 -241v-319h-105v295c0 98 -38 168 -144 167c-102 -1 -149 -65 -149 -159v-303h-104z" />
	<glyph glyph-name="o" unicode="o" horiz-adv-x="655" 
d="M37 272v1c0 145 107 287 290 287s290 -142 290 -288s-107 -287 -290 -287s-290 141 -290 287zM141 272v-1c0 -108 82 -189 186 -189s186 81 186 190s-82 190 -186 190s-186 -81 -186 -190z" />
	<glyph glyph-name="p" unicode="p" horiz-adv-x="688" 
d="M68 -198v742h99v-95c41 65 111 111 208 111c187 0 275 -156 275 -291c0 -154 -111 -285 -274 -285c-113 0 -180 62 -204 106v-90v-198h-104zM545 272v1c0 89 -63 190 -190 190c-54 0 -101 -21 -135 -56c-33 -34 -53 -82 -53 -136s20 -101 54 -135s82 -55 135 -55
c110 0 189 85 189 191z" />
	<glyph glyph-name="q" unicode="q" horiz-adv-x="687" 
d="M619 544v-742h-104v198v92c-24 -45 -89 -108 -205 -108c-163 0 -273 129 -273 282c0 170 117 294 279 294c110 0 174 -58 203 -109v93h100zM141 270v-1c0 -98 76 -188 190 -188c53 0 100 21 134 55s55 82 55 135c2 53 -19 101 -53 136c-35 35 -83 56 -136 56
c-125 0 -189 -99 -190 -193z" />
	<glyph glyph-name="r" unicode="r" horiz-adv-x="336" 
d="M68 0v544h98v-80c31 64 88 95 162 96v-104h-7c-98 0 -149 -54 -149 -162v-294h-104z" />
	<glyph glyph-name="s" unicode="s" horiz-adv-x="466" 
d="M411 402h-103c0 42 -26 74 -79 73c-51 0 -79 -34 -78 -70c2 -43 41 -63 99 -79c83 -23 174 -47 177 -164c2 -106 -86 -178 -194 -178c-86 0 -193 49 -198 173h103c4 -66 57 -88 96 -88c50 0 89 35 89 81c-1 54 -42 72 -139 104c-76 23 -136 59 -137 141
c0 103 84 165 183 165c75 0 173 -37 181 -158z" />
	<glyph glyph-name="t" unicode="t" horiz-adv-x="326" 
d="M107 0v463h-98v81h98v196h104v-196h105v-81h-105v-463h-104z" />
	<glyph glyph-name="u" unicode="u" horiz-adv-x="637" 
d="M569 544v-544h-98v84c-26 -56 -87 -101 -184 -100c-175 1 -220 128 -220 241v319h104v-295c0 -98 38 -168 145 -168c102 1 149 66 149 159v304h104z" />
	<glyph glyph-name="v" unicode="v" horiz-adv-x="542" 
d="M531 544l-208 -544h-104l-208 544h109l151 -414l151 414h109z" />
	<glyph glyph-name="w" unicode="w" horiz-adv-x="809" 
d="M190 0l-182 544h109l128 -411l116 379h87l118 -379l126 411h108l-181 -544h-99l-117 381l-114 -381h-99z" />
	<glyph glyph-name="x" unicode="x" horiz-adv-x="530" 
d="M5 0l196 283l-183 261h126l121 -187l120 187h124l-182 -261l197 -283h-127l-132 202l-133 -202h-127z" />
	<glyph glyph-name="y" unicode="y" horiz-adv-x="532" 
d="M123 -198l90 214l-208 528h112l150 -398l152 398h112l-297 -742h-111z" />
	<glyph glyph-name="z" unicode="z" horiz-adv-x="427" 
d="M14 0v74l276 389h-268v81h383v-82l-267 -381h275v-81h-399z" />
	<glyph glyph-name="braceleft" unicode="{" horiz-adv-x="496" 
d="M421 746v-81h-55c-53 0 -60 -31 -60 -88v-198c0 -82 -70 -130 -96 -145c42 -11 96 -55 96 -133v-199c0 -60 7 -88 60 -88h55v-82h-101c-71 0 -121 42 -121 133v199c0 72 -47 102 -90 117v108c35 5 90 43 90 123v203c0 91 50 131 121 131h101z" />
	<glyph glyph-name="bar" unicode="|" horiz-adv-x="555" 
d="M221 750h114v-1000h-114v1000z" />
	<glyph glyph-name="braceright" unicode="}" horiz-adv-x="496" 
d="M75 665v81h101c71 0 121 -40 121 -131v-203c0 -80 55 -118 90 -123v-108c-43 -15 -90 -45 -90 -117v-199c0 -91 -50 -133 -121 -133h-101v82h55c53 0 60 28 60 88v199c0 78 73 124 96 135c-46 16 -96 61 -96 143v198c0 57 -6 88 -60 88h-55z" />
	<glyph glyph-name="asciitilde" unicode="~" horiz-adv-x="600" 
d="M500 338l29 -96c-29 -43 -64 -80 -115 -80c-37 0 -72 16 -107 34s-74 36 -114 36c-40 1 -69 -23 -94 -66l-28 94c25 47 66 84 125 82c36 0 76 -17 114 -34s75 -36 104 -36c39 0 64 34 86 66z" />
	<glyph glyph-name="exclamdown" unicode="&#xa1;" horiz-adv-x="300" 
d="M96 414v130h108v-130h-108zM96 -196v531h108v-531h-108z" />
	<glyph glyph-name="cent" unicode="&#xa2;" 
d="M346 35h-89v106c-144 31 -192 149 -192 230c0 89 53 205 192 234v100h86v-99c92 -21 158 -85 182 -164h-110c-28 51 -77 64 -112 64c-78 0 -134 -60 -134 -132c0 -70 50 -135 134 -135c64 0 96 37 110 59h113c-32 -86 -106 -143 -180 -157v-106z" />
	<glyph glyph-name="sterling" unicode="&#xa3;" 
d="M409 406v-85h-152c27 -24 65 -65 65 -125c0 -26 -11 -62 -42 -102h64c48 0 73 7 96 25c27 25 41 55 41 89c0 17 -3 27 -7 43h103c4 -15 8 -28 8 -58c0 -49 -23 -98 -52 -130c-40 -40 -84 -63 -176 -63h-317v94h94c31 7 72 30 72 94c0 56 -35 97 -75 133h-121v85h65
c-18 26 -33 63 -33 107c0 123 98 241 253 241c124 0 232 -80 249 -218h-110c-14 56 -56 114 -137 114c-82 0 -136 -62 -138 -140c1 -41 16 -74 42 -104h208z" />
	<glyph glyph-name="fraction" unicode="&#x2044;" horiz-adv-x="155" 
d="M-127 0l319 740h89l-319 -740h-89z" />
	<glyph glyph-name="yen" unicode="&#xa5;" 
d="M558 472v-88h-186l-20 -39v-53h206v-88h-206v-204h-116v204h-204v88h204v52l-21 40h-182v88h137l-155 268h125l155 -288l158 288h123l-156 -268h138z" />
	<glyph glyph-name="florin" unicode="&#x192;" 
d="M387 516h103v-81h-117l-72 -397c-11 -63 -22 -118 -58 -166c-41 -54 -105 -80 -176 -80c-13 0 -38 1 -57 7l17 95c12 -3 19 -6 34 -6c101 0 118 67 130 135l74 412h-104v81h118c11 74 29 138 77 184c35 34 83 54 141 54c10 0 24 -1 36 -3l-15 -85c-10 0 -17 0 -27 -1
c-29 -4 -50 -15 -65 -34c-26 -28 -33 -78 -39 -115z" />
	<glyph glyph-name="section" unicode="&#xa7;" horiz-adv-x="627" 
d="M536 565h-103c-12 79 -67 93 -117 93c-54 0 -106 -28 -106 -90c1 -53 45 -74 78 -89l167 -77c39 -18 123 -58 123 -161c0 -72 -42 -121 -90 -157c38 -35 59 -79 59 -134c0 -104 -80 -199 -227 -199c-102 0 -246 53 -250 230h103c5 -100 71 -134 145 -134
c84 0 125 47 127 102c-2 46 -37 74 -96 101l-181 84c-39 18 -119 53 -119 168c0 35 13 103 98 157c-19 25 -38 59 -38 110c0 125 105 185 212 185c133 0 212 -84 215 -189zM484 225v1c-1 51 -42 74 -85 93l-191 89c-45 -22 -63 -59 -63 -92c0 -46 31 -73 64 -89l212 -97
c29 14 62 50 63 95z" />
	<glyph glyph-name="currency" unicode="&#xa4;" 
d="M517 68l-79 80c-42 -30 -91 -47 -143 -47c-53 0 -102 18 -143 47l-80 -79l-54 53l82 82c-30 40 -47 86 -47 137c0 53 18 102 48 141l-84 82l55 55l83 -83c41 30 89 46 140 46s99 -16 138 -45l83 81l54 -54l-81 -81c29 -40 47 -88 47 -142c0 -51 -17 -98 -46 -137l81 -81z
M152 342v-1c0 -77 66 -142 143 -142s142 64 142 143s-64 143 -142 143c-77 0 -143 -64 -143 -143z" />
	<glyph glyph-name="quotesingle" unicode="'" horiz-adv-x="233" 
d="M157 444h-81v296h81v-296z" />
	<glyph glyph-name="quotedblleft" unicode="&#x201c;" horiz-adv-x="472" 
d="M202 740l75 -207h-81l-87 207h93zM344 740l75 -207h-81l-87 207h93z" />
	<glyph glyph-name="guillemotleft" unicode="&#xab;" horiz-adv-x="390" 
d="M34 280l105 188h80l-105 -188l105 -186h-80zM184 280l105 188h80l-105 -188l105 -186h-80z" />
	<glyph glyph-name="guilsinglleft" unicode="&#x2039;" horiz-adv-x="234" 
d="M27 280l105 187h80l-105 -187l105 -186h-80z" />
	<glyph glyph-name="guilsinglright" unicode="&#x203a;" horiz-adv-x="234" 
d="M102 467l105 -187l-105 -186h-80l105 186l-105 187h80z" />
	<glyph glyph-name="fi" unicode="&#xfb01;" horiz-adv-x="508" 
d="M336 463h-153v-463h-104v463h-74v81h74v37c0 164 127 172 204 173v-82c-35 -1 -100 -1 -100 -96v-32h257v-544h-104v463zM440 630h-104v110h104v-110z" />
	<glyph glyph-name="fl" unicode="&#xfb02;" horiz-adv-x="508" 
d="M336 463h-153v-463h-104v463h-74v81h74v37c0 164 127 172 204 173v-82c-35 -1 -100 -1 -100 -96v-32h153v195h104v-739h-104v463z" />
	<glyph glyph-name="endash" unicode="&#x2013;" horiz-adv-x="500" 
d="M35 335h430v-103h-430v103z" />
	<glyph glyph-name="dagger" unicode="&#x2020;" horiz-adv-x="627" 
d="M366 740v-194h170v-90h-170v-635h-105v635h-170v90h170v194h105z" />
	<glyph glyph-name="daggerdbl" unicode="&#x2021;" horiz-adv-x="627" 
d="M366 740v-164h170v-91h-170v-363h170v-91h-170v-210h-104v210h-171v91h171v363h-171v91h171v164h104z" />
	<glyph glyph-name="periodcentered" unicode="&#xb7;" horiz-adv-x="297" 
d="M204 319v-130h-109v130h109z" />
	<glyph glyph-name="paragraph" unicode="&#xb6;" horiz-adv-x="638" 
d="M220 -113v463c-123 0 -218 61 -218 192c0 167 147 198 245 198h308v-78h-55v-775h-84v774h-112v-774h-84z" />
	<glyph glyph-name="bullet" unicode="&#x2022;" horiz-adv-x="576" 
d="M289 499h1c67 0 121 -56 121 -124s-55 -123 -123 -123c-69 0 -123 56 -123 123s52 124 124 124z" />
	<glyph glyph-name="quotesinglbase" unicode="&#x201a;" horiz-adv-x="297" 
d="M41 -89l75 207h94l-88 -207h-81z" />
	<glyph glyph-name="quotedblbase" unicode="&#x201e;" horiz-adv-x="472" 
d="M53 -89l75 207h93l-87 -207h-81zM195 -89l75 207h93l-87 -207h-81z" />
	<glyph glyph-name="quotedblright" unicode="&#x201d;" horiz-adv-x="472" 
d="M53 533l75 207h93l-87 -207h-81zM195 533l75 207h93l-87 -207h-81z" />
	<glyph glyph-name="guillemotright" unicode="&#xbb;" horiz-adv-x="390" 
d="M251 467l105 -187l-105 -186h-80l106 186l-106 187h80zM101 467l105 -187l-105 -186h-80l105 186l-105 187h80z" />
	<glyph glyph-name="ellipsis" unicode="&#x2026;" horiz-adv-x="1000" 
d="M113 0v131h109v-131h-109zM446 0v131h109v-131h-109zM779 0v131h109v-131h-109z" />
	<glyph glyph-name="perthousand" unicode="&#x2030;" horiz-adv-x="1182" 
d="M29 581v1c0 96 75 172 172 172c98 0 173 -76 173 -173s-76 -172 -173 -172c-96 0 -172 75 -172 172zM103 581v-1c0 -55 41 -99 98 -99c56 0 99 43 99 101c0 57 -42 100 -99 100s-98 -43 -98 -101zM420 159v1c0 96 75 172 173 172c96 0 172 -76 172 -173
c0 -98 -77 -173 -172 -173c-97 0 -173 74 -173 173zM494 159v-1c0 -56 41 -100 99 -100c56 0 98 43 98 101s-42 100 -98 100c-58 0 -99 -43 -99 -100zM809 159v1c0 96 75 172 172 172s173 -76 173 -173c0 -98 -77 -173 -173 -173s-172 74 -172 173zM882 159v-1
c0 -56 42 -100 99 -100s99 43 99 101s-42 100 -99 100s-99 -43 -99 -100zM621 740l-374 -740h-78l374 740h78z" />
	<glyph glyph-name="questiondown" unicode="&#xbf;" horiz-adv-x="567" 
d="M246 414v130h109v-130h-109zM245 339h110c-2 -68 -23 -120 -98 -192c-51 -51 -83 -84 -84 -135c0 -63 43 -114 113 -114c62 0 110 40 120 108c1 8 2 17 2 25h114v-22c-9 -142 -124 -219 -241 -219c-136 0 -227 101 -227 211c0 87 60 143 115 194c70 67 75 107 76 144z
" />
	<glyph glyph-name="grave" unicode="`" horiz-adv-x="555" 
d="M160 800l240 -133l-31 -64l-243 122z" />
	<glyph glyph-name="acute" unicode="&#xb4;" horiz-adv-x="555" 
d="M155 671l239 134l35 -76l-242 -122z" />
	<glyph glyph-name="circumflex" unicode="&#x2c6;" horiz-adv-x="555" 
d="M315 770l170 -144h-109l-98 74l-99 -74h-109l173 144h72z" />
	<glyph glyph-name="tilde" unicode="&#x2dc;" horiz-adv-x="555" 
d="M432 742l39 -70c-30 -25 -66 -38 -105 -38c-25 0 -58 8 -88 16c-29 8 -56 15 -79 15c-32 0 -55 -11 -76 -28l-39 71c25 21 65 38 103 38c31 0 61 -8 88 -16s51 -15 80 -15c33 0 58 10 77 27z" />
	<glyph glyph-name="macron" unicode="&#xaf;" horiz-adv-x="555" 
d="M456 735v-83h-358v83h358z" />
	<glyph glyph-name="breve" unicode="&#x2d8;" horiz-adv-x="555" 
d="M78 749h85c11 -13 23 -24 42 -32c18 -7 42 -11 75 -11c54 0 96 18 112 43h85c-13 -73 -92 -121 -200 -121c-92 0 -178 39 -199 121z" />
	<glyph glyph-name="dotaccent" unicode="&#x2d9;" horiz-adv-x="555" 
d="M328 763v-135h-101v135h101z" />
	<glyph glyph-name="dieresis" unicode="&#xa8;" horiz-adv-x="555" 
d="M226 763v-135h-101v135h101zM429 763v-135h-101v135h101z" />
	<glyph glyph-name="ring" unicode="&#x2da;" horiz-adv-x="555" 
d="M277 812h1c60 0 110 -50 110 -111c0 -60 -50 -110 -111 -110s-110 50 -110 110c0 61 49 111 110 111zM277 755h-1c-29 0 -52 -24 -52 -53s24 -52 53 -52s53 23 53 52s-23 53 -53 53z" />
	<glyph glyph-name="cedilla" unicode="&#xb8;" horiz-adv-x="555" 
d="M302 0l-27 -55c4 2 10 3 17 3c42 0 79 -31 79 -82c0 -44 -30 -91 -94 -91c-15 0 -82 4 -93 79h54c6 -22 23 -31 39 -31c22 0 40 16 40 43c0 24 -18 39 -39 39c-15 0 -25 -7 -33 -19l-46 21l44 93h59z" />
	<glyph glyph-name="hungarumlaut" unicode="&#x2dd;" horiz-adv-x="555" 
d="M95 660l166 146l59 -62l-173 -138zM290 660l166 146l60 -62l-174 -138z" />
	<glyph glyph-name="ogonek" unicode="&#x2db;" horiz-adv-x="555" 
d="M270 0h59c-35 -25 -70 -46 -70 -85c0 -33 28 -58 60 -58c17 0 32 5 51 12v-60c-19 -7 -39 -15 -73 -15c-72 0 -112 43 -112 97c0 49 36 78 85 109z" />
	<glyph glyph-name="caron" unicode="&#x2c7;" horiz-adv-x="555" 
d="M70 764h109l98 -74l99 74h109l-172 -144h-73z" />
	<glyph glyph-name="emdash" unicode="&#x2014;" horiz-adv-x="1000" 
d="M35 335h930v-103h-930v103z" />
	<glyph glyph-name="AE" unicode="&#xc6;" horiz-adv-x="961" 
d="M-9 0l513 740h396v-104h-267v-210h263v-103h-263v-219h267v-104h-382v187h-259l-127 -187h-141zM311 279h207v305z" />
	<glyph glyph-name="ordfeminine" unicode="&#xaa;" horiz-adv-x="409" 
d="M362 744v-307h-67v54c-23 -46 -66 -63 -110 -63c-93 0 -158 75 -158 163c0 97 73 163 159 163c49 0 87 -23 109 -64v54h67zM94 589v-1c0 -40 33 -96 101 -96c44 0 75 24 90 54c7 14 10 30 10 45c0 16 -2 28 -8 42c-15 33 -49 57 -93 57c-56 0 -100 -43 -100 -101z" />
	<glyph glyph-name="Lslash" unicode="&#x141;" horiz-adv-x="458" 
d="M4 213v119l72 53v355h118v-270l130 94v-119l-130 -96v-245h261v-104h-379v266z" />
	<glyph glyph-name="Oslash" unicode="&#xd8;" horiz-adv-x="851" 
d="M616 705l50 68h117l-91 -123c57 -52 121 -147 121 -280c0 -213 -167 -384 -389 -384c-83 0 -144 23 -186 47l-50 -66h-117l90 121c-62 53 -123 148 -123 282c0 219 170 384 388 384c62 0 129 -15 190 -49zM231 181l319 436c-31 20 -73 33 -124 33
c-163 0 -271 -133 -271 -278c0 -77 31 -147 76 -191zM622 558l-319 -436c31 -19 73 -32 123 -32c164 0 269 137 269 279c0 71 -26 137 -73 189z" />
	<glyph glyph-name="OE" unicode="&#x152;" horiz-adv-x="1127" 
d="M804 636v-210h263v-103h-263v-219h268v-104h-382v65v65c-61 -93 -165 -144 -270 -144c-217 0 -382 168 -382 383c0 208 154 385 383 385c138 0 231 -67 269 -144v66v64h382v-104h-268zM155 369v-1c0 -140 101 -278 266 -278c163 0 268 133 268 282
c-2 154 -109 278 -267 278c-162 0 -267 -130 -267 -281z" />
	<glyph glyph-name="ordmasculine" unicode="&#xba;" horiz-adv-x="409" 
d="M40 589v1c0 84 61 163 164 164c105 0 165 -82 165 -163c0 -87 -68 -163 -165 -163c-100 0 -164 80 -164 161zM107 590v-1c0 -53 44 -97 97 -97c51 0 97 41 97 99c0 55 -42 99 -96 99c-52 0 -98 -40 -98 -100z" />
	<glyph glyph-name="ae" unicode="&#xe6;" horiz-adv-x="1119" 
d="M1081 242h-462c14 -136 122 -169 181 -169c81 0 130 50 159 92h107c-43 -97 -130 -181 -258 -181c-89 0 -159 45 -195 119v-103h-96v103c-30 -70 -109 -119 -199 -119c-192 0 -281 165 -281 287c0 163 119 289 282 289c91 0 165 -45 198 -115v99h96v-98
c40 74 109 114 192 114c77 0 146 -31 196 -83c51 -52 88 -134 80 -235zM141 274v-1c0 -112 83 -192 191 -192c103 0 185 88 185 190c0 53 -19 100 -52 135c-34 35 -81 57 -136 57c-121 0 -188 -101 -188 -189zM621 314h358c-22 108 -93 157 -178 157c-49 0 -95 -15 -133 -56
c-32 -35 -41 -70 -47 -101z" />
	<glyph glyph-name="dotlessi" unicode="&#x131;" horiz-adv-x="240" 
d="M68 0v544h104v-544h-104z" />
	<glyph glyph-name="lslash" unicode="&#x142;" horiz-adv-x="287" 
d="M90 296l-69 -48v109l69 47v336h104v-270l80 55v-107l-80 -56v-362h-104v296z" />
	<glyph glyph-name="oslash" unicode="&#xf8;" horiz-adv-x="655" 
d="M499 578h106l-73 -100c54 -54 85 -126 85 -206c0 -148 -109 -288 -289 -288c-60 0 -106 16 -136 33l-37 -51h-106l73 99c-51 48 -85 123 -85 206c0 148 107 289 291 289c61 0 109 -17 135 -33zM189 150l215 293c-21 12 -46 19 -76 19c-106 0 -187 -82 -187 -190
c0 -53 20 -96 48 -122zM466 392l-214 -291c21 -12 46 -20 75 -20c111 0 186 87 186 191c0 53 -20 94 -47 120z" />
	<glyph glyph-name="oe" unicode="&#x153;" horiz-adv-x="1112" 
d="M1074 243h-462c7 -109 88 -170 179 -170c72 0 130 35 158 92h108c-15 -34 -39 -82 -92 -123c-48 -36 -104 -58 -171 -58c-131 0 -204 75 -233 140c-38 -81 -120 -140 -237 -140c-190 0 -287 157 -287 287c0 156 116 289 292 289c106 0 194 -60 232 -139
c27 55 104 137 231 137c80 0 151 -32 202 -85c59 -60 91 -146 80 -230zM141 272v-1c0 -106 81 -190 187 -190c113 0 184 99 184 190c0 94 -73 192 -184 192c-99 0 -187 -76 -187 -191zM616 315h354c-9 71 -71 154 -177 154c-90 0 -165 -62 -177 -154z" />
	<glyph glyph-name="germandbls" unicode="&#xdf;" horiz-adv-x="633" 
d="M66 0v448c0 116 10 168 53 219c47 59 121 89 189 89c132 0 217 -92 217 -203c0 -79 -43 -127 -89 -152c96 -18 160 -100 160 -192c0 -120 -98 -225 -239 -225c-93 1 -162 46 -187 130v-114h-104zM170 474v-273h63c7 -78 61 -119 126 -120c79 0 133 57 133 125
c0 22 -4 63 -40 95c-23 20 -55 35 -132 36h-48v80h31c65 0 118 50 118 120c0 77 -51 122 -123 122c-50 0 -86 -25 -105 -59c-21 -38 -23 -78 -23 -126z" />
	<glyph glyph-name="onesuperior" unicode="&#xb9;" horiz-adv-x="382" 
d="M237 740v-444h-80v374h-86v70h166z" />
	<glyph glyph-name="logicalnot" unicode="&#xac;" horiz-adv-x="600" 
d="M48 407h504v-285h-101v185h-403v100z" />
	<glyph glyph-name="mu" unicode="&#xb5;" horiz-adv-x="601" 
d="M64 -186v730h104v-286c0 -43 3 -91 28 -127c27 -37 66 -50 103 -50c46 0 80 20 102 54c24 35 35 85 35 145v264h104v-544h-100v91c-13 -31 -47 -102 -140 -102c-80 0 -116 43 -132 70v-68v-177h-104z" />
	<glyph glyph-name="trademark" unicode="&#x2122;" horiz-adv-x="990" 
d="M369 296v444h104l143 -333l141 333h104v-444h-77v348l-142 -348h-54l-142 346v-346h-77zM121 296v375h-105v69h293v-69h-106v-375h-82z" />
	<glyph glyph-name="Eth" unicode="&#xd0;" horiz-adv-x="724" 
d="M71 428v312h232c98 0 217 -15 301 -120c56 -67 81 -152 81 -249c0 -216 -126 -371 -366 -371h-248v324h-71v104h71zM189 636v-208h172v-104h-172v-220h125c174 0 254 111 254 265c0 71 -19 139 -60 189c-39 45 -98 78 -193 78h-126z" />
	<glyph glyph-name="onehalf" unicode="&#xbd;" horiz-adv-x="844" 
d="M212 740v-444h-80v374h-86v70h166zM575 740l-319 -740h-88l318 740h89zM798 70v-70h-310v64c53 49 106 98 158 148c42 39 60 66 60 99c0 38 -18 71 -66 71c-49 0 -71 -43 -71 -92h-80c0 34 5 68 26 98c34 51 85 65 129 65c96 0 152 -49 152 -134c0 -52 -21 -87 -64 -129
c-42 -40 -83 -80 -124 -120h190z" />
	<glyph glyph-name="plusminus" unicode="&#xb1;" horiz-adv-x="600" 
d="M250 370v164h100v-164h202v-101h-202v-160h-100v160h-202v101h202zM48 -45v101h504v-101h-504z" />
	<glyph glyph-name="Thorn" unicode="&#xde;" horiz-adv-x="580" 
d="M67 0v740h118v-123h93c118 0 164 -15 208 -49c52 -41 82 -112 82 -183s-31 -145 -77 -181c-50 -40 -95 -55 -202 -55h-104v-149h-118zM185 513v-261h102c49 0 83 5 115 25c30 18 53 57 53 106c0 50 -24 88 -54 106c-33 20 -67 24 -118 24h-98z" />
	<glyph glyph-name="onequarter" unicode="&#xbc;" horiz-adv-x="810" 
d="M575 740l-319 -740h-88l318 740h89zM637 341l-130 -197h130v197zM212 740v-444h-80v374h-86v70h166zM717 444v-300h47v-63h-47v-81h-81v81h-217v56l218 307h80z" />
	<glyph glyph-name="divide" unicode="&#xf7;" horiz-adv-x="600" 
d="M350 535v-125h-100v125h100zM49 201v101h502v-101h-502zM350 93v-124h-100v124h100z" />
	<glyph glyph-name="brokenbar" unicode="&#xa6;" horiz-adv-x="555" 
d="M221 675h114v-350h-114v350zM221 175h114v-350h-114v350z" />
	<glyph glyph-name="degree" unicode="&#xb0;" horiz-adv-x="400" 
d="M343 568v-1c0 -79 -63 -142 -143 -142s-143 63 -143 143s63 143 143 143s143 -63 143 -143zM116 568v-1c0 -46 37 -85 84 -85s84 39 84 86c0 46 -37 85 -84 85s-84 -39 -84 -85z" />
	<glyph glyph-name="thorn" unicode="&#xfe;" horiz-adv-x="689" 
d="M68 -198v938h104v-220v-67c43 74 126 107 204 107c181 0 276 -149 276 -291c0 -160 -116 -285 -275 -285c-108 0 -175 56 -205 106v-69v-219h-104zM548 272v1c0 100 -74 189 -190 189c-54 0 -102 -21 -136 -56s-55 -83 -55 -136c0 -47 20 -94 53 -130
c33 -35 81 -59 138 -59c113 0 190 87 190 191z" />
	<glyph glyph-name="threequarters" unicode="&#xbe;" horiz-adv-x="913" 
d="M745 344l-133 -200h133v200zM686 740l-319 -740h-88l318 740h89zM825 444v-300h47v-63h-47v-81h-81v81h-217v56l218 307h80zM41 432h83c3 -48 36 -74 78 -74c48 0 76 31 76 74c0 30 -22 71 -81 71h-42v61h25c47 0 74 30 74 59c0 27 -17 54 -52 55c-41 0 -56 -28 -57 -56
h-82c2 101 92 127 141 127c76 0 131 -52 131 -115c0 -36 -20 -72 -57 -92c51 -19 84 -63 84 -114c0 -80 -71 -141 -161 -141c-52 0 -106 21 -135 62c-19 27 -24 57 -25 83z" />
	<glyph glyph-name="twosuperior" unicode="&#xb2;" horiz-adv-x="382" 
d="M345 366v-70h-310v64c53 49 106 98 158 148c42 39 60 66 60 99c0 38 -18 71 -66 71c-49 0 -71 -43 -71 -92h-80c0 36 6 71 29 102c34 48 83 61 126 61c96 0 152 -49 152 -134c0 -52 -21 -87 -64 -129c-42 -40 -83 -80 -124 -120h190z" />
	<glyph glyph-name="registered" unicode="&#xae;" horiz-adv-x="800" 
d="M402 753h1c213 0 379 -174 379 -383c0 -214 -171 -383 -381 -383c-213 0 -383 168 -383 383c0 207 164 383 384 383zM401 699h-1c-185 0 -324 -150 -324 -329c0 -183 144 -329 325 -329c178 0 323 144 323 329c0 178 -138 329 -323 329zM236 588h182
c57 0 155 -19 155 -120c0 -40 -17 -81 -77 -105c45 -15 65 -43 69 -100c5 -81 5 -89 13 -109h-69c-8 13 -10 57 -13 101c-4 41 -10 80 -102 80h-87v-181h-71v434zM407 536h-100v-151h91c27 1 104 0 104 79c0 71 -68 72 -95 72z" />
	<glyph glyph-name="minus" unicode="&#x2212;" horiz-adv-x="600" 
d="M49 201v101h502v-101h-502z" />
	<glyph glyph-name="eth" unicode="&#xf0;" horiz-adv-x="655" 
d="M326 617l-230 -65v72l150 42c-39 20 -81 35 -127 51l109 32c41 -14 82 -32 128 -57l206 57v-72l-130 -36c54 -34 105 -86 139 -148c31 -58 47 -131 47 -200c0 -185 -129 -307 -291 -308c-155 0 -289 107 -290 286c1 179 127 283 267 284c56 0 115 -23 153 -64
c-9 19 -19 33 -34 49c-28 31 -65 60 -97 77zM141 273v-1c0 -102 71 -190 187 -190c118 0 186 95 186 191c0 97 -75 190 -183 190c-120 0 -190 -90 -190 -190z" />
	<glyph glyph-name="multiply" unicode="&#xd7;" horiz-adv-x="600" 
d="M125 0l-72 72l175 175l-175 173l72 72l174 -174l176 174l72 -72l-175 -173l174 -175l-72 -72l-174 175z" />
	<glyph glyph-name="threesuperior" unicode="&#xb3;" horiz-adv-x="382" 
d="M27 432h84c3 -48 35 -74 77 -74c48 0 76 31 76 74c0 30 -22 71 -80 71h-43v61h26c46 0 74 30 74 59c0 27 -17 54 -53 55c-40 0 -55 -28 -57 -56h-82c3 101 92 127 141 127c77 0 132 -52 132 -115c0 -36 -21 -72 -57 -92c50 -19 84 -63 84 -114c0 -80 -72 -141 -162 -141
c-51 0 -105 21 -133 60c-20 27 -26 58 -27 85z" />
	<glyph glyph-name="copyright" unicode="&#xa9;" horiz-adv-x="800" 
d="M402 753h1c213 0 379 -174 379 -383c0 -214 -171 -383 -381 -383c-213 0 -383 168 -383 383c0 208 164 383 384 383zM401 699h-1c-186 0 -324 -150 -324 -329c0 -184 144 -329 325 -329c178 0 323 144 323 329c0 179 -138 329 -323 329zM597 443h-70
c-17 74 -75 93 -121 93c-93 0 -143 -75 -143 -165c0 -105 64 -163 143 -163c20 0 109 5 126 121h71c-9 -115 -93 -183 -200 -183c-119 0 -212 83 -212 225c0 126 80 227 215 227c110 0 184 -74 191 -155z" />
	<glyph glyph-name="Aacute" unicode="&#xc1;" horiz-adv-x="726" 
d="M204 175l-68 -175h-128l304 740h107l299 -740h-128l-70 175h-316zM488 270l-127 333l-125 -333h252zM243 837l239 133l35 -76l-242 -122z" />
	<glyph glyph-name="Acircumflex" unicode="&#xc2;" horiz-adv-x="726" 
d="M204 175l-68 -175h-128l304 740h107l299 -740h-128l-70 175h-316zM488 270l-127 333l-125 -333h252zM401 935l169 -144h-108l-99 74l-98 -74h-109l172 144h73z" />
	<glyph glyph-name="Adieresis" unicode="&#xc4;" horiz-adv-x="726" 
d="M204 175l-68 -175h-128l304 740h107l299 -740h-128l-70 175h-316zM488 270l-127 333l-125 -333h252zM312 928v-135h-101v135h101zM515 928v-135h-101v135h101z" />
	<glyph glyph-name="Agrave" unicode="&#xc0;" horiz-adv-x="726" 
d="M204 175l-68 -175h-128l304 740h107l299 -740h-128l-70 175h-316zM488 270l-127 333l-125 -333h252zM244 965l240 -133l-32 -64l-243 122z" />
	<glyph glyph-name="Aring" unicode="&#xc5;" horiz-adv-x="726" 
d="M204 175l-68 -175h-128l304 740h107l299 -740h-128l-70 175h-316zM488 270l-127 333l-125 -333h252zM363 983h1c60 0 110 -49 110 -110c0 -60 -50 -110 -111 -110s-110 50 -110 110c0 61 49 110 110 110zM363 927h-1c-29 0 -52 -25 -52 -53c0 -29 24 -52 53 -52
s53 23 53 52s-23 53 -53 53z" />
	<glyph glyph-name="Atilde" unicode="&#xc3;" horiz-adv-x="726" 
d="M204 175l-68 -175h-128l304 740h107l299 -740h-128l-70 175h-316zM488 270l-127 333l-125 -333h252zM518 920l39 -69c-31 -26 -67 -39 -105 -39c-25 0 -58 9 -88 16c-29 9 -57 15 -79 15c-32 0 -56 -11 -76 -27l-39 71c25 21 65 37 103 37c31 0 61 -8 88 -15
c26 -9 51 -15 80 -15c33 0 58 9 77 26z" />
	<glyph glyph-name="Ccedilla" unicode="&#xc7;" horiz-adv-x="811" 
d="M433 -13l-21 -42c5 2 11 3 18 3c40 0 80 -31 80 -82c0 -44 -31 -91 -95 -91c-15 0 -82 4 -93 79h54c7 -22 23 -31 39 -31c23 0 40 16 41 43c-1 24 -19 39 -40 39c-15 0 -25 -7 -33 -19l-46 21l40 83c-197 23 -338 186 -338 381c0 203 157 383 386 383
c199 -1 317 -141 353 -243h-125c-24 48 -99 138 -229 139c-157 0 -267 -129 -267 -279c0 -154 112 -281 268 -281c143 0 212 108 228 135h124c-45 -131 -177 -234 -344 -238z" />
	<glyph glyph-name="Eacute" unicode="&#xc9;" horiz-adv-x="537" 
d="M71 0v740h414v-104h-296v-210h292v-103h-292v-219h296v-104h-414zM146 850l239 133l35 -75l-242 -122z" />
	<glyph glyph-name="Ecircumflex" unicode="&#xca;" horiz-adv-x="537" 
d="M71 0v740h414v-104h-296v-210h292v-103h-292v-219h296v-104h-414zM306 948l170 -144h-109l-98 74l-99 -74h-109l173 144h72z" />
	<glyph glyph-name="Edieresis" unicode="&#xcb;" horiz-adv-x="537" 
d="M71 0v740h414v-104h-296v-210h292v-103h-292v-219h296v-104h-414zM217 942v-136h-101v136h101zM420 942v-136h-101v136h101z" />
	<glyph glyph-name="Egrave" unicode="&#xc8;" horiz-adv-x="537" 
d="M71 0v740h414v-104h-296v-210h292v-103h-292v-219h296v-104h-414zM151 978l240 -132l-31 -64l-243 121z" />
	<glyph glyph-name="Iacute" unicode="&#xcd;" horiz-adv-x="261" 
d="M71 0v740h118v-740h-118zM31 848l239 133l35 -76l-242 -122z" />
	<glyph glyph-name="Icircumflex" unicode="&#xce;" horiz-adv-x="261" 
d="M71 0v740h118v-740h-118zM168 944l170 -144h-109l-98 74l-99 -74h-109l173 144h72z" />
	<glyph glyph-name="Idieresis" unicode="&#xcf;" horiz-adv-x="261" 
d="M71 0v740h118v-740h-118zM79 939v-135h-101v135h101zM282 939v-135h-101v135h101z" />
	<glyph glyph-name="Igrave" unicode="&#xcc;" horiz-adv-x="261" 
d="M71 0v740h118v-740h-118zM-9 976l239 -133l-31 -64l-243 122z" />
	<glyph glyph-name="Ntilde" unicode="&#xd1;" horiz-adv-x="750" 
d="M182 740l384 -563l-2 563h114v-740h-108l-387 564l2 -564h-114v740h111zM529 918l40 -70c-31 -25 -67 -38 -105 -38c-25 0 -59 8 -88 16c-29 9 -57 15 -79 15c-32 0 -56 -11 -76 -28l-40 72c25 20 65 37 104 37c30 0 61 -8 87 -16c27 -8 51 -14 81 -14c33 0 58 9 76 26z
" />
	<glyph glyph-name="Oacute" unicode="&#xd3;" horiz-adv-x="851" 
d="M38 365v1c0 233 179 388 387 388c221 0 388 -171 388 -384s-167 -384 -389 -384c-223 0 -386 175 -386 379zM155 371v-1c0 -154 114 -280 272 -280c161 0 268 135 268 279c0 145 -107 281 -269 281c-161 0 -271 -130 -271 -279zM303 850l239 133l35 -75l-242 -122z" />
	<glyph glyph-name="Ocircumflex" unicode="&#xd4;" horiz-adv-x="851" 
d="M38 365v1c0 233 179 388 387 388c221 0 388 -171 388 -384s-167 -384 -389 -384c-223 0 -386 175 -386 379zM155 371v-1c0 -154 114 -280 272 -280c161 0 268 135 268 279c0 145 -107 281 -269 281c-161 0 -271 -130 -271 -279zM463 946l170 -144h-109l-98 74l-99 -74
h-109l173 144h72z" />
	<glyph glyph-name="Odieresis" unicode="&#xd6;" horiz-adv-x="851" 
d="M38 365v1c0 233 179 388 387 388c221 0 388 -171 388 -384s-167 -384 -389 -384c-223 0 -386 175 -386 379zM155 371v-1c0 -154 114 -280 272 -280c161 0 268 135 268 279c0 145 -107 281 -269 281c-161 0 -271 -130 -271 -279zM374 942v-136h-101v136h101zM577 942v-136
h-101v136h101z" />
	<glyph glyph-name="Ograve" unicode="&#xd2;" horiz-adv-x="851" 
d="M38 365v1c0 233 179 388 387 388c221 0 388 -171 388 -384s-167 -384 -389 -384c-223 0 -386 175 -386 379zM155 371v-1c0 -154 114 -280 272 -280c161 0 268 135 268 279c0 145 -107 281 -269 281c-161 0 -271 -130 -271 -279zM308 978l240 -132l-31 -64l-243 121z" />
	<glyph glyph-name="Otilde" unicode="&#xd5;" horiz-adv-x="851" 
d="M38 365v1c0 233 179 388 387 388c221 0 388 -171 388 -384s-167 -384 -389 -384c-223 0 -386 175 -386 379zM155 371v-1c0 -154 114 -280 272 -280c161 0 268 135 268 279c0 145 -107 281 -269 281c-161 0 -271 -130 -271 -279zM580 918l39 -70c-30 -25 -66 -38 -105 -38
c-25 0 -58 8 -88 16c-29 9 -56 15 -79 15c-32 0 -55 -11 -76 -28l-39 72c25 20 65 37 103 37c31 0 61 -8 88 -16s51 -14 80 -14c33 0 58 9 77 26z" />
	<glyph glyph-name="Scaron" unicode="&#x160;" horiz-adv-x="548" 
d="M34 219h117c8 -111 86 -133 125 -133c66 0 123 52 123 118c0 82 -70 101 -165 136c-58 19 -187 62 -187 201c-1 138 117 213 233 213c95 0 214 -52 223 -204h-116c-8 40 -26 104 -111 104c-60 0 -112 -41 -112 -104c0 -72 55 -90 174 -134c92 -39 178 -86 178 -206
s-81 -224 -239 -224c-147 0 -241 90 -243 233zM67 938h109l98 -74l98 74h109l-171 -144h-73z" />
	<glyph glyph-name="Uacute" unicode="&#xda;" horiz-adv-x="656" 
d="M70 740h118v-462c0 -46 0 -86 27 -129c22 -35 63 -59 114 -59s92 23 112 57c28 42 28 83 28 131v462h117v-462c1 -98 -15 -173 -80 -227c-44 -40 -103 -65 -176 -65c-53 0 -129 15 -179 64c-73 65 -82 138 -81 228v462zM225 843l239 133l35 -75l-242 -122z" />
	<glyph glyph-name="Ucircumflex" unicode="&#xdb;" horiz-adv-x="656" 
d="M70 740h118v-462c0 -46 0 -86 27 -129c22 -35 63 -59 114 -59s92 23 112 57c28 42 28 83 28 131v462h117v-462c1 -98 -15 -173 -80 -227c-44 -40 -103 -65 -176 -65c-53 0 -129 15 -179 64c-73 65 -82 138 -81 228v462zM366 941l170 -144h-109l-99 74l-98 -74h-109
l173 144h72z" />
	<glyph glyph-name="Udieresis" unicode="&#xdc;" horiz-adv-x="656" 
d="M70 740h118v-462c0 -46 0 -86 27 -129c22 -35 63 -59 114 -59s92 23 112 57c28 42 28 83 28 131v462h117v-462c1 -98 -15 -173 -80 -227c-44 -40 -103 -65 -176 -65c-53 0 -129 15 -179 64c-73 65 -82 138 -81 228v462zM277 935v-135h-101v135h101zM480 935v-135h-101
v135h101z" />
	<glyph glyph-name="Ugrave" unicode="&#xd9;" horiz-adv-x="656" 
d="M70 740h118v-462c0 -46 0 -86 27 -129c22 -35 63 -59 114 -59s92 23 112 57c28 42 28 83 28 131v462h117v-462c1 -98 -15 -173 -80 -227c-44 -40 -103 -65 -176 -65c-53 0 -129 15 -179 64c-73 65 -82 138 -81 228v462zM178 971l240 -132l-31 -64l-243 121z" />
	<glyph glyph-name="Yacute" unicode="&#xdd;" horiz-adv-x="605" 
d="M244 0v263l-232 477h128l163 -366l163 366h128l-232 -477v-263h-118zM213 843l239 133l35 -75l-242 -122z" />
	<glyph glyph-name="Ydieresis" unicode="&#x178;" horiz-adv-x="605" 
d="M244 0v263l-232 477h128l163 -366l163 366h128l-232 -477v-263h-118zM251 935v-135h-100v135h100zM454 935v-135h-100v135h100z" />
	<glyph glyph-name="Zcaron" unicode="&#x17d;" horiz-adv-x="499" 
d="M478 648l-317 -544h326v-104h-469v76l327 560h-333v104h466v-92zM40 932h109l99 -74l98 74h109l-172 -143h-73z" />
	<glyph glyph-name="aacute" unicode="&#xe1;" horiz-adv-x="691" 
d="M622 544v-544h-104v95c-38 -73 -116 -111 -202 -111c-175 0 -279 136 -279 288c0 166 121 288 279 288c108 0 177 -60 202 -112v96h104zM141 271v-1c1 -81 58 -189 190 -189c83 0 142 46 169 108c12 25 18 53 19 81s-4 56 -16 81c-26 63 -87 112 -174 112
c-114 0 -188 -90 -188 -192zM221 671l239 134l35 -76l-242 -122z" />
	<glyph glyph-name="acircumflex" unicode="&#xe2;" horiz-adv-x="691" 
d="M622 544v-544h-104v95c-38 -73 -116 -111 -202 -111c-175 0 -279 136 -279 288c0 166 121 288 279 288c108 0 177 -60 202 -112v96h104zM141 271v-1c1 -81 58 -189 190 -189c83 0 142 46 169 108c12 25 18 53 19 81s-4 56 -16 81c-26 63 -87 112 -174 112
c-114 0 -188 -90 -188 -192zM375 770l170 -144h-109l-98 74l-99 -74h-109l173 144h72z" />
	<glyph glyph-name="adieresis" unicode="&#xe4;" horiz-adv-x="691" 
d="M622 544v-544h-104v95c-38 -73 -116 -111 -202 -111c-175 0 -279 136 -279 288c0 166 121 288 279 288c108 0 177 -60 202 -112v96h104zM141 271v-1c1 -81 58 -189 190 -189c83 0 142 46 169 108c12 25 18 53 19 81s-4 56 -16 81c-26 63 -87 112 -174 112
c-114 0 -188 -90 -188 -192zM282 763v-135h-101v135h101zM485 763v-135h-101v135h101z" />
	<glyph glyph-name="agrave" unicode="&#xe0;" horiz-adv-x="691" 
d="M622 544v-544h-104v95c-38 -73 -116 -111 -202 -111c-175 0 -279 136 -279 288c0 166 121 288 279 288c108 0 177 -60 202 -112v96h104zM141 271v-1c1 -81 58 -189 190 -189c83 0 142 46 169 108c12 25 18 53 19 81s-4 56 -16 81c-26 63 -87 112 -174 112
c-114 0 -188 -90 -188 -192zM220 800l240 -133l-31 -64l-243 122z" />
	<glyph glyph-name="aring" unicode="&#xe5;" horiz-adv-x="691" 
d="M622 544v-544h-104v95c-38 -73 -116 -111 -202 -111c-175 0 -279 136 -279 288c0 166 121 288 279 288c108 0 177 -60 202 -112v96h104zM141 271v-1c1 -81 58 -189 190 -189c83 0 142 46 169 108c12 25 18 53 19 81s-4 56 -16 81c-26 63 -87 112 -174 112
c-114 0 -188 -90 -188 -192zM330 812h1c60 0 110 -50 110 -111c0 -60 -50 -110 -111 -110s-111 50 -111 110c0 61 50 111 111 111zM330 755h-1c-29 0 -52 -24 -52 -53s24 -52 53 -52s53 23 53 52s-23 53 -53 53z" />
	<glyph glyph-name="atilde" unicode="&#xe3;" horiz-adv-x="691" 
d="M622 544v-544h-104v95c-38 -73 -116 -111 -202 -111c-175 0 -279 136 -279 288c0 166 121 288 279 288c108 0 177 -60 202 -112v96h104zM141 271v-1c1 -81 58 -189 190 -189c83 0 142 46 169 108c12 25 18 53 19 81s-4 56 -16 81c-26 63 -87 112 -174 112
c-114 0 -188 -90 -188 -192zM494 742l40 -70c-31 -25 -67 -38 -105 -38c-25 0 -59 8 -88 16s-57 15 -79 15c-32 0 -56 -11 -76 -28l-39 71c25 21 64 38 103 38c31 0 61 -8 88 -16c26 -8 50 -15 80 -15c33 0 58 10 76 27z" />
	<glyph glyph-name="ccedilla" unicode="&#xe7;" horiz-adv-x="637" 
d="M335 -15l-20 -40c5 2 11 3 18 3c40 0 80 -31 80 -82c0 -44 -31 -91 -95 -91c-15 0 -82 4 -93 79h54c7 -22 23 -31 39 -31c23 0 40 16 41 43c-1 24 -19 39 -40 39c-15 0 -25 -7 -33 -19l-46 21l38 82c-138 21 -241 135 -241 284c0 160 123 287 286 287
c130 0 247 -80 281 -211h-107c-28 71 -96 112 -170 112c-55 0 -95 -17 -133 -53c-32 -31 -53 -82 -53 -136c0 -112 82 -191 186 -191c91 1 148 56 170 110h107c-33 -115 -134 -201 -269 -206z" />
	<glyph glyph-name="eacute" unicode="&#xe9;" horiz-adv-x="634" 
d="M600 239h-465c5 -110 101 -166 183 -166c73 0 127 35 157 92h108c-26 -60 -64 -105 -110 -135c-46 -31 -100 -46 -155 -46c-178 0 -288 143 -288 287c0 156 122 289 287 289c78 0 149 -29 201 -80c64 -65 91 -150 82 -241zM137 320h360c-5 72 -77 153 -180 151
c-106 0 -175 -77 -180 -151zM193 671l238 134l36 -76l-243 -122z" />
	<glyph glyph-name="ecircumflex" unicode="&#xea;" horiz-adv-x="634" 
d="M600 239h-465c5 -110 101 -166 183 -166c73 0 127 35 157 92h108c-26 -60 -64 -105 -110 -135c-46 -31 -100 -46 -155 -46c-178 0 -288 143 -288 287c0 156 122 289 287 289c78 0 149 -29 201 -80c64 -65 91 -150 82 -241zM137 320h360c-5 72 -77 153 -180 151
c-106 0 -175 -77 -180 -151zM354 770l170 -144h-108l-99 74l-98 -74h-109l172 144h72z" />
	<glyph glyph-name="edieresis" unicode="&#xeb;" horiz-adv-x="634" 
d="M600 239h-465c5 -110 101 -166 183 -166c73 0 127 35 157 92h108c-26 -60 -64 -105 -110 -135c-46 -31 -100 -46 -155 -46c-178 0 -288 143 -288 287c0 156 122 289 287 289c78 0 149 -29 201 -80c64 -65 91 -150 82 -241zM137 320h360c-5 72 -77 153 -180 151
c-106 0 -175 -77 -180 -151zM264 763v-135h-101v135h101zM467 763v-135h-101v135h101z" />
	<glyph glyph-name="egrave" unicode="&#xe8;" horiz-adv-x="634" 
d="M600 239h-465c5 -110 101 -166 183 -166c73 0 127 35 157 92h108c-26 -60 -64 -105 -110 -135c-46 -31 -100 -46 -155 -46c-178 0 -288 143 -288 287c0 156 122 289 287 289c78 0 149 -29 201 -80c64 -65 91 -150 82 -241zM137 320h360c-5 72 -77 153 -180 151
c-106 0 -175 -77 -180 -151zM200 800l240 -133l-32 -64l-242 122z" />
	<glyph glyph-name="iacute" unicode="&#xed;" horiz-adv-x="240" 
d="M68 0v544h104v-544h-104zM17 671l239 134l35 -76l-242 -122z" />
	<glyph glyph-name="icircumflex" unicode="&#xee;" horiz-adv-x="240" 
d="M68 0v544h104v-544h-104zM158 770l170 -144h-109l-98 74l-98 -74h-110l173 144h72z" />
	<glyph glyph-name="idieresis" unicode="&#xef;" horiz-adv-x="240" 
d="M68 0v544h104v-544h-104zM69 763v-135h-100v135h100zM272 763v-135h-101v135h101z" />
	<glyph glyph-name="igrave" unicode="&#xec;" horiz-adv-x="240" 
d="M68 0v544h104v-544h-104zM-18 800l240 -133l-31 -64l-243 122z" />
	<glyph glyph-name="ntilde" unicode="&#xf1;" horiz-adv-x="636" 
d="M68 0v544h98v-84c26 56 87 101 184 100c174 -2 220 -128 220 -241v-319h-105v295c0 98 -38 168 -144 167c-102 -1 -149 -65 -149 -159v-303h-104zM473 742l39 -70c-31 -25 -67 -38 -105 -38c-25 0 -59 8 -88 16s-57 15 -79 15c-32 0 -56 -11 -76 -28l-39 71
c25 21 65 38 103 38c31 0 61 -8 88 -16c26 -8 51 -15 80 -15c33 0 58 10 77 27z" />
	<glyph glyph-name="oacute" unicode="&#xf3;" horiz-adv-x="655" 
d="M37 272v1c0 145 107 287 290 287s290 -142 290 -288s-107 -287 -290 -287s-290 141 -290 287zM141 272v-1c0 -108 82 -189 186 -189s186 81 186 190s-82 190 -186 190s-186 -81 -186 -190zM203 671l239 134l35 -76l-242 -122z" />
	<glyph glyph-name="ocircumflex" unicode="&#xf4;" horiz-adv-x="655" 
d="M37 272v1c0 145 107 287 290 287s290 -142 290 -288s-107 -287 -290 -287s-290 141 -290 287zM141 272v-1c0 -108 82 -189 186 -189s186 81 186 190s-82 190 -186 190s-186 -81 -186 -190zM365 770l170 -144h-109l-98 74l-98 -74h-110l173 144h72z" />
	<glyph glyph-name="odieresis" unicode="&#xf6;" horiz-adv-x="655" 
d="M37 272v1c0 145 107 287 290 287s290 -142 290 -288s-107 -287 -290 -287s-290 141 -290 287zM141 272v-1c0 -108 82 -189 186 -189s186 81 186 190s-82 190 -186 190s-186 -81 -186 -190zM276 763v-135h-100v135h100zM479 763v-135h-100v135h100z" />
	<glyph glyph-name="ograve" unicode="&#xf2;" horiz-adv-x="655" 
d="M37 272v1c0 145 107 287 290 287s290 -142 290 -288s-107 -287 -290 -287s-290 141 -290 287zM141 272v-1c0 -108 82 -189 186 -189s186 81 186 190s-82 190 -186 190s-186 -81 -186 -190zM210 800l240 -133l-31 -64l-243 122z" />
	<glyph glyph-name="otilde" unicode="&#xf5;" horiz-adv-x="655" 
d="M37 272v1c0 145 107 287 290 287s290 -142 290 -288s-107 -287 -290 -287s-290 141 -290 287zM141 272v-1c0 -108 82 -189 186 -189s186 81 186 190s-82 190 -186 190s-186 -81 -186 -190zM482 742l39 -70c-30 -25 -66 -38 -105 -38c-25 0 -58 8 -87 16
c-30 8 -57 15 -79 15c-33 0 -56 -11 -77 -28l-39 71c25 21 65 38 103 38c31 0 62 -8 88 -16c27 -8 51 -15 80 -15c34 0 58 10 77 27z" />
	<glyph glyph-name="scaron" unicode="&#x161;" horiz-adv-x="466" 
d="M411 402h-103c0 42 -26 74 -79 73c-51 0 -79 -34 -78 -70c2 -43 41 -63 99 -79c83 -23 174 -47 177 -164c2 -106 -86 -178 -194 -178c-86 0 -193 49 -198 173h103c4 -66 57 -88 96 -88c50 0 89 35 89 81c-1 54 -42 72 -139 104c-76 23 -136 59 -137 141
c0 103 84 165 183 165c75 0 173 -37 181 -158zM26 764h109l98 -74l98 74h109l-171 -144h-73z" />
	<glyph glyph-name="uacute" unicode="&#xfa;" horiz-adv-x="637" 
d="M569 544v-544h-98v84c-26 -56 -87 -101 -184 -100c-175 1 -220 128 -220 241v319h104v-295c0 -98 38 -168 145 -168c102 1 149 66 149 159v304h104zM216 671l238 134l36 -76l-243 -122z" />
	<glyph glyph-name="ucircumflex" unicode="&#xfb;" horiz-adv-x="637" 
d="M569 544v-544h-98v84c-26 -56 -87 -101 -184 -100c-175 1 -220 128 -220 241v319h104v-295c0 -98 38 -168 145 -168c102 1 149 66 149 159v304h104zM356 770l170 -144h-109l-98 74l-98 -74h-110l173 144h72z" />
	<glyph glyph-name="udieresis" unicode="&#xfc;" horiz-adv-x="637" 
d="M569 544v-544h-98v84c-26 -56 -87 -101 -184 -100c-175 1 -220 128 -220 241v319h104v-295c0 -98 38 -168 145 -168c102 1 149 66 149 159v304h104zM267 763v-135h-100v135h100zM470 763v-135h-100v135h100z" />
	<glyph glyph-name="ugrave" unicode="&#xf9;" horiz-adv-x="637" 
d="M569 544v-544h-98v84c-26 -56 -87 -101 -184 -100c-175 1 -220 128 -220 241v319h104v-295c0 -98 38 -168 145 -168c102 1 149 66 149 159v304h104zM169 800l240 -133l-32 -64l-243 122z" />
	<glyph glyph-name="yacute" unicode="&#xfd;" horiz-adv-x="532" 
d="M123 -198l90 214l-208 528h112l150 -398l152 398h112l-297 -742h-111zM177 671l238 134l36 -76l-243 -122z" />
	<glyph glyph-name="ydieresis" unicode="&#xff;" horiz-adv-x="532" 
d="M123 -198l90 214l-208 528h112l150 -398l152 398h112l-297 -742h-111zM215 763v-135h-101v135h101zM418 763v-135h-101v135h101z" />
	<glyph glyph-name="zcaron" unicode="&#x17e;" horiz-adv-x="427" 
d="M14 0v74l276 389h-268v81h383v-82l-267 -381h275v-81h-399zM15 761h109l98 -74l98 74h109l-171 -143h-73z" />
	<glyph glyph-name="Omega" unicode="&#x2126;" horiz-adv-x="756" 
d="M197 87v3c-70 64 -136 172 -136 314c0 197 134 348 320 348c197 0 312 -172 312 -342c0 -146 -69 -260 -138 -320v-3h153v-87h-266v64c73 48 144 155 144 324c0 135 -71 275 -206 275c-129 0 -212 -121 -212 -279c0 -156 71 -274 145 -320v-64h-267v87h151z" />
	<glyph glyph-name="pi" unicode="&#x3c0;" horiz-adv-x="620" 
d="M593 463h-80v-306c0 -83 7 -126 15 -157h-103c-11 20 -18 69 -18 150v313h-170c-5 -127 -34 -358 -73 -463h-103c38 119 68 333 71 463c-58 0 -88 -5 -111 -12l-14 70c27 19 77 32 163 32h432z" />
	<glyph glyph-name="Euro" unicode="&#x20ac;" horiz-adv-x="555" 
d="M414 343l-14 -76h-201c12 -111 51 -186 131 -186c42 0 98 10 115 116h99c-12 -160 -110 -211 -221 -211c-148 0 -214 115 -232 281h-90l14 76h71v28c0 13 1 25 1 37h-86l14 76h77c19 161 85 272 235 272c154 0 205 -126 214 -201h-97c-14 69 -59 106 -116 106
c-77 0 -115 -59 -129 -177h240l-14 -76h-232v-37v-28h221z" />
	<glyph glyph-name="estimated" unicode="&#x212e;" horiz-adv-x="926" 
d="M889 359h-691c-3 0 -5 -1 -5 -4v-209c0 -9 3 -17 9 -24c67 -69 159 -114 261 -114c110 0 208 50 275 127h61c-76 -89 -200 -148 -337 -148c-235 0 -426 171 -426 383s191 384 426 384c236 0 427 -172 427 -384v-11zM732 387v210c0 9 -3 18 -10 25
c-67 66 -158 109 -259 109s-193 -45 -260 -113c-7 -7 -10 -16 -10 -26v-205c0 -3 2 -7 5 -7h530c3 0 4 4 4 7z" />
	<glyph glyph-name="partialdiff" unicode="&#x2202;" horiz-adv-x="593" 
d="M109 693l-33 79c34 26 93 60 185 60c146 0 279 -132 279 -402c0 -256 -101 -439 -286 -439c-144 0 -212 130 -212 247c0 168 105 274 227 274c93 0 150 -64 166 -93h1c1 10 1 30 1 41c0 161 -81 284 -189 284c-65 0 -111 -27 -139 -51zM264 79h1c90 0 147 124 160 245
c-13 40 -62 103 -136 103c-80 0 -142 -88 -142 -191c0 -89 46 -157 117 -157z" />
	<glyph glyph-name="product" unicode="&#x220f;" horiz-adv-x="751" 
d="M724 644h-112v-746h-105v746h-264v-746h-104v746h-112v96h697v-96z" />
	<glyph glyph-name="summation" unicode="&#x2211;" horiz-adv-x="588" 
d="M566 -102h-542v69l271 351l-260 348v74h514v-91h-370v-3l236 -311l-258 -335v-3h409v-99z" />
	<glyph glyph-name="uni2219" unicode="&#x2219;" horiz-adv-x="297" 
d="M204 319v-130h-109v130h109z" />
	<glyph glyph-name="radical" unicode="&#x221a;" horiz-adv-x="616" 
d="M620 884l-236 -1037h-88l-164 478l-78 -31l-19 62l162 64l122 -367c7 -30 15 -61 20 -83l2 -1c3 22 9 55 15 87l189 828h75z" />
	<glyph glyph-name="infinity" unicode="&#x221e;" horiz-adv-x="824" 
d="M770 307v-1c0 -109 -80 -176 -165 -176c-64 0 -120 35 -192 124c-56 -66 -112 -124 -198 -124c-87 0 -163 72 -163 172c0 101 73 174 171 174c79 0 138 -54 193 -122c50 55 104 122 196 122c92 -1 158 -68 158 -169zM223 192h1c64 0 112 60 155 107
c-46 58 -89 117 -161 117c-64 0 -102 -52 -102 -116c0 -59 44 -108 107 -108zM605 416h-1c-68 0 -120 -73 -156 -111c67 -79 105 -113 160 -113c63 0 99 58 99 109c0 70 -42 115 -102 115z" />
	<glyph glyph-name="integral" unicode="&#x222b;" horiz-adv-x="398" 
d="M377 896l-13 -73c-10 5 -24 10 -38 10c-19 0 -40 -8 -54 -26c-24 -31 -32 -89 -32 -184c0 -169 15 -340 15 -521c0 -107 -18 -174 -42 -213c-26 -46 -74 -66 -120 -66c-31 0 -61 10 -75 18l15 76c10 -5 26 -12 47 -12c17 0 36 7 48 22c19 27 32 73 32 174
c0 184 -15 358 -15 532c0 120 17 186 60 232c29 30 71 44 111 44c25 0 50 -7 61 -13z" />
	<glyph glyph-name="approxequal" unicode="&#x2248;" 
d="M504 467l39 -36c-30 -59 -77 -105 -139 -105c-43 0 -72 15 -122 44c-32 19 -60 36 -95 36c-48 0 -76 -38 -102 -78l-41 36c32 61 87 104 150 104c51 0 87 -26 115 -41c38 -21 61 -38 96 -38c43 0 70 29 99 78zM504 278l39 -36c-30 -58 -76 -104 -140 -104
c-42 0 -72 16 -121 43c-32 20 -60 37 -95 37c-49 0 -76 -39 -102 -79l-41 36c32 62 87 105 150 105c52 0 87 -26 115 -41c34 -19 60 -38 97 -38c42 0 68 29 98 77z" />
	<glyph glyph-name="notequal" unicode="&#x2260;" 
d="M425 538l-44 -99h155v-64h-180l-67 -149h247v-64h-272l-55 -123l-51 22l46 101h-152v64h177l67 149h-244v64h269l54 121z" />
	<glyph glyph-name="lessequal" unicode="&#x2264;" 
d="M534 103l-476 238v69l475 237v-76l-409 -194v-2l410 -196v-76zM537 -3h-484v65h484v-65z" />
	<glyph glyph-name="greaterequal" unicode="&#x2265;" 
d="M60 647l475 -238v-68l-475 -238v76l409 195v2l-409 195v76zM536 -3h-482v65h482v-65z" />
	<glyph glyph-name="lozenge" unicode="&#x25ca;" horiz-adv-x="616" 
d="M560 369l-212 -419h-85l-207 419l211 420h85zM466 367l-137 276c-7 18 -16 43 -20 59h-3c-4 -18 -11 -39 -20 -59l-136 -271l137 -279c9 -21 16 -44 19 -57h4c3 14 12 43 18 56z" />
	<glyph glyph-name="uni02C9" unicode="&#x2c9;" horiz-adv-x="555" 
d="M456 735v-83h-358v83h358z" />
	<glyph glyph-name="uni00AD" unicode="&#xad;" horiz-adv-x="274" 
d="M0 335h274v-103h-274v103z" />
	<glyph glyph-name="uni03A9" unicode="&#x3a9;" horiz-adv-x="756" 
d="M197 87v3c-70 64 -136 172 -136 314c0 197 134 348 320 348c197 0 312 -172 312 -342c0 -146 -69 -260 -138 -320v-3h153v-87h-266v64c73 48 144 155 144 324c0 135 -71 275 -206 275c-129 0 -212 -121 -212 -279c0 -156 71 -274 145 -320v-64h-267v87h151z" />
	<glyph glyph-name="uni00A0" unicode="&#xa0;" horiz-adv-x="295" 
 />
	<glyph glyph-name="afii61289" unicode="&#x2113;" horiz-adv-x="528" 
d="M460 175l46 -44c-51 -99 -125 -141 -208 -141c-124 0 -176 87 -183 186c0 4 0 8 -1 12c-18 -14 -38 -31 -57 -46l-29 59c30 25 59 47 85 73v278c0 191 85 262 176 262c96 0 140 -80 140 -180c0 -129 -84 -252 -214 -378v-40c2 -98 49 -141 106 -141c62 0 111 52 139 100z
M215 557v-201c82 92 144 190 144 280c0 61 -18 101 -67 101c-35 0 -77 -42 -77 -180z" />
	<glyph glyph-name="uni03BC" unicode="&#x3bc;" horiz-adv-x="601" 
d="M64 -186v730h104v-286c0 -43 3 -91 28 -127c27 -37 66 -50 103 -50c46 0 80 20 102 54c24 35 35 85 35 145v264h104v-544h-100v91c-13 -31 -47 -102 -140 -102c-80 0 -116 43 -132 70v-68v-177h-104z" />
	<glyph glyph-name="uni2215" unicode="&#x2215;" horiz-adv-x="155" 
d="M-127 0l319 740h89l-319 -740h-89z" />
	<glyph glyph-name="a.superior" horiz-adv-x="409" 
d="M362 744v-307h-67v54c-23 -46 -66 -63 -110 -63c-93 0 -158 75 -158 163c0 97 73 163 159 163c49 0 87 -23 109 -64v54h67zM94 589v-1c0 -40 33 -96 101 -96c44 0 75 24 90 54c7 14 10 30 10 45c0 16 -2 28 -8 42c-15 33 -49 57 -93 57c-56 0 -100 -43 -100 -101z" />
	<glyph glyph-name="o.superior" horiz-adv-x="409" 
d="M40 589v1c0 84 61 163 164 164c105 0 165 -82 165 -163c0 -87 -68 -163 -165 -163c-100 0 -164 80 -164 161zM107 590v-1c0 -53 44 -97 97 -97c51 0 97 41 97 99c0 55 -42 99 -96 99c-52 0 -98 -40 -98 -100z" />
	<glyph glyph-name="one.superior" horiz-adv-x="382" 
d="M237 740v-444h-80v374h-86v70h166z" />
	<glyph glyph-name="two.superior" horiz-adv-x="382" 
d="M345 366v-70h-310v64c53 49 106 98 158 148c42 39 60 66 60 99c0 38 -18 71 -66 71c-49 0 -71 -43 -71 -92h-80c0 36 6 71 29 102c34 48 83 61 126 61c96 0 152 -49 152 -134c0 -52 -21 -87 -64 -129c-42 -40 -83 -80 -124 -120h190z" />
	<glyph glyph-name="three.superior" horiz-adv-x="382" 
d="M27 432h84c3 -48 35 -74 77 -74c48 0 76 31 76 74c0 30 -22 71 -80 71h-43v61h26c46 0 74 30 74 59c0 27 -17 54 -53 55c-40 0 -55 -28 -57 -56h-82c3 101 92 127 141 127c77 0 132 -52 132 -115c0 -36 -21 -72 -57 -92c50 -19 84 -63 84 -114c0 -80 -72 -141 -162 -141
c-51 0 -105 21 -133 60c-20 27 -26 58 -27 85z" />
	<glyph glyph-name="uni2206" unicode="&#x2206;" horiz-adv-x="690" 
d="M31 0v66l254 692h125l249 -691v-67h-628zM139 86h406l-135 360c-17 57 -53 146 -65 194h-4c-9 -39 -41 -120 -59 -178z" />
	<glyph glyph-name="uni2010" unicode="&#x2010;" horiz-adv-x="274" 
d="M0 335h274v-103h-274v103z" />
	</font>
</defs>
</svg>
