<?xml version="1.0" standalone="no"?>
<!DOCTYPE svg PUBLIC "-//W3C//DTD SVG 1.1//EN" "http://www.w3.org/Graphics/SVG/1.1/DTD/svg11.dtd" >
<svg>
<metadata>
Created by FontForge 20120731 at Wed Jun  6 21:33:34 2018
 By www-data
Copyright 1993, 1994, 2001, 2002 Adobe Systems Incorporated. All rights reserved. ITC and Avant Garde are trademarks of International Typeface Corporation registered in the U.S. Patent and Trademark Office and may be registered in certain other jurisdictions.
</metadata>
<defs>
<font id="ITCAvantGardeStd-DemiCnObl" horiz-adv-x="542" >
  <font-face 
	font-family="ITC Avant Garde Gothic Std"
	font-weight="600"
	font-style="italic"
	font-stretch="condensed"
	units-per-em="1000"
	panose-1="2 11 6 6 2 2 2 2 2 4"
	ascent="740"
	descent="-260"
	x-height="559"
	cap-height="740"
	bbox="-164 -287 1053 987"
	underline-thickness="50"
	underline-position="-50"
	slope="-10.5"
	stemh="102"
	stemv="108"
	unicode-range="U+0020-FB02"
  />
<missing-glyph horiz-adv-x="630" 
d="M130 0v700h500v-700h-500zM380 395l170 255h-340zM410 350l170 -255v510zM210 50h340l-170 255zM180 605v-510l170 255z" />
	<glyph glyph-name="f_i" unicode="fi" horiz-adv-x="507" 
d="M412 457h-139l-85 -457h-108l85 457h-55l19 102h55l5 30c29 155 162 164 221 164l-18 -94c-38 -1 -84 -10 -97 -81l-3 -19h248l-104 -559h-109zM553 633h-109l20 107h109z" />
	<glyph glyph-name="f_l" unicode="fl" horiz-adv-x="507" 
d="M412 457h-139l-85 -457h-108l85 457h-55l19 102h55l5 30c29 155 162 164 221 164l-18 -94c-38 -1 -84 -10 -97 -81l-3 -19h139l33 181h109l-137 -740h-109z" />
	<glyph glyph-name=".notdef" horiz-adv-x="630" 
d="M130 0v700h500v-700h-500zM380 395l170 255h-340zM410 350l170 -255v510zM210 50h340l-170 255zM180 605v-510l170 255z" />
	<glyph glyph-name="space" unicode=" " horiz-adv-x="264" 
 />
	<glyph glyph-name="exclam" unicode="!" horiz-adv-x="267" 
d="M330 740l-101 -544h-119l101 544h119zM218 135l-25 -135h-119l25 135h119z" />
	<glyph glyph-name="quotedbl" unicode="&#x22;" horiz-adv-x="310" 
d="M204 452h-101l53 288h101zM375 452h-101l53 288h101z" />
	<glyph glyph-name="numbersign" unicode="#" 
d="M433 224l-56 -175h-85l56 175h-105l-57 -175h-84l57 175h-98l14 80h109l42 129h-99l15 79h109l55 171h85l-55 -171h106l55 171h83l-54 -171h92l-15 -79h-103l-42 -129h93l-14 -80h-104zM375 304l41 129h-106l-41 -129h106z" />
	<glyph glyph-name="dollar" unicode="$" 
d="M468 795l-13 -74c95 -18 127 -98 115 -186h-118c3 53 -32 84 -71 84c-42 0 -85 -31 -95 -83c-12 -66 59 -85 129 -117c64 -30 138 -78 114 -208c-19 -103 -99 -195 -206 -200l-16 -84h-95l16 84c-108 6 -155 101 -135 208h122c-10 -68 26 -106 84 -106c51 0 97 42 107 98
c15 80 -57 100 -130 131c-63 28 -132 71 -110 191c19 101 92 178 194 188l13 74h95z" />
	<glyph glyph-name="percent" unicode="%" horiz-adv-x="848" 
d="M145 570v1c21 113 105 181 205 181c101 0 161 -68 140 -182c-21 -113 -106 -182 -207 -182c-100 0 -159 69 -138 182zM230 570l-1 -1c-11 -62 20 -100 69 -100c50 0 95 38 107 101c12 64 -19 102 -69 102c-49 0 -94 -38 -106 -102zM495 170v1c20 112 106 181 206 181
s160 -69 140 -182c-22 -114 -107 -182 -207 -182s-161 68 -139 182zM581 170l-1 -1c-11 -63 19 -101 69 -101s94 38 106 102c11 63 -19 101 -69 101s-94 -38 -105 -101zM806 749l-530 -758h-94l530 758h94z" />
	<glyph glyph-name="ampersand" unicode="&#x26;" horiz-adv-x="656" 
d="M577 431h121l-160 -224l86 -137l-98 -73l-65 110c-63 -68 -131 -121 -213 -121c-133 0 -197 101 -176 216c22 119 104 192 186 228c-28 38 -52 86 -42 147c21 112 117 177 208 177c100 0 151 -84 135 -170c-16 -85 -84 -148 -145 -179l68 -110zM404 655h-1
c-39 0 -69 -30 -76 -67c-7 -36 13 -69 40 -102c46 28 76 61 83 98c7 35 -11 71 -46 71zM405 195l-89 146c-69 -32 -107 -80 -115 -126c-11 -59 17 -110 79 -110c52 0 96 49 125 90z" />
	<glyph glyph-name="quoteright" unicode="&#x2019;" horiz-adv-x="235" 
d="M118 513l122 227h115l-138 -227h-99z" />
	<glyph glyph-name="parenleft" unicode="(" horiz-adv-x="367" 
d="M470 745l-21 -113c-122 -75 -217 -214 -246 -372s14 -294 108 -373l-21 -113c-133 74 -230 255 -187 486c43 230 208 415 367 485z" />
	<glyph glyph-name="parenright" unicode=")" horiz-adv-x="367" 
d="M-7 -226l21 113c122 75 217 215 246 372c29 158 -14 294 -108 373l21 113c133 -74 231 -254 188 -486c-43 -230 -209 -415 -368 -485z" />
	<glyph glyph-name="asterisk" unicode="*" horiz-adv-x="412" 
d="M387 740l-51 -146l132 93l29 -77l-144 -50l126 -50l-60 -80l-98 95l-1 -145h-89l53 147l-130 -97l-31 81l144 51l-126 48l57 77l99 -92l1 145h89z" />
	<glyph glyph-name="plus" unicode="+" horiz-adv-x="576" 
d="M431 505l-38 -203h197l-18 -99h-197l-38 -203h-99l38 203h-196l18 99h196l38 203h99z" />
	<glyph glyph-name="comma" unicode="," horiz-adv-x="270" 
d="M222 132l-127 -227h-88l112 227h103z" />
	<glyph glyph-name="hyphen" unicode="-" horiz-adv-x="306" 
d="M97 336h235l-19 -106h-235z" />
	<glyph glyph-name="period" unicode="." horiz-adv-x="270" 
d="M213 132l-24 -132h-108l24 132h108z" />
	<glyph glyph-name="slash" unicode="/" horiz-adv-x="278" 
d="M-51 -33l404 782h109l-404 -782h-109z" />
	<glyph glyph-name="zero" unicode="0" 
d="M89 236l49 268c29 156 140 248 272 248s210 -92 181 -248l-49 -268c-29 -156 -141 -248 -273 -248s-209 92 -180 248zM252 497l-47 -254c-19 -103 28 -144 84 -144s120 41 139 144l47 254c19 103 -29 144 -85 144s-119 -41 -138 -144z" />
	<glyph glyph-name="one" unicode="1" 
d="M228 0l117 632h-114l20 108h229l-137 -740h-115z" />
	<glyph glyph-name="two" unicode="2" 
d="M48 0l22 119c101 88 179 159 239 213c100 87 135 130 146 192c13 71 -23 107 -73 107c-49 0 -102 -28 -123 -128h-122c17 87 54 149 101 189c49 42 107 60 168 60c127 0 199 -95 174 -230c-12 -64 -41 -123 -104 -187c-60 -61 -140 -130 -247 -222h278l-21 -113h-438z
" />
	<glyph glyph-name="three" unicode="3" 
d="M283 543h-124c27 137 127 209 251 209c123 0 189 -76 168 -190c-15 -81 -60 -128 -127 -151c93 -30 108 -114 93 -197c-24 -127 -124 -226 -271 -226c-93 0 -157 39 -185 105c-15 37 -19 82 -10 133h125c-15 -81 23 -126 90 -126c64 0 112 47 126 120
c15 82 -29 128 -109 128h-41l21 108h34c73 0 116 35 127 94c9 51 -11 90 -69 90c-56 0 -88 -43 -99 -97z" />
	<glyph glyph-name="four" unicode="4" 
d="M309 0l27 147h-273l20 108l359 485h119l-90 -485h69l-20 -108h-69l-27 -147h-115zM191 255h165l58 312z" />
	<glyph glyph-name="five" unicode="5" 
d="M233 740h369l-19 -102h-260l-48 -175c33 37 72 53 126 53c114 0 179 -94 150 -252c-32 -170 -130 -276 -283 -276c-136 0 -196 84 -179 230h122c-8 -64 21 -118 79 -118c74 0 116 55 134 155c19 99 -14 149 -73 149c-36 0 -74 -22 -103 -70l-117 2z" />
	<glyph glyph-name="six" unicode="6" 
d="M441 740h133l-201 -229c-16 -18 -34 -36 -46 -51c22 13 42 17 60 17c114 0 186 -98 161 -236c-26 -140 -134 -253 -278 -253c-77 0 -123 28 -149 60c-36 41 -53 106 -36 198s64 158 129 233zM209 228v-1c-15 -83 19 -135 80 -135c64 0 113 55 129 141
c16 85 -12 140 -77 140c-63 0 -115 -54 -132 -145z" />
	<glyph glyph-name="seven" unicode="7" 
d="M196 740h425l-18 -100l-354 -640h-129l352 632h-296z" />
	<glyph glyph-name="eight" unicode="8" 
d="M166 555v1c21 113 123 196 244 196s194 -82 173 -197c-12 -63 -56 -117 -111 -146c65 -26 93 -103 77 -187c-28 -148 -145 -234 -280 -234c-134 0 -220 86 -194 234c19 97 82 159 147 189c-50 27 -67 85 -56 144zM287 539v-1c-10 -53 19 -93 67 -93c46 0 92 40 102 94
c11 58 -19 101 -67 101c-46 0 -91 -43 -102 -101zM202 222v-1c-12 -67 25 -121 88 -121s120 54 132 122c11 61 -26 115 -89 115s-120 -54 -131 -115z" />
	<glyph glyph-name="nine" unicode="9" 
d="M238 0h-133l202 229c16 18 33 36 46 51c-23 -13 -43 -17 -61 -17c-113 0 -186 98 -161 236c26 140 134 253 279 253c76 0 123 -28 148 -60c36 -41 54 -106 37 -198s-64 -158 -130 -233zM469 512v1c15 83 -20 135 -80 135c-64 0 -113 -55 -129 -141
c-16 -85 12 -140 77 -140c63 0 115 54 132 145z" />
	<glyph glyph-name="colon" unicode=":" horiz-adv-x="270" 
d="M282 500l-25 -132h-108l25 132h108zM213 132l-24 -132h-108l24 132h108z" />
	<glyph glyph-name="semicolon" unicode=";" horiz-adv-x="270" 
d="M286 500l-25 -132h-109l25 132h109zM222 132l-127 -227h-88l112 227h103z" />
	<glyph glyph-name="less" unicode="&#x3c;" horiz-adv-x="576" 
d="M98 302l531 210l-20 -109l-390 -151l334 -150l-20 -109l-453 210z" />
	<glyph glyph-name="equal" unicode="=" horiz-adv-x="576" 
d="M118 409h492l-19 -99h-492zM78 195h492l-18 -99h-492z" />
	<glyph glyph-name="greater" unicode="&#x3e;" horiz-adv-x="576" 
d="M61 102l389 150l-333 151l20 109l453 -210l-18 -99l-531 -210z" />
	<glyph glyph-name="question" unicode="?" horiz-adv-x="491" 
d="M326 192h-119c14 76 15 142 81 207c56 57 130 91 141 151c10 54 -18 89 -72 89c-42 0 -86 -26 -101 -90c-3 -9 -4 -17 -6 -26h-122l6 33c30 134 132 196 249 196c114 0 194 -83 171 -207c-15 -83 -71 -131 -123 -173c-90 -71 -88 -84 -105 -180zM315 135l-25 -135h-119
l25 135h119z" />
	<glyph glyph-name="at" unicode="@" horiz-adv-x="783" 
d="M646 154h84c-87 -110 -205 -166 -320 -166c-216 0 -340 159 -299 380c42 226 226 384 437 384c165 0 310 -117 274 -310c-42 -226 -234 -292 -291 -292c-27 0 -53 14 -51 57c-26 -27 -60 -56 -117 -56c-62 0 -124 57 -104 170c24 126 125 246 239 246
c51 0 84 -21 102 -64l21 52h76l-100 -250c-3 -6 -12 -29 -14 -40c-5 -21 7 -26 16 -26c47 0 123 53 146 178c32 171 -69 258 -213 258c-158 0 -300 -127 -334 -307c-34 -186 56 -303 231 -303c82 0 162 28 217 89zM355 334v-1c-11 -56 13 -87 55 -87c57 0 99 45 120 86
c6 15 20 42 24 60c11 59 -24 87 -61 87c-59 0 -124 -70 -138 -145z" />
	<glyph glyph-name="A" unicode="A" horiz-adv-x="533" 
d="M203 171l-78 -171h-124l342 740h115l74 -740h-124l-15 171h-190zM381 283l-11 286l-117 -286h128z" />
	<glyph glyph-name="B" unicode="B" horiz-adv-x="534" 
d="M65 0l137 740h196c71 0 114 -17 140 -47c33 -33 39 -86 30 -139c-18 -93 -75 -140 -144 -153c90 -23 130 -86 111 -189c-12 -67 -45 -122 -94 -159c-39 -32 -93 -53 -156 -53h-220zM304 632l-35 -192h53c30 0 54 6 72 19c26 19 38 45 45 79c6 36 -1 61 -16 75
c-13 12 -33 19 -72 19h-47zM249 332l-42 -224h70c36 0 62 8 82 23c27 17 45 45 52 86c9 40 1 72 -19 90c-14 16 -38 25 -76 25h-67z" />
	<glyph glyph-name="C" unicode="C" horiz-adv-x="589" 
d="M478 269h124c-30 -153 -140 -283 -307 -283c-160 0 -239 128 -191 384c46 250 169 384 334 384c170 0 231 -134 199 -293h-124c19 118 -8 177 -88 177c-93 0 -163 -87 -197 -271c-35 -189 14 -265 98 -265c93 0 133 85 152 167z" />
	<glyph glyph-name="D" unicode="D" horiz-adv-x="600" 
d="M64 0l137 740h196c106 0 177 -35 215 -108c33 -64 40 -155 21 -262c-44 -233 -183 -370 -369 -370h-200zM302 627l-95 -514h76c143 0 202 136 225 257c15 83 14 147 -6 190c-20 44 -59 67 -128 67h-72z" />
	<glyph glyph-name="E" unicode="E" horiz-adv-x="490" 
d="M70 0l137 740h355l-21 -113h-233l-34 -187h233l-21 -112h-233l-40 -215h233l-21 -113h-355z" />
	<glyph glyph-name="F" unicode="F" horiz-adv-x="436" 
d="M61 0l137 740h333l-21 -113h-211l-34 -185h211l-21 -113h-211l-61 -329h-122z" />
	<glyph glyph-name="G" unicode="G" horiz-adv-x="611" 
d="M655 485h-125c6 33 4 66 -5 91c-14 38 -40 65 -94 65c-95 0 -168 -84 -202 -271c-36 -194 6 -271 101 -271c49 0 88 20 117 59c28 37 42 78 49 123h-158l21 113h283l-24 -131c-29 -143 -140 -277 -309 -277c-190 0 -249 151 -205 384c42 230 168 384 348 384
c155 0 224 -110 203 -269z" />
	<glyph glyph-name="H" unicode="H" horiz-adv-x="587" 
d="M187 0h-122l137 740h122l-55 -300h213l55 300h122l-137 -740h-122l61 328h-213z" />
	<glyph glyph-name="I" unicode="I" horiz-adv-x="252" 
d="M65 0l137 740h122l-137 -740h-122z" />
	<glyph glyph-name="J" unicode="J" horiz-adv-x="472" 
d="M540 740l-101 -545c-7 -36 -18 -71 -36 -101c-22 -35 -52 -63 -90 -81c-34 -18 -74 -27 -112 -27c-112 0 -182 64 -164 187c2 12 4 25 6 37h122c-1 -4 -1 -9 -2 -14c-9 -81 19 -97 60 -97c31 0 54 15 69 35c13 18 22 44 29 83l97 523h122z" />
	<glyph glyph-name="K" unicode="K" horiz-adv-x="520" 
d="M65 0l137 740h122l-64 -344l255 344h134l-279 -362l158 -378h-141l-136 347l-64 -347h-122z" />
	<glyph glyph-name="L" unicode="L" horiz-adv-x="426" 
d="M70 0l137 740h122l-116 -627h211l-21 -113h-333z" />
	<glyph glyph-name="M" unicode="M" horiz-adv-x="751" 
d="M176 0h-109l137 740h181l31 -536l224 536h181l-137 -740h-109l113 611l-263 -611h-95l-41 611z" />
	<glyph glyph-name="N" unicode="N" horiz-adv-x="605" 
d="M334 740l139 -505l93 505h108l-137 -740h-115l-147 535l-99 -535h-109l137 740h130z" />
	<glyph glyph-name="O" unicode="O" horiz-adv-x="612" 
d="M104 370v1c42 226 161 383 341 383c181 0 242 -157 200 -384c-40 -216 -156 -384 -343 -384c-180 0 -240 157 -198 384zM229 370l-1 -1c-34 -187 2 -270 95 -270c94 0 162 83 197 271c34 188 -2 271 -96 271c-93 0 -161 -83 -195 -271z" />
	<glyph glyph-name="P" unicode="P" horiz-adv-x="530" 
d="M207 740h183c76 0 131 -18 167 -58c36 -38 52 -101 38 -175c-14 -76 -52 -137 -103 -176c-51 -40 -113 -58 -188 -58h-61l-51 -273h-122zM308 627l-44 -241h60c44 0 72 6 98 28c22 18 39 50 47 92c8 43 3 76 -14 94c-17 20 -43 27 -87 27h-60z" />
	<glyph glyph-name="Q" unicode="Q" horiz-adv-x="613" 
d="M598 102l-21 -113c-10 -1 -22 -3 -32 -3c-46 0 -75 14 -97 42c-39 -25 -91 -42 -146 -42c-180 0 -240 157 -198 384s161 384 341 384c181 0 242 -157 200 -384c-20 -104 -57 -193 -104 -255c13 -15 33 -17 57 -13zM424 641h-1c-92 0 -160 -86 -194 -271
c-8 -41 -8 -70 -9 -88c26 12 59 24 99 24c28 0 52 -7 78 -23c23 -16 49 -41 69 -75c16 29 39 86 54 162c34 185 -2 271 -96 271zM323 99h1c25 0 49 5 74 23c-12 20 -24 39 -43 55c-19 15 -44 25 -79 25c-19 0 -39 -6 -56 -17c13 -51 45 -86 103 -86z" />
	<glyph glyph-name="R" unicode="R" horiz-adv-x="535" 
d="M65 0l137 740h172c107 0 161 -24 186 -57c34 -43 47 -100 33 -174c-7 -42 -22 -85 -48 -120c-34 -48 -74 -78 -120 -93l88 -296h-137l-96 364c14 0 22 0 34 1c36 1 69 10 97 32c32 27 48 64 55 101c8 40 6 80 -23 107c-20 18 -53 22 -94 22h-46l-116 -627h-122z" />
	<glyph glyph-name="S" unicode="S" horiz-adv-x="532" 
d="M76 222h121c-12 -92 23 -128 85 -128c65 0 115 42 128 110c15 83 -66 102 -138 130c-68 29 -150 71 -126 199c24 136 124 222 255 222c127 0 189 -63 183 -203h-118c6 54 -14 101 -79 101c-58 0 -102 -43 -113 -101c-15 -80 60 -97 140 -128c65 -28 148 -74 121 -217
c-25 -136 -141 -221 -274 -221c-148 0 -212 83 -185 236z" />
	<glyph glyph-name="T" unicode="T" horiz-adv-x="432" 
d="M155 0l116 627h-134l21 113h390l-21 -113h-134l-116 -627h-122z" />
	<glyph glyph-name="U" unicode="U" horiz-adv-x="589" 
d="M199 740h122l-96 -518c-7 -39 -7 -70 11 -92c14 -21 42 -29 77 -29s65 8 88 29c25 22 37 53 44 92l96 518h122l-99 -535c-12 -67 -38 -120 -83 -158c-44 -38 -108 -61 -190 -61c-83 0 -136 23 -166 61s-37 91 -25 158z" />
	<glyph glyph-name="V" unicode="V" horiz-adv-x="536" 
d="M213 0l-70 740h120l41 -558l247 558h116l-344 -740h-110z" />
	<glyph glyph-name="W" unicode="W" horiz-adv-x="814" 
d="M182 0l-41 740h123l16 -533l210 533h112l12 -533l211 533h122l-312 -740h-113l-13 553l-215 -553h-112z" />
	<glyph glyph-name="X" unicode="X" horiz-adv-x="520" 
d="M2 0l266 398l-101 342h125l62 -237l149 237h127l-229 -342l116 -398h-129l-74 287l-183 -287h-129z" />
	<glyph glyph-name="Y" unicode="Y" horiz-adv-x="480" 
d="M179 0l53 286l-99 454h126l56 -339l180 339h126l-267 -454l-53 -286h-122z" />
	<glyph glyph-name="Z" unicode="Z" horiz-adv-x="495" 
d="M569 630l-371 -517h279l-21 -113h-421l20 106l370 521h-260l21 113h403z" />
	<glyph glyph-name="bracketleft" unicode="[" horiz-adv-x="367" 
d="M290 -118l-16 -86h-241l175 944h241l-16 -86h-143l-143 -772h143z" />
	<glyph glyph-name="backslash" unicode="\" horiz-adv-x="278" 
d="M213 -33l-115 782h101l115 -782h-101z" />
	<glyph glyph-name="bracketright" unicode="]" horiz-adv-x="367" 
d="M17 -204l16 86h143l143 772h-143l16 86h242l-175 -944h-242z" />
	<glyph glyph-name="asciicircum" unicode="^" horiz-adv-x="576" 
d="M142 386l231 354h102l102 -354h-103l-68 255l-161 -255h-103z" />
	<glyph glyph-name="underscore" unicode="_" horiz-adv-x="500" 
d="M477 -125h-500l9 50h500z" />
	<glyph glyph-name="quoteleft" unicode="&#x2018;" horiz-adv-x="235" 
d="M270 740l37 -227h-99l-54 227h116z" />
	<glyph glyph-name="a" unicode="a" horiz-adv-x="496" 
d="M539 559l-104 -559h-99c6 30 10 52 15 73c-36 -56 -80 -85 -139 -85c-105 0 -163 100 -127 291c34 183 119 292 235 292c50 0 96 -22 107 -88c3 25 7 48 13 76h99zM193 279v-1c-23 -124 0 -183 60 -183c34 0 54 14 76 39c25 27 35 63 50 145c15 83 19 119 4 146
c-13 24 -28 38 -62 38c-60 0 -105 -58 -128 -184z" />
	<glyph glyph-name="b" unicode="b" horiz-adv-x="496" 
d="M61 0l137 740h108l-33 -181l-14 -73c24 49 68 85 129 85c116 0 161 -109 127 -291c-36 -192 -130 -292 -235 -292c-56 0 -93 26 -106 87l-14 -75h-99zM407 279v1c21 113 6 183 -59 183c-80 0 -110 -89 -127 -184c-18 -94 -21 -184 59 -184c65 0 106 71 127 184z" />
	<glyph glyph-name="c" unicode="c" horiz-adv-x="444" 
d="M352 204h112c-25 -114 -103 -216 -221 -216c-139 0 -195 117 -162 291c34 185 138 292 269 292c119 0 160 -101 140 -218h-112c12 84 -13 116 -55 116c-28 0 -54 -11 -76 -44c-23 -33 -40 -78 -52 -146c-25 -134 -2 -190 58 -190c50 0 83 49 99 115z" />
	<glyph glyph-name="d" unicode="d" horiz-adv-x="496" 
d="M572 740l-137 -740h-99c6 33 11 57 16 81c-26 -58 -81 -93 -140 -93c-105 0 -163 100 -127 291c34 183 119 292 235 292c50 0 86 -22 99 -81c3 22 7 44 12 69l33 181h108zM193 280v-1c-23 -125 0 -183 60 -183c34 0 54 14 76 38c25 28 35 63 50 146c15 82 19 118 4 145
c-13 25 -28 39 -62 39c-60 0 -105 -59 -128 -184z" />
	<glyph glyph-name="e" unicode="e" horiz-adv-x="491" 
d="M499 242h-301c-15 -78 -2 -153 70 -153c47 0 85 31 106 85h107c-24 -70 -62 -118 -103 -147c-42 -28 -88 -39 -128 -39c-149 0 -190 136 -161 291c30 166 127 292 268 292c71 0 118 -31 142 -85c30 -70 17 -160 0 -244zM215 335h193c11 64 4 146 -68 146
c-59 0 -108 -55 -125 -146z" />
	<glyph glyph-name="f" unicode="f" horiz-adv-x="267" 
d="M73 0l85 457h-56l19 102h56l5 30c29 155 162 164 221 164l-18 -94c-38 -1 -84 -10 -97 -81l-3 -19h82l-19 -102h-82l-85 -457h-108z" />
	<glyph glyph-name="g" unicode="g" horiz-adv-x="496" 
d="M539 559l-103 -551c-12 -68 -38 -117 -78 -152c-41 -37 -95 -56 -160 -56c-84 0 -171 50 -162 163h113c0 -20 5 -34 15 -44c13 -13 31 -18 54 -18c59 0 98 33 114 113l10 56c-26 -53 -69 -82 -130 -82c-123 0 -161 109 -127 291c34 183 112 292 235 292
c57 0 94 -21 113 -87c3 24 8 48 13 75h93zM193 279v-1c-23 -124 0 -183 60 -183c34 0 54 14 76 39c25 27 35 63 50 145c15 83 19 119 4 146c-13 24 -28 38 -62 38c-60 0 -105 -58 -128 -184z" />
	<glyph glyph-name="h" unicode="h" horiz-adv-x="499" 
d="M61 0l137 740h108l-32 -172c-4 -22 -8 -42 -13 -65c24 41 64 68 132 68c51 0 86 -17 105 -47c21 -31 24 -75 14 -132l-73 -392h-108l67 360c6 33 6 57 -3 76c-8 20 -30 27 -52 27c-21 0 -47 -4 -69 -26c-19 -17 -32 -41 -39 -82l-66 -355h-108z" />
	<glyph glyph-name="i" unicode="i" horiz-adv-x="254" 
d="M190 633l20 107h108l-20 -107h-108zM73 0l104 559h108l-104 -559h-108z" />
	<glyph glyph-name="j" unicode="j" horiz-adv-x="252" 
d="M189 633l20 107h108l-20 -107h-108zM284 559l-108 -580c-18 -100 -72 -169 -169 -175c-12 -1 -24 -1 -35 -1l20 103h8c43 5 61 35 71 89l105 564h108z" />
	<glyph glyph-name="k" unicode="k" horiz-adv-x="425" 
d="M55 0l137 740h108l-77 -415l180 234h122l-209 -251l112 -308h-117l-99 266l-49 -266h-108z" />
	<glyph glyph-name="l" unicode="l" horiz-adv-x="254" 
d="M73 0l137 740h108l-137 -740h-108z" />
	<glyph glyph-name="m" unicode="m" horiz-adv-x="769" 
d="M65 0l104 559h103c-5 -25 -9 -49 -15 -75c34 67 84 87 140 87c35 0 62 -9 81 -30c10 -11 17 -28 20 -47c12 21 29 37 49 50c29 17 65 27 101 27c61 0 98 -26 117 -61c18 -33 19 -83 10 -132l-70 -378h-108l67 362c6 30 7 54 0 70c-7 21 -26 31 -54 31
c-24 0 -47 -4 -68 -24c-19 -18 -30 -45 -35 -74l-68 -365h-108l67 361c6 31 7 53 0 71c-6 21 -26 31 -53 31c-25 0 -48 -5 -67 -23c-20 -19 -31 -46 -37 -76l-67 -364h-109z" />
	<glyph glyph-name="n" unicode="n" horiz-adv-x="499" 
d="M61 0l104 559h95c-5 -23 -9 -45 -14 -69c34 54 81 81 148 81c92 0 141 -51 119 -173l-74 -398h-108l67 363c9 45 10 100 -56 100c-52 0 -93 -32 -107 -105l-66 -358h-108z" />
	<glyph glyph-name="o" unicode="o" horiz-adv-x="497" 
d="M85 279v1c30 160 122 291 270 291c147 0 191 -131 161 -292c-30 -160 -122 -291 -269 -291c-148 0 -192 131 -162 291zM199 279v-1c-26 -137 1 -189 67 -189c63 0 110 52 136 190c25 139 -2 190 -68 190c-63 0 -110 -51 -135 -190z" />
	<glyph glyph-name="p" unicode="p" horiz-adv-x="496" 
d="M26 -188l139 747h99l-14 -73c31 53 76 85 138 85c105 0 162 -100 127 -292c-34 -182 -119 -291 -235 -291c-53 0 -89 30 -99 76l-12 -64l-35 -188h-108zM407 279v1c23 125 1 183 -60 183c-31 0 -52 -14 -73 -38c-25 -27 -38 -63 -53 -146c-15 -82 -16 -118 -1 -145
c12 -25 28 -39 59 -39c61 0 105 59 128 184z" />
	<glyph glyph-name="q" unicode="q" horiz-adv-x="496" 
d="M539 559l-139 -747h-108l35 188c5 28 9 49 14 69c-32 -55 -76 -81 -129 -81c-116 0 -161 109 -127 291c35 192 130 292 235 292c57 0 100 -31 104 -85c3 23 8 46 13 73h102zM193 279v-1c-23 -124 0 -183 60 -183c34 0 54 14 76 39c25 27 35 63 50 145c15 83 19 119 4 146
c-13 24 -28 38 -62 38c-60 0 -105 -58 -128 -184z" />
	<glyph glyph-name="r" unicode="r" horiz-adv-x="312" 
d="M61 0l104 559h99c-7 -34 -12 -62 -18 -90c39 85 100 102 164 102l-24 -131c-14 10 -29 13 -44 13c-49 0 -98 -48 -114 -137l-59 -316h-108z" />
	<glyph glyph-name="s" unicode="s" horiz-adv-x="428" 
d="M459 401h-108c9 53 -12 76 -57 76c-37 0 -64 -24 -70 -58c-10 -54 47 -64 108 -84c58 -20 119 -57 98 -170c-20 -103 -112 -177 -219 -177c-105 0 -173 59 -159 185h108c-8 -54 21 -87 71 -87s76 34 83 72c11 56 -45 69 -108 91c-62 22 -117 59 -97 166
c17 91 94 156 207 156s157 -63 143 -170z" />
	<glyph glyph-name="t" unicode="t" horiz-adv-x="267" 
d="M80 0l85 457h-67l19 102h67l24 133h108l-24 -133h66l-19 -102h-66l-85 -457h-108z" />
	<glyph glyph-name="u" unicode="u" horiz-adv-x="499" 
d="M542 559l-104 -559h-99c4 24 9 48 15 74c-31 -59 -78 -86 -146 -86c-91 0 -141 51 -118 173l74 398h108l-68 -363c-8 -45 -9 -101 57 -101c51 0 93 33 106 106l67 358h108z" />
	<glyph glyph-name="v" unicode="v" horiz-adv-x="424" 
d="M524 559l-256 -559h-100l-61 559h110l29 -399l169 399h109z" />
	<glyph glyph-name="w" unicode="w" horiz-adv-x="649" 
d="M140 0l-34 559h111l7 -395l156 376h91l19 -376l150 395h111l-241 -559h-102l-12 377l-151 -377h-105z" />
	<glyph glyph-name="x" unicode="x" horiz-adv-x="455" 
d="M4 0l210 289l-94 270h127l47 -190l122 190h123l-193 -270l105 -289h-128l-58 208l-133 -208h-128z" />
	<glyph glyph-name="y" unicode="y" horiz-adv-x="426" 
d="M55 -188l109 214l-56 533h113l28 -369l165 369h113l-362 -747h-110z" />
	<glyph glyph-name="z" unicode="z" horiz-adv-x="426" 
d="M25 0l19 101l295 356h-210l19 102h338l-19 -102l-291 -355h229l-19 -102h-361z" />
	<glyph glyph-name="braceleft" unicode="{" horiz-adv-x="367" 
d="M436 740l-16 -85h-52c-43 0 -62 -19 -73 -77l-36 -196c-18 -88 -91 -118 -107 -126c37 -8 77 -31 60 -124l-36 -195c-11 -60 2 -77 45 -77h52l-16 -85h-89c-85 0 -110 53 -95 134l39 209c10 54 -5 89 -44 97l15 83c38 2 70 42 80 98l39 210c15 81 60 134 145 134h89z" />
	<glyph glyph-name="bar" unicode="|" horiz-adv-x="428" 
d="M237 863h95v-1150h-95v1150z" />
	<glyph glyph-name="braceright" unicode="}" horiz-adv-x="367" 
d="M189 655l16 85h89c86 0 110 -53 95 -135l-38 -208c-10 -54 4 -90 44 -98l-15 -82c-38 -3 -71 -42 -81 -99l-39 -210c-15 -80 -59 -133 -145 -133h-89l16 85h52c44 0 62 18 73 76l36 196c18 88 92 119 108 127c-38 8 -77 31 -61 123l36 196c11 60 -2 77 -45 77h-52z" />
	<glyph glyph-name="asciitilde" unicode="~" horiz-adv-x="576" 
d="M531 333l16 -83c-31 -40 -72 -78 -127 -78c-33 0 -67 15 -100 30c-32 14 -62 29 -86 29c-36 1 -65 -21 -95 -59l-18 83c33 40 76 79 133 78c35 0 69 -16 100 -30c32 -15 62 -30 87 -30c36 0 64 28 90 60z" />
	<glyph glyph-name="exclamdown" unicode="&#xa1;" horiz-adv-x="267" 
d="M153 424l25 135h119l-25 -135h-119zM39 -187l102 550h119l-102 -550h-119z" />
	<glyph glyph-name="cent" unicode="&#xa2;" 
d="M321 -12h-95l18 99c-136 6 -137 178 -119 276c34 181 107 272 224 288l18 98h95l-18 -98c110 -10 127 -110 113 -212h-115c5 62 -6 110 -63 110c-64 0 -106 -49 -131 -180c-24 -129 2 -180 67 -180c52 0 88 51 103 109h114c-23 -111 -85 -203 -193 -211z" />
	<glyph glyph-name="sterling" unicode="&#xa3;" 
d="M444 436l-20 -108h-127c18 -29 33 -62 25 -109c-9 -45 -25 -71 -46 -100h32c38 0 68 9 89 25c21 17 33 42 39 74c3 16 5 29 6 41h120c-1 -18 -2 -35 -7 -61c-12 -64 -43 -113 -85 -147c-43 -33 -96 -51 -152 -51h-282l22 119h97c23 27 37 62 43 99c8 42 -7 76 -23 110
h-100l20 108h52c-9 28 -11 63 -3 104c23 125 125 212 261 212c125 0 197 -84 180 -215h-123c2 57 -38 94 -86 94c-57 -1 -103 -43 -115 -102c-6 -33 -2 -65 11 -93h172z" />
	<glyph glyph-name="fraction" unicode="&#x2044;" horiz-adv-x="146" 
d="M-164 -9l527 758h85l-528 -758h-84z" />
	<glyph glyph-name="yen" unicode="&#xa5;" 
d="M598 481l-20 -108h-165l-21 -32l-6 -32h180l-20 -108h-180l-37 -201h-115l37 201h-180l20 108h180l6 32l-9 32h-165l20 108h115l-76 259h128l64 -297l172 297h128l-171 -259h115z" />
	<glyph glyph-name="florin" unicode="&#x192;" 
d="M431 463h145l-18 -95h-148l-89 -290c-24 -87 -44 -156 -89 -204c-43 -47 -105 -71 -178 -71c-35 0 -63 7 -92 14l44 110c19 -6 38 -11 65 -11c72 0 103 52 124 129l96 323h-140l18 95h142c26 98 63 181 115 228c45 42 99 61 159 61c31 0 61 -5 89 -13l-44 -109
c-16 4 -32 10 -50 10c-37 -1 -63 -10 -86 -33c-28 -29 -48 -81 -63 -144z" />
	<glyph glyph-name="section" unicode="&#xa7;" horiz-adv-x="500" 
d="M513 609h-78c3 50 -18 69 -50 69c-40 0 -63 -21 -70 -55c-4 -26 7 -55 38 -85l102 -112c31 -34 57 -76 47 -128c-10 -54 -58 -110 -117 -128c22 -31 33 -72 25 -118c-14 -75 -83 -137 -175 -137c-77 0 -137 43 -125 156h77c-6 -48 14 -81 58 -81c37 0 64 26 71 63
c7 34 -18 73 -58 117l-93 106c-35 36 -46 79 -38 122c11 63 61 107 123 121c-22 31 -35 63 -28 101c14 76 73 134 179 134c77 0 125 -39 112 -145zM407 286v1c5 27 -15 57 -46 90l-85 94c-28 -12 -51 -36 -57 -64c-3 -20 4 -48 35 -78l98 -108c27 13 50 36 55 65z" />
	<glyph glyph-name="currency" unicode="&#xa4;" 
d="M491 90l-70 86c-27 -19 -73 -33 -123 -33s-93 15 -111 33l-102 -86l-57 69l102 86c-15 22 -22 68 -13 118c10 50 34 96 56 118l-70 87l83 68l70 -86c26 20 74 34 123 34c51 0 94 -14 111 -33l102 85l58 -68l-103 -87c16 -22 22 -67 12 -118c-9 -50 -32 -96 -57 -118
l71 -86zM220 363v-1c-12 -64 32 -118 96 -118s129 53 141 119c13 66 -30 120 -96 120c-65 0 -128 -54 -141 -120z" />
	<glyph glyph-name="quotesingle" unicode="'" horiz-adv-x="222" 
d="M246 452h-102l53 288h102z" />
	<glyph glyph-name="quotedblleft" unicode="&#x201c;" horiz-adv-x="426" 
d="M284 740l37 -227h-99l-54 227h116zM446 740l37 -227h-99l-54 227h116z" />
	<glyph glyph-name="guillemotleft" unicode="&#xab;" horiz-adv-x="421" 
d="M81 282l137 185h97l-137 -185l68 -184h-97zM246 282l137 185h96l-137 -185l68 -184h-96z" />
	<glyph glyph-name="guilsinglleft" unicode="&#x2039;" horiz-adv-x="271" 
d="M88 282l137 185h97l-137 -185l68 -184h-97z" />
	<glyph glyph-name="guilsinglright" unicode="&#x203a;" horiz-adv-x="271" 
d="M219 467l67 -185l-136 -184h-96l136 184l-67 185h96z" />
	<glyph glyph-name="fi" unicode="&#xfb01;" horiz-adv-x="507" 
d="M412 457h-139l-85 -457h-108l85 457h-55l19 102h55l5 30c29 155 162 164 221 164l-18 -94c-38 -1 -84 -10 -97 -81l-3 -19h248l-104 -559h-109zM553 633h-109l20 107h109z" />
	<glyph glyph-name="fl" unicode="&#xfb02;" horiz-adv-x="507" 
d="M412 457h-139l-85 -457h-108l85 457h-55l19 102h55l5 30c29 155 162 164 221 164l-18 -94c-38 -1 -84 -10 -97 -81l-3 -19h139l33 181h109l-137 -740h-109z" />
	<glyph glyph-name="endash" unicode="&#x2013;" horiz-adv-x="500" 
d="M71 336h482l-19 -106h-482z" />
	<glyph glyph-name="dagger" unicode="&#x2020;" horiz-adv-x="500" 
d="M440 740l-34 -182h145l-19 -103h-145l-103 -555h-107l103 555h-144l19 103h144l34 182h107z" />
	<glyph glyph-name="daggerdbl" unicode="&#x2021;" horiz-adv-x="500" 
d="M441 740l-32 -175h144l-19 -103h-144l-53 -284h144l-19 -103h-144l-33 -175h-107l33 175h-145l19 103h145l53 284h-145l19 103h145l32 175h107z" />
	<glyph glyph-name="periodcentered" unicode="&#xb7;" horiz-adv-x="270" 
d="M258 324l-26 -141h-126l26 141h126z" />
	<glyph glyph-name="paragraph" unicode="&#xb6;" horiz-adv-x="591" 
d="M232 -79l84 450c-136 0 -210 58 -187 184s120 185 257 185h317l-14 -75h-46l-138 -744h-101l138 744h-71l-138 -744h-101z" />
	<glyph glyph-name="bullet" unicode="&#x2022;" horiz-adv-x="470" 
d="M332 522h1c88 0 145 -70 128 -157c-15 -87 -99 -158 -188 -158s-145 71 -128 158c15 87 98 157 187 157z" />
	<glyph glyph-name="quotesinglbase" unicode="&#x201a;" horiz-adv-x="235" 
d="M5 -95l122 227h115l-138 -227h-99z" />
	<glyph glyph-name="quotedblbase" unicode="&#x201e;" horiz-adv-x="426" 
d="M20 -95l121 227h116l-138 -227h-99zM182 -95l121 227h116l-138 -227h-99z" />
	<glyph glyph-name="quotedblright" unicode="&#x201d;" horiz-adv-x="426" 
d="M133 513l121 227h116l-138 -227h-99zM295 513l121 227h116l-138 -227h-99z" />
	<glyph glyph-name="guillemotright" unicode="&#xbb;" horiz-adv-x="421" 
d="M377 467l67 -185l-136 -184h-96l136 184l-67 185h96zM212 467l67 -185l-136 -184h-96l136 184l-67 185h96z" />
	<glyph glyph-name="ellipsis" unicode="&#x2026;" horiz-adv-x="1000" 
d="M113 0l24 132h108l-24 -132h-108zM446 0l24 132h108l-24 -132h-108zM779 0l24 132h108l-24 -132h-108z" />
	<glyph glyph-name="perthousand" unicode="&#x2030;" horiz-adv-x="1023" 
d="M129 576v1c21 116 100 175 185 175s142 -59 121 -176c-22 -118 -101 -177 -186 -177s-142 59 -120 177zM204 576v-1c-13 -67 11 -103 58 -103s85 36 98 104c12 67 -12 104 -59 104s-85 -37 -97 -104zM386 164l1 1c21 117 100 176 185 176s142 -59 120 -177
c-21 -117 -100 -176 -185 -176s-142 59 -121 176zM461 164v-1c-12 -66 12 -103 59 -103s85 37 97 104c13 68 -11 104 -58 104s-85 -36 -98 -104zM725 164l1 1c21 117 100 176 185 176s142 -59 120 -177c-21 -117 -100 -176 -185 -176s-142 59 -121 176zM799 164v-1
c-12 -66 13 -103 60 -103c46 0 85 37 97 104c13 68 -12 104 -58 104c-47 0 -86 -36 -99 -104zM722 749l-530 -758h-94l530 758h94z" />
	<glyph glyph-name="questiondown" unicode="&#xbf;" horiz-adv-x="491" 
d="M281 424l25 135h119l-25 -135h-119zM270 367h119c-15 -76 -16 -143 -82 -207c-56 -57 -130 -91 -141 -151c-10 -54 17 -89 71 -89c42 0 87 25 103 90l5 26h122l-7 -34c-29 -133 -132 -195 -249 -195c-114 0 -194 82 -170 207c15 83 71 131 124 173c89 71 87 84 105 180z
" />
	<glyph glyph-name="grave" unicode="`" horiz-adv-x="332" 
d="M189 794l202 -125l-51 -71l-209 109z" />
	<glyph glyph-name="acute" unicode="&#xb4;" horiz-adv-x="332" 
d="M189 669l248 125l26 -87l-249 -109z" />
	<glyph glyph-name="circumflex" unicode="&#x2c6;" horiz-adv-x="332" 
d="M359 761l97 -138h-97l-62 84l-94 -84h-98l150 138h104z" />
	<glyph glyph-name="tilde" unicode="&#x2dc;" horiz-adv-x="332" 
d="M451 744l30 -68c-25 -21 -64 -41 -105 -41c-36 0 -63 5 -89 13c-21 8 -47 14 -74 14c-32 0 -55 -11 -77 -28l-30 67c24 22 67 43 105 43c37 0 64 -5 90 -13c22 -8 47 -14 75 -14c29 0 51 8 75 27z" />
	<glyph glyph-name="macron" unicode="&#xaf;" horiz-adv-x="332" 
d="M470 721l-14 -72h-340l14 72h340z" />
	<glyph glyph-name="breve" unicode="&#x2d8;" horiz-adv-x="332" 
d="M136 756h75c2 -49 33 -66 85 -66c55 0 87 20 105 66h76c-29 -86 -97 -136 -201 -136c-84 0 -144 44 -140 136z" />
	<glyph glyph-name="dotaccent" unicode="&#x2d9;" horiz-adv-x="270" 
d="M324 744l-21 -113h-102l21 113h102z" />
	<glyph glyph-name="dieresis" unicode="&#xa8;" horiz-adv-x="271" 
d="M236 744l-21 -113h-102l21 113h102zM414 744l-21 -113h-103l21 113h103z" />
	<glyph glyph-name="ring" unicode="&#x2da;" horiz-adv-x="271" 
d="M287 821h1c60 0 99 -49 88 -108s-68 -109 -129 -109c-60 0 -99 50 -88 109s68 108 128 108zM277 766h-1c-29 0 -56 -23 -62 -53c-5 -30 13 -53 43 -53c31 0 59 23 64 53c6 30 -13 53 -44 53z" />
	<glyph glyph-name="cedilla" unicode="&#xb8;" horiz-adv-x="254" 
d="M155 0l-51 -64c10 2 20 5 30 5c47 0 80 -28 71 -74c-10 -58 -72 -93 -125 -93c-34 0 -74 8 -99 35l29 38c12 -14 47 -23 68 -23c27 0 51 18 56 40c3 21 -14 38 -36 38c-16 0 -31 -6 -46 -12l-20 15l75 95h48z" />
	<glyph glyph-name="hungarumlaut" unicode="&#x2dd;" horiz-adv-x="332" 
d="M140 657l175 135l53 -64l-185 -127zM339 657l176 135l52 -64l-185 -127z" />
	<glyph glyph-name="ogonek" unicode="&#x2db;" horiz-adv-x="254" 
d="M143 11l73 8c-43 -30 -82 -61 -88 -96c-6 -30 11 -54 40 -54c17 0 35 5 55 12l-12 -64c-19 -11 -51 -23 -86 -23c-65 0 -96 44 -86 97c8 43 40 76 104 120z" />
	<glyph glyph-name="caron" unicode="&#x2c7;" horiz-adv-x="332" 
d="M132 758h97l62 -84l92 84h97l-147 -137h-104z" />
	<glyph glyph-name="emdash" unicode="&#x2014;" horiz-adv-x="1000" 
d="M71 336h982l-19 -106h-982z" />
	<glyph glyph-name="AE" unicode="&#xc6;" horiz-adv-x="862" 
d="M-11 0l498 740h436l-21 -113h-260l-34 -187h260l-21 -112h-260l-40 -215h260l-21 -113h-382l31 169h-199l-108 -169h-139zM305 282h151l64 345z" />
	<glyph glyph-name="ordfeminine" unicode="&#xaa;" horiz-adv-x="300" 
d="M414 747l-62 -336h-73c4 18 6 32 10 45c-23 -35 -52 -52 -90 -52c-68 0 -107 60 -86 174c21 111 76 176 151 176c33 0 62 -13 70 -55c2 17 4 31 7 48h73zM192 578v-1c-12 -63 1 -101 36 -101c33 0 56 25 65 64c3 13 7 27 9 40c3 13 4 26 6 39c4 38 -10 62 -43 62
s-60 -36 -73 -103z" />
	<glyph glyph-name="Lslash" unicode="&#x141;" horiz-adv-x="426" 
d="M38 201l22 118l78 48l69 373h122l-53 -289l152 94l-22 -118l-152 -94l-41 -220h211l-21 -113h-333l46 249z" />
	<glyph glyph-name="Oslash" unicode="&#xd8;" horiz-adv-x="612" 
d="M613 672l87 93h97l-153 -162c18 -62 17 -142 1 -233c-40 -216 -156 -384 -343 -384c-74 0 -128 28 -162 77l-84 -88h-97l147 158c-20 63 -20 144 -2 237c42 227 161 384 341 384c77 0 133 -29 168 -82zM219 251l300 320c-14 48 -48 70 -95 70c-93 0 -161 -83 -195 -271
c-9 -44 -12 -86 -10 -119zM528 482l-297 -320c14 -42 47 -63 92 -63c94 0 162 83 197 271c8 45 12 87 8 112z" />
	<glyph glyph-name="OE" unicode="&#x152;" horiz-adv-x="900" 
d="M699 627l-34 -187h252l-21 -112h-252l-40 -215h252l-21 -113h-358l9 48c4 17 7 34 10 50c-53 -82 -123 -112 -197 -112c-156 0 -242 134 -195 384c46 250 182 384 338 384c74 0 133 -32 155 -110c4 17 6 33 9 50l8 46h358l-21 -113h-252zM227 364v-1
c-32 -176 20 -263 104 -263c87 0 160 61 197 264c40 215 -10 276 -99 276c-82 0 -167 -87 -202 -276z" />
	<glyph glyph-name="ordmasculine" unicode="&#xba;" horiz-adv-x="300" 
d="M116 578v1c18 96 78 175 175 175c96 0 125 -79 107 -176c-18 -96 -76 -175 -172 -175c-97 0 -128 79 -110 175zM197 578v-1c-14 -77 4 -107 41 -107s65 30 79 108c15 81 -1 109 -42 109c-38 0 -63 -28 -78 -109z" />
	<glyph glyph-name="ae" unicode="&#xe6;" horiz-adv-x="786" 
d="M805 250h-319c-14 -78 -9 -161 74 -161c52 0 97 31 118 85h108c-33 -107 -116 -186 -225 -186c-56 0 -98 25 -114 82l-12 -70h-99l14 70c-33 -56 -79 -82 -140 -82c-114 0 -172 100 -136 291c34 183 120 292 246 292c58 0 94 -22 107 -84l13 72h99l-15 -72
c42 61 84 84 146 84c61 0 104 -27 128 -73c38 -72 23 -163 7 -248zM182 279v-1c-23 -124 10 -183 68 -183c90 0 116 89 134 184c14 78 18 118 1 147c-13 24 -35 37 -67 37c-58 0 -113 -58 -136 -184zM501 329h211c15 87 0 152 -82 152c-39 0 -69 -20 -89 -49
s-33 -67 -40 -103z" />
	<glyph glyph-name="dotlessi" unicode="&#x131;" horiz-adv-x="254" 
d="M73 0l104 559h108l-104 -559h-108z" />
	<glyph glyph-name="lslash" unicode="&#x142;" horiz-adv-x="254" 
d="M135 333l-89 -63l17 91l88 62l59 317h108l-42 -229l88 63l-16 -90l-89 -63l-78 -421h-108z" />
	<glyph glyph-name="oslash" unicode="&#xf8;" horiz-adv-x="497" 
d="M524 580h89l-104 -116c19 -50 20 -114 7 -185c-30 -160 -122 -291 -269 -291c-53 0 -92 18 -117 48l-54 -57h-89l105 117c-19 49 -20 113 -7 183c30 161 122 292 270 292c52 0 91 -17 116 -47zM192 208l201 226c-9 23 -30 35 -59 35c-63 0 -113 -59 -137 -190
c-5 -23 -6 -48 -5 -71zM409 352l-203 -226c11 -25 30 -37 60 -37c63 0 114 60 138 190c4 24 6 50 5 73z" />
	<glyph glyph-name="oe" unicode="&#x153;" horiz-adv-x="795" 
d="M813 250h-308c-14 -79 -15 -161 70 -161c49 0 90 31 112 85h108c-24 -71 -62 -118 -104 -147c-42 -28 -87 -39 -127 -39c-85 0 -129 44 -145 110c-40 -74 -99 -110 -183 -110c-139 0 -183 131 -153 291c30 161 122 292 266 292c84 0 126 -38 140 -104
c41 67 103 104 186 104c73 0 116 -34 137 -84c31 -70 16 -157 1 -237zM197 279v-1c-26 -137 1 -189 67 -189s113 52 139 190c25 139 -2 190 -71 190c-63 0 -110 -51 -135 -190zM520 329h200c14 80 5 152 -72 152c-78 0 -114 -81 -128 -152z" />
	<glyph glyph-name="germandbls" unicode="&#xdf;" horiz-adv-x="536" 
d="M62 0l98 531c16 86 42 133 82 166c42 37 100 56 171 56c120 0 173 -78 153 -184c-18 -99 -68 -157 -142 -179c97 -16 131 -90 113 -184c-24 -133 -109 -218 -237 -218c-64 0 -120 23 -127 95l-14 -83h-97zM267 520l-57 -312h41c-13 -75 15 -119 62 -119
c50 0 97 44 109 110c7 40 5 73 -14 96c-16 15 -35 29 -73 30c-21 2 -32 2 -45 2l18 100c6 0 10 0 22 1c68 3 106 50 119 124c11 59 -14 99 -72 99c-29 0 -53 -11 -71 -29c-19 -20 -28 -47 -39 -102z" />
	<glyph glyph-name="onesuperior" unicode="&#xb9;" horiz-adv-x="313" 
d="M348 740l-81 -436h-87l67 362h-71l14 74h158z" />
	<glyph glyph-name="logicalnot" unicode="&#xac;" horiz-adv-x="576" 
d="M118 409h492l-58 -313h-99l39 214h-393z" />
	<glyph glyph-name="mu" unicode="&#xb5;" horiz-adv-x="500" 
d="M28 -180l137 739h108l-67 -360c-7 -37 -6 -61 2 -80c10 -18 31 -24 49 -24c21 0 47 4 72 27c19 19 33 43 41 90l65 347h108l-104 -559h-99c5 27 10 53 16 80c-21 -48 -73 -92 -142 -92c-19 0 -38 6 -43 22l-11 -59l-24 -131h-108z" />
	<glyph glyph-name="trademark" unicode="&#x2122;" horiz-adv-x="978" 
d="M467 310l80 430h132l68 -284l173 284h130l-80 -430h-91l58 309l-182 -309h-73l-65 308l-58 -308h-92zM198 310l66 352h-118l14 78h336l-14 -78h-118l-66 -352h-100z" />
	<glyph glyph-name="Eth" unicode="&#xd0;" horiz-adv-x="600" 
d="M144 434l57 306h196c106 0 177 -35 215 -108c33 -64 40 -155 21 -262c-44 -233 -183 -370 -369 -370h-200l59 321h-67l21 113h67zM302 627l-36 -193h134l-21 -113h-134l-38 -208h76c122 0 194 91 225 257c15 83 14 147 -6 190c-20 44 -59 67 -128 67h-72z" />
	<glyph glyph-name="onehalf" unicode="&#xbd;" horiz-adv-x="801" 
d="M366 740l-81 -436h-87l67 362h-71l14 74h158zM736 749l-499 -758h-94l499 758h94zM774 82l-15 -82h-290l14 76c84 66 141 112 183 148c43 37 52 53 58 81c6 35 -6 61 -41 61c-31 0 -62 -21 -72 -73h-87c7 36 19 65 37 88c34 43 83 63 137 63c88 0 134 -56 118 -141
c-9 -47 -31 -79 -73 -114c-36 -32 -92 -72 -137 -107h168z" />
	<glyph glyph-name="plusminus" unicode="&#xb1;" horiz-adv-x="576" 
d="M307 370l25 136h99l-25 -136h197l-19 -99h-197l-25 -136h-99l25 136h-196l19 99h196zM42 0l18 99h492l-18 -99h-492z" />
	<glyph glyph-name="Thorn" unicode="&#xde;" horiz-adv-x="534" 
d="M70 0l137 740h122l-24 -131h61c76 0 131 -18 167 -57c36 -38 52 -99 38 -173c-13 -74 -52 -135 -102 -173c-51 -39 -113 -57 -188 -57h-61l-28 -149h-122zM284 496l-43 -234h60c44 0 72 7 98 27c22 18 39 51 46 90c8 40 3 72 -14 90c-17 20 -43 27 -87 27h-60z" />
	<glyph glyph-name="onequarter" unicode="&#xbc;" horiz-adv-x="789" 
d="M788 436l-52 -278h43l-14 -75h-43l-15 -83h-83l15 83h-179l14 71l228 282h86zM683 320l-126 -162h96zM366 740l-81 -436h-87l67 362h-71l14 74h158zM757 749l-499 -758h-93l498 758h94z" />
	<glyph glyph-name="divide" unicode="&#xf7;" horiz-adv-x="576" 
d="M453 548l-27 -141h-127l27 141h127zM80 203l18 99h492l-18 -99h-492zM369 98l-26 -141h-127l26 141h127z" />
	<glyph glyph-name="brokenbar" unicode="&#xa6;" horiz-adv-x="428" 
d="M237 777h94v-403h-94v403zM237 201h94v-401h-94v401z" />
	<glyph glyph-name="degree" unicode="&#xb0;" horiz-adv-x="400" 
d="M457 595v-1c-15 -82 -92 -146 -174 -146s-135 64 -120 147c15 82 93 147 175 147s134 -65 119 -147zM217 595v-1c-10 -53 21 -95 75 -95s101 42 111 96c10 53 -21 96 -75 96s-101 -43 -111 -96z" />
	<glyph glyph-name="thorn" unicode="&#xfe;" horiz-adv-x="496" 
d="M26 -188l172 928h109l-32 -174c-4 -23 -9 -43 -13 -63c19 36 64 68 126 68c105 0 162 -100 127 -292c-34 -182 -119 -291 -235 -291c-53 0 -89 30 -100 75c-4 -20 -7 -42 -13 -72l-33 -179h-108zM407 279v1c23 125 1 183 -60 183c-31 0 -52 -14 -73 -38
c-25 -27 -38 -63 -53 -146c-15 -82 -16 -118 -1 -145c12 -25 28 -39 59 -39c61 0 105 59 128 184z" />
	<glyph glyph-name="threequarters" unicode="&#xbe;" horiz-adv-x="814" 
d="M812 436l-52 -278h43l-14 -75h-43l-15 -83h-83l15 83h-179l14 71l229 282h85zM707 320l-126 -162h96zM114 440h86c-9 -47 15 -70 52 -70c43 0 68 27 74 64c8 43 -11 73 -61 73h-34l12 67h30c45 0 62 25 67 51s-5 49 -36 49c-33 0 -53 -21 -59 -53h-86
c17 84 84 127 163 127c78 0 122 -45 110 -113c-9 -49 -38 -73 -75 -89c47 -8 71 -51 59 -114c-14 -76 -84 -136 -173 -136c-60 0 -102 21 -120 59c-13 23 -16 51 -9 85zM796 749l-499 -758h-94l499 758h94z" />
	<glyph glyph-name="twosuperior" unicode="&#xb2;" horiz-adv-x="337" 
d="M382 385l-15 -81h-290l14 76c84 66 140 111 182 147c45 38 54 54 59 82c6 34 -6 60 -42 60c-30 0 -61 -21 -70 -72h-87c6 36 19 65 36 88c34 43 84 63 138 63c88 0 133 -57 117 -141c-8 -48 -31 -79 -73 -115c-37 -32 -92 -71 -137 -107h168z" />
	<glyph glyph-name="registered" unicode="&#xae;" horiz-adv-x="800" 
d="M542 753h1c213 0 347 -175 309 -383c-40 -213 -243 -383 -453 -383c-212 0 -352 170 -312 383c38 207 236 383 455 383zM530 689h-1c-178 0 -340 -145 -372 -319c-33 -177 80 -319 253 -319c172 0 338 140 372 319c31 172 -75 319 -252 319zM346 587h181
c68 0 150 -25 133 -119c-8 -40 -32 -80 -93 -105c36 -13 54 -39 47 -99c-10 -78 -11 -86 -7 -107h-85c-5 14 2 71 6 102c2 33 3 71 -77 71h-66l-32 -173h-87zM501 526h-80l-25 -137h72c25 1 90 0 104 73c11 63 -47 64 -71 64z" />
	<glyph glyph-name="minus" unicode="&#x2212;" horiz-adv-x="576" 
d="M80 203l18 99h492l-18 -99h-492z" />
	<glyph glyph-name="eth" unicode="&#xf0;" horiz-adv-x="498" 
d="M344 585l-177 -65l16 87l118 43c-15 22 -41 45 -73 64l108 37c24 -18 44 -34 69 -64l172 64l-16 -87l-112 -41c26 -35 51 -73 65 -136c15 -65 17 -127 4 -196c-35 -190 -127 -303 -279 -303c-145 0 -187 113 -159 263c28 151 119 264 234 264c32 0 61 -8 83 -42
c-2 18 -8 35 -17 56c-10 22 -23 44 -36 56zM188 251l-1 -1c-20 -112 7 -161 70 -161c72 0 120 56 140 165c18 96 0 159 -75 159c-67 0 -113 -48 -134 -162z" />
	<glyph glyph-name="multiply" unicode="&#xd7;" horiz-adv-x="576" 
d="M112 0l-57 72l210 181l-143 179l83 72l143 -182l208 182l58 -72l-209 -179l142 -181l-84 -72l-141 183z" />
	<glyph glyph-name="threesuperior" unicode="&#xb3;" horiz-adv-x="337" 
d="M100 440h85c-8 -47 16 -70 53 -70c42 0 67 27 73 64c8 43 -11 73 -61 73h-34l12 67h30c45 0 63 25 68 51s-5 49 -37 49s-53 -21 -59 -53h-86c17 84 84 127 163 127c78 0 123 -45 111 -113c-9 -49 -38 -73 -76 -89c47 -8 71 -51 59 -114c-14 -76 -84 -136 -173 -136
c-60 0 -102 21 -120 59c-12 23 -15 51 -8 85z" />
	<glyph glyph-name="copyright" unicode="&#xa9;" horiz-adv-x="800" 
d="M542 753h1c213 0 347 -175 309 -383c-40 -213 -243 -383 -453 -383c-212 0 -352 170 -312 383c38 207 236 383 455 383zM530 689h-1c-178 0 -340 -145 -372 -319c-33 -177 80 -319 253 -319c172 0 338 140 372 319c31 172 -75 319 -252 319zM671 432h-75
c1 58 -44 77 -90 77c-68 0 -126 -48 -143 -142c-18 -99 28 -142 91 -142c42 0 103 16 122 88h78c-32 -108 -124 -165 -215 -165c-119 0 -191 88 -167 219c23 125 124 220 249 220c92 0 155 -56 150 -155z" />
	<glyph glyph-name="Aacute" unicode="&#xc1;" horiz-adv-x="533" 
d="M203 171l-78 -171h-124l342 740h115l74 -740h-124l-15 171h-190zM381 283l-11 286l-117 -286h128zM322 834l247 125l26 -87l-249 -109z" />
	<glyph glyph-name="Acircumflex" unicode="&#xc2;" horiz-adv-x="533" 
d="M203 171l-78 -171h-124l342 740h115l74 -740h-124l-15 171h-190zM381 283l-11 286l-117 -286h128zM490 926l98 -138h-98l-62 84l-94 -84h-97l149 138h104z" />
	<glyph glyph-name="Adieresis" unicode="&#xc4;" horiz-adv-x="533" 
d="M203 171l-78 -171h-124l342 740h115l74 -740h-124l-15 171h-190zM381 283l-11 286l-117 -286h128zM397 909l-20 -113h-103l20 113h103zM574 909l-20 -113h-102l20 113h102z" />
	<glyph glyph-name="Agrave" unicode="&#xc0;" horiz-adv-x="533" 
d="M203 171l-78 -171h-124l342 740h115l74 -740h-124l-15 171h-190zM381 283l-11 286l-117 -286h128zM319 959l202 -125l-52 -71l-208 109z" />
	<glyph glyph-name="Aring" unicode="&#xc5;" horiz-adv-x="533" 
d="M203 171l-78 -171h-124l342 740h115l74 -740h-124l-15 171h-190zM381 283l-11 286l-117 -286h128zM449 987h1c60 0 99 -49 88 -108s-68 -108 -129 -108s-99 49 -88 108s68 108 128 108zM439 933h-1c-29 0 -56 -23 -62 -54c-6 -30 13 -53 43 -53c31 0 57 23 63 53
c6 31 -12 54 -43 54z" />
	<glyph glyph-name="Atilde" unicode="&#xc3;" horiz-adv-x="533" 
d="M203 171l-78 -171h-124l342 740h115l74 -740h-124l-15 171h-190zM381 283l-11 286l-117 -286h128zM582 907l30 -67c-25 -21 -65 -41 -106 -41c-35 0 -63 4 -89 13c-21 7 -46 14 -73 14c-32 0 -56 -11 -77 -28l-31 67c24 22 68 43 105 43s65 -5 91 -14
c21 -7 46 -13 74 -13c30 0 52 8 76 26z" />
	<glyph glyph-name="Ccedilla" unicode="&#xc7;" horiz-adv-x="587" 
d="M324 -12l-34 -51c9 3 18 5 31 5c34 0 66 -25 56 -75c-10 -58 -64 -93 -121 -93c-34 0 -71 9 -91 37l29 38c10 -16 31 -25 55 -25c28 0 52 16 57 39c4 22 -8 39 -26 39c-12 0 -24 -4 -31 -12l-32 15l57 82c-143 8 -218 136 -172 383c46 250 170 384 334 384
c170 0 231 -134 200 -293h-125c19 118 -8 177 -88 177c-93 0 -163 -87 -197 -271c-35 -189 15 -265 99 -265c92 0 132 85 151 167h125c-27 -144 -126 -267 -277 -281z" />
	<glyph glyph-name="Eacute" unicode="&#xc9;" horiz-adv-x="490" 
d="M70 0l137 740h355l-21 -113h-233l-34 -187h233l-21 -112h-233l-40 -215h233l-21 -113h-355zM300 836l247 124l26 -87l-249 -109z" />
	<glyph glyph-name="Ecircumflex" unicode="&#xca;" horiz-adv-x="490" 
d="M70 0l137 740h355l-21 -113h-233l-34 -187h233l-21 -112h-233l-40 -215h233l-21 -113h-355zM469 927l97 -138h-97l-62 84l-94 -84h-97l149 138h104z" />
	<glyph glyph-name="Edieresis" unicode="&#xcb;" horiz-adv-x="490" 
d="M70 0l137 740h355l-21 -113h-233l-34 -187h233l-21 -112h-233l-40 -215h233l-21 -113h-355zM376 910l-21 -113h-102l21 113h102zM554 910l-21 -113h-102l21 113h102z" />
	<glyph glyph-name="Egrave" unicode="&#xc8;" horiz-adv-x="490" 
d="M70 0l137 740h355l-21 -113h-233l-34 -187h233l-21 -112h-233l-40 -215h233l-21 -113h-355zM299 960l202 -124l-51 -72l-209 109z" />
	<glyph glyph-name="Iacute" unicode="&#xcd;" horiz-adv-x="252" 
d="M65 0l137 740h122l-137 -740h-122zM181 834l248 125l26 -87l-250 -109z" />
	<glyph glyph-name="Icircumflex" unicode="&#xce;" horiz-adv-x="252" 
d="M65 0l137 740h122l-137 -740h-122zM350 926l97 -138h-97l-62 84l-94 -84h-98l150 138h104z" />
	<glyph glyph-name="Idieresis" unicode="&#xcf;" horiz-adv-x="252" 
d="M65 0l137 740h122l-137 -740h-122zM257 910l-21 -113h-102l21 113h102zM435 910l-21 -113h-102l21 113h102z" />
	<glyph glyph-name="Igrave" unicode="&#xcc;" horiz-adv-x="252" 
d="M65 0l137 740h122l-137 -740h-122zM179 959l202 -125l-52 -71l-208 109z" />
	<glyph glyph-name="Ntilde" unicode="&#xd1;" horiz-adv-x="605" 
d="M334 740l139 -505l93 505h108l-137 -740h-115l-147 535l-99 -535h-109l137 740h130zM619 904l29 -68c-25 -21 -65 -41 -106 -41c-36 0 -63 5 -88 13c-22 8 -48 14 -75 14c-32 0 -55 -11 -77 -28l-29 67c24 22 67 43 105 43c37 0 64 -5 90 -13c22 -8 47 -14 75 -14
c30 0 51 8 76 27z" />
	<glyph glyph-name="Oacute" unicode="&#xd3;" horiz-adv-x="612" 
d="M104 370v1c42 226 161 383 341 383c181 0 242 -157 200 -384c-40 -216 -156 -384 -343 -384c-180 0 -240 157 -198 384zM229 370l-1 -1c-34 -187 2 -270 95 -270c94 0 162 83 197 271c34 188 -2 271 -96 271c-93 0 -161 -83 -195 -271zM361 834l247 125l26 -87l-249 -109
z" />
	<glyph glyph-name="Ocircumflex" unicode="&#xd4;" horiz-adv-x="612" 
d="M104 370v1c42 226 161 383 341 383c181 0 242 -157 200 -384c-40 -216 -156 -384 -343 -384c-180 0 -240 157 -198 384zM229 370l-1 -1c-34 -187 2 -270 95 -270c94 0 162 83 197 271c34 188 -2 271 -96 271c-93 0 -161 -83 -195 -271zM530 926l98 -138h-98l-62 84
l-94 -84h-97l149 138h104z" />
	<glyph glyph-name="Odieresis" unicode="&#xd6;" horiz-adv-x="612" 
d="M104 370v1c42 226 161 383 341 383c181 0 242 -157 200 -384c-40 -216 -156 -384 -343 -384c-180 0 -240 157 -198 384zM229 370l-1 -1c-34 -187 2 -270 95 -270c94 0 162 83 197 271c34 188 -2 271 -96 271c-93 0 -161 -83 -195 -271zM438 910l-21 -113h-103l21 113h103
zM615 910l-21 -113h-102l21 113h102z" />
	<glyph glyph-name="Ograve" unicode="&#xd2;" horiz-adv-x="612" 
d="M104 370v1c42 226 161 383 341 383c181 0 242 -157 200 -384c-40 -216 -156 -384 -343 -384c-180 0 -240 157 -198 384zM229 370l-1 -1c-34 -187 2 -270 95 -270c94 0 162 83 197 271c34 188 -2 271 -96 271c-93 0 -161 -83 -195 -271zM361 959l201 -125l-52 -71
l-207 109z" />
	<glyph glyph-name="Otilde" unicode="&#xd5;" horiz-adv-x="612" 
d="M104 370v1c42 226 161 383 341 383c181 0 242 -157 200 -384c-40 -216 -156 -384 -343 -384c-180 0 -240 157 -198 384zM229 370l-1 -1c-34 -187 2 -270 95 -270c94 0 162 83 197 271c34 188 -2 271 -96 271c-93 0 -161 -83 -195 -271zM622 909l30 -68
c-25 -21 -65 -41 -106 -41c-35 0 -63 5 -88 13c-22 8 -47 14 -74 14c-32 0 -56 -11 -77 -28l-31 67c25 22 67 43 105 43c37 0 65 -5 91 -13c22 -8 46 -14 74 -14c30 0 52 8 76 27z" />
	<glyph glyph-name="Scaron" unicode="&#x160;" horiz-adv-x="532" 
d="M76 222h121c-12 -92 23 -128 85 -128c65 0 115 42 128 110c15 83 -66 102 -138 130c-68 29 -150 71 -126 199c24 136 124 222 255 222c127 0 189 -63 183 -203h-118c6 54 -14 101 -79 101c-58 0 -102 -43 -113 -101c-15 -80 60 -97 140 -128c65 -28 148 -74 121 -217
c-25 -136 -141 -221 -274 -221c-148 0 -212 83 -185 236zM263 923h97l61 -84l93 84h97l-147 -137h-104z" />
	<glyph glyph-name="Uacute" unicode="&#xda;" horiz-adv-x="589" 
d="M199 740h122l-96 -518c-7 -39 -7 -70 11 -92c14 -21 42 -29 77 -29s65 8 88 29c25 22 37 53 44 92l96 518h122l-99 -535c-12 -67 -38 -120 -83 -158c-44 -38 -108 -61 -190 -61c-83 0 -136 23 -166 61s-37 91 -25 158zM350 834l248 125l26 -87l-250 -109z" />
	<glyph glyph-name="Ucircumflex" unicode="&#xdb;" horiz-adv-x="589" 
d="M199 740h122l-96 -518c-7 -39 -7 -70 11 -92c14 -21 42 -29 77 -29s65 8 88 29c25 22 37 53 44 92l96 518h122l-99 -535c-12 -67 -38 -120 -83 -158c-44 -38 -108 -61 -190 -61c-83 0 -136 23 -166 61s-37 91 -25 158zM519 928l97 -138h-97l-62 85l-95 -85h-97l150 138
h104z" />
	<glyph glyph-name="Udieresis" unicode="&#xdc;" horiz-adv-x="589" 
d="M199 740h122l-96 -518c-7 -39 -7 -70 11 -92c14 -21 42 -29 77 -29s65 8 88 29c25 22 37 53 44 92l96 518h122l-99 -535c-12 -67 -38 -120 -83 -158c-44 -38 -108 -61 -190 -61c-83 0 -136 23 -166 61s-37 91 -25 158zM426 910l-21 -113h-102l21 113h102zM604 910
l-21 -113h-103l21 113h103z" />
	<glyph glyph-name="Ugrave" unicode="&#xd9;" horiz-adv-x="589" 
d="M199 740h122l-96 -518c-7 -39 -7 -70 11 -92c14 -21 42 -29 77 -29s65 8 88 29c25 22 37 53 44 92l96 518h122l-99 -535c-12 -67 -38 -120 -83 -158c-44 -38 -108 -61 -190 -61c-83 0 -136 23 -166 61s-37 91 -25 158zM340 959l202 -125l-52 -71l-208 109z" />
	<glyph glyph-name="Yacute" unicode="&#xdd;" horiz-adv-x="480" 
d="M179 0l53 286l-99 454h126l56 -339l180 339h126l-267 -454l-53 -286h-122zM302 834l247 125l26 -87l-249 -109z" />
	<glyph glyph-name="Ydieresis" unicode="&#x178;" horiz-adv-x="480" 
d="M179 0l53 286l-99 454h126l56 -339l180 339h126l-267 -454l-53 -286h-122zM372 910l-21 -113h-103l21 113h103zM549 910l-21 -113h-102l21 113h102z" />
	<glyph glyph-name="Zcaron" unicode="&#x17d;" horiz-adv-x="495" 
d="M569 630l-371 -517h279l-21 -113h-421l20 106l370 521h-260l21 113h403zM249 921h97l61 -84l94 84h96l-147 -138h-105z" />
	<glyph glyph-name="aacute" unicode="&#xe1;" horiz-adv-x="496" 
d="M539 559l-104 -559h-99c6 30 10 52 15 73c-36 -56 -80 -85 -139 -85c-105 0 -163 100 -127 291c34 183 119 292 235 292c50 0 96 -22 107 -88c3 25 7 48 13 76h99zM193 279v-1c-23 -124 0 -183 60 -183c34 0 54 14 76 39c25 27 35 63 50 145c15 83 19 119 4 146
c-13 24 -28 38 -62 38c-60 0 -105 -58 -128 -184zM276 669l248 125l26 -87l-249 -109z" />
	<glyph glyph-name="acircumflex" unicode="&#xe2;" horiz-adv-x="496" 
d="M539 559l-104 -559h-99c6 30 10 52 15 73c-36 -56 -80 -85 -139 -85c-105 0 -163 100 -127 291c34 183 119 292 235 292c50 0 96 -22 107 -88c3 25 7 48 13 76h99zM193 279v-1c-23 -124 0 -183 60 -183c34 0 54 14 76 39c25 27 35 63 50 145c15 83 19 119 4 146
c-13 24 -28 38 -62 38c-60 0 -105 -58 -128 -184zM431 761l97 -138h-97l-62 84l-94 -84h-97l149 138h104z" />
	<glyph glyph-name="adieresis" unicode="&#xe4;" horiz-adv-x="496" 
d="M539 559l-104 -559h-99c6 30 10 52 15 73c-36 -56 -80 -85 -139 -85c-105 0 -163 100 -127 291c34 183 119 292 235 292c50 0 96 -22 107 -88c3 25 7 48 13 76h99zM193 279v-1c-23 -124 0 -183 60 -183c34 0 54 14 76 39c25 27 35 63 50 145c15 83 19 119 4 146
c-13 24 -28 38 -62 38c-60 0 -105 -58 -128 -184zM331 744l-21 -113h-103l21 113h103zM509 744l-21 -113h-103l21 113h103z" />
	<glyph glyph-name="agrave" unicode="&#xe0;" horiz-adv-x="496" 
d="M539 559l-104 -559h-99c6 30 10 52 15 73c-36 -56 -80 -85 -139 -85c-105 0 -163 100 -127 291c34 183 119 292 235 292c50 0 96 -22 107 -88c3 25 7 48 13 76h99zM193 279v-1c-23 -124 0 -183 60 -183c34 0 54 14 76 39c25 27 35 63 50 145c15 83 19 119 4 146
c-13 24 -28 38 -62 38c-60 0 -105 -58 -128 -184zM269 794l201 -125l-50 -71l-209 109z" />
	<glyph glyph-name="aring" unicode="&#xe5;" horiz-adv-x="496" 
d="M539 559l-104 -559h-99c6 30 10 52 15 73c-36 -56 -80 -85 -139 -85c-105 0 -163 100 -127 291c34 183 119 292 235 292c50 0 96 -22 107 -88c3 25 7 48 13 76h99zM193 279v-1c-23 -124 0 -183 60 -183c34 0 54 14 76 39c25 27 35 63 50 145c15 83 19 119 4 146
c-13 24 -28 38 -62 38c-60 0 -105 -58 -128 -184zM382 821h1c60 0 99 -49 88 -108s-68 -109 -129 -109c-60 0 -99 50 -88 109s68 108 128 108zM372 766h-1c-29 0 -56 -23 -62 -53c-5 -30 13 -53 43 -53c31 0 59 23 64 53c6 30 -13 53 -44 53z" />
	<glyph glyph-name="atilde" unicode="&#xe3;" horiz-adv-x="496" 
d="M539 559l-104 -559h-99c6 30 10 52 15 73c-36 -56 -80 -85 -139 -85c-105 0 -163 100 -127 291c34 183 119 292 235 292c50 0 96 -22 107 -88c3 25 7 48 13 76h99zM193 279v-1c-23 -124 0 -183 60 -183c34 0 54 14 76 39c25 27 35 63 50 145c15 83 19 119 4 146
c-13 24 -28 38 -62 38c-60 0 -105 -58 -128 -184zM534 744l29 -68c-25 -21 -64 -41 -105 -41c-36 0 -63 5 -89 13c-21 8 -47 14 -74 14c-32 0 -55 -11 -77 -28l-30 67c24 22 67 43 105 43c37 0 64 -5 90 -13c22 -8 47 -14 75 -14c30 0 51 8 76 27z" />
	<glyph glyph-name="ccedilla" unicode="&#xe7;" horiz-adv-x="439" 
d="M257 -10l-31 -49c9 3 18 5 31 5c30 0 65 -25 55 -79s-70 -85 -116 -85c-29 0 -71 9 -91 37l28 37c11 -16 36 -25 53 -25c28 0 52 17 55 36c4 18 -9 35 -23 35c-11 0 -23 -4 -31 -12l-34 15l55 86c-118 14 -162 128 -132 288c34 185 138 292 269 292
c120 0 161 -101 141 -218h-113c12 84 -13 116 -54 116c-29 0 -55 -11 -77 -44c-23 -33 -40 -78 -52 -146c-25 -134 -1 -190 58 -190c51 0 84 49 99 115h113c-24 -107 -94 -205 -203 -214z" />
	<glyph glyph-name="eacute" unicode="&#xe9;" horiz-adv-x="491" 
d="M499 242h-301c-15 -78 -2 -153 70 -153c47 0 85 31 106 85h107c-24 -70 -62 -118 -103 -147c-42 -28 -88 -39 -128 -39c-149 0 -190 136 -161 291c30 166 127 292 268 292c71 0 118 -31 142 -85c30 -70 17 -160 0 -244zM215 335h193c11 64 4 146 -68 146
c-59 0 -108 -55 -125 -146zM269 669l248 125l26 -87l-249 -109z" />
	<glyph glyph-name="ecircumflex" unicode="&#xea;" horiz-adv-x="491" 
d="M499 242h-301c-15 -78 -2 -153 70 -153c47 0 85 31 106 85h107c-24 -70 -62 -118 -103 -147c-42 -28 -88 -39 -128 -39c-149 0 -190 136 -161 291c30 166 127 292 268 292c71 0 118 -31 142 -85c30 -70 17 -160 0 -244zM215 335h193c11 64 4 146 -68 146
c-59 0 -108 -55 -125 -146zM439 761l97 -138h-97l-62 84l-94 -84h-98l150 138h104z" />
	<glyph glyph-name="edieresis" unicode="&#xeb;" horiz-adv-x="491" 
d="M499 242h-301c-15 -78 -2 -153 70 -153c47 0 85 31 106 85h107c-24 -70 -62 -118 -103 -147c-42 -28 -88 -39 -128 -39c-149 0 -190 136 -161 291c30 166 127 292 268 292c71 0 118 -31 142 -85c30 -70 17 -160 0 -244zM215 335h193c11 64 4 146 -68 146
c-59 0 -108 -55 -125 -146zM346 744l-21 -113h-102l21 113h102zM524 744l-21 -113h-102l21 113h102z" />
	<glyph glyph-name="egrave" unicode="&#xe8;" horiz-adv-x="491" 
d="M499 242h-301c-15 -78 -2 -153 70 -153c47 0 85 31 106 85h107c-24 -70 -62 -118 -103 -147c-42 -28 -88 -39 -128 -39c-149 0 -190 136 -161 291c30 166 127 292 268 292c71 0 118 -31 142 -85c30 -70 17 -160 0 -244zM215 335h193c11 64 4 146 -68 146
c-59 0 -108 -55 -125 -146zM269 794l202 -125l-51 -71l-209 109z" />
	<glyph glyph-name="iacute" unicode="&#xed;" horiz-adv-x="254" 
d="M73 0l104 559h108l-104 -559h-108zM138 669l247 125l26 -87l-249 -109z" />
	<glyph glyph-name="icircumflex" unicode="&#xee;" horiz-adv-x="254" 
d="M73 0l104 559h108l-104 -559h-108zM320 761l97 -138h-97l-62 84l-94 -84h-98l150 138h104z" />
	<glyph glyph-name="idieresis" unicode="&#xef;" horiz-adv-x="254" 
d="M73 0l104 559h108l-104 -559h-108zM227 744l-21 -113h-102l21 113h102zM405 744l-21 -113h-102l21 113h102z" />
	<glyph glyph-name="igrave" unicode="&#xec;" horiz-adv-x="254" 
d="M73 0l104 559h108l-104 -559h-108zM163 794l201 -125l-51 -71l-208 109z" />
	<glyph glyph-name="ntilde" unicode="&#xf1;" horiz-adv-x="499" 
d="M61 0l104 559h95c-5 -23 -9 -45 -14 -69c34 54 81 81 148 81c92 0 141 -51 119 -173l-74 -398h-108l67 363c9 45 10 100 -56 100c-52 0 -93 -32 -107 -105l-66 -358h-108zM535 744l29 -68c-25 -21 -64 -41 -104 -41c-36 0 -63 5 -90 13c-21 8 -46 14 -73 14
c-32 0 -56 -11 -77 -28l-31 67c24 22 68 43 105 43s65 -5 90 -13c22 -8 47 -14 75 -14c30 0 51 8 76 27z" />
	<glyph glyph-name="oacute" unicode="&#xf3;" horiz-adv-x="497" 
d="M85 279v1c30 160 122 291 270 291c147 0 191 -131 161 -292c-30 -160 -122 -291 -269 -291c-148 0 -192 131 -162 291zM199 279v-1c-26 -137 1 -189 67 -189c63 0 110 52 136 190c25 139 -2 190 -68 190c-63 0 -110 -51 -135 -190zM272 669l248 125l26 -87l-249 -109z
" />
	<glyph glyph-name="ocircumflex" unicode="&#xf4;" horiz-adv-x="497" 
d="M85 279v1c30 160 122 291 270 291c147 0 191 -131 161 -292c-30 -160 -122 -291 -269 -291c-148 0 -192 131 -162 291zM199 279v-1c-26 -137 1 -189 67 -189c63 0 110 52 136 190c25 139 -2 190 -68 190c-63 0 -110 -51 -135 -190zM442 761l97 -138h-97l-62 84l-95 -84
h-97l150 138h104z" />
	<glyph glyph-name="odieresis" unicode="&#xf6;" horiz-adv-x="497" 
d="M85 279v1c30 160 122 291 270 291c147 0 191 -131 161 -292c-30 -160 -122 -291 -269 -291c-148 0 -192 131 -162 291zM199 279v-1c-26 -137 1 -189 67 -189c63 0 110 52 136 190c25 139 -2 190 -68 190c-63 0 -110 -51 -135 -190zM349 744l-21 -113h-102l21 113h102z
M527 744l-21 -113h-103l21 113h103z" />
	<glyph glyph-name="ograve" unicode="&#xf2;" horiz-adv-x="497" 
d="M85 279v1c30 160 122 291 270 291c147 0 191 -131 161 -292c-30 -160 -122 -291 -269 -291c-148 0 -192 131 -162 291zM199 279v-1c-26 -137 1 -189 67 -189c63 0 110 52 136 190c25 139 -2 190 -68 190c-63 0 -110 -51 -135 -190zM272 794l202 -125l-51 -71l-209 109z
" />
	<glyph glyph-name="otilde" unicode="&#xf5;" horiz-adv-x="497" 
d="M85 279v1c30 160 122 291 270 291c147 0 191 -131 161 -292c-30 -160 -122 -291 -269 -291c-148 0 -192 131 -162 291zM199 279v-1c-26 -137 1 -189 67 -189c63 0 110 52 136 190c25 139 -2 190 -68 190c-63 0 -110 -51 -135 -190zM534 744l29 -68
c-25 -21 -64 -41 -104 -41c-36 0 -63 5 -89 13c-21 8 -47 14 -74 14c-32 0 -55 -11 -77 -28l-31 67c25 22 68 43 105 43c38 0 65 -5 91 -13c21 -8 47 -14 74 -14c30 0 51 8 76 27z" />
	<glyph glyph-name="scaron" unicode="&#x161;" horiz-adv-x="428" 
d="M459 401h-108c9 53 -12 76 -57 76c-37 0 -64 -24 -70 -58c-10 -54 47 -64 108 -84c58 -20 119 -57 98 -170c-20 -103 -112 -177 -219 -177c-105 0 -173 59 -159 185h108c-8 -54 21 -87 71 -87s76 34 83 72c11 56 -45 69 -108 91c-62 22 -117 59 -97 166
c17 91 94 156 207 156s157 -63 143 -170zM180 758h97l62 -84l92 84h97l-147 -137h-104z" />
	<glyph glyph-name="uacute" unicode="&#xfa;" horiz-adv-x="499" 
d="M542 559l-104 -559h-99c4 24 9 48 15 74c-31 -59 -78 -86 -146 -86c-91 0 -141 51 -118 173l74 398h108l-68 -363c-8 -45 -9 -101 57 -101c51 0 93 33 106 106l67 358h108zM278 669l247 125l26 -87l-248 -109z" />
	<glyph glyph-name="ucircumflex" unicode="&#xfb;" horiz-adv-x="499" 
d="M542 559l-104 -559h-99c4 24 9 48 15 74c-31 -59 -78 -86 -146 -86c-91 0 -141 51 -118 173l74 398h108l-68 -363c-8 -45 -9 -101 57 -101c51 0 93 33 106 106l67 358h108zM442 761l98 -138h-97l-62 84l-95 -84h-97l150 138h103z" />
	<glyph glyph-name="udieresis" unicode="&#xfc;" horiz-adv-x="499" 
d="M542 559l-104 -559h-99c4 24 9 48 15 74c-31 -59 -78 -86 -146 -86c-91 0 -141 51 -118 173l74 398h108l-68 -363c-8 -45 -9 -101 57 -101c51 0 93 33 106 106l67 358h108zM350 744l-21 -113h-103l21 113h103zM528 744l-21 -113h-103l21 113h103z" />
	<glyph glyph-name="ugrave" unicode="&#xf9;" horiz-adv-x="499" 
d="M542 559l-104 -559h-99c4 24 9 48 15 74c-31 -59 -78 -86 -146 -86c-91 0 -141 51 -118 173l74 398h108l-68 -363c-8 -45 -9 -101 57 -101c51 0 93 33 106 106l67 358h108zM265 794l202 -125l-51 -71l-209 109z" />
	<glyph glyph-name="yacute" unicode="&#xfd;" horiz-adv-x="426" 
d="M55 -188l109 214l-56 533h113l28 -369l165 369h113l-362 -747h-110zM241 669l248 125l26 -87l-249 -109z" />
	<glyph glyph-name="ydieresis" unicode="&#xff;" horiz-adv-x="426" 
d="M55 -188l109 214l-56 533h113l28 -369l165 369h113l-362 -747h-110zM314 744l-21 -113h-103l21 113h103zM491 744l-21 -113h-102l21 113h102z" />
	<glyph glyph-name="zcaron" unicode="&#x17e;" horiz-adv-x="426" 
d="M25 0l19 101l295 356h-210l19 102h338l-19 -102l-291 -355h229l-19 -102h-361zM174 755h97l61 -85l93 85h97l-148 -138h-104z" />
	<glyph glyph-name="Omega" unicode="&#x2126;" horiz-adv-x="688" 
d="M193 91v3c-51 65 -90 172 -64 310c36 195 185 344 357 344c184 0 253 -172 222 -337c-26 -141 -109 -256 -183 -317v-3h138l-17 -91h-247l12 66c72 46 153 153 184 321c24 133 -10 267 -129 267c-112 0 -203 -116 -232 -271c-29 -154 11 -272 65 -317l-12 -66h-247l17 91
h136z" />
	<glyph glyph-name="pi" unicode="&#x3c0;" horiz-adv-x="579" 
d="M639 456h-72l-57 -305c-15 -79 -16 -120 -14 -151h-104c-7 21 -4 70 10 146l58 310h-149c-28 -120 -95 -345 -152 -456h-104c58 122 123 331 150 456c-52 0 -80 -4 -103 -11l1 74c29 19 79 33 160 33h402z" />
	<glyph glyph-name="Euro" unicode="&#x20ac;" horiz-adv-x="556" 
d="M563 193c-58 -176 -165 -205 -240 -205c-141 0 -182 112 -182 231c0 13 0 27 1 40h-93l31 86h71c2 15 6 37 10 55h-87l31 86h79c39 131 120 266 274 266c132 0 166 -100 166 -184c0 -9 -1 -17 -1 -26h-109c2 71 -26 99 -76 99c-72 0 -112 -78 -136 -155h202l-31 -86h-192
c-4 -18 -8 -38 -10 -55h182l-31 -86h-162c-1 -13 -1 -26 -1 -38c0 -71 20 -122 85 -122c39 0 90 21 109 94h110z" />
	<glyph glyph-name="estimated" unicode="&#x212e;" horiz-adv-x="1060" 
d="M1024 359h-687c-3 0 -6 -1 -6 -4v-208c0 -9 4 -17 9 -24c67 -69 159 -113 260 -113c110 0 207 50 274 127h61c-76 -90 -199 -148 -336 -148c-234 0 -424 170 -424 381s190 382 424 382c235 0 425 -171 425 -382v-11zM868 386v210c0 9 -3 18 -10 24
c-67 66 -157 109 -258 109c-100 0 -192 -44 -258 -112c-7 -7 -11 -16 -11 -26v-205c0 -2 3 -6 6 -6h527c3 0 4 4 4 6z" />
	<glyph glyph-name="partialdiff" unicode="&#x2202;" horiz-adv-x="555" 
d="M231 689l-17 84c37 25 97 58 184 58c136 0 239 -126 188 -398c-49 -265 -177 -440 -349 -440c-133 0 -175 126 -153 246c32 170 150 275 263 275c81 0 122 -56 132 -84h1c3 10 6 29 8 38c27 149 -21 271 -121 271c-59 0 -105 -27 -136 -50zM264 86h1
c80 0 153 125 186 245c-5 38 -36 93 -100 93c-72 0 -142 -89 -160 -189c-16 -85 11 -149 73 -149z" />
	<glyph glyph-name="product" unicode="&#x220f;" horiz-adv-x="838" 
d="M812 633h-100v-735h-109v735h-230v-735h-110v735h-100v103h649v-103z" />
	<glyph glyph-name="summation" unicode="&#x2211;" horiz-adv-x="681" 
d="M662 -102h-501v75l245 345l-236 339v79h476v-95h-329v-4l213 -299l-236 -331v-3h368v-106z" />
	<glyph glyph-name="uni2219" unicode="&#x2219;" horiz-adv-x="270" 
d="M258 324l-26 -141h-126l26 141h126z" />
	<glyph glyph-name="radical" unicode="&#x221a;" horiz-adv-x="718" 
d="M723 882l-219 -1031h-90l-149 470l-73 -28l-19 65l159 63l107 -345c7 -33 15 -68 19 -89l1 -1c4 21 9 58 15 93l172 803h77z" />
	<glyph glyph-name="infinity" unicode="&#x221e;" horiz-adv-x="873" 
d="M824 305v-1c0 -106 -78 -171 -160 -171c-61 0 -114 30 -182 116c-53 -63 -107 -116 -189 -116c-83 0 -157 69 -157 167c0 99 71 169 165 169c76 0 131 -48 184 -114c45 51 96 115 185 114c88 0 154 -65 154 -164zM302 196h1c59 0 103 54 144 101c-43 56 -82 111 -150 111
c-60 0 -95 -48 -95 -109c0 -57 42 -103 100 -103zM663 408h-1c-63 0 -112 -68 -145 -105c63 -75 97 -107 149 -107c59 0 92 56 92 104c0 64 -39 108 -95 108z" />
	<glyph glyph-name="integral" unicode="&#x222b;" horiz-adv-x="528" 
d="M505 895l-14 -79c-9 5 -21 9 -35 9c-18 0 -36 -7 -49 -26c-22 -29 -29 -88 -29 -181c0 -170 14 -331 14 -515c0 -104 -16 -172 -38 -213c-26 -48 -74 -68 -121 -68c-30 0 -59 9 -72 17l15 81c10 -4 24 -10 43 -10c16 0 33 6 44 22c18 25 28 71 28 169
c0 187 -14 351 -14 527c0 121 16 187 58 233c27 31 70 46 111 46c23 0 47 -6 59 -12z" />
	<glyph glyph-name="approxequal" unicode="&#x2248;" horiz-adv-x="633" 
d="M551 463l41 -36c-28 -59 -74 -104 -132 -104c-40 0 -66 13 -112 41c-30 19 -55 35 -88 35c-44 0 -68 -37 -92 -74l-42 35c29 60 81 103 141 103c49 0 82 -24 107 -38c35 -21 57 -36 88 -36c39 0 63 29 89 74zM551 279l41 -36c-28 -58 -73 -103 -133 -103
c-39 0 -66 14 -111 41c-31 19 -56 35 -87 35c-45 0 -69 -37 -93 -75l-42 36c29 60 81 103 141 103c49 0 82 -24 107 -38c32 -19 56 -37 88 -37c39 0 62 29 89 74z" />
	<glyph glyph-name="notequal" unicode="&#x2260;" horiz-adv-x="649" 
d="M500 528l-40 -92h140v-67h-164l-62 -140h226v-67h-251l-49 -115l-53 21l42 94h-138v67h163l60 140h-223v67h248l49 113z" />
	<glyph glyph-name="lessequal" unicode="&#x2264;" horiz-adv-x="664" 
d="M613 105l-441 229v72l441 229v-80l-375 -183v-3l375 -185v-79zM617 -3h-449v68h449v-68z" />
	<glyph glyph-name="greaterequal" unicode="&#x2265;" horiz-adv-x="663" 
d="M174 635l441 -230v-71l-441 -229v79l375 185v2l-375 184v80zM616 -3h-447v68h447v-68z" />
	<glyph glyph-name="lozenge" unicode="&#x25ca;" horiz-adv-x="719" 
d="M668 368l-196 -416h-90l-190 416l196 416h89zM569 365l-118 261c-7 20 -15 46 -19 64h-3c-5 -20 -11 -43 -19 -64l-120 -256l120 -264c8 -22 14 -47 17 -61h4c4 15 12 47 18 59z" />
	<glyph glyph-name="uni02C9" unicode="&#x2c9;" horiz-adv-x="332" 
d="M470 721l-14 -72h-340l14 72h340z" />
	<glyph glyph-name="uni00AD" unicode="&#xad;" horiz-adv-x="306" 
d="M97 336h235l-19 -106h-235z" />
	<glyph glyph-name="uni03A9" unicode="&#x3a9;" horiz-adv-x="688" 
d="M193 91v3c-51 65 -90 172 -64 310c36 195 185 344 357 344c184 0 253 -172 222 -337c-26 -141 -109 -256 -183 -317v-3h138l-17 -91h-247l12 66c72 46 153 153 184 321c24 133 -10 267 -129 267c-112 0 -203 -116 -232 -271c-29 -154 11 -272 65 -317l-12 -66h-247l17 91
h136z" />
	<glyph glyph-name="uni00A0" unicode="&#xa0;" horiz-adv-x="264" 
 />
	<glyph glyph-name="afii61289" unicode="&#x2113;" horiz-adv-x="493" 
d="M461 174l37 -45c-66 -97 -142 -137 -219 -137c-121 0 -153 86 -140 184l2 13c-19 -14 -41 -30 -61 -45l-17 60c34 26 65 48 93 73l52 277c34 185 127 258 215 258c89 0 116 -78 97 -179c-23 -126 -122 -249 -262 -371l-9 -46c-17 -95 17 -137 69 -137c55 0 108 49 143 95
zM311 552l-34 -185c89 88 161 184 177 269c11 59 1 95 -42 95c-32 0 -75 -42 -101 -179z" />
	<glyph glyph-name="uni03BC" unicode="&#x3bc;" horiz-adv-x="500" 
d="M28 -180l137 739h108l-67 -360c-7 -37 -6 -61 2 -80c10 -18 31 -24 49 -24c21 0 47 4 72 27c19 19 33 43 41 90l65 347h108l-104 -559h-99c5 27 10 53 16 80c-21 -48 -73 -92 -142 -92c-19 0 -38 6 -43 22l-11 -59l-24 -131h-108z" />
	<glyph glyph-name="uni2215" unicode="&#x2215;" horiz-adv-x="146" 
d="M-164 -9l527 758h85l-528 -758h-84z" />
	<glyph glyph-name="a.superior" horiz-adv-x="300" 
d="M414 747l-62 -336h-73c4 18 6 32 10 45c-23 -35 -52 -52 -90 -52c-68 0 -107 60 -86 174c21 111 76 176 151 176c33 0 62 -13 70 -55c2 17 4 31 7 48h73zM192 578v-1c-12 -63 1 -101 36 -101c33 0 56 25 65 64c3 13 7 27 9 40c3 13 4 26 6 39c4 38 -10 62 -43 62
s-60 -36 -73 -103z" />
	<glyph glyph-name="o.superior" horiz-adv-x="300" 
d="M116 578v1c18 96 78 175 175 175c96 0 125 -79 107 -176c-18 -96 -76 -175 -172 -175c-97 0 -128 79 -110 175zM197 578v-1c-14 -77 4 -107 41 -107s65 30 79 108c15 81 -1 109 -42 109c-38 0 -63 -28 -78 -109z" />
	<glyph glyph-name="one.superior" horiz-adv-x="313" 
d="M348 740l-81 -436h-87l67 362h-71l14 74h158z" />
	<glyph glyph-name="two.superior" horiz-adv-x="337" 
d="M382 385l-15 -81h-290l14 76c84 66 140 111 182 147c45 38 54 54 59 82c6 34 -6 60 -42 60c-30 0 -61 -21 -70 -72h-87c6 36 19 65 36 88c34 43 84 63 138 63c88 0 133 -57 117 -141c-8 -48 -31 -79 -73 -115c-37 -32 -92 -71 -137 -107h168z" />
	<glyph glyph-name="three.superior" horiz-adv-x="337" 
d="M100 440h85c-8 -47 16 -70 53 -70c42 0 67 27 73 64c8 43 -11 73 -61 73h-34l12 67h30c45 0 63 25 68 51s-5 49 -37 49s-53 -21 -59 -53h-86c17 84 84 127 163 127c78 0 123 -45 111 -113c-9 -49 -38 -73 -76 -89c47 -8 71 -51 59 -114c-14 -76 -84 -136 -173 -136
c-60 0 -102 21 -120 59c-12 23 -15 51 -8 85z" />
	<glyph glyph-name="uni2206" unicode="&#x2206;" horiz-adv-x="639" 
d="M29 0l13 68l357 685h126l97 -684l-13 -69h-580zM155 90h357l-54 340c-6 58 -20 145 -23 193h-4c-15 -40 -58 -118 -87 -178z" />
	<glyph glyph-name="uni2010" unicode="&#x2010;" horiz-adv-x="306" 
d="M97 336h235l-19 -106h-235z" />
	</font>
</defs>
</svg>
