<?xml version="1.0" standalone="no"?>
<!DOCTYPE svg PUBLIC "-//W3C//DTD SVG 1.1//EN" "http://www.w3.org/Graphics/SVG/1.1/DTD/svg11.dtd" >
<svg>
<metadata>
Created by FontForge 20120731 at Wed Jun  6 21:35:03 2018
 By www-data
Copyright 1993, 1994, 2001, 2002 Adobe Systems Incorporated. All rights reserved. ITC and Avant Garde are trademarks of International Typeface Corporation registered in the U.S. Patent and Trademark Office and may be registered in certain other jurisdictions.
</metadata>
<defs>
<font id="ITCAvantGardeStd-XLtCnObl" horiz-adv-x="500" >
  <font-face 
	font-family="ITC Avant Garde Gothic Std"
	font-weight="275"
	font-style="italic"
	font-stretch="condensed"
	units-per-em="1000"
	panose-1="1 11 3 6 2 2 2 2 2 4"
	ascent="740"
	descent="-260"
	x-height="530"
	cap-height="740"
	bbox="-139 -290 1103.03 942"
	underline-thickness="50"
	underline-position="-50"
	slope="-10.5"
	stemh="26"
	stemv="28"
	unicode-range="U+0020-FB02"
  />
<missing-glyph horiz-adv-x="629" 
d="M129 0v700h500v-700h-500zM379 395l170 255h-340zM409 350l170 -255v510zM209 50h340l-170 255zM179 605v-510l170 255z" />
	<glyph glyph-name="f_i" unicode="fi" horiz-adv-x="355" 
d="M350 504h-142l-93 -504h-28l93 504h-67l5 26h67l10 51c31 171 160 172 167 172l-5 -26c-62 -5 -115 -42 -135 -147l-9 -50h170l-98 -530h-28zM405 649h-28l17 91h28z" />
	<glyph glyph-name="f_l" unicode="fl" horiz-adv-x="355" 
d="M350 504h-142l-93 -504h-28l93 504h-67l5 26h67l10 51c31 171 160 172 167 172l-5 -26c-62 -5 -115 -42 -135 -147l-9 -50h142l39 210h28l-137 -740h-28z" />
	<glyph glyph-name=".notdef" horiz-adv-x="629" 
d="M129 0v700h500v-700h-500zM379 395l170 255h-340zM409 350l170 -255v510zM209 50h340l-170 255zM179 605v-510l170 255z" />
	<glyph glyph-name="space" unicode=" " horiz-adv-x="220" 
 />
	<glyph glyph-name="exclam" unicode="!" horiz-adv-x="231" 
d="M267 740l-106 -574h-30l106 574h30zM145 81l-15 -81h-30l15 81h30z" />
	<glyph glyph-name="quotedbl" unicode="&#x22;" horiz-adv-x="239" 
d="M165 475h-30l49 265h30zM280 475h-30l49 265h30z" />
	<glyph glyph-name="numbersign" unicode="#" 
d="M383 271l-78 -240h-24l77 240h-143l-77 -240h-25l78 240h-131l4 23h134l45 137h-131l4 23h135l72 221h24l-72 -221h143l72 221h24l-72 -221h132l-4 -23h-136l-45 -137h133l-4 -23h-135zM365 294l46 137h-143l-46 -137h143z" />
	<glyph glyph-name="dollar" unicode="$" 
d="M415 792l-15 -80c104 -14 130 -94 122 -162h-27c6 103 -68 135 -113 135c-65 0 -142 -55 -159 -144c-18 -101 48 -123 126 -147c46 -15 151 -47 125 -187c-17 -91 -101 -180 -202 -187l-18 -95h-30l18 95c-94 9 -152 84 -138 189h27c-10 -114 64 -162 133 -162
c85 0 164 73 181 161c21 117 -59 142 -142 168c-52 16 -131 52 -110 165c17 90 88 159 177 171l15 80h30z" />
	<glyph glyph-name="percent" unicode="%" horiz-adv-x="719" 
d="M131 590l1 1c17 93 99 162 193 162s150 -69 132 -163c-17 -94 -99 -163 -193 -163s-150 69 -133 163zM159 590v-1c-14 -79 30 -137 110 -137s146 58 160 138c15 80 -29 138 -109 138s-146 -58 -161 -138zM399 150v1c17 93 99 162 193 162s150 -69 133 -163
c-18 -94 -99 -163 -193 -163s-151 69 -133 163zM427 150v-1c-15 -79 29 -137 109 -137s146 58 161 138s-30 138 -110 138s-145 -58 -160 -138zM740 740l-594 -740h-32l594 740h32z" />
	<glyph glyph-name="ampersand" unicode="&#x26;" horiz-adv-x="620" 
d="M623 467h30l-171 -261l136 -197l-23 -20l-129 188c-34 -47 -109 -190 -244 -190c-112 0 -165 105 -146 207c24 129 140 198 220 231c-37 60 -72 94 -60 175c15 79 88 153 172 153c83 0 129 -71 115 -149c-16 -88 -101 -146 -186 -188l130 -188zM404 726h-1
c-77 0 -125 -65 -136 -122c-14 -75 20 -112 56 -166c104 50 157 94 170 167c11 61 -20 121 -89 121zM448 200l-138 204c-152 -68 -190 -141 -204 -211c-16 -91 26 -179 123 -179c113 0 188 136 219 186z" />
	<glyph glyph-name="quoteright" unicode="&#x2019;" horiz-adv-x="277" 
d="M199 586l92 154h33l-92 -154h-33z" />
	<glyph glyph-name="parenleft" unicode="(" horiz-adv-x="299" 
d="M418 753l-7 -35c-105 -86 -214 -249 -256 -477c-43 -229 7 -377 79 -480l-7 -35c-101 116 -145 298 -104 515c39 212 158 412 295 512z" />
	<glyph glyph-name="parenright" unicode=")" horiz-adv-x="299" 
d="M-30 -274l7 35c105 86 214 249 256 477c43 229 -7 377 -79 480l7 35c101 -116 144 -298 104 -515c-39 -212 -158 -412 -295 -512z" />
	<glyph glyph-name="asterisk" unicode="*" horiz-adv-x="312" 
d="M307 740l-23 -123l118 62l9 -25l-116 -61l95 -63l-18 -24l-97 61l-23 -123h-29l23 124l-117 -62l-11 25l119 62l-96 60l20 26l94 -62l23 123h29z" />
	<glyph glyph-name="plus" unicode="+" 
d="M357 501l-44 -237h211l-5 -28h-211l-44 -236h-28l44 236h-211l5 28h211l44 237h28z" />
	<glyph glyph-name="comma" unicode="," horiz-adv-x="245" 
d="M171 82l-91 -154h-32l91 154h32z" />
	<glyph glyph-name="hyphen" unicode="-" horiz-adv-x="220" 
d="M69 291h190l-5 -29h-190z" />
	<glyph glyph-name="period" unicode="." horiz-adv-x="245" 
d="M153 81l-15 -81h-30l15 81h30z" />
	<glyph glyph-name="slash" unicode="/" horiz-adv-x="278" 
d="M-72 -100l507 840h33l-507 -840h-33z" />
	<glyph glyph-name="zero" unicode="0" 
d="M82 222l55 296c26 142 140 235 253 235s191 -93 165 -235l-55 -296c-26 -142 -139 -235 -252 -235s-192 93 -166 235zM167 518l-55 -296c-30 -161 75 -208 141 -208s187 47 217 208l55 296c30 161 -74 208 -140 208s-188 -47 -218 -208z" />
	<glyph glyph-name="one" unicode="1" 
d="M240 0l132 713h-128l5 27h158l-137 -740h-30z" />
	<glyph glyph-name="two" unicode="2" 
d="M35 0l5 27c85 83 171 165 256 247c90 87 180 164 201 277c21 115 -30 175 -122 175c-94 0 -170 -64 -208 -212h-27c18 85 55 145 99 183c48 41 97 56 147 56c108 0 163 -86 142 -199c-13 -70 -52 -141 -180 -264c-90 -87 -182 -175 -273 -263h355l-5 -27h-390z" />
	<glyph glyph-name="three" unicode="3" 
d="M235 585h-27c27 115 111 168 198 168c91 0 146 -64 125 -173c-12 -68 -63 -132 -154 -156c117 -38 130 -135 115 -213c-25 -135 -117 -224 -245 -224c-66 0 -126 38 -152 106c-12 33 -14 74 -7 122h27c-23 -142 56 -201 140 -201c110 0 184 74 208 201
c19 104 -37 195 -166 195h-19l5 27h22c113 0 181 57 197 144c15 85 -18 145 -103 145c-94 0 -145 -59 -164 -141z" />
	<glyph glyph-name="four" unicode="4" 
d="M351 0l27 144h-310l5 26l409 570h36l-105 -569h58l-5 -27h-58l-27 -144h-30zM103 171h280l98 528z" />
	<glyph glyph-name="five" unicode="5" 
d="M282 740h274l-5 -27h-250l-97 -279c23 21 71 58 147 58c118 0 172 -120 148 -251c-27 -145 -124 -254 -244 -254c-92 0 -184 70 -169 230h27c-10 -134 61 -203 145 -203c110 0 187 99 210 224c25 135 -31 227 -123 227c-35 0 -96 -6 -165 -86l-19 7z" />
	<glyph glyph-name="six" unicode="6" 
d="M454 740h33l-200 -227c-19 -22 -44 -42 -66 -67c47 33 89 43 127 43c99 0 180 -83 151 -242c-30 -161 -134 -260 -252 -260c-70 0 -116 37 -138 79c-28 50 -30 106 -19 168c20 107 78 179 121 228zM119 229v-1c-25 -138 41 -214 134 -214c106 0 189 89 216 233
c23 125 -23 215 -133 215c-103 0 -189 -84 -217 -233z" />
	<glyph glyph-name="seven" unicode="7" 
d="M207 740h365l-5 -27l-438 -713h-29l438 713h-336z" />
	<glyph glyph-name="eight" unicode="8" 
d="M194 579v1c18 92 106 173 196 173s148 -77 130 -174c-12 -69 -65 -133 -128 -160c76 -28 119 -110 103 -210c-26 -124 -133 -222 -247 -222s-185 98 -165 222c20 99 93 181 181 210c-53 27 -82 91 -70 160zM224 578v-1c-15 -81 33 -146 109 -146c70 0 142 65 157 147
c16 83 -32 148 -108 148c-70 0 -142 -65 -158 -148zM113 209v-1c-20 -108 43 -194 140 -194s192 86 212 195s-43 195 -140 195s-192 -86 -212 -195z" />
	<glyph glyph-name="nine" unicode="9" 
d="M183 0h-33l200 227c19 22 44 42 66 67c-22 -16 -46 -27 -67 -34c-20 -6 -40 -9 -59 -9c-99 0 -181 83 -152 242c30 161 135 260 253 260c70 0 115 -37 137 -79c28 -50 30 -106 19 -168c-20 -107 -77 -179 -120 -228zM518 511v1c25 138 -40 214 -133 214
c-106 0 -190 -89 -217 -233c-23 -125 24 -215 134 -215c103 0 188 84 216 233z" />
	<glyph glyph-name="colon" unicode=":" horiz-adv-x="245" 
d="M236 530l-15 -81h-30l15 81h30zM153 81l-15 -81h-30l15 81h30z" />
	<glyph glyph-name="semicolon" unicode=";" horiz-adv-x="245" 
d="M251 530l-15 -81h-30l15 81h30zM171 82l-91 -154h-32l91 154h32z" />
	<glyph glyph-name="less" unicode="&#x3c;" 
d="M74 267l494 235l-6 -31l-457 -220l376 -220l-6 -31l-406 235z" />
	<glyph glyph-name="equal" unicode="=" 
d="M92 361h450l-5 -28h-450zM56 167h450l-5 -28h-450z" />
	<glyph glyph-name="greater" unicode="&#x3e;" 
d="M31 31l458 220l-377 220l6 31l406 -235l-5 -32l-494 -235z" />
	<glyph glyph-name="question" unicode="?" horiz-adv-x="464" 
d="M282 166h-29c14 65 27 129 122 212c56 54 104 90 120 166c18 96 -32 178 -124 178c-70 0 -158 -36 -193 -149c-3 -10 -6 -20 -7 -30h-30c1 9 4 18 7 27c43 139 160 183 226 183c99 0 174 -86 150 -211c-14 -80 -81 -138 -142 -192c-82 -74 -92 -139 -100 -184zM266 81
l-15 -81h-29l15 81h29z" />
	<glyph glyph-name="at" unicode="@" horiz-adv-x="732" 
d="M683 187h25c-83 -141 -230 -200 -332 -200c-189 0 -306 167 -267 378c39 214 221 388 415 388c145 0 287 -107 249 -312c-37 -197 -198 -280 -262 -280c-15 0 -70 4 -58 75c-21 -25 -61 -71 -127 -71c-30 0 -94 21 -73 130c25 139 144 281 242 281c58 0 74 -33 81 -80
l31 64h27l-137 -272c-1 -4 -16 -31 -20 -51c-11 -47 24 -50 40 -50c64 0 196 85 228 253c36 195 -94 287 -224 287c-171 0 -344 -146 -384 -362c-40 -215 82 -352 239 -352c95 0 218 41 307 174zM281 295l-1 -1c-15 -84 22 -103 49 -103c87 0 137 92 157 133
c14 26 58 101 65 138c11 68 -35 88 -62 88c-71 0 -182 -114 -208 -255z" />
	<glyph glyph-name="A" unicode="A" horiz-adv-x="460" 
d="M153 264l-126 -264h-31l353 740h36l79 -740h-31l-28 264h-252zM400 291l-38 422l-194 -422h232z" />
	<glyph glyph-name="B" unicode="B" horiz-adv-x="464" 
d="M70 0l137 740h112c72 0 102 -10 124 -27c50 -36 53 -104 43 -159c-19 -102 -82 -140 -121 -162c113 -40 100 -160 94 -195c-18 -91 -66 -149 -131 -178c-30 -13 -74 -19 -117 -19h-141zM232 713l-58 -312h108c35 0 65 5 88 19c56 35 77 86 86 138c13 67 -9 114 -34 133
c-16 12 -36 22 -107 22h-83zM169 374l-64 -347h112c46 0 77 5 103 16c54 22 92 72 109 154c13 74 -11 134 -52 159c-23 14 -55 18 -110 18h-98z" />
	<glyph glyph-name="C" unicode="C" horiz-adv-x="520" 
d="M513 214h27c-20 -104 -107 -227 -252 -227c-155 0 -225 138 -179 383c40 220 146 383 321 383c142 0 186 -128 163 -249h-27c14 76 4 222 -141 222c-165 0 -250 -161 -288 -367c-43 -229 28 -345 156 -345c133 0 198 106 220 200z" />
	<glyph glyph-name="D" unicode="D" horiz-adv-x="565" 
d="M70 0l137 740h145c93 0 187 -15 231 -106c26 -55 34 -139 11 -264c-62 -330 -229 -370 -379 -370h-145zM232 713l-127 -686h105c205 0 306 88 354 343c22 122 19 205 -14 260c-35 59 -106 83 -213 83h-105z" />
	<glyph glyph-name="E" unicode="E" horiz-adv-x="460" 
d="M70 0l137 740h340l-5 -27h-310l-60 -327h310l-5 -27h-310l-62 -332h310l-5 -27h-340z" />
	<glyph glyph-name="F" unicode="F" horiz-adv-x="410" 
d="M70 0l137 740h307l-5 -27h-277l-60 -327h277l-5 -27h-277l-67 -359h-30z" />
	<glyph glyph-name="G" unicode="G" horiz-adv-x="612" 
d="M646 504h-27c5 38 1 96 -17 136c-23 47 -65 86 -147 86c-145 0 -275 -131 -316 -356c-46 -245 49 -356 184 -356c75 0 148 30 203 113c46 70 63 138 76 210h-256l5 27h286c-4 -26 -11 -60 -18 -90c-28 -109 -106 -287 -301 -287c-190 0 -248 173 -209 383
c42 230 186 383 351 383c155 0 202 -128 186 -249z" />
	<glyph glyph-name="H" unicode="H" horiz-adv-x="511" 
d="M100 0h-30l137 740h30l-65 -354h311l65 354h30l-137 -740h-30l67 359h-311z" />
	<glyph glyph-name="I" unicode="I" horiz-adv-x="170" 
d="M70 0l137 740h30l-137 -740h-30z" />
	<glyph glyph-name="J" unicode="J" horiz-adv-x="384" 
d="M456 740l-98 -528c-6 -35 -16 -80 -37 -122c-15 -23 -31 -46 -55 -65c-36 -28 -74 -38 -103 -38c-69 0 -127 45 -132 133v21h28c0 -5 0 -10 1 -15c8 -100 78 -112 112 -112c56 2 100 46 122 87c17 33 26 67 34 111l98 528h30z" />
	<glyph glyph-name="K" unicode="K" horiz-adv-x="410" 
d="M70 0l137 740h30l-69 -372l340 372h37l-340 -370l225 -370h-38l-224 367l-68 -367h-30z" />
	<glyph glyph-name="L" unicode="L" horiz-adv-x="370" 
d="M70 0l137 740h30l-132 -713h261l-5 -27h-291z" />
	<glyph glyph-name="M" unicode="M" horiz-adv-x="665" 
d="M100 0h-30l137 740h56l83 -721l330 721h56l-137 -740h-30l135 728l-334 -728h-47l-84 728z" />
	<glyph glyph-name="N" unicode="N" horiz-adv-x="587" 
d="M261 740l229 -724l134 724h30l-137 -740h-53l-230 724l-134 -724h-30l137 740h54z" />
	<glyph glyph-name="O" unicode="O" horiz-adv-x="614" 
d="M109 370v1c38 209 163 382 338 382s234 -173 196 -383c-31 -165 -137 -383 -338 -383c-175 0 -235 173 -196 383zM139 370l-1 -1c-40 -217 29 -355 172 -355s262 138 303 356c40 218 -28 356 -171 356s-263 -138 -303 -356z" />
	<glyph glyph-name="P" unicode="P" horiz-adv-x="450" 
d="M207 740h99c94 0 141 -8 183 -44c38 -32 57 -99 44 -166c-12 -67 -56 -134 -106 -166c-55 -36 -107 -44 -199 -44h-69l-59 -320h-30zM232 713l-68 -366h70c89 0 131 6 185 41c39 25 73 83 84 141s-3 117 -32 143c-37 33 -79 41 -169 41h-70z" />
	<glyph glyph-name="Q" unicode="Q" horiz-adv-x="620" 
d="M597 14l-5 -27h-12c-41 0 -76 12 -109 61c-34 -29 -102 -61 -166 -61c-175 0 -235 173 -196 383c38 210 163 383 338 383s234 -173 196 -383c-26 -138 -86 -248 -151 -302c24 -44 62 -58 105 -54zM442 726h-1c-142 0 -262 -138 -302 -356c-18 -95 -13 -164 -7 -184
c48 32 105 54 156 54s88 -20 117 -49c30 -29 52 -67 74 -103c39 32 107 135 134 282c40 218 -28 356 -171 356zM310 14h1c37 0 92 10 147 55c-19 33 -40 69 -68 97s-63 47 -109 47c-49 0 -99 -19 -144 -53c22 -80 71 -146 173 -146z" />
	<glyph glyph-name="R" unicode="R" horiz-adv-x="470" 
d="M70 0l137 740h110c113 0 143 -15 165 -31c48 -35 68 -103 53 -184c-9 -50 -28 -103 -67 -147c-40 -45 -98 -76 -167 -79l98 -299h-34l-105 326h18c65 0 108 15 149 48s66 86 78 147c10 56 7 124 -39 163c-36 31 -102 29 -154 29h-80l-132 -713h-30z" />
	<glyph glyph-name="S" unicode="S" horiz-adv-x="457" 
d="M72 187h27c-13 -137 74 -173 124 -173c92 0 182 64 203 176c25 134 -69 163 -133 183c-51 16 -166 47 -140 186c20 123 112 194 212 194c95 0 153 -52 144 -173h-27c1 55 -7 146 -122 146c-90 0 -158 -65 -176 -160c-22 -114 44 -142 141 -172c42 -13 160 -47 132 -198
c-23 -127 -127 -209 -235 -209c-84 0 -170 59 -150 200z" />
	<glyph glyph-name="T" unicode="T" horiz-adv-x="394" 
d="M182 0l132 713h-165l5 27h360l-5 -27h-165l-132 -713h-30z" />
	<glyph glyph-name="U" unicode="U" horiz-adv-x="519" 
d="M202 740h30l-104 -561c-8 -46 -11 -91 23 -128c27 -29 73 -37 111 -37c39 0 87 8 124 37c48 37 63 82 71 128l104 561h30l-103 -555c-13 -73 -36 -112 -77 -146c-39 -34 -91 -52 -153 -52c-63 0 -109 18 -136 52s-36 73 -23 146z" />
	<glyph glyph-name="V" unicode="V" horiz-adv-x="474" 
d="M219 0l-84 740h33l74 -711l338 711h33l-358 -740h-36z" />
	<glyph glyph-name="W" unicode="W" horiz-adv-x="754" 
d="M180 0l-41 740h28l40 -717l286 717h43l20 -717l306 717h27l-314 -740h-46l-19 717l-284 -717h-46z" />
	<glyph glyph-name="X" unicode="X" horiz-adv-x="407" 
d="M6 0l255 390l-99 350h32l86 -323l206 323h32l-229 -350l111 -390h-32l-98 363l-232 -363h-32z" />
	<glyph glyph-name="Y" unicode="Y" horiz-adv-x="419" 
d="M195 0l47 253l-107 487h32l96 -456l263 456h32l-286 -487l-47 -253h-30z" />
	<glyph glyph-name="Z" unicode="Z" horiz-adv-x="478" 
d="M573 722l-500 -695h390l-5 -27h-425l3 17l500 696h-384l5 27h419z" />
	<glyph glyph-name="bracketleft" unicode="[" horiz-adv-x="299" 
d="M219 -237l-5 -30h-166l186 1007h166l-5 -30h-136l-176 -947h136z" />
	<glyph glyph-name="backslash" unicode="\" horiz-adv-x="278" 
d="M279 -100l-195 840h33l195 -840h-33z" />
	<glyph glyph-name="bracketright" unicode="]" horiz-adv-x="299" 
d="M-13 -267l5 30h136l176 947h-136l5 30h166l-186 -1007h-166z" />
	<glyph glyph-name="asciicircum" unicode="^" 
d="M131 375l240 365h32l104 -365h-32l-94 332l-218 -332h-32z" />
	<glyph glyph-name="underscore" unicode="_" 
d="M477 -125h-500l9 50h500z" />
	<glyph glyph-name="quoteleft" unicode="&#x2018;" horiz-adv-x="277" 
d="M260 740l36 -154h-33l-36 154h33z" />
	<glyph glyph-name="a" unicode="a" horiz-adv-x="484" 
d="M512 530l-98 -530h-28c12 66 19 102 27 133c-41 -90 -112 -146 -190 -146c-113 0 -162 126 -134 277c28 154 124 279 237 279c69 0 122 -38 136 -146c5 41 12 79 22 133h28zM117 265v-1c-23 -122 6 -251 112 -251c53 0 99 32 134 80c36 48 61 111 72 172
c12 62 10 125 -8 172c-17 48 -51 80 -104 80c-106 0 -183 -129 -206 -252z" />
	<glyph glyph-name="b" unicode="b" horiz-adv-x="484" 
d="M70 0l137 740h28l-39 -210c-12 -66 -19 -102 -26 -133c40 90 112 146 190 146c113 0 161 -126 133 -277c-28 -154 -123 -279 -236 -279c-69 0 -122 38 -136 146c-6 -41 -13 -79 -23 -133h-28zM465 265v1c23 122 -6 251 -112 251s-183 -129 -206 -252s6 -252 112 -252
s183 129 206 252z" />
	<glyph glyph-name="c" unicode="c" horiz-adv-x="445" 
d="M426 167h26c-39 -109 -112 -180 -211 -180c-151 0 -175 153 -152 277c31 170 134 279 251 279c104 0 156 -71 143 -185h-26c8 131 -59 159 -120 159c-49 0 -97 -16 -140 -71c-42 -53 -66 -106 -80 -181c-28 -150 17 -252 128 -252c83 0 147 58 181 154z" />
	<glyph glyph-name="d" unicode="d" horiz-adv-x="484" 
d="M551 740l-137 -740h-28c12 66 19 102 27 133c-41 -90 -112 -146 -190 -146c-113 0 -162 126 -134 277c28 154 124 279 237 279c69 0 122 -38 136 -146c5 41 12 79 22 133l39 210h28zM117 266v-1c-22 -122 7 -251 113 -251c53 0 99 32 133 80c36 48 61 111 72 172
c12 62 10 125 -8 172c-17 48 -51 80 -104 80c-106 0 -183 -129 -206 -252z" />
	<glyph glyph-name="e" unicode="e" horiz-adv-x="465" 
d="M477 262h-360c-28 -147 17 -249 128 -249c83 0 147 58 177 130h26c-17 -42 -45 -81 -80 -110c-35 -28 -77 -46 -127 -46c-151 0 -175 151 -152 277c32 172 136 279 251 279c57 0 99 -26 122 -68c34 -60 28 -140 15 -213zM121 288h332c26 159 -32 229 -123 229
c-98 0 -182 -104 -209 -229z" />
	<glyph glyph-name="f" unicode="f" horiz-adv-x="233" 
d="M87 0l93 504h-67l5 26h67l10 51c31 171 160 172 167 172l-5 -26c-62 -5 -115 -42 -135 -147l-9 -50h107l-5 -26h-107l-93 -504h-28z" />
	<glyph glyph-name="g" unicode="g" horiz-adv-x="484" 
d="M512 530l-96 -517c-16 -88 -40 -139 -74 -174c-42 -44 -94 -65 -154 -65c-49 0 -167 29 -143 179h26c-6 -48 -1 -78 19 -106c26 -36 69 -47 107 -47c56 0 156 20 188 197c7 34 16 85 28 136c-41 -90 -112 -146 -190 -146c-113 0 -162 126 -134 277
c28 154 124 279 237 279c69 0 122 -38 136 -146c5 41 12 79 22 133h28zM117 265v-1c-23 -122 6 -251 112 -251c53 0 99 32 134 80c36 48 61 111 72 172c12 62 10 125 -8 172c-17 48 -51 80 -104 80c-106 0 -183 -129 -206 -252z" />
	<glyph glyph-name="h" unicode="h" horiz-adv-x="495" 
d="M70 0l137 740h28l-39 -210c-7 -38 -13 -73 -24 -116c49 98 130 129 197 129c48 0 87 -16 110 -49c26 -37 25 -89 10 -169l-60 -325h-28l59 317c13 74 17 120 -4 158c-20 37 -68 42 -91 42c-29 0 -82 -1 -138 -61c-38 -41 -60 -86 -80 -191l-49 -265h-28z" />
	<glyph glyph-name="i" unicode="i" horiz-adv-x="178" 
d="M195 650l17 90h28l-17 -90h-28zM75 0l98 530h28l-98 -530h-28z" />
	<glyph glyph-name="j" unicode="j" horiz-adv-x="173" 
d="M190 648l17 92h28l-17 -92h-28zM196 530l-97 -524c-15 -79 -35 -191 -131 -216l-15 -3l5 30c4 1 7 2 11 3c64 19 84 87 102 186l97 524h28z" />
	<glyph glyph-name="k" unicode="k" horiz-adv-x="365" 
d="M70 0l137 740h28l-82 -442l255 232h33l-255 -233l175 -297h-34l-174 296l-55 -296h-28z" />
	<glyph glyph-name="l" unicode="l" horiz-adv-x="178" 
d="M75 0l137 740h28l-137 -740h-28z" />
	<glyph glyph-name="m" unicode="m" horiz-adv-x="742" 
d="M70 0l98 530h28c-6 -32 -12 -64 -22 -102c53 101 132 115 173 115c42 0 73 -14 94 -44c14 -19 20 -50 16 -81c20 39 40 66 68 87c31 23 69 38 111 38c66 0 100 -37 111 -78c9 -33 -4 -104 -16 -166l-55 -299h-28l57 305c9 49 18 97 15 131c-4 52 -42 81 -91 81
c-38 0 -79 -10 -123 -62c-40 -48 -55 -112 -65 -162l-54 -293h-28l56 301c10 54 18 91 16 134c-3 52 -42 82 -90 82c-43 0 -82 -14 -122 -60c-41 -48 -57 -112 -67 -168l-54 -289h-28z" />
	<glyph glyph-name="n" unicode="n" horiz-adv-x="495" 
d="M70 0l98 530h28c-7 -38 -13 -73 -24 -116c50 98 138 129 197 129c95 0 150 -56 124 -197l-64 -346h-28l62 337c13 65 27 180 -98 180c-104 0 -185 -77 -214 -229l-53 -288h-28z" />
	<glyph glyph-name="o" unicode="o" horiz-adv-x="489" 
d="M89 265v1c28 150 113 277 257 277c143 0 180 -127 152 -278s-112 -278 -255 -278c-144 0 -182 127 -154 278zM117 265v-1c-28 -150 11 -251 130 -251c118 0 195 101 223 252s-11 252 -129 252c-119 0 -196 -101 -224 -252z" />
	<glyph glyph-name="p" unicode="p" horiz-adv-x="484" 
d="M31 -213l137 743h28c-10 -54 -17 -92 -26 -133c54 108 121 146 190 146c113 0 161 -125 133 -279c-28 -151 -123 -277 -236 -277c-78 0 -129 56 -136 146c-4 -31 -11 -67 -23 -133l-39 -213h-28zM465 265v1c23 122 -6 251 -112 251c-53 0 -99 -32 -134 -80
c-36 -47 -60 -110 -72 -172c-11 -61 -10 -124 8 -172c17 -48 51 -80 104 -80c106 0 183 129 206 252z" />
	<glyph glyph-name="q" unicode="q" horiz-adv-x="484" 
d="M512 530l-137 -743h-28l39 213c12 66 19 102 27 133c-41 -90 -112 -146 -190 -146c-113 0 -162 126 -134 277c28 154 124 279 237 279c69 0 122 -38 136 -146c5 41 12 79 22 133h28zM117 265v-1c-23 -122 6 -251 112 -251c53 0 99 32 134 80c36 48 61 111 72 172
c12 62 10 125 -8 172c-17 48 -51 80 -104 80c-106 0 -183 -129 -206 -252z" />
	<glyph glyph-name="r" unicode="r" horiz-adv-x="245" 
d="M70 0l98 530h28c-12 -66 -18 -100 -28 -138c53 127 139 149 173 151l-5 -26h-5c-43 0 -149 -65 -183 -249l-50 -268h-28z" />
	<glyph glyph-name="s" unicode="s" horiz-adv-x="379" 
d="M394 405h-26c16 85 -26 112 -83 112c-56 0 -106 -42 -117 -103c-13 -69 25 -101 88 -121c54 -17 121 -53 102 -158c-17 -90 -88 -148 -167 -148c-93 0 -137 58 -118 160h26c-17 -92 25 -134 94 -134s123 47 136 118c14 76 -15 113 -87 138c-68 23 -119 56 -102 144
c15 82 86 130 151 130c75 0 121 -43 103 -138z" />
	<glyph glyph-name="t" unicode="t" horiz-adv-x="234" 
d="M103 0l93 504h-85l5 26h85l39 210h28l-39 -210h85l-5 -26h-85l-93 -504h-28z" />
	<glyph glyph-name="u" unicode="u" horiz-adv-x="495" 
d="M523 530l-98 -530h-28c7 38 14 73 24 116c-50 -98 -137 -129 -196 -129c-95 0 -151 56 -125 197l64 346h28l-62 -337c-12 -65 -27 -180 98 -180c104 0 186 77 214 229l53 288h28z" />
	<glyph glyph-name="v" unicode="v" horiz-adv-x="360" 
d="M460 530l-263 -530h-34l-67 530h29l59 -507l249 507h27z" />
	<glyph glyph-name="w" unicode="w" horiz-adv-x="595" 
d="M157 0l-55 530h29l48 -497l187 421h32l29 -421l235 497h27l-252 -530h-32l-30 417l-186 -417h-32z" />
	<glyph glyph-name="x" unicode="x" horiz-adv-x="314" 
d="M5 0l187 266l-89 264h28l80 -237l168 237h28l-186 -264l88 -266h-28l-80 238l-168 -238h-28z" />
	<glyph glyph-name="y" unicode="y" horiz-adv-x="372" 
d="M56 -213l110 213l-61 530h29l52 -495l251 495h27l-381 -743h-27z" />
	<glyph glyph-name="z" unicode="z" horiz-adv-x="370" 
d="M15 0l4 24l382 480h-277l5 26h309l-5 -27l-381 -477h308l-5 -26h-340z" />
	<glyph glyph-name="braceleft" unicode="{" horiz-adv-x="299" 
d="M391 740l-5 -26h-36c-53 0 -66 -21 -83 -113l-33 -181c-12 -65 -52 -156 -116 -187c46 -22 63 -96 48 -180l-34 -180c-18 -99 -10 -114 41 -114h36l-4 -26h-46c-63 0 -75 39 -60 124l34 179c17 91 13 151 -47 183l5 28c50 11 97 86 116 188l34 184c15 84 41 121 104 121
h46z" />
	<glyph glyph-name="bar" unicode="|" horiz-adv-x="358" 
d="M233 871h32v-1161h-32v1161z" />
	<glyph glyph-name="braceright" unicode="}" horiz-adv-x="299" 
d="M177 714l5 26h46c63 0 75 -39 59 -124l-33 -179c-17 -91 -13 -151 47 -183l-5 -28c-50 -11 -97 -86 -116 -188l-34 -184c-16 -84 -41 -121 -104 -121h-46l4 26h36c53 0 66 21 83 113l34 181c12 65 52 156 115 187c-45 22 -63 96 -47 180l33 180c19 99 10 114 -41 114h-36
z" />
	<glyph glyph-name="asciitilde" unicode="~" 
d="M487 290l13 -19c-29 -44 -68 -71 -102 -71s-64 18 -95 36c-32 18 -63 37 -93 37c-31 2 -65 -8 -104 -62l-14 18c33 49 80 76 123 72c36 0 68 -20 99 -37c32 -18 60 -36 88 -36c35 0 62 33 85 62z" />
	<glyph glyph-name="exclamdown" unicode="&#xa1;" horiz-adv-x="231" 
d="M183 449l15 81h30l-15 -81h-30zM61 -209l107 574h30l-107 -574h-30z" />
	<glyph glyph-name="cent" unicode="&#xa2;" 
d="M273 -13h-30l16 91c-147 11 -156 165 -134 283c22 121 88 271 240 287l17 92h30l-17 -92c112 -11 136 -102 124 -206h-29c10 80 -5 178 -115 178c-119 0 -192 -109 -220 -256c-26 -143 -2 -258 125 -258c103 0 166 84 186 172h29c-21 -112 -118 -200 -206 -200z" />
	<glyph glyph-name="sterling" unicode="&#xa3;" 
d="M430 393l-5 -27h-203c37 -66 71 -105 58 -179c-12 -63 -41 -106 -86 -160h86c54 0 100 15 134 44c35 29 58 72 68 128c4 24 4 38 3 50h31c0 -14 1 -22 -4 -49c-12 -67 -40 -117 -80 -150c-41 -34 -94 -50 -157 -50h-225l5 27h106c41 46 76 94 88 158
c11 56 -19 104 -62 181h-94l5 27h76c-16 25 -26 68 -12 142c21 114 123 218 239 218c85 0 157 -64 160 -183h-31c-5 91 -59 156 -139 156c-94 -2 -175 -81 -197 -183c-13 -61 -15 -105 14 -150h222z" />
	<glyph glyph-name="fraction" unicode="&#x2044;" horiz-adv-x="81" 
d="M-139 0l466 740h30l-467 -740h-29z" />
	<glyph glyph-name="yen" unicode="&#xa5;" 
d="M516 409l-5 -26h-162l-17 -24l-16 -84h175l-5 -26h-175l-46 -249h-30l46 249h-175l5 26h175l16 84l-8 24h-163l5 26h150l-111 331h32l115 -350l244 350h32l-232 -331h150z" />
	<glyph glyph-name="florin" unicode="&#x192;" 
d="M406 502h141l-5 -27h-145l-186 -498c-15 -40 -33 -88 -65 -125s-79 -64 -153 -64c-20 0 -40 2 -59 8l11 28c16 -4 29 -9 53 -9c122 0 155 90 180 156l188 504h-144l5 27h148c22 61 58 168 119 211c36 25 80 40 118 40c13 0 18 -1 26 -3l-11 -26c-7 1 -11 2 -23 2
c-40 -3 -71 -14 -97 -36c-54 -44 -80 -130 -101 -188z" />
	<glyph glyph-name="section" unicode="&#xa7;" 
d="M504 600h-26c9 95 -29 123 -85 123c-73 0 -119 -45 -130 -102c-9 -50 -7 -96 47 -134l93 -64c28 -19 79 -55 63 -143c-10 -53 -42 -105 -98 -141c27 -26 41 -71 29 -132c-14 -77 -78 -146 -164 -146c-119 0 -132 99 -120 168h26c-7 -54 1 -138 100 -138
c66 0 115 49 129 115c11 48 4 101 -57 141l-100 66c-60 41 -69 89 -58 147c9 50 46 106 103 138c-21 29 -32 70 -22 122c13 68 76 133 162 133c82 0 121 -46 108 -153zM437 278v1c13 71 -22 98 -65 129l-99 71c-45 -19 -83 -72 -91 -117s-8 -90 58 -134l111 -73
c46 28 76 73 86 123z" />
	<glyph glyph-name="currency" unicode="&#xa4;" 
d="M484 105l-61 76c-46 -32 -98 -51 -149 -51c-52 0 -97 20 -129 51l-92 -76l-16 21l92 77c-29 40 -40 88 -30 140c9 53 38 101 79 138l-63 77l25 21l63 -77c47 35 99 54 150 54c52 0 98 -19 130 -53l90 76l18 -21l-90 -77c26 -37 38 -84 28 -138c-10 -53 -39 -101 -82 -140
l62 -77zM129 343l-1 -1c-18 -100 55 -182 152 -182c99 0 200 82 219 183c19 103 -53 183 -152 183c-97 0 -199 -79 -218 -183z" />
	<glyph glyph-name="quotesingle" unicode="'" horiz-adv-x="222" 
d="M214 475h-30l49 265h30z" />
	<glyph glyph-name="quotedblleft" unicode="&#x201c;" horiz-adv-x="370" 
d="M262 740l36 -154h-33l-36 154h33zM351 740l36 -154h-33l-36 154h33z" />
	<glyph glyph-name="guillemotleft" unicode="&#xab;" horiz-adv-x="351" 
d="M97 276l150 194h35l-150 -194l79 -191h-35zM208 276l150 194h35l-150 -194l79 -191h-35z" />
	<glyph glyph-name="guilsinglleft" unicode="&#x2039;" horiz-adv-x="248" 
d="M101 275l150 194h35l-150 -194l79 -191h-35z" />
	<glyph glyph-name="guilsinglright" unicode="&#x203a;" horiz-adv-x="248" 
d="M171 469l78 -194l-149 -191h-35l149 191l-78 194h35z" />
	<glyph glyph-name="fi" unicode="&#xfb01;" horiz-adv-x="355" 
d="M350 504h-142l-93 -504h-28l93 504h-67l5 26h67l10 51c31 171 160 172 167 172l-5 -26c-62 -5 -115 -42 -135 -147l-9 -50h170l-98 -530h-28zM405 649h-28l17 91h28z" />
	<glyph glyph-name="fl" unicode="&#xfb02;" horiz-adv-x="355" 
d="M350 504h-142l-93 -504h-28l93 504h-67l5 26h67l10 51c31 171 160 172 167 172l-5 -26c-62 -5 -115 -42 -135 -147l-9 -50h142l39 210h28l-137 -740h-28z" />
	<glyph glyph-name="endash" unicode="&#x2013;" 
d="M89 291h430l-5 -29h-430z" />
	<glyph glyph-name="dagger" unicode="&#x2020;" 
d="M401 740l-40 -214h190l-5 -30h-190l-111 -596h-30l111 596h-188l5 30h188l40 214h30z" />
	<glyph glyph-name="daggerdbl" unicode="&#x2021;" 
d="M403 740l-34 -185h188l-6 -30h-188l-76 -410h188l-5 -30h-188l-35 -185h-30l35 185h-190l5 30h190l76 410h-190l6 30h190l34 185h30z" />
	<glyph glyph-name="periodcentered" unicode="&#xb7;" horiz-adv-x="245" 
d="M193 296l-15 -81h-30l15 81h30z" />
	<glyph glyph-name="paragraph" unicode="&#xb6;" 
d="M216 -126l87 469c-124 0 -216 60 -191 197c26 139 144 200 271 200h246l-5 -28h-64l-155 -838h-30l155 836h-129l-155 -836h-30z" />
	<glyph glyph-name="bullet" unicode="&#x2022;" horiz-adv-x="375" 
d="M273 458h1c48 0 79 -38 70 -85s-54 -85 -103 -85c-50 0 -81 38 -72 85s54 85 104 85z" />
	<glyph glyph-name="quotesinglbase" unicode="&#x201a;" horiz-adv-x="277" 
d="M77 -72l92 154h33l-92 -154h-33z" />
	<glyph glyph-name="quotedblbase" unicode="&#x201e;" horiz-adv-x="370" 
d="M79 -72l92 154h33l-92 -154h-33zM168 -72l92 154h33l-92 -154h-33z" />
	<glyph glyph-name="quotedblright" unicode="&#x201d;" horiz-adv-x="370" 
d="M201 586l92 154h33l-92 -154h-33zM290 586l92 154h33l-92 -154h-33z" />
	<glyph glyph-name="guillemotright" unicode="&#xbb;" horiz-adv-x="351" 
d="M278 469l78 -194l-149 -191h-35l149 191l-78 194h35zM167 469l78 -194l-149 -191h-35l149 191l-78 194h35z" />
	<glyph glyph-name="ellipsis" unicode="&#x2026;" horiz-adv-x="1000" 
d="M152 0l15 82h30l-15 -82h-30zM485 0l15 82h30l-15 -82h-30zM818 0l15 82h30l-15 -82h-30z" />
	<glyph glyph-name="perthousand" unicode="&#x2030;" horiz-adv-x="1094" 
d="M131 590l1 1c17 93 99 162 193 162s150 -69 132 -163c-17 -94 -99 -163 -193 -163s-150 69 -133 163zM159 590v-1c-14 -79 30 -137 110 -137s146 58 160 138c15 80 -29 138 -109 138s-146 -58 -161 -138zM399 150v1c17 93 99 162 193 162s150 -69 133 -163
c-18 -94 -99 -163 -193 -163s-151 69 -133 163zM427 150v-1c-15 -79 29 -137 109 -137s146 58 161 138s-30 138 -110 138s-145 -58 -160 -138zM774 150v1c17 93 99 162 193 162s150 -69 133 -163c-18 -94 -99 -163 -193 -163s-151 69 -133 163zM802 150v-1
c-15 -79 29 -137 109 -137s146 58 161 138s-30 138 -110 138s-145 -58 -160 -138zM740 740l-594 -740h-32l594 740h32z" />
	<glyph glyph-name="questiondown" unicode="&#xbf;" horiz-adv-x="464" 
d="M296 449l15 81h29l-15 -81h-29zM280 364h29c-14 -65 -26 -129 -122 -212c-56 -54 -104 -90 -120 -166c-17 -96 33 -177 125 -177c70 0 157 35 192 148c3 10 6 20 8 30h30c-2 -9 -5 -18 -7 -27c-44 -139 -160 -182 -226 -182c-99 0 -174 85 -151 210c15 80 81 138 142 192
c82 74 92 139 100 184z" />
	<glyph glyph-name="grave" unicode="`" 
d="M287 746l194 -128l-18 -23l-194 128z" />
	<glyph glyph-name="acute" unicode="&#xb4;" 
d="M250 618l240 128l10 -23l-242 -128z" />
	<glyph glyph-name="circumflex" unicode="&#x2c6;" 
d="M397 720l136 -108h-45l-109 86l-142 -86h-45l177 108h28z" />
	<glyph glyph-name="tilde" unicode="&#x2dc;" 
d="M529 686l15 -15c-18 -18 -49 -40 -97 -40c-32 0 -57 4 -81 13c-24 10 -47 17 -74 17c-38 0 -68 -21 -82 -34l-17 16c16 20 60 44 96 44c38 0 63 -5 88 -14c24 -9 47 -16 77 -16c29 0 52 11 75 29z" />
	<glyph glyph-name="macron" unicode="&#xaf;" 
d="M553 675l-5 -30h-356l5 30h356z" />
	<glyph glyph-name="breve" unicode="&#x2d8;" 
d="M199 701h38c12 -25 48 -53 133 -53c95 0 136 34 154 53h38c-24 -30 -74 -82 -197 -82c-58 0 -141 14 -166 82z" />
	<glyph glyph-name="dotaccent" unicode="&#x2d9;" horiz-adv-x="245" 
d="M271 719l-21 -116h-31l21 116h31z" />
	<glyph glyph-name="dieresis" unicode="&#xa8;" horiz-adv-x="250" 
d="M212 719l-21 -116h-29l21 116h29zM333 719l-21 -116h-29l21 116h29z" />
	<glyph glyph-name="ring" unicode="&#x2da;" horiz-adv-x="250" 
d="M265 762h1c50 0 84 -41 74 -91c-9 -50 -58 -91 -109 -91c-50 0 -83 41 -74 91c10 51 59 91 108 91zM260 736h-1c-34 0 -67 -29 -73 -64c-7 -34 16 -63 51 -63c36 0 69 29 76 63c6 35 -17 64 -53 64z" />
	<glyph glyph-name="cedilla" unicode="&#xb8;" horiz-adv-x="179" 
d="M102 0l-35 -57c3 1 8 3 14 3c47 0 65 -37 59 -71c-7 -36 -38 -76 -87 -76c-13 0 -64 3 -63 62h27c3 -35 34 -35 41 -35c22 0 48 16 55 49c4 27 -14 45 -38 45c-17 0 -32 -8 -45 -25l-22 5l65 100h29z" />
	<glyph glyph-name="hungarumlaut" unicode="&#x2dd;" 
d="M203 613l209 128l12 -22l-210 -129zM339 613l209 128l12 -22l-210 -129z" />
	<glyph glyph-name="ogonek" unicode="&#x2db;" horiz-adv-x="179" 
d="M97 0h29c-68 -44 -98 -63 -106 -106s21 -71 60 -71c21 0 39 6 59 13l-6 -29c-12 -6 -26 -13 -58 -13c-63 0 -97 39 -86 97c12 67 77 96 108 109z" />
	<glyph glyph-name="caron" unicode="&#x2c7;" 
d="M217 710h43l106 -85l137 85h43l-169 -105h-30z" />
	<glyph glyph-name="emdash" unicode="&#x2014;" horiz-adv-x="1000" 
d="M89 291h930l-5 -29h-930z" />
	<glyph glyph-name="AE" unicode="&#xc6;" horiz-adv-x="780" 
d="M-6 0l511 740h362l-5 -27h-310l-60 -327h310l-5 -27h-310l-62 -332h310l-5 -27h-340l47 255h-237l-176 -255h-30zM219 282h223l82 439z" />
	<glyph glyph-name="ordfeminine" unicode="&#xaa;" horiz-adv-x="300" 
d="M403 745l-59 -318h-26c7 39 11 61 18 87c-28 -61 -73 -95 -124 -95c-73 0 -106 76 -90 166c18 93 79 168 152 168c45 0 79 -23 89 -95c4 32 8 54 14 87h26zM149 586l-1 -1c-10 -55 -3 -140 69 -140c50 0 86 44 105 90c8 19 13 38 16 55c3 16 4 33 3 50
c-4 45 -25 87 -75 87c-62 0 -106 -77 -117 -141z" />
	<glyph glyph-name="Lslash" unicode="&#x141;" horiz-adv-x="370" 
d="M41 280l6 35l92 60l68 365h30l-63 -343l156 101l-6 -35l-157 -104l-62 -332h261l-5 -27h-291l63 340z" />
	<glyph glyph-name="Oslash" unicode="&#xd8;" horiz-adv-x="614" 
d="M623 645l116 120h33l-140 -144c25 -68 28 -155 11 -251c-31 -165 -137 -383 -338 -383c-86 0 -146 42 -177 111l-119 -123h-33l142 147c-24 66 -27 153 -9 248c38 210 163 383 338 383c86 0 144 -42 176 -108zM141 146l458 473c-28 70 -83 107 -157 107
c-143 0 -263 -138 -303 -356c-17 -89 -15 -166 2 -224zM609 597l-457 -475c27 -69 82 -108 158 -108c143 0 262 138 303 356c16 90 14 169 -4 227z" />
	<glyph glyph-name="OE" unicode="&#x152;" horiz-adv-x="934" 
d="M706 713l-60 -327h310l-5 -27h-310l-62 -332h310l-5 -27h-340l17 91c7 34 14 67 22 101c-62 -118 -151 -205 -278 -205c-175 0 -235 173 -196 383c38 210 163 383 338 383c118 0 183 -79 202 -205c5 34 10 67 15 101l17 91h340l-5 -27h-310zM139 370l-1 -1
c-40 -217 29 -355 172 -355s262 138 303 356c40 218 -28 356 -171 356s-263 -138 -303 -356z" />
	<glyph glyph-name="ordmasculine" unicode="&#xba;" horiz-adv-x="300" 
d="M126 586v1c16 89 68 166 164 166s118 -77 102 -167c-17 -91 -68 -167 -164 -167s-119 76 -102 167zM152 586l-1 -1c-16 -86 9 -140 81 -140s117 54 134 141c16 90 -5 142 -81 141c-76 1 -117 -51 -133 -141z" />
	<glyph glyph-name="ae" unicode="&#xe6;" horiz-adv-x="811" 
d="M823 262h-360c-28 -147 17 -249 128 -249c83 0 147 58 177 130h26c-42 -99 -119 -156 -207 -156c-91 0 -136 55 -150 150l-23 -137h-28l27 137c-41 -94 -112 -150 -190 -150c-113 0 -162 126 -134 277c28 154 124 279 237 279c69 0 122 -38 135 -150l23 137h28l-27 -137
c54 104 126 150 201 150c57 0 99 -26 122 -68c34 -60 28 -140 15 -213zM117 265v-1c-23 -122 6 -251 112 -251c119 0 188 154 206 252c12 62 10 125 -8 172c-17 48 -51 80 -104 80c-106 0 -183 -129 -206 -252zM467 288h332c26 159 -32 229 -123 229c-49 0 -95 -26 -132 -68
c-35 -41 -63 -98 -77 -161z" />
	<glyph glyph-name="dotlessi" unicode="&#x131;" horiz-adv-x="178" 
d="M75 0l98 530h28l-98 -530h-28z" />
	<glyph glyph-name="lslash" unicode="&#x142;" horiz-adv-x="178" 
d="M146 385l-93 -70l7 35l93 70l59 320h28l-54 -292l93 70l-6 -35l-93 -70l-77 -413h-28z" />
	<glyph glyph-name="oslash" unicode="&#xf8;" horiz-adv-x="489" 
d="M593 555h30l-128 -120c15 -47 15 -106 3 -170c-28 -151 -112 -278 -255 -278c-73 0 -119 33 -141 86l-108 -98h-30l129 119c-16 46 -16 106 -4 171c28 151 113 278 257 278c73 0 119 -33 141 -85zM116 116l348 320c-19 51 -59 81 -123 81c-119 0 -196 -101 -224 -252
c-11 -59 -11 -110 -1 -149zM471 413l-348 -320c19 -51 60 -80 124 -80c118 0 195 101 223 252c11 58 12 109 1 148z" />
	<glyph glyph-name="oe" unicode="&#x153;" horiz-adv-x="846" 
d="M858 262h-360c-28 -147 17 -249 128 -249c83 0 147 58 177 130h26c-17 -42 -45 -81 -80 -110c-35 -28 -77 -46 -127 -46c-107 0 -151 75 -158 165c-42 -97 -117 -165 -221 -165c-144 0 -182 127 -154 278s113 278 257 278c103 0 154 -68 160 -164c49 104 129 164 215 164
c57 0 99 -26 122 -68c34 -60 28 -140 15 -213zM117 265v-1c-28 -150 11 -251 130 -251c118 0 195 101 223 252s-11 252 -129 252c-119 0 -196 -101 -224 -252zM502 288h332c26 159 -32 229 -123 229c-98 0 -182 -104 -209 -229z" />
	<glyph glyph-name="germandbls" unicode="&#xdf;" horiz-adv-x="475" 
d="M70 0l88 473c21 114 36 160 67 201c34 51 87 79 151 79c89 0 134 -80 114 -187c-18 -96 -62 -156 -125 -190c82 -20 112 -107 95 -196c-21 -114 -94 -193 -202 -193c-74 0 -143 43 -131 185l-29 -172h-28zM186 473l-53 -282h27c-22 -143 45 -178 100 -178
c96 0 154 69 172 167c5 26 13 90 -26 138c-22 22 -41 39 -110 39h-22l5 26h21c83 0 141 72 162 183c18 95 -21 161 -93 161c-53 0 -96 -29 -121 -63c-31 -41 -43 -89 -62 -191z" />
	<glyph glyph-name="onesuperior" unicode="&#xb9;" horiz-adv-x="250" 
d="M284 740l-82 -444h-28l78 419h-75l4 25h103z" />
	<glyph glyph-name="logicalnot" unicode="&#xac;" 
d="M92 361h450l-41 -222h-28l36 194h-422z" />
	<glyph glyph-name="mu" unicode="&#xb5;" 
d="M37 -181l132 711h28l-59 -317c-13 -74 -17 -120 4 -158c20 -37 68 -42 91 -42c29 0 83 1 139 61c37 41 60 86 79 191l49 265h28l-98 -530h-28c7 38 16 73 24 116c-49 -98 -129 -129 -196 -129c-58 0 -115 25 -121 84c-6 -37 -9 -61 -12 -84l-32 -168h-28z" />
	<glyph glyph-name="trademark" unicode="&#x2122;" horiz-adv-x="910" 
d="M420 296l82 444h37l134 -402l283 402h36l-82 -444h-27l75 405l-285 -405h-16l-135 404l-75 -404h-27zM210 296l78 420h-124l4 24h276l-4 -24h-125l-78 -420h-27z" />
	<glyph glyph-name="Eth" unicode="&#xd0;" horiz-adv-x="565" 
d="M141 384l66 356h145c93 0 187 -15 231 -106c26 -55 34 -139 11 -264c-62 -330 -229 -370 -379 -370h-145l66 357h-95l5 27h95zM232 713l-61 -329h194l-5 -27h-194l-61 -330h105c205 0 306 88 354 343c22 122 19 205 -14 260c-35 59 -106 83 -213 83h-105z" />
	<glyph glyph-name="onehalf" unicode="&#xbd;" horiz-adv-x="700" 
d="M294 740l-82 -444h-28l78 419h-75l4 25h103zM599 740l-467 -740h-29l466 740h30zM642 25l-5 -25h-251l4 23c69 65 138 129 207 193c44 42 62 71 69 108c9 46 -3 103 -73 103c-56 0 -102 -46 -117 -123h-28c7 38 22 68 39 90c32 41 76 58 113 58c70 0 109 -50 93 -132
c-8 -44 -38 -80 -81 -122c-62 -57 -124 -115 -185 -173h215z" />
	<glyph glyph-name="plusminus" unicode="&#xb1;" 
d="M293 309l37 197h28l-37 -197h211l-5 -28h-211l-36 -197h-28l36 197h-211l5 28h211zM25 0l5 28h450l-5 -28h-450z" />
	<glyph glyph-name="Thorn" unicode="&#xde;" horiz-adv-x="465" 
d="M70 0l137 740h30l-30 -160h69c94 0 141 -8 183 -44c38 -32 57 -99 45 -166c-13 -67 -56 -134 -106 -166c-56 -36 -107 -44 -199 -44h-69l-30 -160h-30zM202 553l-67 -366h70c89 0 131 6 184 41c39 25 74 83 84 141c11 58 -3 117 -32 143c-37 33 -79 41 -169 41h-70z" />
	<glyph glyph-name="onequarter" unicode="&#xbc;" horiz-adv-x="650" 
d="M599 740l-467 -740h-29l466 740h30zM597 402l-229 -292h174zM294 740l-82 -444h-28l78 419h-75l4 25h103zM632 444l-62 -334h42l-4 -25h-42l-16 -85h-28l16 85h-208l4 21l265 338h33z" />
	<glyph glyph-name="divide" unicode="&#xf7;" 
d="M358 500l-15 -81h-30l15 81h30zM69 236l5 28h450l-5 -28h-450zM280 81l-15 -81h-30l15 81h30z" />
	<glyph glyph-name="brokenbar" unicode="&#xa6;" horiz-adv-x="358" 
d="M233 783h31v-405h-31v405zM233 203h31v-405h-31v405z" />
	<glyph glyph-name="degree" unicode="&#xb0;" horiz-adv-x="400" 
d="M448 566v-1c-15 -79 -90 -142 -170 -142s-131 63 -116 143s89 143 169 143s132 -63 117 -143zM190 566v-1c-12 -63 29 -114 94 -114s124 51 136 115s-29 115 -94 115s-124 -51 -136 -115z" />
	<glyph glyph-name="thorn" unicode="&#xfe;" horiz-adv-x="484" 
d="M31 -213l176 953h28l-39 -210c-10 -54 -20 -92 -26 -128c54 103 121 141 190 141c113 0 161 -125 133 -279c-28 -151 -123 -277 -236 -277c-78 0 -129 56 -138 141c-5 -26 -9 -62 -21 -128l-39 -213h-28zM465 265v1c23 122 -6 251 -112 251c-53 0 -99 -32 -134 -80
c-36 -47 -60 -110 -72 -172c-11 -61 -10 -124 8 -172c17 -48 51 -80 104 -80c106 0 183 129 206 252z" />
	<glyph glyph-name="threequarters" unicode="&#xbe;" horiz-adv-x="750" 
d="M697 402l-229 -292h174zM696 740l-467 -740h-29l466 740h30zM732 444l-62 -334h42l-4 -25h-42l-16 -85h-28l16 85h-208l4 21l265 338h33zM114 430h28c-15 -88 38 -117 79 -117c63 0 110 48 122 112c8 46 -8 112 -87 112h-25l4 25h25c78 0 94 66 97 80c8 43 -12 80 -55 81
s-79 -33 -89 -81h-28c17 77 79 106 122 106c50 0 90 -42 78 -105c-11 -58 -52 -83 -70 -92c42 -20 67 -68 56 -124c-15 -81 -80 -139 -155 -139c-41 0 -80 20 -96 61c-9 21 -12 48 -6 81z" />
	<glyph glyph-name="twosuperior" unicode="&#xb2;" horiz-adv-x="351" 
d="M350 321l-4 -25h-251l4 23c69 65 138 129 207 193c44 42 62 71 69 108c8 46 -3 103 -73 103c-56 0 -103 -46 -117 -123h-28c7 38 22 68 39 90c31 41 76 58 113 58c70 0 108 -50 93 -132c-8 -44 -38 -80 -81 -122c-62 -57 -124 -115 -186 -173h215z" />
	<glyph glyph-name="registered" unicode="&#xae;" horiz-adv-x="800" 
d="M539 751h1c217 0 349 -170 310 -381c-41 -217 -241 -381 -452 -381c-214 0 -352 162 -311 381c38 209 231 381 452 381zM534 725h-1c-205 0 -383 -162 -418 -355c-37 -199 88 -355 288 -355c197 0 381 154 419 355c36 194 -83 355 -288 355zM344 589h185
c26 0 153 0 131 -119c-10 -56 -50 -90 -106 -109c59 -16 64 -54 58 -101c-10 -89 -12 -98 -6 -114h-29c-5 11 -4 18 7 100c7 62 8 101 -115 101h-142l-37 -201h-28zM519 563h-152l-35 -190h140c33 4 142 2 160 97c17 93 -80 93 -113 93z" />
	<glyph glyph-name="minus" unicode="&#x2212;" 
d="M69 236l5 28h450l-5 -28h-450z" />
	<glyph glyph-name="eth" unicode="&#xf0;" horiz-adv-x="490" 
d="M354 651l-170 -61l5 25l149 53c-30 26 -57 43 -88 58l28 14c32 -14 58 -32 89 -61l170 61l-4 -25l-149 -53c51 -51 89 -113 113 -194c17 -54 16 -124 1 -203c-28 -151 -112 -278 -255 -278c-144 0 -182 127 -154 278s113 278 257 278c55 0 97 -14 125 -78
c-8 35 -19 53 -39 85c-24 38 -50 79 -78 101zM117 265v-1c-28 -150 11 -251 130 -251c118 0 195 101 223 252c21 115 8 252 -129 252c-119 0 -196 -101 -224 -252z" />
	<glyph glyph-name="multiply" unicode="&#xd7;" 
d="M45 0l-16 21l247 230l-163 226l24 22l163 -228l247 228l16 -22l-245 -226l161 -230l-24 -21l-162 231z" />
	<glyph glyph-name="threesuperior" unicode="&#xb3;" horiz-adv-x="350" 
d="M116 430h28c-15 -88 38 -117 79 -117c63 0 110 48 122 112c8 46 -8 112 -87 112h-25l4 25h25c78 0 94 66 97 80c8 43 -12 80 -55 81s-79 -33 -89 -81h-28c17 77 79 106 122 106c50 0 90 -42 78 -105c-11 -58 -52 -83 -70 -92c42 -20 67 -68 56 -124
c-15 -81 -80 -139 -155 -139c-41 0 -80 20 -96 61c-9 21 -12 48 -6 81z" />
	<glyph glyph-name="copyright" unicode="&#xa9;" horiz-adv-x="800" 
d="M539 751h1c217 0 349 -170 310 -381c-41 -217 -241 -381 -452 -381c-214 0 -352 162 -311 381c38 209 231 381 452 381zM534 725h-1c-205 0 -383 -162 -418 -355c-37 -199 88 -355 288 -355c197 0 381 154 419 355c36 194 -83 355 -288 355zM684 451h-28
c-2 91 -75 124 -143 124c-104 0 -202 -75 -226 -205c-28 -150 65 -204 149 -204c32 0 161 11 206 162h28c-31 -120 -138 -188 -240 -188c-103 0 -201 70 -172 229c26 137 130 232 260 232c100 0 171 -62 166 -150z" />
	<glyph glyph-name="Aacute" unicode="&#xc1;" horiz-adv-x="460" 
d="M153 264l-126 -264h-31l353 740h36l79 -740h-31l-28 264h-252zM400 291l-38 422l-194 -422h232zM270 808l240 128l10 -23l-242 -128z" />
	<glyph glyph-name="Acircumflex" unicode="&#xc2;" horiz-adv-x="460" 
d="M153 264l-126 -264h-31l353 740h36l79 -740h-31l-28 264h-252zM400 291l-38 422l-194 -422h232zM413 910l136 -108h-45l-109 86l-142 -86h-45l177 108h28z" />
	<glyph glyph-name="Adieresis" unicode="&#xc4;" horiz-adv-x="460" 
d="M153 264l-126 -264h-31l353 740h36l79 -740h-31l-28 264h-252zM400 291l-38 422l-194 -422h232zM352 909l-21 -116h-29l21 116h29zM473 909l-21 -116h-29l21 116h29z" />
	<glyph glyph-name="Agrave" unicode="&#xc0;" horiz-adv-x="460" 
d="M153 264l-126 -264h-31l353 740h36l79 -740h-31l-28 264h-252zM400 291l-38 422l-194 -422h232zM297 936l194 -128l-18 -23l-194 128z" />
	<glyph glyph-name="Aring" unicode="&#xc5;" horiz-adv-x="460" 
d="M153 264l-126 -264h-31l353 740h36l79 -740h-31l-28 264h-252zM400 291l-38 422l-194 -422h232zM404 942h1c50 0 83 -41 74 -91c-10 -50 -58 -91 -109 -91c-50 0 -84 41 -74 91c9 51 59 91 108 91zM399 916h-1c-34 0 -68 -29 -74 -64c-6 -34 16 -63 51 -63
c36 0 70 29 76 63c6 35 -16 64 -52 64z" />
	<glyph glyph-name="Atilde" unicode="&#xc3;" horiz-adv-x="460" 
d="M153 264l-126 -264h-31l353 740h36l79 -740h-31l-28 264h-252zM400 291l-38 422l-194 -422h232zM543 871l16 -15c-19 -18 -50 -40 -98 -40c-32 0 -57 4 -80 13c-25 10 -48 17 -75 17c-38 0 -68 -21 -82 -34l-17 16c16 20 61 44 97 44c38 0 63 -5 87 -14s47 -16 77 -16
c29 0 52 11 75 29z" />
	<glyph glyph-name="Ccedilla" unicode="&#xc7;" horiz-adv-x="514" 
d="M295 -12l-28 -45c3 1 8 3 14 3c47 0 65 -37 59 -71c-7 -36 -38 -76 -87 -76c-13 0 -64 3 -63 62h27c3 -35 34 -35 41 -35c22 0 48 16 55 49c4 27 -14 45 -38 45c-17 0 -32 -8 -45 -25l-22 5l58 88c-142 9 -208 146 -164 382c40 220 149 383 317 383
c143 0 188 -130 167 -249h-27c14 73 3 222 -145 222c-162 0 -246 -161 -284 -367c-43 -229 28 -345 156 -345c133 0 199 108 220 200h27c-20 -104 -107 -220 -238 -226z" />
	<glyph glyph-name="Eacute" unicode="&#xc9;" horiz-adv-x="460" 
d="M70 0l137 740h340l-5 -27h-310l-60 -327h310l-5 -27h-310l-62 -332h310l-5 -27h-340zM266 813l240 128l10 -23l-242 -128z" />
	<glyph glyph-name="Ecircumflex" unicode="&#xca;" horiz-adv-x="460" 
d="M70 0l137 740h340l-5 -27h-310l-60 -327h310l-5 -27h-310l-62 -332h310l-5 -27h-340zM414 915l136 -108h-45l-109 86l-142 -86h-45l177 108h28z" />
	<glyph glyph-name="Edieresis" unicode="&#xcb;" horiz-adv-x="460" 
d="M70 0l137 740h340l-5 -27h-310l-60 -327h310l-5 -27h-310l-62 -332h310l-5 -27h-340zM353 914l-21 -116h-29l21 116h29zM474 914l-21 -116h-29l21 116h29z" />
	<glyph glyph-name="Egrave" unicode="&#xc8;" horiz-adv-x="460" 
d="M70 0l137 740h340l-5 -27h-310l-60 -327h310l-5 -27h-310l-62 -332h310l-5 -27h-340zM303 941l194 -128l-18 -23l-194 128z" />
	<glyph glyph-name="Iacute" unicode="&#xcd;" horiz-adv-x="170" 
d="M70 0l137 740h30l-137 -740h-30zM125 808l240 128l10 -23l-242 -128z" />
	<glyph glyph-name="Icircumflex" unicode="&#xce;" horiz-adv-x="170" 
d="M70 0l137 740h30l-137 -740h-30zM268 910l136 -108h-45l-109 86l-142 -86h-45l177 108h28z" />
	<glyph glyph-name="Idieresis" unicode="&#xcf;" horiz-adv-x="170" 
d="M70 0l137 740h30l-137 -740h-30zM208 914l-21 -116h-29l21 116h29zM329 914l-21 -116h-29l21 116h29z" />
	<glyph glyph-name="Igrave" unicode="&#xcc;" horiz-adv-x="170" 
d="M70 0l137 740h30l-137 -740h-30zM152 936l194 -128l-18 -23l-194 128z" />
	<glyph glyph-name="Ntilde" unicode="&#xd1;" horiz-adv-x="587" 
d="M261 740l229 -724l134 724h30l-137 -740h-53l-230 724l-134 -724h-30l137 740h54zM607 871l16 -15c-19 -18 -50 -40 -98 -40c-32 0 -57 4 -80 13c-25 10 -48 17 -75 17c-38 0 -68 -21 -82 -34l-17 16c16 20 61 44 97 44c38 0 63 -5 87 -14s47 -16 77 -16
c29 0 52 11 75 29z" />
	<glyph glyph-name="Oacute" unicode="&#xd3;" horiz-adv-x="614" 
d="M109 370v1c38 209 163 382 338 382s234 -173 196 -383c-31 -165 -137 -383 -338 -383c-175 0 -235 173 -196 383zM139 370l-1 -1c-40 -217 29 -355 172 -355s262 138 303 356c40 218 -28 356 -171 356s-263 -138 -303 -356zM342 808l240 128l10 -23l-242 -128z" />
	<glyph glyph-name="Ocircumflex" unicode="&#xd4;" horiz-adv-x="614" 
d="M109 370v1c38 209 163 382 338 382s234 -173 196 -383c-31 -165 -137 -383 -338 -383c-175 0 -235 173 -196 383zM139 370l-1 -1c-40 -217 29 -355 172 -355s262 138 303 356c40 218 -28 356 -171 356s-263 -138 -303 -356zM490 910l136 -108h-45l-109 86l-142 -86h-45
l177 108h28z" />
	<glyph glyph-name="Odieresis" unicode="&#xd6;" horiz-adv-x="614" 
d="M109 370v1c38 209 163 382 338 382s234 -173 196 -383c-31 -165 -137 -383 -338 -383c-175 0 -235 173 -196 383zM139 370l-1 -1c-40 -217 29 -355 172 -355s262 138 303 356c40 218 -28 356 -171 356s-263 -138 -303 -356zM430 914l-21 -116h-29l21 116h29zM551 914
l-21 -116h-29l21 116h29z" />
	<glyph glyph-name="Ograve" unicode="&#xd2;" horiz-adv-x="614" 
d="M109 370v1c38 209 163 382 338 382s234 -173 196 -383c-31 -165 -137 -383 -338 -383c-175 0 -235 173 -196 383zM139 370l-1 -1c-40 -217 29 -355 172 -355s262 138 303 356c40 218 -28 356 -171 356s-263 -138 -303 -356zM379 936l194 -128l-18 -23l-194 128z" />
	<glyph glyph-name="Otilde" unicode="&#xd5;" horiz-adv-x="614" 
d="M109 370v1c38 209 163 382 338 382s234 -173 196 -383c-31 -165 -137 -383 -338 -383c-175 0 -235 173 -196 383zM139 370l-1 -1c-40 -217 29 -355 172 -355s262 138 303 356c40 218 -28 356 -171 356s-263 -138 -303 -356zM621 876l16 -15c-19 -18 -50 -40 -98 -40
c-32 0 -57 4 -80 13c-25 10 -48 17 -75 17c-38 0 -68 -21 -82 -34l-17 16c16 20 61 44 97 44c38 0 63 -5 87 -14s47 -16 77 -16c29 0 52 11 75 29z" />
	<glyph glyph-name="Scaron" unicode="&#x160;" horiz-adv-x="457" 
d="M72 187h27c-13 -137 74 -173 124 -173c92 0 182 64 203 176c25 134 -69 163 -133 183c-51 16 -166 47 -140 186c20 123 112 194 212 194c95 0 153 -52 144 -173h-27c1 55 -7 146 -122 146c-90 0 -158 -65 -176 -160c-22 -114 44 -142 141 -172c42 -13 160 -47 132 -198
c-23 -127 -127 -209 -235 -209c-84 0 -170 59 -150 200zM231 900h43l106 -85l137 85h43l-169 -105h-30z" />
	<glyph glyph-name="Uacute" unicode="&#xda;" horiz-adv-x="519" 
d="M202 740h30l-104 -561c-8 -46 -11 -91 23 -128c27 -29 73 -37 111 -37c39 0 87 8 124 37c48 37 63 82 71 128l104 561h30l-103 -555c-13 -73 -36 -112 -77 -146c-39 -34 -91 -52 -153 -52c-63 0 -109 18 -136 52s-36 73 -23 146zM300 808l240 128l10 -23l-242 -128z" />
	<glyph glyph-name="Ucircumflex" unicode="&#xdb;" horiz-adv-x="519" 
d="M202 740h30l-104 -561c-8 -46 -11 -91 23 -128c27 -29 73 -37 111 -37c39 0 87 8 124 37c48 37 63 82 71 128l104 561h30l-103 -555c-13 -73 -36 -112 -77 -146c-39 -34 -91 -52 -153 -52c-63 0 -109 18 -136 52s-36 73 -23 146zM445 920l135 -108h-45l-109 86l-142 -86
h-45l178 108h28z" />
	<glyph glyph-name="Udieresis" unicode="&#xdc;" horiz-adv-x="519" 
d="M202 740h30l-104 -561c-8 -46 -11 -91 23 -128c27 -29 73 -37 111 -37c39 0 87 8 124 37c48 37 63 82 71 128l104 561h30l-103 -555c-13 -73 -36 -112 -77 -146c-39 -34 -91 -52 -153 -52c-63 0 -109 18 -136 52s-36 73 -23 146zM383 914l-21 -116h-29l21 116h29z
M504 914l-21 -116h-29l21 116h29z" />
	<glyph glyph-name="Ugrave" unicode="&#xd9;" horiz-adv-x="519" 
d="M202 740h30l-104 -561c-8 -46 -11 -91 23 -128c27 -29 73 -37 111 -37c39 0 87 8 124 37c48 37 63 82 71 128l104 561h30l-103 -555c-13 -73 -36 -112 -77 -146c-39 -34 -91 -52 -153 -52c-63 0 -109 18 -136 52s-36 73 -23 146zM296 936l194 -128l-18 -23l-194 128z" />
	<glyph glyph-name="Yacute" unicode="&#xdd;" horiz-adv-x="419" 
d="M195 0l47 253l-107 487h32l96 -456l263 456h32l-286 -487l-47 -253h-30zM274 808l240 128l10 -23l-242 -128z" />
	<glyph glyph-name="Ydieresis" unicode="&#x178;" horiz-adv-x="419" 
d="M195 0l47 253l-107 487h32l96 -456l263 456h32l-286 -487l-47 -253h-30zM333 914l-21 -116h-29l21 116h29zM454 914l-21 -116h-29l21 116h29z" />
	<glyph glyph-name="Zcaron" unicode="&#x17d;" horiz-adv-x="478" 
d="M573 722l-500 -695h390l-5 -27h-425l3 17l500 696h-384l5 27h419zM229 890h43l106 -85l137 85h43l-169 -105h-30z" />
	<glyph glyph-name="aacute" unicode="&#xe1;" horiz-adv-x="484" 
d="M512 530l-98 -530h-28c12 66 19 102 27 133c-41 -90 -112 -146 -190 -146c-113 0 -162 126 -134 277c28 154 124 279 237 279c69 0 122 -38 136 -146c5 41 12 79 22 133h28zM117 265v-1c-23 -122 6 -251 112 -251c53 0 99 32 134 80c36 48 61 111 72 172
c12 62 10 125 -8 172c-17 48 -51 80 -104 80c-106 0 -183 -129 -206 -252zM262 618l240 128l10 -23l-242 -128z" />
	<glyph glyph-name="acircumflex" unicode="&#xe2;" horiz-adv-x="484" 
d="M512 530l-98 -530h-28c12 66 19 102 27 133c-41 -90 -112 -146 -190 -146c-113 0 -162 126 -134 277c28 154 124 279 237 279c69 0 122 -38 136 -146c5 41 12 79 22 133h28zM117 265v-1c-23 -122 6 -251 112 -251c53 0 99 32 134 80c36 48 61 111 72 172
c12 62 10 125 -8 172c-17 48 -51 80 -104 80c-106 0 -183 -129 -206 -252zM379 720l136 -108h-45l-109 86l-142 -86h-45l177 108h28z" />
	<glyph glyph-name="adieresis" unicode="&#xe4;" horiz-adv-x="484" 
d="M512 530l-98 -530h-28c12 66 19 102 27 133c-41 -90 -112 -146 -190 -146c-113 0 -162 126 -134 277c28 154 124 279 237 279c69 0 122 -38 136 -146c5 41 12 79 22 133h28zM117 265v-1c-23 -122 6 -251 112 -251c53 0 99 32 134 80c36 48 61 111 72 172
c12 62 10 125 -8 172c-17 48 -51 80 -104 80c-106 0 -183 -129 -206 -252zM319 719l-21 -116h-29l21 116h29zM440 719l-21 -116h-29l21 116h29z" />
	<glyph glyph-name="agrave" unicode="&#xe0;" horiz-adv-x="484" 
d="M512 530l-98 -530h-28c12 66 19 102 27 133c-41 -90 -112 -146 -190 -146c-113 0 -162 126 -134 277c28 154 124 279 237 279c69 0 122 -38 136 -146c5 41 12 79 22 133h28zM117 265v-1c-23 -122 6 -251 112 -251c53 0 99 32 134 80c36 48 61 111 72 172
c12 62 10 125 -8 172c-17 48 -51 80 -104 80c-106 0 -183 -129 -206 -252zM269 746l194 -128l-18 -23l-194 128z" />
	<glyph glyph-name="aring" unicode="&#xe5;" horiz-adv-x="484" 
d="M512 530l-98 -530h-28c12 66 19 102 27 133c-41 -90 -112 -146 -190 -146c-113 0 -162 126 -134 277c28 154 124 279 237 279c69 0 122 -38 136 -146c5 41 12 79 22 133h28zM117 265v-1c-23 -122 6 -251 112 -251c53 0 99 32 134 80c36 48 61 111 72 172
c12 62 10 125 -8 172c-17 48 -51 80 -104 80c-106 0 -183 -129 -206 -252zM372 762h1c50 0 84 -41 74 -91c-9 -50 -58 -91 -109 -91c-50 0 -83 41 -74 91c10 51 59 91 108 91zM367 736h-1c-34 0 -67 -29 -73 -64c-7 -34 16 -63 51 -63c36 0 69 29 76 63c6 35 -17 64 -53 64z
" />
	<glyph glyph-name="atilde" unicode="&#xe3;" horiz-adv-x="484" 
d="M512 530l-98 -530h-28c12 66 19 102 27 133c-41 -90 -112 -146 -190 -146c-113 0 -162 126 -134 277c28 154 124 279 237 279c69 0 122 -38 136 -146c5 41 12 79 22 133h28zM117 265v-1c-23 -122 6 -251 112 -251c53 0 99 32 134 80c36 48 61 111 72 172
c12 62 10 125 -8 172c-17 48 -51 80 -104 80c-106 0 -183 -129 -206 -252zM521 686l15 -15c-18 -18 -49 -40 -97 -40c-32 0 -57 4 -81 13c-24 10 -47 17 -74 17c-38 0 -68 -21 -82 -34l-17 16c16 20 60 44 96 44c38 0 63 -5 88 -14c24 -9 47 -16 77 -16c29 0 52 11 75 29z
" />
	<glyph glyph-name="ccedilla" unicode="&#xe7;" horiz-adv-x="422" 
d="M246 -11l-29 -46c3 1 8 3 14 3c47 0 65 -37 59 -71c-7 -36 -38 -76 -87 -76c-13 0 -64 3 -63 62h27c3 -35 34 -35 41 -35c22 0 48 16 55 49c4 27 -14 45 -38 45c-17 0 -32 -8 -45 -25l-22 5l57 88c-145 4 -168 154 -145 276c31 170 134 279 251 279
c104 0 156 -71 143 -185h-26c8 131 -59 159 -120 159c-49 0 -97 -16 -140 -71c-42 -53 -66 -106 -80 -181c-28 -150 17 -252 128 -252c83 0 147 58 181 154h26c-35 -99 -100 -167 -187 -178z" />
	<glyph glyph-name="eacute" unicode="&#xe9;" horiz-adv-x="465" 
d="M477 262h-360c-28 -147 17 -249 128 -249c83 0 147 58 177 130h26c-17 -42 -45 -81 -80 -110c-35 -28 -77 -46 -127 -46c-151 0 -175 151 -152 277c32 172 136 279 251 279c57 0 99 -26 122 -68c34 -60 28 -140 15 -213zM121 288h332c26 159 -32 229 -123 229
c-98 0 -182 -104 -209 -229zM233 618l240 128l10 -23l-242 -128z" />
	<glyph glyph-name="ecircumflex" unicode="&#xea;" horiz-adv-x="465" 
d="M477 262h-360c-28 -147 17 -249 128 -249c83 0 147 58 177 130h26c-17 -42 -45 -81 -80 -110c-35 -28 -77 -46 -127 -46c-151 0 -175 151 -152 277c32 172 136 279 251 279c57 0 99 -26 122 -68c34 -60 28 -140 15 -213zM121 288h332c26 159 -32 229 -123 229
c-98 0 -182 -104 -209 -229zM380 720l136 -108h-45l-109 86l-142 -86h-45l177 108h28z" />
	<glyph glyph-name="edieresis" unicode="&#xeb;" horiz-adv-x="465" 
d="M477 262h-360c-28 -147 17 -249 128 -249c83 0 147 58 177 130h26c-17 -42 -45 -81 -80 -110c-35 -28 -77 -46 -127 -46c-151 0 -175 151 -152 277c32 172 136 279 251 279c57 0 99 -26 122 -68c34 -60 28 -140 15 -213zM121 288h332c26 159 -32 229 -123 229
c-98 0 -182 -104 -209 -229zM320 719l-21 -116h-29l21 116h29zM441 719l-21 -116h-29l21 116h29z" />
	<glyph glyph-name="egrave" unicode="&#xe8;" horiz-adv-x="465" 
d="M477 262h-360c-28 -147 17 -249 128 -249c83 0 147 58 177 130h26c-17 -42 -45 -81 -80 -110c-35 -28 -77 -46 -127 -46c-151 0 -175 151 -152 277c32 172 136 279 251 279c57 0 99 -26 122 -68c34 -60 28 -140 15 -213zM121 288h332c26 159 -32 229 -123 229
c-98 0 -182 -104 -209 -229zM270 746l194 -128l-18 -23l-194 128z" />
	<glyph glyph-name="iacute" unicode="&#xed;" horiz-adv-x="178" 
d="M75 0l98 530h28l-98 -530h-28zM99 618l240 128l10 -23l-242 -128z" />
	<glyph glyph-name="icircumflex" unicode="&#xee;" horiz-adv-x="178" 
d="M75 0l98 530h28l-98 -530h-28zM236 720l136 -108h-45l-109 86l-142 -86h-45l177 108h28z" />
	<glyph glyph-name="idieresis" unicode="&#xef;" horiz-adv-x="178" 
d="M75 0l98 530h28l-98 -530h-28zM176 719l-21 -116h-29l21 116h29zM297 719l-21 -116h-29l21 116h29z" />
	<glyph glyph-name="igrave" unicode="&#xec;" horiz-adv-x="178" 
d="M75 0l98 530h28l-98 -530h-28zM116 746l194 -128l-18 -23l-194 128z" />
	<glyph glyph-name="ntilde" unicode="&#xf1;" horiz-adv-x="495" 
d="M70 0l98 530h28c-7 -38 -13 -73 -24 -116c50 98 138 129 197 129c95 0 150 -56 124 -197l-64 -346h-28l62 337c13 65 27 180 -98 180c-104 0 -185 -77 -214 -229l-53 -288h-28zM527 686l15 -15c-18 -18 -49 -40 -97 -40c-32 0 -57 4 -81 13c-24 10 -47 17 -74 17
c-38 0 -68 -21 -82 -34l-17 16c16 20 60 44 96 44c38 0 63 -5 88 -14c24 -9 47 -16 77 -16c29 0 52 11 75 29z" />
	<glyph glyph-name="oacute" unicode="&#xf3;" horiz-adv-x="489" 
d="M89 265v1c28 150 113 277 257 277c143 0 180 -127 152 -278s-112 -278 -255 -278c-144 0 -182 127 -154 278zM117 265v-1c-28 -150 11 -251 130 -251c118 0 195 101 223 252s-11 252 -129 252c-119 0 -196 -101 -224 -252zM245 618l240 128l10 -23l-242 -128z" />
	<glyph glyph-name="ocircumflex" unicode="&#xf4;" horiz-adv-x="489" 
d="M89 265v1c28 150 113 277 257 277c143 0 180 -127 152 -278s-112 -278 -255 -278c-144 0 -182 127 -154 278zM117 265v-1c-28 -150 11 -251 130 -251c118 0 195 101 223 252s-11 252 -129 252c-119 0 -196 -101 -224 -252zM392 720l136 -108h-45l-109 86l-142 -86h-45
l177 108h28z" />
	<glyph glyph-name="odieresis" unicode="&#xf6;" horiz-adv-x="489" 
d="M89 265v1c28 150 113 277 257 277c143 0 180 -127 152 -278s-112 -278 -255 -278c-144 0 -182 127 -154 278zM117 265v-1c-28 -150 11 -251 130 -251c118 0 195 101 223 252s-11 252 -129 252c-119 0 -196 -101 -224 -252zM332 719l-21 -116h-29l21 116h29zM453 719
l-21 -116h-29l21 116h29z" />
	<glyph glyph-name="ograve" unicode="&#xf2;" horiz-adv-x="489" 
d="M89 265v1c28 150 113 277 257 277c143 0 180 -127 152 -278s-112 -278 -255 -278c-144 0 -182 127 -154 278zM117 265v-1c-28 -150 11 -251 130 -251c118 0 195 101 223 252s-11 252 -129 252c-119 0 -196 -101 -224 -252zM282 746l194 -128l-18 -23l-194 128z" />
	<glyph glyph-name="otilde" unicode="&#xf5;" horiz-adv-x="489" 
d="M89 265v1c28 150 113 277 257 277c143 0 180 -127 152 -278s-112 -278 -255 -278c-144 0 -182 127 -154 278zM117 265v-1c-28 -150 11 -251 130 -251c118 0 195 101 223 252s-11 252 -129 252c-119 0 -196 -101 -224 -252zM524 686l15 -15c-18 -18 -49 -40 -97 -40
c-32 0 -57 4 -81 13c-24 10 -47 17 -74 17c-38 0 -68 -21 -82 -34l-17 16c16 20 60 44 96 44c38 0 63 -5 88 -14c24 -9 47 -16 77 -16c29 0 52 11 75 29z" />
	<glyph glyph-name="scaron" unicode="&#x161;" horiz-adv-x="379" 
d="M394 405h-26c16 85 -26 112 -83 112c-56 0 -106 -42 -117 -103c-13 -69 25 -101 88 -121c54 -17 121 -53 102 -158c-17 -90 -88 -148 -167 -148c-93 0 -137 58 -118 160h26c-17 -92 25 -134 94 -134s123 47 136 118c14 76 -15 113 -87 138c-68 23 -119 56 -102 144
c15 82 86 130 151 130c75 0 121 -43 103 -138zM157 710h43l106 -85l137 85h43l-169 -105h-30z" />
	<glyph glyph-name="uacute" unicode="&#xfa;" horiz-adv-x="495" 
d="M523 530l-98 -530h-28c7 38 14 73 24 116c-50 -98 -137 -129 -196 -129c-95 0 -151 56 -125 197l64 346h28l-62 -337c-12 -65 -27 -180 98 -180c104 0 186 77 214 229l53 288h28zM268 618l240 128l10 -23l-242 -128z" />
	<glyph glyph-name="ucircumflex" unicode="&#xfb;" horiz-adv-x="495" 
d="M523 530l-98 -530h-28c7 38 14 73 24 116c-50 -98 -137 -129 -196 -129c-95 0 -151 56 -125 197l64 346h28l-62 -337c-12 -65 -27 -180 98 -180c104 0 186 77 214 229l53 288h28zM395 720l136 -108h-45l-109 86l-142 -86h-45l177 108h28z" />
	<glyph glyph-name="udieresis" unicode="&#xfc;" horiz-adv-x="495" 
d="M523 530l-98 -530h-28c7 38 14 73 24 116c-50 -98 -137 -129 -196 -129c-95 0 -151 56 -125 197l64 346h28l-62 -337c-12 -65 -27 -180 98 -180c104 0 186 77 214 229l53 288h28zM335 719l-21 -116h-29l21 116h29zM456 719l-21 -116h-29l21 116h29z" />
	<glyph glyph-name="ugrave" unicode="&#xf9;" horiz-adv-x="495" 
d="M523 530l-98 -530h-28c7 38 14 73 24 116c-50 -98 -137 -129 -196 -129c-95 0 -151 56 -125 197l64 346h28l-62 -337c-12 -65 -27 -180 98 -180c104 0 186 77 214 229l53 288h28zM254 746l194 -128l-18 -23l-194 128z" />
	<glyph glyph-name="yacute" unicode="&#xfd;" horiz-adv-x="372" 
d="M56 -213l110 213l-61 530h29l52 -495l251 495h27l-381 -743h-27zM206 618l240 128l10 -23l-242 -128z" />
	<glyph glyph-name="ydieresis" unicode="&#xff;" horiz-adv-x="372" 
d="M56 -213l110 213l-61 530h29l52 -495l251 495h27l-381 -743h-27zM273 719l-21 -116h-29l21 116h29zM394 719l-21 -116h-29l21 116h29z" />
	<glyph glyph-name="zcaron" unicode="&#x17e;" horiz-adv-x="370" 
d="M15 0l4 24l382 480h-277l5 26h309l-5 -27l-381 -477h308l-5 -26h-340zM147 710h43l106 -85l137 85h43l-169 -105h-30z" />
	<glyph glyph-name="Omega" unicode="&#x2126;" horiz-adv-x="657" 
d="M205 30v4c-59 74 -96 200 -66 358c42 230 186 358 332 358c148 0 233 -141 193 -356c-31 -166 -123 -295 -202 -360v-4h146l-6 -30h-202l4 23c96 70 196 208 225 366c26 141 -12 331 -166 331c-141 0 -258 -146 -292 -330c-28 -150 22 -302 89 -367l-4 -23h-202l6 30h145
z" />
	<glyph glyph-name="pi" unicode="&#x3c0;" horiz-adv-x="497" 
d="M563 515h-79l-67 -365c-17 -91 -16 -127 -13 -150h-32c-5 12 -5 53 12 143l68 372h-192c-34 -160 -115 -423 -167 -515h-34c59 106 132 349 167 515c-64 0 -91 -6 -109 -13l-5 21c23 13 55 22 120 22h342z" />
	<glyph glyph-name="Euro" unicode="&#x20ac;" 
d="M429 326l-11 -26h-252c-4 -28 -5 -53 -5 -77c0 -146 52 -209 137 -209c71 0 134 45 174 145h27c-39 -102 -111 -172 -206 -172c-106 0 -160 81 -160 234c0 24 1 51 4 79h-67l11 26h59c2 14 5 29 7 44c3 17 7 34 10 50h-66l11 26h61c46 181 133 307 265 307
c103 0 141 -87 141 -171c0 -10 1 -17 1 -23h-27c-2 77 -18 167 -120 167c-118 0 -189 -117 -230 -280h281l-11 -26h-276c-5 -20 -9 -40 -13 -61c-2 -11 -3 -22 -5 -33h260z" />
	<glyph glyph-name="estimated" unicode="&#x212e;" horiz-adv-x="1062" 
d="M1026 359h-689c-3 0 -6 -1 -6 -4v-209c0 -9 4 -17 9 -24c67 -69 159 -113 261 -113c110 0 207 50 274 127h62c-76 -89 -200 -148 -337 -148c-235 0 -425 171 -425 382s190 382 425 382c236 0 426 -171 426 -382v-11zM870 386v210c0 9 -4 18 -11 25
c-66 66 -157 109 -258 109s-193 -44 -259 -112c-7 -7 -11 -16 -11 -26v-206c0 -2 3 -6 6 -6h528c4 0 5 4 5 6z" />
	<glyph glyph-name="partialdiff" unicode="&#x2202;" horiz-adv-x="480" 
d="M231 745l-13 24c36 29 86 55 150 55c108 0 197 -111 145 -394c-48 -260 -158 -438 -306 -438c-109 0 -147 99 -122 235c30 162 146 269 246 269c88 0 130 -65 141 -101h1c4 13 7 33 10 47c41 223 -25 352 -121 352c-57 0 -100 -24 -131 -49zM213 21h2
c100 0 194 136 242 319c-8 58 -51 126 -130 126c-87 0 -183 -102 -207 -234c-24 -131 13 -211 93 -211z" />
	<glyph glyph-name="product" unicode="&#x220f;" horiz-adv-x="754" 
d="M728 707h-102v-809h-32v809h-298v-809h-32v809h-102v31h566v-31z" />
	<glyph glyph-name="summation" unicode="&#x2211;" horiz-adv-x="641" 
d="M618 -102h-459v26l266 391l-252 400v23h428v-30h-380v-4l243 -386l-259 -383v-4h413v-33z" />
	<glyph glyph-name="uni2219" unicode="&#x2219;" horiz-adv-x="245" 
d="M193 296l-15 -81h-30l15 81h30z" />
	<glyph glyph-name="radical" unicode="&#x221a;" horiz-adv-x="659" 
d="M650 872l-204 -1041h-36l-159 516l-69 -25l-10 25l104 38l135 -426c6 -23 12 -54 15 -72h1c2 17 7 43 11 64l182 921h30z" />
	<glyph glyph-name="infinity" unicode="&#x221e;" horiz-adv-x="816" 
d="M768 310v-1c0 -84 -65 -141 -139 -141c-63 0 -109 45 -178 116c-51 -54 -104 -116 -183 -116c-76 0 -136 63 -136 138c0 80 58 141 142 141c73 0 130 -62 181 -119c56 62 105 119 182 119c82 0 131 -57 131 -137zM273 197h1c67 0 118 67 160 109c-45 52 -96 114 -169 114
c-65 0 -101 -56 -100 -115c0 -61 42 -108 108 -108zM633 420h-1c-68 0 -125 -78 -161 -112c67 -68 108 -111 162 -111c65 0 103 54 103 110c0 75 -45 113 -103 113z" />
	<glyph glyph-name="integral" unicode="&#x222b;" horiz-adv-x="447" 
d="M436 879l-12 -24c-7 5 -22 10 -33 10c-15 0 -36 -8 -49 -25c-26 -33 -36 -83 -36 -197c0 -160 11 -394 11 -552c0 -124 -22 -182 -46 -215c-17 -22 -42 -36 -72 -36c-19 0 -41 9 -50 16l10 26c8 -4 25 -12 42 -12c18 0 35 11 47 29c19 27 36 78 36 195
c0 158 -11 396 -11 553c0 109 12 172 46 211c20 23 45 36 72 36c16 0 36 -8 45 -15z" />
	<glyph glyph-name="approxequal" unicode="&#x2248;" horiz-adv-x="606" 
d="M541 426l20 -16c-21 -46 -56 -87 -116 -87c-38 0 -65 17 -111 42c-31 17 -61 33 -92 33c-44 0 -72 -32 -96 -74l-22 14c28 57 72 88 124 88c46 0 83 -29 109 -42c32 -17 56 -33 92 -33c39 0 65 24 92 75zM541 277l20 -15c-22 -47 -56 -87 -115 -87c-39 0 -65 16 -112 42
c-31 16 -60 32 -91 32c-46 0 -74 -33 -97 -74l-22 14c28 58 72 89 124 89c46 0 83 -28 109 -42c32 -18 57 -33 93 -33c39 0 64 24 91 74z" />
	<glyph glyph-name="notequal" unicode="&#x2260;" horiz-adv-x="623" 
d="M461 499l-46 -98h158v-29h-171l-67 -144h238v-29h-251l-52 -111l-23 13l45 98h-147v29h161l67 144h-228v29h241l51 111z" />
	<glyph glyph-name="lessequal" unicode="&#x2264;" horiz-adv-x="637" 
d="M584 118l-421 220v28l421 220v-37l-384 -195v-2l384 -197v-37zM586 44h-428v31h428v-31z" />
	<glyph glyph-name="greaterequal" unicode="&#x2265;" horiz-adv-x="637" 
d="M163 586l421 -220v-28l-421 -220v37l384 195v3l-384 196v37zM586 44h-427v31h427v-31z" />
	<glyph glyph-name="lozenge" unicode="&#x25ca;" horiz-adv-x="659" 
d="M605 369l-191 -404h-29l-191 404l191 405h29zM571 368l-154 323c-8 16 -14 37 -18 49h-2c-3 -13 -8 -30 -17 -49l-153 -321l155 -323c10 -21 15 -38 17 -48h3c3 10 9 32 16 48z" />
	<glyph glyph-name="uni02C9" unicode="&#x2c9;" 
d="M553 675l-5 -30h-356l5 30h356z" />
	<glyph glyph-name="uni00AD" unicode="&#xad;" horiz-adv-x="220" 
d="M69 291h190l-5 -29h-190z" />
	<glyph glyph-name="uni03A9" unicode="&#x3a9;" horiz-adv-x="657" 
d="M205 30v4c-59 74 -96 200 -66 358c42 230 186 358 332 358c148 0 233 -141 193 -356c-31 -166 -123 -295 -202 -360v-4h146l-6 -30h-202l4 23c96 70 196 208 225 366c26 141 -12 331 -166 331c-141 0 -258 -146 -292 -330c-28 -150 22 -302 89 -367l-4 -23h-202l6 30h145
z" />
	<glyph glyph-name="uni00A0" unicode="&#xa0;" horiz-adv-x="220" 
 />
	<glyph glyph-name="afii61289" unicode="&#x2113;" horiz-adv-x="429" 
d="M401 116l21 -14c-44 -62 -102 -109 -175 -109c-104 0 -125 95 -102 218l3 17c-20 -17 -42 -34 -64 -52l-13 24c30 24 60 48 85 72l56 301c37 196 113 241 169 241c67 0 91 -63 75 -153c-26 -139 -130 -272 -271 -400l-5 -30c-29 -158 14 -210 75 -210c64 0 118 52 146 95
zM245 585l-51 -280c112 109 207 223 231 352c14 77 0 126 -54 126c-41 0 -99 -55 -126 -198z" />
	<glyph glyph-name="uni03BC" unicode="&#x3bc;" 
d="M37 -181l132 711h28l-59 -317c-13 -74 -17 -120 4 -158c20 -37 68 -42 91 -42c29 0 83 1 139 61c37 41 60 86 79 191l49 265h28l-98 -530h-28c7 38 16 73 24 116c-49 -98 -129 -129 -196 -129c-58 0 -115 25 -121 84c-6 -37 -9 -61 -12 -84l-32 -168h-28z" />
	<glyph glyph-name="uni2215" unicode="&#x2215;" horiz-adv-x="81" 
d="M-139 0l466 740h30l-467 -740h-29z" />
	<glyph glyph-name="a.superior" horiz-adv-x="300" 
d="M403 745l-59 -318h-26c7 39 11 61 18 87c-28 -61 -73 -95 -124 -95c-73 0 -106 76 -90 166c18 93 79 168 152 168c45 0 79 -23 89 -95c4 32 8 54 14 87h26zM149 586l-1 -1c-10 -55 -3 -140 69 -140c50 0 86 44 105 90c8 19 13 38 16 55c3 16 4 33 3 50
c-4 45 -25 87 -75 87c-62 0 -106 -77 -117 -141z" />
	<glyph glyph-name="o.superior" horiz-adv-x="300" 
d="M126 586v1c16 89 68 166 164 166s118 -77 102 -167c-17 -91 -68 -167 -164 -167s-119 76 -102 167zM152 586l-1 -1c-16 -86 9 -140 81 -140s117 54 134 141c16 90 -5 142 -81 141c-76 1 -117 -51 -133 -141z" />
	<glyph glyph-name="one.superior" horiz-adv-x="250" 
d="M284 740l-82 -444h-28l78 419h-75l4 25h103z" />
	<glyph glyph-name="two.superior" horiz-adv-x="351" 
d="M350 321l-4 -25h-251l4 23c69 65 138 129 207 193c44 42 62 71 69 108c8 46 -3 103 -73 103c-56 0 -103 -46 -117 -123h-28c7 38 22 68 39 90c31 41 76 58 113 58c70 0 108 -50 93 -132c-8 -44 -38 -80 -81 -122c-62 -57 -124 -115 -186 -173h215z" />
	<glyph glyph-name="three.superior" horiz-adv-x="350" 
d="M116 430h28c-15 -88 38 -117 79 -117c63 0 110 48 122 112c8 46 -8 112 -87 112h-25l4 25h25c78 0 94 66 97 80c8 43 -12 80 -55 81s-79 -33 -89 -81h-28c17 77 79 106 122 106c50 0 90 -42 78 -105c-11 -58 -52 -83 -70 -92c42 -20 67 -68 56 -124
c-15 -81 -80 -139 -155 -139c-41 0 -80 20 -96 61c-9 21 -12 48 -6 81z" />
	<glyph glyph-name="uni2206" unicode="&#x2206;" horiz-adv-x="580" 
d="M34 0l6 31l375 729h33l106 -729l-6 -31h-514zM71 29h445l-67 486c-6 57 -25 137 -28 191h-4c-18 -47 -63 -123 -90 -178z" />
	<glyph glyph-name="uni2010" unicode="&#x2010;" horiz-adv-x="220" 
d="M69 291h190l-5 -29h-190z" />
	</font>
</defs>
</svg>
